<?xml version="1.0" encoding="utf-8"?>
<!-- Generator: Adobe Illustrator 26.0.1, SVG Export Plug-In . SVG Version: 6.00 Build 0)  -->
<svg version="1.1" id="Capa_1" xmlns="http://www.w3.org/2000/svg" xmlns:xlink="http://www.w3.org/1999/xlink" x="0px" y="0px"
	 viewBox="0 0 1479.1 566.6" style="enable-background:new 0 0 1479.1 566.6;" xml:space="preserve">
<style type="text/css">
	.st0{fill:#7A7163;}
	.st1{fill:#AFAAA1;}
	.st2{fill:#3C3832;}
	.st3{fill:none;stroke:#4D4D4D;stroke-miterlimit:10;}
	.st4{fill:none;stroke:#4D4D4D;stroke-miterlimit:10;stroke-dasharray:5.9962,5.9962;}
	.st5{fill:none;stroke:#4D4D4D;stroke-miterlimit:10;stroke-dasharray:5.9488,5.9488;}
	.st6{fill:none;stroke:#4D4D4D;stroke-miterlimit:10;stroke-dasharray:6.0374,6.0374;}
	.st7{fill:#63605B;}
	.st8{fill:#8A8884;}
	.st9{fill:#A74F33;}
	.st10{fill:#494541;}
	.st11{fill:none;stroke:#4D4D4D;stroke-miterlimit:10;stroke-dasharray:6;}
</style>
<path class="st0" d="M301.8,430.5c0,0,1.2-22.2,10.3-28.3c9.1-6.1,14.2-12.7,14.2-12.7v-7.6l5.6-4.6v-11.1l6.1-7.6
	c0,0,15.2-18.7,16.7-18.7s8.6-2.5,8.6-2.5l6.6-11.1h10.6c0,0-1,4.6,0,4.6s6.6-4.6,6.6-4.6l2.5,4.6l8.6-4.6l3.5-11.1l5.1-6.6
	l7.6-10.6l5.1-4.1l5.1,3l5.1-3h6.1l4.8-3.5l5.8-3l5.1-8.1l6.1-2.5l3.5,4.6l2-4.6h4.6l8.1-5.6l4.6,2.5L487,254l2.5,13.7l6.1-4.1
	l4.6,2.5l11.1-0.5l6.6-3.5l5.1-5.1l6.6-3v7.6l6.1-4.1l5.6-3.5l6.5,5.1l6.6,5.6l-8.1,5.6l2.5,5.1l5.6,2l6.6-1.5l2.5-8.1l3.4,6.1
	l4.7,2v4.6l13.2,3.5l5.1-1.5l5.1,4.1l4.6,3l7.1-1.5l6.1-2.5l5.1,4.6l3,6.1l5.1,3.5l8.6,6.6l5.1,6.1c0,0,14.2-1,15.7,2
	s10.6,8.1,10.6,8.1l8.1,3.5l11.1,3.5l6.6,12.7l12.2,2.5l4.6,5.1l2.5,17.1l15.2,14.2l7.1,14.2l3.5,23.3l14.2,8.7l3.2,5.6L301.8,430.5
	z"/>
<path class="st1" d="M259.9,352.9c2.7,14.2,2.7,80,2.7,80h-13.4l0.1-9.6c-0.7-51.1,2.2-70.1,2.2-70.1l0.2,0.1l0.5,1.4v0.7l0.4-0.2
	l0.1-1.8l0.3-0.8h4.7l0.2,2.4l0.7,0.1v1.6l1-1.5l-0.1-2.3L259.9,352.9z"/>
<path class="st2" d="M584.6,354.9l96.3-61.6l22-3.2l18.7-24.5l9-7.1H748l76.9-56.1l11.6-7.9l17.9-17.4l20.9-4.7l15.5-3.2l22,7.9
	h20.7l20,11.1l10.3,2.4l14.2,1.6l56.2-27.1l21.3-14.5h25.2l25.2-12.1h26.5l43.9,18.2l77.5,71.9l14.9,1.6l77.5,71.9
	c0,0,27.7,26.8,32.3,43.5c1.5,5.3,52,33.3,60.7,34.5c15.3,2.2,20.5,51.7,20.5,51.7l-153.7-0.3l-178.3-40.1l-288.5,39.9l-287.7,1l0,0
	l12.4-50.5L584.6,354.9z"/>
<g>
	<g>
		<line class="st3" x1="170.3" y1="138.9" x2="172.5" y2="138.9"/>
		<line class="st4" x1="176.9" y1="138.9" x2="1128" y2="138.9"/>
		<line class="st3" x1="1130.2" y1="138.9" x2="1132.4" y2="138.9"/>
	</g>
</g>
<g>
	<g>
		<line class="st3" x1="170.3" y1="352.6" x2="171.5" y2="352.6"/>
		<line class="st5" x1="174" y1="352.6" x2="276.6" y2="352.6"/>
		<line class="st3" x1="277.8" y1="352.6" x2="279.1" y2="352.6"/>
	</g>
</g>
<line class="st3" x1="167.2" y1="432.1" x2="1460.6" y2="432.1"/>
<g>
	<g>
		<line class="st3" x1="170.3" y1="254" x2="172.3" y2="254"/>
		<line class="st6" x1="176.3" y1="254" x2="785.9" y2="254"/>
		<line class="st3" x1="788" y1="254" x2="790" y2="254"/>
	</g>
</g>
<path class="st7" d="M839.2,431.3l6.8-50.2c0,0,36.1-62.4,60.4-66.3c24.4-3.9,40.9-4.9,40.9-4.9l23.4-24.7l19.5-10.4l30.2-8.8
	l34.1-27.3l23.4-47.8l14.5-35.5h59.6c0,0,31.2,61.9,31.2,70.6c0,8.8,16.6,48.7,16.6,48.7l50.7,30.2l26.3,57.5l29.2,24.4v44.3
	l-172.5-11.2L839.2,431.3z"/>
<path class="st8" d="M1152.1,155.6c14.6,19.9,17.6,266.9,17.6,266.9l-36.1-2.3l-46.7,1.8c-13.2-149.1,5.6-266.3,5.6-266.3
	L1152.1,155.6L1152.1,155.6z"/>
<path class="st9" d="M1108.2,161.9c0,0-16.8,85.3,0,250.5h42.9c0,0,1.4-179.4-9.7-250.5C1141.4,161.9,1108.2,161.9,1108.2,161.9z"/>
<polygon class="st10" points="563.9,381.8 846.1,381.2 839.2,431.3 551.5,432.3 "/>
<path class="st10" d="M1449,388.9c0,0-79.6,1.5-142.9-1.9v44.3l153.7,0.3C1459.8,431.6,1456.1,392.6,1449,388.9z"/>
<g>
	<g>
		<path d="M23.9,358.7v-1.6l5.7-6.2c0.7-0.7,1.2-1.4,1.6-2c0.3-0.6,0.7-1,0.8-1.5c0.1-0.5,0.2-0.9,0.2-1.4c0-0.8-0.2-1.6-0.8-2.2
			c-0.6-0.6-1.3-0.9-2.2-0.9c-1,0-1.9,0.3-2.3,0.9c-0.5,0.6-0.8,1.5-0.8,2.5h-2.2v-0.1c0-1,0.2-1.9,0.6-2.7c0.5-0.8,1-1.4,2-1.9
			c0.8-0.5,1.9-0.7,3-0.7c1,0,2.1,0.2,2.8,0.6c0.8,0.5,1.4,0.9,1.9,1.7s0.7,1.5,0.7,2.4c0,0.6-0.1,1.3-0.3,1.9c-0.2,0.6-0.6,1.3-1,2
			c-0.5,0.7-1,1.4-1.7,2.1l-4.5,5v0.1h6.1l0.2-2h2v3.8H23.9V358.7z"/>
		<path d="M42.3,358.9c-0.6,0-1.3,0-1.9-0.1c-0.6-0.1-1.2-0.3-1.7-0.6l0.3-1.7c0.5,0.2,0.9,0.3,1.5,0.5c0.5,0.1,1,0.1,1.7,0.1
			c1.2,0,2-0.5,2.7-1.3c0.7-0.8,1-2.2,1-4.2v-0.1c-0.3,0.6-0.8,0.9-1.3,1.3c-0.5,0.3-1.2,0.5-2,0.5c-1.2,0-2.1-0.2-2.9-0.7
			c-0.8-0.5-1.4-1.2-1.9-2.1c-0.5-0.9-0.7-2-0.7-3.2c0-1.2,0.2-2.3,0.7-3.2c0.5-0.9,1.2-1.6,2-2.2c0.8-0.6,1.7-0.8,2.7-0.8
			c1.2,0,2.2,0.2,3.1,0.8c0.9,0.5,1.5,1.3,2,2.2c0.5,1,0.7,2.2,0.7,3.7v3.1c0,1.9-0.2,3.2-0.8,4.5c-0.6,1.3-1.3,2.1-2.1,2.7
			C44.6,358.6,43.4,358.9,42.3,358.9z M42.6,351.4c0.8,0,1.6-0.2,2.2-0.6c0.6-0.3,1-0.8,1.3-1.4v-1.9c0-1.5-0.3-2.7-0.9-3.5
			c-0.6-0.8-1.4-1.2-2.5-1.2c-0.6,0-1.2,0.2-1.6,0.6c-0.5,0.3-0.8,0.9-1.2,1.5c-0.2,0.7-0.5,1.4-0.5,2.2s0.1,1.5,0.3,2.2
			c0.2,0.6,0.6,1,1,1.4C41.5,351.2,41.9,351.4,42.6,351.4z"/>
		<path d="M54.1,358.7l0.2-1.9c0.2-1.9,0.6-3.5,1-5.1c0.5-1.6,1.2-3,2-4.4s1.7-2.8,2.9-4.2H53l-0.2,2h-2v-3.8h11.7v1.9
			c-1,1.3-1.9,2.4-2.5,3.5c-0.7,1-1.3,2.1-1.6,3.1c-0.5,1-0.7,2.1-0.9,3.2c-0.2,1.2-0.5,2.3-0.6,3.7l-0.2,1.9L54.1,358.7L54.1,358.7
			z"/>
		<path d="M70.2,358.7v-1.5l2-0.3v-9.1l-2-0.3v-1.5h4.1l0.1,1.6c0.5-0.6,0.9-1,1.6-1.4c0.7-0.3,1.4-0.5,2.2-0.5
			c0.8,0,1.6,0.2,2.2,0.6c0.6,0.3,1,1,1.4,1.7c0.3-0.7,0.9-1.3,1.6-1.7c0.7-0.5,1.4-0.7,2.3-0.7c1.3,0,2.3,0.5,3.1,1.4
			c0.8,0.9,1.2,2.2,1.2,4.1v5.9l2,0.3v1.5h-6.2v-1.5l2-0.3v-5.9c0-1.3-0.2-2.2-0.7-2.7c-0.5-0.6-1-0.8-2-0.8c-0.8,0-1.5,0.2-2,0.8
			c-0.5,0.6-0.8,1.3-0.8,2.2v6.4l2,0.3v1.5h-6.2v-1.5l2-0.3v-5.9c0-1.2-0.2-2.1-0.7-2.7c-0.5-0.6-1-0.8-2-0.8
			c-0.7,0-1.3,0.1-1.7,0.5c-0.5,0.3-0.8,0.7-1,1.3v7.6l2,0.3v1.5H70.2L70.2,358.7z"/>
		<path d="M98.9,358.9c-0.8,0-1.6-0.1-2.4-0.2c-0.7-0.2-1.5-0.5-2.4-0.8v-3h1.7l0.5,1.9c0.5,0.2,0.9,0.3,1.3,0.3
			c0.5,0.1,0.8,0.1,1.4,0.1c0.9,0,1.6-0.2,2.1-0.6c0.5-0.3,0.6-0.8,0.6-1.4c0-0.5-0.2-0.9-0.6-1.3c-0.5-0.3-1.2-0.7-2.3-0.9
			c-1.5-0.3-2.7-0.8-3.5-1.4c-0.7-0.6-1-1.4-1-2.4c0-0.7,0.2-1.3,0.6-1.9s0.9-1,1.7-1.3c0.8-0.2,1.5-0.5,2.5-0.5
			c0.9,0,1.9,0.1,2.5,0.3s1.3,0.5,1.9,0.9l0.1,2.9h-1.7l-0.3-1.7c-0.2-0.2-0.6-0.3-1-0.5c-0.5-0.1-0.8-0.1-1.3-0.1
			c-0.7,0-1.3,0.1-1.7,0.5c-0.5,0.3-0.7,0.8-0.7,1.3c0,0.3,0.1,0.6,0.2,0.8c0.1,0.2,0.3,0.5,0.8,0.6c0.3,0.2,0.9,0.3,1.6,0.6
			c1.7,0.5,3,0.9,3.7,1.6c0.7,0.7,1,1.5,1,2.4c0,1-0.3,2-1.2,2.8C101.9,358.6,100.6,358.9,98.9,358.9z"/>
		<path d="M106.6,358.7v-2.4h2.3v2.4H106.6z"/>
		<path d="M111.6,358.7v-1.5l2-0.3v-9.1l-2-0.3v-1.5h4.1l0.1,2c0.5-0.7,0.9-1.2,1.6-1.6c0.7-0.3,1.4-0.6,2.2-0.6
			c1.4,0,2.4,0.5,3.2,1.3c0.8,0.8,1.2,2.1,1.2,3.7v6.2l2,0.3v1.5h-6.2v-1.5l2-0.3v-6.2c0-1.2-0.2-2-0.7-2.4
			c-0.5-0.5-1.2-0.7-2.1-0.7c-0.7,0-1.3,0.1-1.7,0.5c-0.5,0.3-0.9,0.8-1.3,1.3v7.5l2,0.3v1.5L111.6,358.7L111.6,358.7z"/>
		<path d="M128.4,358.7v-2.4h2.3v2.4H128.4z"/>
		<path d="M133.4,358.7v-1.5l2-0.3v-9.1l-2-0.3v-1.5h4.1l0.1,1.6c0.5-0.6,0.9-1,1.6-1.4c0.7-0.3,1.4-0.5,2.2-0.5s1.6,0.2,2.2,0.6
			c0.6,0.3,1,1,1.4,1.7c0.3-0.7,0.9-1.3,1.6-1.7c0.7-0.5,1.4-0.7,2.3-0.7c1.3,0,2.3,0.5,3.1,1.4c0.8,0.9,1.2,2.2,1.2,4.1v5.9l2,0.3
			v1.5h-6.2v-1.5l2-0.3v-5.9c0-1.3-0.2-2.2-0.7-2.7c-0.5-0.6-1-0.8-2-0.8c-0.8,0-1.5,0.2-2,0.8c-0.5,0.6-0.8,1.3-0.8,2.2v6.4l2,0.3
			v1.5h-6.2v-1.5l2-0.3v-5.9c0-1.2-0.2-2.1-0.7-2.7c-0.5-0.6-1-0.8-2-0.8c-0.7,0-1.3,0.1-1.7,0.5c-0.5,0.3-0.8,0.7-1,1.3v7.6l2,0.3
			v1.5H133.4L133.4,358.7z"/>
	</g>
</g>
<g>
	<g>
		<path d="M26.1,261.9c-1.2,0-2.1-0.2-3-0.8c-0.9-0.6-1.6-1.4-2.1-2.4s-0.8-2.3-0.8-3.8v-2.3c0-1.9,0.2-3.4,0.8-4.6s1.3-2.2,2.3-2.8
			c1-0.6,2.1-0.9,3.4-0.9c0.6,0,1.2,0.1,1.7,0.2c0.6,0.1,1,0.3,1.4,0.5l-0.5,1.7c-0.3-0.2-0.8-0.3-1.3-0.5c-0.5-0.1-0.9-0.1-1.5-0.1
			c-1.2,0-2.2,0.5-2.9,1.4c-0.7,0.9-1,2.3-1.2,4.2l0,0c0.5-0.5,1-0.7,1.6-0.9c0.7-0.2,1.4-0.3,2.1-0.3c1,0,2,0.2,2.7,0.7
			c0.8,0.5,1.4,1.2,1.7,2c0.5,0.8,0.6,1.9,0.6,2.9c0,1.2-0.2,2.2-0.7,3.1c-0.5,0.9-1,1.6-1.9,2.1S27.3,261.9,26.1,261.9z
			 M26.1,260.1c0.7,0,1.2-0.2,1.6-0.6c0.5-0.3,0.8-0.9,1-1.5c0.2-0.7,0.3-1.4,0.3-2.2c0-1.2-0.2-2.1-0.8-2.8
			c-0.6-0.7-1.4-1.2-2.4-1.2c-0.6,0-1,0.1-1.4,0.2c-0.5,0.1-0.8,0.3-1.2,0.6c-0.3,0.2-0.6,0.6-0.8,0.9v1.4c0,1.6,0.3,2.9,1,3.7
			C24.3,259.6,25.2,260.1,26.1,260.1z"/>
		<path d="M33.6,261.7v-1.6l5.7-6.2c0.7-0.7,1.2-1.4,1.6-2c0.3-0.6,0.7-1,0.8-1.5c0.1-0.5,0.2-0.9,0.2-1.4c0-0.8-0.2-1.6-0.8-2.2
			s-1.3-0.9-2.2-0.9c-1,0-1.9,0.3-2.3,0.9s-0.8,1.5-0.8,2.5h-2.2v-0.1c0-1,0.2-1.9,0.6-2.7c0.5-0.8,1-1.4,2-1.9
			c0.8-0.5,1.9-0.7,3-0.7c1,0,2.1,0.2,2.8,0.6c0.8,0.5,1.4,0.9,1.9,1.7c0.5,0.8,0.7,1.5,0.7,2.4c0,0.6-0.1,1.3-0.3,1.9
			c-0.2,0.6-0.6,1.3-1,2c-0.5,0.7-1,1.4-1.7,2.1l-4.5,5v0.1H43l0.2-2h1.5v3.8H33.6C33.6,261.6,33.6,261.7,33.6,261.7z"/>
		<path d="M51.9,261.9c-0.6,0-1.3,0-1.9-0.1c-0.6-0.1-1.2-0.3-1.7-0.6l0.3-1.7c0.5,0.2,0.9,0.3,1.5,0.5c0.5,0.1,1,0.1,1.7,0.1
			c1.2,0,2-0.5,2.7-1.3c0.7-0.8,1-2.2,1-4.2v-0.1c-0.3,0.6-0.8,0.9-1.3,1.3c-0.5,0.3-1.2,0.5-2,0.5c-1.2,0-2.1-0.2-2.9-0.7
			c-0.8-0.5-1.4-1.2-1.9-2.1s-0.7-2-0.7-3.2c0-1.2,0.2-2.3,0.7-3.2s1.2-1.6,2-2.2s1.7-0.8,2.7-0.8c1.2,0,2.2,0.2,3.1,0.8
			c0.9,0.5,1.5,1.3,2,2.2c0.5,1,0.7,2.2,0.7,3.7v3.1c0,1.9-0.2,3.2-0.8,4.5c-0.6,1.3-1.3,2.1-2.1,2.7
			C54.2,261.6,53.2,261.9,51.9,261.9z M52.3,254.4c0.8,0,1.6-0.2,2.2-0.6c0.6-0.3,1-0.8,1.3-1.4v-1.9c0-1.5-0.3-2.7-0.9-3.5
			c-0.6-0.8-1.4-1.2-2.5-1.2c-0.6,0-1.2,0.2-1.6,0.6s-0.8,0.9-1.2,1.5c-0.2,0.7-0.5,1.4-0.5,2.2c0,0.8,0.1,1.5,0.3,2.2
			c0.2,0.6,0.6,1,1,1.4C50.9,254.2,51.7,254.4,52.3,254.4z"/>
		<path d="M66.5,261.7v-1.5l2-0.3v-9.1l-2-0.3v-1.5h4.1l0.1,1.6c0.5-0.6,0.9-1,1.6-1.4s1.4-0.5,2.2-0.5c0.8,0,1.6,0.2,2.2,0.6
			c0.6,0.3,1,1,1.4,1.7c0.3-0.7,0.9-1.3,1.6-1.7c0.7-0.5,1.4-0.7,2.3-0.7c1.3,0,2.3,0.5,3.1,1.4c0.8,0.9,1.2,2.2,1.2,4.1v5.9l2,0.3
			v1.5H82v-1.5l2-0.3v-5.9c0-1.3-0.2-2.2-0.7-2.7c-0.5-0.6-1-0.8-2-0.8c-0.8,0-1.5,0.2-2,0.8c-0.5,0.6-0.8,1.3-0.8,2.2v6.4l2,0.3
			v1.5h-6.2v-1.5l2-0.3v-5.9c0-1.2-0.2-2.1-0.7-2.7c-0.5-0.6-1-0.8-2-0.8c-0.7,0-1.3,0.1-1.7,0.5c-0.5,0.3-0.8,0.7-1,1.3v7.6l2,0.3
			v1.5L66.5,261.7L66.5,261.7z"/>
		<path d="M95.1,261.9c-0.8,0-1.6-0.1-2.4-0.2c-0.8-0.1-1.5-0.5-2.4-0.8v-3H92l0.5,1.9c0.5,0.2,0.9,0.3,1.3,0.3
			c0.5,0.1,0.8,0.1,1.4,0.1c0.9,0,1.6-0.2,2.1-0.6c0.5-0.3,0.6-0.8,0.6-1.4c0-0.5-0.2-0.9-0.6-1.3c-0.5-0.3-1.2-0.7-2.3-0.9
			c-1.5-0.3-2.7-0.8-3.5-1.4c-0.7-0.6-1-1.4-1-2.4c0-0.7,0.2-1.3,0.6-1.9c0.3-0.6,0.9-1,1.7-1.3c0.8-0.2,1.5-0.5,2.5-0.5
			c0.9,0,1.9,0.1,2.5,0.3c0.7,0.2,1.3,0.5,1.9,0.9l0.1,2.9H98l-0.3-1.7c-0.2-0.2-0.6-0.3-1-0.5c-0.5-0.1-0.8-0.1-1.3-0.1
			c-0.7,0-1.3,0.1-1.7,0.5c-0.5,0.3-0.7,0.8-0.7,1.3c0,0.3,0.1,0.6,0.2,0.8c0.1,0.2,0.3,0.5,0.8,0.6c0.3,0.2,0.9,0.3,1.6,0.6
			c1.7,0.5,3,0.9,3.7,1.6c0.7,0.7,1,1.5,1,2.4c0,1-0.3,2-1.2,2.8C98.1,261.6,96.8,261.9,95.1,261.9z"/>
		<path d="M103,261.7v-2.4h2.3v2.4H103z"/>
		<path d="M107.9,261.7v-1.5l2-0.3v-9.1l-2-0.3v-1.5h4.1l0.1,2c0.5-0.7,0.9-1.2,1.6-1.6c0.7-0.3,1.4-0.6,2.2-0.6
			c1.4,0,2.4,0.5,3.2,1.3c0.8,0.8,1.2,2.1,1.2,3.7v6.2l2,0.3v1.5H116v-1.5l2-0.3v-6.2c0-1.2-0.2-2-0.7-2.4c-0.5-0.5-1.2-0.7-2.1-0.7
			c-0.7,0-1.3,0.1-1.7,0.5c-0.5,0.3-0.9,0.8-1.3,1.3v7.5l2,0.3v1.5L107.9,261.7L107.9,261.7z"/>
		<path d="M124.7,261.7v-2.4h2.3v2.4H124.7z"/>
		<path d="M129.7,261.7v-1.5l2-0.3v-9.1l-2-0.3v-1.5h4.1l0.1,1.6c0.5-0.6,0.9-1,1.6-1.4s1.4-0.5,2.2-0.5s1.6,0.2,2.2,0.6
			s1,1,1.4,1.7c0.3-0.7,0.9-1.3,1.6-1.7c0.7-0.5,1.4-0.7,2.3-0.7c1.3,0,2.3,0.5,3.1,1.4c0.8,0.9,1.2,2.2,1.2,4.1v5.9l2,0.3v1.5h-6.2
			v-1.5l2-0.3v-5.9c0-1.3-0.2-2.2-0.7-2.7c-0.5-0.6-1-0.8-2-0.8c-0.8,0-1.5,0.2-2,0.8c-0.5,0.6-0.8,1.3-0.8,2.2v6.4l2,0.3v1.5h-6.2
			v-1.5l2-0.3v-5.9c0-1.2-0.2-2.1-0.7-2.7c-0.5-0.6-1-0.8-2-0.8c-0.7,0-1.3,0.1-1.7,0.5c-0.5,0.3-0.8,0.7-1,1.3v7.6l2,0.3v1.5
			L129.7,261.7L129.7,261.7z"/>
	</g>
</g>
<g>
	<g>
		<path d="M25.2,147.3c-0.6,0-1.3,0-1.9-0.1c-0.6-0.1-1.2-0.3-1.7-0.6l0.3-1.7c0.5,0.2,0.9,0.3,1.5,0.5c0.5,0.1,1,0.1,1.7,0.1
			c1.2,0,2-0.5,2.7-1.3c0.7-0.8,1-2.2,1-4.2v-0.1c-0.3,0.6-0.8,0.9-1.3,1.3c-0.5,0.3-1.2,0.5-2,0.5c-1.2,0-2.1-0.2-2.9-0.7
			s-1.4-1.2-1.9-2.1c-0.5-0.9-0.7-2-0.7-3.2c0-1.2,0.2-2.3,0.7-3.2c0.5-0.9,1.2-1.6,2-2.2c0.8-0.6,1.7-0.8,2.7-0.8
			c1.2,0,2.2,0.2,3.1,0.8c0.9,0.5,1.5,1.3,2,2.2c0.5,0.9,0.7,2.2,0.7,3.7v3.1c0,1.9-0.2,3.2-0.8,4.5s-1.3,2.1-2.1,2.7
			C27.5,147.1,26.4,147.3,25.2,147.3z M25.6,139.8c0.8,0,1.6-0.2,2.2-0.6c0.6-0.3,1-0.8,1.3-1.4V136c0-1.5-0.3-2.7-0.9-3.5
			c-0.6-0.8-1.4-1.2-2.5-1.2c-0.6,0-1.2,0.2-1.6,0.6c-0.5,0.3-0.8,0.9-1.2,1.5c-0.2,0.7-0.5,1.4-0.5,2.2c0,0.8,0.1,1.5,0.3,2.2
			c0.2,0.6,0.6,1,1,1.4C24.2,139.5,24.9,139.8,25.6,139.8z"/>
		<path d="M40.1,147.3c-1.2,0-2.1-0.2-3-0.8s-1.6-1.4-2.1-2.4c-0.5-1-0.8-2.3-0.8-3.8v-2.3c0-1.9,0.2-3.4,0.8-4.6s1.3-2.2,2.3-2.8
			c1-0.6,2.1-0.9,3.4-0.9c0.6,0,1.2,0.1,1.7,0.2c0.6,0.1,1,0.3,1.4,0.5l-0.5,1.7c-0.3-0.2-0.8-0.3-1.3-0.5c-0.5-0.1-0.9-0.1-1.5-0.1
			c-1.2,0-2.2,0.5-2.9,1.4c-0.7,0.9-1,2.3-1.2,4.2l0,0c0.5-0.5,1-0.7,1.6-0.9s1.4-0.3,2.1-0.3c1,0,2,0.2,2.7,0.7
			c0.8,0.5,1.4,1.2,1.7,2c0.5,0.8,0.6,1.9,0.6,2.9c0,1.2-0.2,2.2-0.7,3.1s-1,1.6-1.9,2.1S41.2,147.3,40.1,147.3z M40.1,145.6
			c0.7,0,1.2-0.2,1.6-0.6c0.5-0.3,0.8-0.9,1-1.5c0.2-0.7,0.3-1.4,0.3-2.2c0-1.2-0.2-2.1-0.8-2.8c-0.6-0.7-1.4-1.2-2.4-1.2
			c-0.6,0-1,0.1-1.4,0.2c-0.5,0.1-0.8,0.3-1.2,0.6c-0.3,0.2-0.6,0.6-0.8,0.9v1.4c0,1.6,0.3,2.9,1,3.7
			C38.3,145.1,39.1,145.6,40.1,145.6z"/>
		<path d="M52.5,147.3c-0.9,0-1.9-0.2-2.7-0.6s-1.4-0.9-1.9-1.6c-0.5-0.7-0.7-1.6-0.6-2.7v-0.1h2.2c0,0.9,0.2,1.6,0.8,2.2
			c0.6,0.6,1.3,0.8,2.1,0.8c1,0,1.7-0.3,2.3-1c0.6-0.7,0.8-1.6,0.8-2.9c0-1.2-0.2-2.1-0.8-2.8c-0.6-0.7-1.3-1-2.3-1
			c-0.9,0-1.6,0.1-2,0.5c-0.5,0.2-0.7,0.7-0.9,1.3l-2-0.2l1-9.5h9.1v3.5h-1.7l-0.2-1.4h-5.2l-0.6,4.9c0.2-0.2,0.5-0.3,0.8-0.5
			s0.6-0.2,0.9-0.3c0.3-0.1,0.7-0.1,1-0.1c1,0,2,0.2,2.8,0.7c0.8,0.5,1.4,1.2,1.7,2s0.6,1.9,0.6,3.1c0,1.2-0.2,2.2-0.6,3
			c-0.5,0.8-1,1.5-1.9,2C54.7,147.1,53.8,147.3,52.5,147.3z"/>
		<path d="M66.2,147.1v-1.5l2-0.3v-9.1l-2-0.3v-1.5h4.1l0.1,1.6c0.5-0.6,0.9-1,1.6-1.4c0.7-0.3,1.4-0.5,2.2-0.5
			c0.8,0,1.6,0.2,2.2,0.6c0.6,0.3,1,1,1.4,1.7c0.3-0.7,0.9-1.3,1.6-1.7s1.4-0.7,2.3-0.7c1.3,0,2.3,0.5,3.1,1.4
			c0.8,0.9,1.2,2.2,1.2,4.1v5.9l2,0.3v1.5h-6.2v-1.5l2-0.3v-5.9c0-1.3-0.2-2.2-0.7-2.7c-0.5-0.6-1-0.8-2-0.8c-0.8,0-1.5,0.2-2,0.8
			c-0.5,0.6-0.8,1.3-0.8,2.2v6.4l2,0.3v1.5h-6.2v-1.5l2-0.3v-5.9c0-1.2-0.2-2.1-0.7-2.7c-0.5-0.6-1-0.8-2-0.8
			c-0.7,0-1.3,0.1-1.7,0.5c-0.5,0.3-0.8,0.7-1,1.3v7.6l2,0.3v1.5H66.2L66.2,147.1z"/>
		<path d="M94.8,147.3c-0.8,0-1.6-0.1-2.4-0.2c-0.8-0.1-1.5-0.5-2.4-0.8v-3h1.7l0.5,1.9c0.5,0.2,0.9,0.3,1.3,0.3
			c0.5,0.1,0.8,0.1,1.4,0.1c0.9,0,1.6-0.2,2.1-0.6s0.6-0.8,0.6-1.4c0-0.5-0.2-0.9-0.6-1.3c-0.5-0.3-1.2-0.7-2.3-0.9
			c-1.5-0.3-2.7-0.8-3.5-1.4c-0.7-0.6-1-1.4-1-2.4c0-0.7,0.2-1.3,0.6-1.9c0.3-0.6,0.9-1,1.7-1.3c0.8-0.2,1.5-0.5,2.5-0.5
			c0.9,0,1.9,0.1,2.5,0.3s1.3,0.5,1.9,0.9l0.1,2.9h-1.7l-0.3-1.7c-0.2-0.2-0.6-0.3-1-0.5c-0.5-0.1-0.8-0.1-1.3-0.1
			c-0.7,0-1.3,0.1-1.7,0.5s-0.7,0.8-0.7,1.3c0,0.3,0.1,0.6,0.2,0.8c0.1,0.2,0.3,0.5,0.8,0.6c0.3,0.2,0.9,0.3,1.6,0.6
			c1.7,0.5,3,0.9,3.7,1.6c0.7,0.7,1,1.5,1,2.4c0,1-0.3,2-1.2,2.8C97.8,147,96.5,147.3,94.8,147.3z"/>
		<path d="M102.5,147.1v-2.4h2.3v2.4H102.5z"/>
		<path d="M107.6,147.1v-1.5l2-0.3v-9.1l-2-0.3v-1.5h4.1l0.1,2c0.5-0.7,0.9-1.2,1.6-1.6c0.7-0.5,1.4-0.6,2.2-0.6
			c1.4,0,2.4,0.5,3.2,1.3c0.8,0.8,1.2,2.1,1.2,3.7v6.2l2,0.3v1.5h-6.4v-1.5l2-0.3V139c0-1.2-0.2-2-0.7-2.4c-0.5-0.5-1.2-0.7-2.1-0.7
			c-0.7,0-1.3,0.1-1.7,0.5c-0.5,0.3-0.9,0.8-1.3,1.3v7.5l2,0.3v1.5L107.6,147.1L107.6,147.1z"/>
		<path d="M124.4,147.1v-2.4h2.3v2.4H124.4z"/>
		<path d="M129.4,147.1v-1.5l2-0.3v-9.1l-2-0.3v-1.5h4.1l0.1,1.6c0.5-0.6,0.9-1,1.6-1.4c0.7-0.3,1.4-0.5,2.2-0.5s1.6,0.2,2.2,0.6
			c0.6,0.3,1,1,1.4,1.7c0.3-0.7,0.9-1.3,1.6-1.7c0.7-0.5,1.4-0.7,2.3-0.7c1.3,0,2.3,0.5,3.1,1.4c0.8,0.9,1.2,2.2,1.2,4.1v5.9l2,0.3
			v1.5h-6.2v-1.5l2-0.3v-5.9c0-1.3-0.2-2.2-0.7-2.7c-0.5-0.6-1-0.8-2-0.8c-0.8,0-1.5,0.2-2,0.8c-0.5,0.6-0.8,1.3-0.8,2.2v6.4l2,0.3
			v1.5h-6.2v-1.5l2-0.3v-5.9c0-1.2-0.2-2.1-0.7-2.7c-0.5-0.6-1-0.8-2-0.8c-0.7,0-1.3,0.1-1.7,0.5c-0.5,0.3-0.8,0.7-1,1.3v7.6l2,0.3
			v1.5L129.4,147.1L129.4,147.1z"/>
	</g>
</g>
<line class="st11" x1="1460.6" y1="446.1" x2="552.3" y2="446.1"/>
<line class="st3" x1="552.3" y1="427.2" x2="552.3" y2="461.1"/>
<line class="st3" x1="1460.6" y1="430.2" x2="1460.6" y2="464.1"/>
<g>
	<g>
		<path d="M958.2,479.4v-1.6l2.8-0.4v-13.9h-2.8v-1.6l5.4-1.1v16.7l2.8,0.4v1.6L958.2,479.4L958.2,479.4z"/>
		<path d="M974.6,479.8c-1.2,0-2.2-0.2-3.2-0.6c-0.9-0.4-1.6-1-2.1-1.7c-0.5-0.7-0.7-1.7-0.7-2.8c0-1,0.4-2,1-2.7
			c0.6-0.7,1.5-1.4,2.6-1.7c-0.9-0.4-1.6-0.9-2.2-1.6c-0.5-0.7-0.7-1.6-0.7-2.5c0-1.1,0.2-2,0.7-2.7s1.1-1.4,1.9-1.7
			c0.7-0.4,1.7-0.6,2.8-0.6s2,0.2,2.8,0.6c0.9,0.4,1.5,1,2,1.7c0.5,0.7,0.7,1.7,0.7,2.7s-0.2,1.9-0.9,2.5c-0.5,0.7-1.2,1.2-2.2,1.6
			c1.1,0.4,1.9,1,2.6,1.7c0.6,0.7,1,1.7,1,2.7c0,1.1-0.2,2.1-0.7,2.8c-0.5,0.7-1.2,1.4-2.1,1.7C976.8,479.5,975.7,479.8,974.6,479.8
			z M974.6,477.8c0.7,0,1.4-0.1,1.9-0.4c0.5-0.2,1-0.6,1.2-1.1c0.2-0.5,0.5-1.1,0.5-1.9c0-0.6-0.1-1.2-0.5-1.9
			c-0.4-0.6-0.7-1-1.2-1.2c-0.5-0.2-1.1-0.5-1.9-0.5c-0.7,0-1.2,0.1-1.9,0.5c-0.6,0.4-1,0.7-1.2,1.2c-0.2,0.5-0.5,1.1-0.5,1.9
			c0,1,0.4,1.9,1,2.5C972.6,477.4,973.4,477.8,974.6,477.8z M974.6,469c0.6,0,1.1-0.1,1.6-0.4s0.9-0.6,1.1-1.1
			c0.2-0.5,0.4-1,0.4-1.6s-0.1-1.1-0.4-1.6c-0.2-0.5-0.6-0.9-1.1-1.1s-1-0.4-1.6-0.4c-0.9,0-1.6,0.2-2.1,0.9
			c-0.5,0.6-0.9,1.4-0.9,2.4s0.2,1.7,0.9,2.2C973.1,468.8,973.6,469,974.6,469z"/>
		<path d="M983.3,483.4l-1.4-1c0.4-0.6,0.7-1.2,0.9-1.9s0.2-1.4,0.2-2v-2h2.5v1.9c0,0.9-0.2,1.7-0.6,2.6
			C984.6,481.9,984.1,482.9,983.3,483.4z"/>
		<path d="M993.5,479.8c-1,0-2-0.2-2.8-0.6c-0.9-0.4-1.5-1-2-1.7c-0.5-0.7-0.7-1.7-0.6-2.8v-0.1h2.2c0,1,0.2,1.7,0.9,2.4
			c0.6,0.6,1.4,0.9,2.2,0.9c1.1,0,1.9-0.4,2.5-1.1c0.6-0.7,0.9-1.7,0.9-3.1c0-1.2-0.2-2.2-0.9-3c-0.6-0.7-1.4-1.1-2.5-1.1
			c-1,0-1.7,0.1-2.1,0.5c-0.5,0.2-0.7,0.7-1,1.4l-2.1-0.2l1.1-10.2h9.8v3.7h-1.9l-0.2-1.5h-5.6l-0.6,5.2c0.2-0.2,0.5-0.4,0.9-0.5
			c0.2-0.1,0.6-0.2,1-0.4c0.4-0.1,0.7-0.1,1.1-0.1c1.1,0,2.1,0.2,3,0.7c0.9,0.5,1.5,1.2,1.9,2.1c0.5,1,0.6,2,0.6,3.3
			c0,1.2-0.2,2.4-0.6,3.2c-0.5,0.9-1.1,1.6-2,2.1C995.9,479.5,994.7,479.8,993.5,479.8z"/>
		<path d="M1007.9,479.4v-1.6l2.1-0.4v-15.8l-2.1-0.4v-1.6h4.6v18l2.1,0.4v1.6L1007.9,479.4L1007.9,479.4z M1012.2,475.4l-0.9-2
			l5.9-5.9l0.1-0.1l-1.5-0.1v-1.6h5.9v1.6l-1.7,0.4L1012.2,475.4z M1016.7,479.4v-1.6l1.4-0.1l0,0l-4-5.1l1.2-2l5.6,7.1l2,0.2v1.6
			h-6.2V479.4z"/>
		<path d="M1024.3,479.4v-1.6l2.1-0.4v-9.8l-2.1-0.4v-1.6h4.3l0.1,1.7c0.5-0.6,1-1.1,1.7-1.5s1.5-0.5,2.4-0.5s1.7,0.2,2.4,0.6
			s1.1,1.1,1.5,1.9c0.4-0.7,1-1.4,1.7-1.9s1.5-0.7,2.5-0.7c1.4,0,2.5,0.5,3.3,1.5s1.2,2.4,1.2,4.3v6.3l2.1,0.4v1.6h-6.7v-1.6
			l2.1-0.4v-6.3c0-1.4-0.2-2.4-0.7-2.8c-0.5-0.6-1.1-0.9-2.1-0.9c-0.9,0-1.6,0.2-2.1,0.9c-0.5,0.6-0.9,1.4-0.9,2.4v6.8l2.1,0.4v1.6
			h-6.7v-1.6l2.1-0.4v-6.3c0-1.2-0.2-2.2-0.7-2.8c-0.5-0.6-1.1-0.9-2.1-0.9c-0.7,0-1.4,0.1-1.9,0.5c-0.5,0.4-0.9,0.7-1.1,1.4v8.2
			l2.1,0.4v1.6L1024.3,479.4L1024.3,479.4z"/>
	</g>
</g>
<g>
	<g>
		<path d="M160.9,107.6c-2.2,0-3.9-0.4-5.3-1.4c-1.4-1-2.6-2.3-3.3-3.9s-1.2-3.5-1.2-5.6v-0.3c0-2.2,0.4-4,1.2-5.6
			c0.7-1.6,1.9-2.9,3.3-3.9c1.4-1,3.2-1.4,5-1.4c1.4,0,2.6,0.3,3.7,0.7s2.2,1,2.9,1.6v4.6h-2.3l-0.3-3.5c-0.3-0.3-0.7-0.4-1.2-0.6
			c-0.4-0.1-0.9-0.3-1.3-0.4c-0.4-0.1-1-0.1-1.6-0.1c-1.4,0-2.6,0.4-3.6,1.2c-1,0.7-1.7,1.7-2.2,3c-0.4,1.3-0.7,2.7-0.7,4.5v0.3
			c0,1.9,0.3,3.3,0.9,4.6s1.3,2.3,2.3,2.9c1,0.7,2.3,1,3.7,1c0.7,0,1.3-0.1,2-0.3c0.7-0.1,1.2-0.4,1.6-0.7l0.3-3h2.3v4.6
			c-0.9,0.4-1.7,0.9-2.9,1.2C163.2,107.4,162.1,107.6,160.9,107.6z"/>
		<path d="M177.3,107.6c-1.4,0-2.7-0.3-3.9-1c-1-0.7-1.9-1.6-2.4-2.9c-0.6-1.3-0.9-2.6-0.9-4.2v-0.3c0-1.6,0.3-3,0.9-4.2
			c0.6-1.3,1.4-2.2,2.4-2.9c1-0.7,2.3-1,3.7-1c1.4,0,2.7,0.3,3.9,1c1,0.7,1.9,1.7,2.4,2.9c0.6,1.2,0.9,2.6,0.9,4.2v0.3
			c0,1.6-0.3,3-0.9,4.2c-0.6,1.3-1.4,2.2-2.4,2.9C180,107.3,178.9,107.6,177.3,107.6z M177.3,105.3c0.9,0,1.7-0.3,2.3-0.7
			s1.2-1.2,1.4-2s0.4-1.9,0.4-3v-0.3c0-1.2-0.1-2.2-0.4-3c-0.3-0.9-0.9-1.6-1.4-2c-0.6-0.6-1.4-0.7-2.3-0.7s-1.7,0.3-2.3,0.7
			c-0.6,0.6-1.2,1.2-1.4,2s-0.4,1.9-0.4,3v0.3c0,1.2,0.1,2.2,0.4,3c0.3,0.9,0.7,1.6,1.4,2C175.6,105,176.4,105.3,177.3,105.3z"/>
		<path d="M193.1,107.6c-1,0-2-0.1-3-0.3c-1-0.1-1.9-0.6-3-1v-3.7h2.2l0.6,2.3c0.6,0.3,1.2,0.4,1.6,0.4c0.6,0.1,1,0.1,1.7,0.1
			c1.2,0,2-0.3,2.6-0.7c0.6-0.4,0.7-1,0.7-1.7c0-0.6-0.3-1.2-0.7-1.6c-0.6-0.4-1.4-0.9-2.9-1.2c-1.9-0.4-3.3-1-4.3-1.7
			c-0.9-0.7-1.3-1.7-1.3-3c0-0.9,0.3-1.6,0.7-2.3c0.4-0.7,1.2-1.3,2.2-1.6s1.9-0.6,3.2-0.6c1.2,0,2.3,0.1,3.2,0.4
			c0.9,0.3,1.6,0.6,2.3,1.2l0.1,3.6h-2.2l-0.4-2.2c-0.3-0.3-0.7-0.4-1.3-0.6c-0.6-0.1-1-0.1-1.6-0.1c-0.9,0-1.6,0.1-2.2,0.6
			c-0.6,0.4-0.9,1-0.9,1.6c0,0.4,0.1,0.7,0.3,1s0.4,0.6,1,0.7c0.4,0.3,1.2,0.4,2,0.7c2.2,0.6,3.7,1.2,4.6,2c0.9,0.9,1.3,1.9,1.3,3
			c0,1.3-0.4,2.4-1.4,3.5C196.9,107.1,195.3,107.6,193.1,107.6z"/>
		<path d="M207.4,107.6c-1.2,0-2.2-0.3-2.9-1c-0.7-0.7-1-1.9-1-3.3v-9.6h-2.6v-2.2h2.6v-4h2.9v3.9h3.5v2.2h-3.5v9.6
			c0,0.7,0.1,1.3,0.4,1.7c0.3,0.4,0.7,0.6,1.3,0.6c0.3,0,0.7,0,1.2-0.1c0.4,0,0.7-0.1,1-0.1l0.4,1.9c-0.4,0.1-1,0.3-1.6,0.3
			S208,107.6,207.4,107.6z"/>
		<path d="M217.8,107.6c-1.7,0-2.9-0.4-3.7-1.2c-0.9-0.9-1.3-2-1.3-3.5c0-1,0.3-1.9,0.9-2.6c0.6-0.7,1.3-1.3,2.4-1.7
			c1.2-0.4,2.3-0.6,3.7-0.6h2.9v-1.6c0-1-0.3-1.7-0.9-2.3c-0.6-0.6-1.4-0.9-2.4-0.9c-0.7,0-1.3,0.1-1.7,0.3c-0.4,0.1-1,0.4-1.3,0.7
			l-0.3,2.2h-2.3v-3.6c0.7-0.6,1.6-1,2.4-1.3c1-0.3,2-0.4,3.2-0.4c1.9,0,3.5,0.4,4.6,1.4s1.6,2.3,1.6,4v7.6c0,0.1,0,0.4,0,0.6
			c0,0.1,0,0.4,0,0.6l1.6,0.1v1.9h-4.3c-0.1-0.4-0.1-0.9-0.1-1.2c0-0.3-0.1-0.7-0.1-1c-0.6,0.7-1.3,1.3-2.2,1.7
			C219.6,107.3,218.8,107.6,217.8,107.6z M218.2,105.1c1,0,1.9-0.3,2.6-0.7s1.4-1,1.7-1.7v-2.9h-3c-1.3,0-2.3,0.3-3,1
			c-0.7,0.7-1,1.3-1,2.2c0,0.7,0.3,1.3,0.7,1.6C216.6,105,217.3,105.1,218.2,105.1z"/>
		<path d="M229.3,107.3v-1.9l2.4-0.4V93.6l-2.4-0.4v-1.9h5l0.1,2.4c0.6-0.9,1.2-1.4,2-2c0.9-0.6,1.7-0.7,2.7-0.7c1.7,0,3,0.6,4,1.6
			c1,1,1.4,2.6,1.4,4.6v7.8l2.4,0.4v1.9h-7.8v-1.9l2.4-0.4v-7.8c0-1.4-0.3-2.4-0.9-3c-0.6-0.6-1.4-0.9-2.6-0.9
			c-0.9,0-1.6,0.1-2.2,0.6c-0.6,0.4-1.2,1-1.6,1.6v9.4l2.4,0.4v1.9L229.3,107.3L229.3,107.3z"/>
		<path d="M256.3,107.6c-1.4,0-2.7-0.3-3.9-1c-1.2-0.7-1.9-1.6-2.6-2.9c-0.7-1.3-0.9-2.6-0.9-4.2v-0.6c0-1.6,0.3-2.9,1-4
			c0.6-1.2,1.4-2.2,2.4-2.9c1-0.7,2.2-1,3.5-1c1.4,0,2.6,0.3,3.6,0.9c1,0.6,1.7,1.4,2.2,2.4s0.7,2.3,0.7,3.7v1.9H252v0.1
			c0,1,0.1,1.9,0.6,2.7c0.3,0.9,0.9,1.4,1.4,1.9c0.6,0.4,1.4,0.7,2.3,0.7c1,0,1.9-0.1,2.6-0.4c0.7-0.3,1.4-0.7,1.9-1.2l1.2,1.9
			c-0.6,0.6-1.3,1-2.3,1.4C258.8,107.4,257.8,107.6,256.3,107.6z M252.1,97.6h7.3v-0.4c0-0.7-0.1-1.4-0.4-2
			c-0.3-0.6-0.7-1.2-1.2-1.4c-0.6-0.3-1.2-0.6-2-0.6c-0.7,0-1.3,0.1-1.7,0.6c-0.4,0.4-1,0.9-1.3,1.6
			C252.6,96.1,252.3,96.8,252.1,97.6L252.1,97.6z"/>
		<path d="M264.7,107.3v-1.9l2.4-0.4V93.6l-2.4-0.4v-1.9h5l0.3,2v0.3c0.4-0.9,1-1.4,1.7-1.9c0.7-0.4,1.4-0.7,2.3-0.7
			c0.3,0,0.6,0,1,0.1c0.3,0,0.6,0.1,0.7,0.1l-0.4,2.7l-2-0.1c-0.7,0-1.4,0.1-1.9,0.6c-0.6,0.4-0.9,0.9-1.2,1.6v9.1l2.4,0.4v1.9h-8.1
			L264.7,107.3L264.7,107.3z"/>
		<path d="M282.5,107.6c-1.7,0-2.9-0.4-3.7-1.2c-0.9-0.9-1.3-2-1.3-3.5c0-1,0.3-1.9,0.9-2.6c0.6-0.7,1.3-1.3,2.4-1.7
			c1.2-0.4,2.3-0.6,3.7-0.6h2.9v-1.6c0-1-0.3-1.7-0.9-2.3s-1.4-0.9-2.4-0.9c-0.7,0-1.3,0.1-1.7,0.3c-0.4,0.1-1,0.4-1.3,0.7l-0.3,2.2
			h-2.3v-3.6c0.7-0.6,1.6-1,2.4-1.3c1-0.3,2-0.4,3.2-0.4c1.9,0,3.5,0.4,4.6,1.4s1.6,2.3,1.6,4v7.6c0,0.1,0,0.4,0,0.6
			c0,0.1,0,0.4,0,0.6l1.6,0.1v1.9h-4.3c-0.1-0.4-0.1-0.9-0.1-1.2c0-0.3-0.1-0.7-0.1-1c-0.6,0.7-1.3,1.3-2.2,1.7
			C284.4,107.3,283.5,107.6,282.5,107.6z M282.9,105.1c1,0,1.9-0.3,2.6-0.7c0.7-0.4,1.4-1,1.7-1.7v-2.9h-3c-1.3,0-2.3,0.3-3,1
			c-0.7,0.7-1,1.3-1,2.2c0,0.7,0.3,1.3,0.7,1.6C281.4,105,282.1,105.1,282.9,105.1z"/>
		<path d="M308.7,107.6c-1.4,0-2.7-0.3-3.7-1c-1-0.7-1.9-1.6-2.4-2.9s-0.9-2.6-0.9-4.2v-0.6c0-1.6,0.3-2.9,0.9-4
			c0.6-1.2,1.4-2.2,2.4-2.9c1-0.7,2.3-1,3.9-1c1.3,0,2.4,0.1,3.5,0.6c1,0.4,1.7,1,2.4,1.7l0.1,3.9h-2.3l-0.4-2.7
			c-0.3-0.3-0.7-0.6-1.3-0.9c-0.6-0.3-1.2-0.3-1.7-0.3c-0.9,0-1.6,0.3-2.3,0.7c-0.7,0.6-1.2,1.2-1.6,2s-0.6,1.9-0.6,2.9v0.6
			c0,1.2,0.1,2.2,0.6,3c0.3,0.9,0.9,1.6,1.4,2s1.4,0.7,2.3,0.7c1,0,1.9-0.3,2.4-0.9c0.6-0.6,1-1.3,1.2-2.2h2.6v0.1
			c0,0.9-0.3,1.7-0.9,2.6c-0.6,0.9-1.2,1.4-2.2,1.9C311.1,107.3,310.1,107.6,308.7,107.6z"/>
		<path d="M324.5,107.6c-1.4,0-2.7-0.3-3.9-1c-1.2-0.7-1.9-1.6-2.6-2.9c-0.7-1.3-0.9-2.6-0.9-4.2v-0.6c0-1.6,0.3-2.9,1-4
			c0.6-1.2,1.4-2.2,2.4-2.9c1-0.7,2.2-1,3.5-1c1.4,0,2.6,0.3,3.6,0.9c1,0.6,1.7,1.4,2.2,2.4s0.7,2.3,0.7,3.7v1.9h-10.4v0.1
			c0,1,0.1,1.9,0.6,2.7c0.3,0.9,0.9,1.4,1.4,1.9c0.6,0.4,1.4,0.7,2.3,0.7c1,0,1.9-0.1,2.6-0.4c0.7-0.3,1.4-0.7,1.9-1.2l1.2,1.9
			c-0.6,0.6-1.3,1-2.3,1.4C327,107.4,325.8,107.6,324.5,107.6z M320.4,97.6h7.3v-0.4c0-0.7-0.1-1.4-0.4-2c-0.3-0.6-0.7-1.2-1.2-1.4
			c-0.6-0.3-1.2-0.6-2-0.6c-0.7,0-1.3,0.1-1.7,0.6c-0.4,0.4-1,0.9-1.3,1.6C320.8,96.1,320.5,96.8,320.4,97.6L320.4,97.6z"/>
		<path d="M332.9,107.3v-1.9l2.4-0.4V93.6l-2.4-0.4v-1.9h5l0.1,2.4c0.6-0.9,1.2-1.4,2-2c0.9-0.6,1.7-0.7,2.7-0.7c1.7,0,3,0.6,4,1.6
			c1,1,1.4,2.6,1.4,4.6v7.8l2.4,0.4v1.9h-7.8v-1.9l2.4-0.4v-7.8c0-1.4-0.3-2.4-0.9-3s-1.4-0.9-2.6-0.9c-0.9,0-1.6,0.1-2.2,0.6
			s-1.2,1-1.6,1.6v9.4l2.4,0.4v1.9L332.9,107.3L332.9,107.3z"/>
		<path d="M358.3,107.6c-1.2,0-2.2-0.3-2.9-1c-0.7-0.7-1-1.9-1-3.3v-9.6h-2.6v-2.2h2.6v-4h2.9v3.9h3.5v2.2h-3.5v9.6
			c0,0.7,0.1,1.3,0.4,1.7c0.3,0.4,0.7,0.6,1.3,0.6c0.3,0,0.7,0,1.2-0.1c0.4,0,0.7-0.1,1-0.1l0.4,1.9c-0.4,0.1-1,0.3-1.6,0.3
			C359.5,107.3,358.9,107.6,358.3,107.6z"/>
		<path d="M370.7,107.6c-1.4,0-2.7-0.3-3.9-1c-1.2-0.7-1.9-1.6-2.6-2.9c-0.7-1.3-0.9-2.6-0.9-4.2v-0.6c0-1.6,0.3-2.9,1-4
			c0.6-1.2,1.4-2.2,2.4-2.9c1-0.7,2.2-1,3.5-1c1.4,0,2.6,0.3,3.6,0.9s1.7,1.4,2.2,2.4s0.7,2.3,0.7,3.7v1.9h-10.4v0.1
			c0,1,0.1,1.9,0.6,2.7c0.3,0.9,0.9,1.4,1.4,1.9c0.6,0.4,1.4,0.7,2.3,0.7c1,0,1.9-0.1,2.6-0.4c0.7-0.3,1.4-0.7,1.9-1.2l1.2,1.9
			c-0.6,0.6-1.3,1-2.3,1.4C373.2,107.4,372.2,107.6,370.7,107.6z M366.6,97.6h7.3v-0.4c0-0.7-0.1-1.4-0.4-2
			c-0.3-0.6-0.7-1.2-1.2-1.4c-0.6-0.3-1.2-0.6-2-0.6c-0.7,0-1.3,0.1-1.7,0.6c-0.4,0.4-1,0.9-1.3,1.6C367,96.1,366.7,96.8,366.6,97.6
			L366.6,97.6z"/>
		<path d="M379.1,107.3v-1.9l2.4-0.4V93.6l-2.4-0.4v-1.9h5l0.3,2v0.3c0.4-0.9,1-1.4,1.7-1.9c0.7-0.4,1.4-0.7,2.3-0.7
			c0.3,0,0.6,0,1,0.1c0.3,0,0.6,0.1,0.7,0.1l-0.4,2.7l-2-0.1c-0.7,0-1.4,0.1-1.9,0.6c-0.6,0.4-0.9,0.9-1.2,1.6v9.1l2.4,0.4v1.9h-8.1
			L379.1,107.3L379.1,107.3z"/>
	</g>
</g>
<g>
	<g>
		<path d="M447.6,107.5c-2.1,0-3.7-0.4-5.1-1.4c-1.4-1-2.5-2.2-3.2-3.7c-0.7-1.5-1.1-3.3-1.1-5.4v-0.3c0-2.1,0.4-3.9,1.1-5.4
			s1.8-2.8,3.2-3.7c1.4-1,3-1.4,4.8-1.4c1.4,0,2.5,0.3,3.6,0.7c1.1,0.4,2.1,1,2.8,1.5v4.4h-2.2l-0.3-3.3c-0.3-0.3-0.7-0.4-1.1-0.6
			c-0.4-0.1-0.8-0.3-1.2-0.4s-1-0.1-1.5-0.1c-1.4,0-2.5,0.4-3.4,1.1s-1.7,1.7-2.1,2.9c-0.4,1.2-0.7,2.6-0.7,4.3v0.3
			c0,1.8,0.3,3.2,0.8,4.4c0.5,1.2,1.2,2.2,2.2,2.8c1,0.7,2.2,1,3.6,1c0.7,0,1.2-0.1,1.9-0.3s1.1-0.4,1.5-0.7l0.3-2.9h2.2v4.4
			c-0.8,0.4-1.7,0.8-2.8,1.1C449.8,107.4,448.7,107.5,447.6,107.5z"/>
		<path d="M463.3,107.5c-1.4,0-2.6-0.3-3.7-1c-1.1-0.7-1.8-1.5-2.5-2.8s-0.8-2.5-0.8-4v-0.6c0-1.5,0.3-2.8,1-3.9
			c0.6-1.1,1.4-2.1,2.3-2.8c1-0.7,2.1-1,3.3-1c1.4,0,2.5,0.3,3.4,0.8c1,0.5,1.7,1.4,2.1,2.3c0.4,1,0.7,2.2,0.7,3.6v1.8h-9.9v0.1
			c0,1,0.1,1.8,0.6,2.6c0.3,0.8,0.8,1.4,1.4,1.8c0.6,0.4,1.4,0.7,2.2,0.7c1,0,1.8-0.1,2.5-0.4s1.4-0.7,1.8-1.1l1.1,1.8
			c-0.6,0.6-1.2,1-2.2,1.4C465.6,107.4,464.5,107.5,463.3,107.5z M459.3,98h7v-0.4c0-0.7-0.1-1.4-0.4-1.9c-0.3-0.6-0.7-1.1-1.1-1.4
			c-0.6-0.3-1.1-0.6-1.9-0.6c-0.7,0-1.2,0.1-1.7,0.6c-0.4,0.4-1,0.8-1.2,1.5S459.4,97.2,459.3,98L459.3,98z"/>
		<path d="M471.3,107.2v-1.8l2.3-0.4V94.2l-2.3-0.4V92h4.8l0.3,1.9v0.3c0.4-0.8,1-1.4,1.7-1.8c0.7-0.4,1.4-0.7,2.2-0.7
			c0.3,0,0.6,0,1,0.1c0.3,0,0.6,0.1,0.7,0.1l-0.4,2.6l-1.9-0.1c-0.7,0-1.4,0.1-1.8,0.6c-0.6,0.4-0.8,0.8-1.1,1.5v8.7l2.3,0.4v1.8
			h-7.7L471.3,107.2L471.3,107.2z"/>
		<path d="M483.4,107.2v-1.8l2.3-0.4V94.2l-2.3-0.4V92h4.8l0.3,1.9v0.3c0.4-0.8,1-1.4,1.7-1.8c0.7-0.4,1.4-0.7,2.2-0.7
			c0.3,0,0.6,0,1,0.1c0.3,0,0.6,0.1,0.7,0.1l-0.4,2.6l-1.9-0.1c-0.7,0-1.4,0.1-1.8,0.6c-0.6,0.4-0.8,0.8-1.1,1.5v8.7l2.3,0.4v1.8
			h-7.7L483.4,107.2L483.4,107.2z"/>
		<path d="M502.3,107.5c-1.4,0-2.6-0.3-3.7-1c-1-0.7-1.8-1.5-2.3-2.8c-0.6-1.2-0.8-2.5-0.8-4v-0.3c0-1.5,0.3-2.9,0.8-4
			c0.6-1.2,1.4-2.1,2.3-2.8c1-0.7,2.2-1,3.6-1c1.4,0,2.6,0.3,3.7,1c1,0.7,1.8,1.7,2.3,2.8c0.6,1.1,0.8,2.5,0.8,4v0.3
			c0,1.5-0.3,2.9-0.8,4c-0.6,1.2-1.4,2.1-2.3,2.8C505,107.2,503.7,107.5,502.3,107.5z M502.3,105.3c0.8,0,1.7-0.3,2.2-0.7
			c0.5-0.4,1.1-1.1,1.4-1.9c0.3-0.8,0.4-1.8,0.4-2.9v-0.3c0-1.1-0.1-2.1-0.4-2.9c-0.3-0.8-0.8-1.5-1.4-1.9c-0.6-0.6-1.4-0.7-2.2-0.7
			c-0.8,0-1.7,0.3-2.2,0.7c-0.6,0.6-1.1,1.1-1.4,1.9s-0.4,1.8-0.4,2.9v0.3c0,1.1,0.1,2.1,0.4,2.9c0.3,0.8,0.7,1.5,1.4,1.9
			C500.7,105,501.4,105.3,502.3,105.3z"/>
		<path d="M525.9,107.5c-1.2,0-2.5-0.1-3.6-0.6s-2.2-1-3.3-1.7v-4.4h2.2l0.4,3.2c0.6,0.4,1.2,0.7,1.9,0.8c0.7,0.1,1.5,0.3,2.3,0.3
			c1,0,1.8-0.1,2.3-0.4c0.7-0.3,1.1-0.7,1.5-1.2c0.4-0.6,0.6-1.1,0.6-1.8s-0.1-1.2-0.4-1.7c-0.3-0.4-0.8-1-1.5-1.2
			c-0.7-0.4-1.7-0.7-2.9-1c-1.4-0.3-2.6-0.8-3.6-1.4c-1-0.6-1.7-1.2-2.2-2.1c-0.6-0.8-0.7-1.7-0.7-2.8c0-1.1,0.3-2.1,0.8-2.9
			c0.6-0.8,1.4-1.5,2.3-2.1c1-0.5,2.2-0.7,3.6-0.7s2.8,0.3,3.9,0.7c1.1,0.4,2.1,1,2.8,1.7v4.1h-2.2l-0.4-2.9c-0.4-0.3-1-0.7-1.5-0.8
			c-0.5-0.1-1.4-0.3-2.3-0.3c-0.8,0-1.5,0.1-2.1,0.4s-1.1,0.7-1.4,1.1s-0.6,1.1-0.6,1.8c0,0.6,0.1,1.1,0.4,1.5s0.8,0.8,1.5,1.1
			s1.6,0.7,2.8,1c2.2,0.6,3.8,1.4,4.9,2.3c1.1,1.1,1.7,2.3,1.7,3.9c0,1.1-0.3,2.1-0.8,2.9c-0.6,0.8-1.4,1.5-2.5,2.1
			C528.6,107.2,527.4,107.5,525.9,107.5z"/>
		<path d="M540.3,107.5c-1.7,0-2.8-0.4-3.6-1.1c-0.8-0.8-1.2-1.9-1.2-3.3c0-1,0.3-1.8,0.8-2.5c0.6-0.7,1.2-1.2,2.3-1.7
			s2.2-0.6,3.6-0.6h2.8v-1.5c0-1-0.3-1.7-0.8-2.2c-0.5-0.6-1.4-0.8-2.3-0.8c-0.7,0-1.2,0.1-1.7,0.3s-1,0.4-1.2,0.7l-0.3,2.1h-2.2
			v-3.4c0.7-0.6,1.5-1,2.3-1.2c1-0.3,1.9-0.4,3-0.4c1.8,0,3.3,0.4,4.4,1.4s1.5,2.2,1.5,3.9v7.3c0,0.1,0,0.4,0,0.6s0,0.4,0,0.6
			l1.5,0.1v1.8h-4c-0.1-0.4-0.1-0.8-0.1-1.1s-0.1-0.7-0.1-1c-0.6,0.7-1.2,1.2-2.1,1.7C542.1,107.2,541.3,107.5,540.3,107.5z
			 M540.7,105.2c1,0,1.8-0.3,2.5-0.7s1.4-1,1.7-1.7v-2.8h-2.9c-1.2,0-2.2,0.3-2.9,1s-1,1.2-1,2.1c0,0.7,0.3,1.2,0.7,1.5
			C539.3,105,539.9,105.2,540.7,105.2z"/>
		<path d="M551.4,107.2v-1.8l2.3-0.4V94.2l-2.3-0.4V92h4.8l0.1,2.3c0.5-0.8,1.1-1.4,1.9-1.9c0.8-0.6,1.7-0.7,2.6-0.7
			c1.7,0,2.9,0.6,3.9,1.5c1,1,1.4,2.5,1.4,4.4v7.4l2.3,0.4v1.8h-7.4v-1.8l2.3-0.4v-7.4c0-1.4-0.3-2.3-0.8-2.9
			c-0.6-0.6-1.4-0.8-2.5-0.8c-0.8,0-1.5,0.1-2.1,0.6s-1.1,1-1.5,1.5v8.9l2.3,0.4v1.8L551.4,107.2L551.4,107.2z"/>
		<path d="M575.8,107.5c-1.1,0-2.1-0.3-2.8-1c-0.7-0.7-1-1.8-1-3.2v-9.2h-2.5v-2.1h2.5v-3.9h2.8V92h3.3V94h-3.3v9.2
			c0,0.7,0.1,1.2,0.4,1.7s0.7,0.6,1.2,0.6c0.3,0,0.7,0,1.1-0.1c0.4,0,0.7-0.1,1-0.1l0.4,1.8c-0.4,0.1-1,0.3-1.5,0.3
			C576.9,107.2,576.2,107.5,575.8,107.5z"/>
		<path d="M585.5,107.5c-1.7,0-2.8-0.4-3.6-1.1c-0.8-0.8-1.2-1.9-1.2-3.3c0-1,0.3-1.8,0.8-2.5s1.2-1.2,2.3-1.7
			c1.1-0.4,2.2-0.6,3.6-0.6h2.8v-1.5c0-1-0.3-1.7-0.8-2.2c-0.5-0.6-1.4-0.8-2.3-0.8c-0.7,0-1.2,0.1-1.7,0.3s-1,0.4-1.2,0.7l-0.3,2.1
			h-2.2v-3.4c0.7-0.6,1.5-1,2.3-1.2c1-0.3,1.9-0.4,3-0.4c1.8,0,3.3,0.4,4.4,1.4s1.5,2.2,1.5,3.9v7.3c0,0.1,0,0.4,0,0.6s0,0.4,0,0.6
			l1.5,0.1v1.8h-4c-0.1-0.4-0.1-0.8-0.1-1.1s-0.1-0.7-0.1-1c-0.5,0.7-1.2,1.2-2.1,1.7C587.3,107.2,586.5,107.5,585.5,107.5z
			 M585.9,105.2c1,0,1.8-0.3,2.5-0.7s1.4-1,1.7-1.7v-2.8h-2.9c-1.2,0-2.2,0.3-2.9,1s-1,1.2-1,2.1c0,0.7,0.3,1.2,0.7,1.5
			C584.4,105,585.1,105.2,585.9,105.2z"/>
		<path d="M603.8,107.2v-1.8l2.3-0.4V88.8l-2.3-0.4v-1.8h2.3h2.8h2.3v1.8l-2.3,0.4V105h7.3l0.3-3.3h2.1v5.4L603.8,107.2L603.8,107.2
			z"/>
		<path d="M627.5,107.5c-1.7,0-2.9-0.6-3.9-1.7c-1-1.1-1.4-2.8-1.4-5V94l-1.8-0.4v-1.8h1.8h2.8v9.1c0,1.7,0.3,2.8,0.7,3.3
			c0.4,0.6,1.2,1,2.2,1c1,0,1.8-0.1,2.5-0.6s1.1-1,1.5-1.7v-8.8l-2.1-0.4V92h2.1h2.8V105l1.8,0.4v1.8h-4.3L632,105
			c-0.4,0.8-1.1,1.5-1.8,1.9C629.4,107.2,628.6,107.5,627.5,107.5z"/>
		<path d="M645.2,107.5c-1.4,0-2.6-0.3-3.6-1c-1-0.7-1.8-1.5-2.3-2.8c-0.6-1.2-0.8-2.5-0.8-4v-0.6c0-1.5,0.3-2.8,0.8-3.9
			c0.5-1.1,1.4-2.1,2.3-2.8c1-0.7,2.2-1,3.7-1c1.2,0,2.3,0.1,3.3,0.6c1,0.4,1.7,1,2.3,1.7l0.1,3.7h-2.2l-0.4-2.6
			c-0.3-0.3-0.7-0.6-1.2-0.8c-0.5-0.3-1.1-0.3-1.7-0.3c-0.8,0-1.5,0.3-2.2,0.7c-0.7,0.6-1.1,1.1-1.5,1.9s-0.6,1.8-0.6,2.8v0.6
			c0,1.1,0.1,2.1,0.6,2.9c0.3,0.8,0.8,1.5,1.4,1.9s1.4,0.7,2.2,0.7c1,0,1.8-0.3,2.3-0.8c0.6-0.6,1-1.2,1.1-2.1h2.5v0.1
			c0,0.8-0.3,1.7-0.8,2.5c-0.5,0.8-1.1,1.4-2.1,1.8C647.5,107.2,646.6,107.5,645.2,107.5z"/>
		<path d="M653.3,107.2v-1.8l2.3-0.4V94.2l-2.3-0.4V92h5.1V105l2.3,0.4v1.8H653.3L653.3,107.2z M655.2,89.1l2.6-3.9h3.3v0.1
			l-3.8,3.7H655.2L655.2,89.1z"/>
		<path d="M667.5,107.5c-1.6,0-2.8-0.4-3.6-1.1c-0.8-0.8-1.2-1.9-1.2-3.3c0-1,0.3-1.8,0.8-2.5s1.2-1.2,2.3-1.7
			c1.1-0.4,2.2-0.6,3.6-0.6h2.8v-1.5c0-1-0.3-1.7-0.8-2.2c-0.5-0.6-1.4-0.8-2.3-0.8c-0.7,0-1.2,0.1-1.7,0.3s-1,0.4-1.2,0.7l-0.3,2.1
			h-2.2v-3.4c0.7-0.6,1.5-1,2.3-1.2c1-0.3,1.9-0.4,3-0.4c1.8,0,3.3,0.4,4.4,1.4s1.5,2.2,1.5,3.9v7.3c0,0.1,0,0.4,0,0.6s0,0.4,0,0.6
			l1.5,0.1v1.8h-4c-0.1-0.4-0.1-0.8-0.1-1.1s-0.1-0.7-0.1-1c-0.5,0.7-1.2,1.2-2.1,1.7C669.3,107.2,668.4,107.5,667.5,107.5z
			 M667.9,105.2c1,0,1.8-0.3,2.5-0.7s1.4-1,1.7-1.7v-2.8h-2.9c-1.2,0-2.2,0.3-2.9,1s-1,1.2-1,2.1c0,0.7,0.3,1.2,0.7,1.5
			C666.5,105,667.1,105.2,667.9,105.2z"/>
	</g>
</g>
<g>
	<g>
		<path d="M866.5,106.1l-7.2-19.3l-1.7-0.3v-1.9h6.7v1.9l-2,0.3l4.7,13.6l0.4,1.7h0.1l0.6-1.7l5-13.6l-2.1-0.3v-1.9h6.7v1.9
			l-1.7,0.3l-7.2,19.3H866.5z"/>
		<path d="M887.1,106.4c-1.4,0-2.7-0.3-3.9-1c-1-0.7-1.9-1.6-2.4-2.9c-0.6-1.3-0.9-2.6-0.9-4.1v-0.3c0-1.6,0.3-3,0.9-4.1
			c0.6-1.3,1.4-2.1,2.4-2.9c1-0.7,2.3-1,3.7-1c1.4,0,2.7,0.3,3.9,1c1,0.7,1.9,1.7,2.4,2.9c0.6,1.1,0.9,2.6,0.9,4.1v0.3
			c0,1.6-0.3,3-0.9,4.1c-0.6,1.3-1.4,2.1-2.4,2.9C889.9,106.1,888.6,106.4,887.1,106.4z M887.1,104.1c0.9,0,1.7-0.3,2.3-0.7
			c0.6-0.6,1.1-1.1,1.4-2c0.3-0.9,0.4-1.9,0.4-3v-0.3c0-1.1-0.1-2.1-0.4-3c-0.3-0.9-0.9-1.6-1.4-2c-0.6-0.6-1.4-0.7-2.3-0.7
			s-1.7,0.3-2.3,0.7c-0.6,0.6-1.1,1.1-1.4,2s-0.4,1.9-0.4,3v0.3c0,1.1,0.1,2.1,0.4,3c0.3,0.9,0.7,1.6,1.4,2
			C885.4,103.8,886.1,104.1,887.1,104.1z"/>
		<path d="M896.3,106.1v-1.9l2.4-0.4V85.5l-2.4-0.4v-1.9h5.3v20.6l2.4,0.4v1.9H896.3L896.3,106.1z"/>
		<path d="M913.2,106.4c-1.4,0-2.7-0.3-3.7-1c-1-0.7-1.9-1.6-2.4-2.9c-0.6-1.3-0.9-2.6-0.9-4.1v-0.6c0-1.6,0.3-2.9,0.9-4
			c0.6-1.1,1.4-2.1,2.4-2.9c1-0.7,2.3-1,3.9-1c1.3,0,2.4,0.1,3.4,0.6c1,0.4,1.7,1,2.4,1.7l0.1,3.9H917l-0.4-2.7
			c-0.3-0.3-0.7-0.6-1.3-0.9c-0.6-0.3-1.1-0.3-1.7-0.3c-0.9,0-1.6,0.3-2.3,0.7c-0.7,0.6-1.1,1.1-1.6,2s-0.6,1.9-0.6,2.9v0.6
			c0,1.1,0.1,2.1,0.6,3c0.3,0.9,0.9,1.6,1.4,2c0.6,0.4,1.4,0.7,2.3,0.7c1,0,1.9-0.3,2.4-0.9c0.6-0.6,1-1.3,1.1-2.1h2.6v0.1
			c0,0.9-0.3,1.7-0.9,2.6c-0.6,0.9-1.1,1.4-2.1,1.9C915.6,106.1,914.5,106.4,913.2,106.4z"/>
		<path d="M926.8,106.4c-1.7,0-2.9-0.4-3.7-1.1c-0.9-0.9-1.3-2-1.3-3.4c0-1,0.3-1.9,0.9-2.6c0.6-0.7,1.3-1.3,2.4-1.7
			c1.1-0.4,2.3-0.6,3.7-0.6h2.9v-1.6c0-1-0.3-1.7-0.9-2.3c-0.6-0.6-1.4-0.9-2.4-0.9c-0.7,0-1.3,0.1-1.7,0.3c-0.4,0.1-1,0.4-1.3,0.7
			l-0.3,2.1h-2.3v-3.6c0.7-0.6,1.6-1,2.4-1.3c1-0.3,2-0.4,3.1-0.4c1.9,0,3.4,0.4,4.6,1.4c1.1,1,1.6,2.3,1.6,4v7.6c0,0.1,0,0.4,0,0.6
			c0,0.1,0,0.4,0,0.6l1.6,0.1v1.9h-4.1c-0.1-0.4-0.1-0.9-0.1-1.1s-0.1-0.7-0.1-1c-0.6,0.7-1.3,1.3-2.1,1.7
			C928.6,106.1,927.8,106.4,926.8,106.4z M927.2,104c1,0,1.9-0.3,2.6-0.7s1.4-1,1.7-1.7v-2.9h-3c-1.3,0-2.3,0.3-3,1s-1,1.3-1,2.1
			c0,0.7,0.3,1.3,0.7,1.6C925.8,103.8,926.3,104,927.2,104z M926.6,87.2l2.7-4h3.4v0.1l-4,3.9H926.6L926.6,87.2z"/>
		<path d="M938.2,106.1v-1.9l2.4-0.4V92.5l-2.4-0.4v-1.9h5l0.1,2.4c0.6-0.9,1.1-1.4,2-2c0.9-0.4,1.7-0.7,2.7-0.7c1.7,0,3,0.6,4,1.6
			c1,1,1.4,2.6,1.4,4.6v7.7l2.4,0.4v1.9h-7.7v-1.9l2.4-0.4v-7.7c0-1.4-0.3-2.4-0.9-3c-0.6-0.6-1.4-0.9-2.6-0.9
			c-0.9,0-1.6,0.1-2.1,0.6c-0.6,0.4-1.1,1-1.6,1.6v9.3l2.4,0.4v1.9L938.2,106.1L938.2,106.1z"/>
		<path d="M975.2,106.4c-2.1,0-3.9-0.4-5.3-1.4c-1.4-1-2.6-2.3-3.3-3.9s-1.1-3.4-1.1-5.6v-0.3c0-2.1,0.4-4,1.1-5.6s1.9-2.9,3.3-3.9
			c1.4-1,3.1-1.4,5-1.4c1.4,0,2.6,0.3,3.7,0.7c1.1,0.4,2.1,1,2.9,1.6v4.6h-2.3l-0.3-3.4c-0.3-0.3-0.7-0.4-1.1-0.6
			c-0.4-0.1-0.9-0.3-1.3-0.4c-0.4-0.1-1-0.1-1.6-0.1c-1.4,0-2.6,0.4-3.6,1.1c-1,0.7-1.7,1.7-2.1,3c-0.4,1.3-0.7,2.7-0.7,4.4v0.3
			c0,1.9,0.3,3.3,0.9,4.6c0.6,1.3,1.3,2.3,2.3,2.9c1,0.7,2.3,1,3.7,1c0.7,0,1.3-0.1,2-0.3c0.7-0.1,1.1-0.4,1.6-0.7l0.3-3h2.3v4.6
			c-0.9,0.4-1.7,0.9-2.9,1.1C977.5,106.3,976.4,106.4,975.2,106.4z"/>
		<path d="M984,106.1v-1.9l2.4-0.4V85.5l-2.4-0.4v-1.9h5.3v9.2c0.6-0.7,1.3-1.3,2-1.7s1.7-0.6,2.6-0.6c1.7,0,3,0.6,4,1.6
			s1.4,2.6,1.4,4.7v7.7l2.4,0.4v1.9H994v-1.9l2.4-0.4v-7.7c0-1.3-0.3-2.3-0.9-2.9c-0.6-0.6-1.4-1-2.6-1c-0.9,0-1.6,0.1-2.1,0.6
			c-0.7,0.4-1.1,0.9-1.6,1.6v9.4l2.4,0.4v1.9H984L984,106.1L984,106.1z"/>
		<path d="M1008.7,106.4c-1.7,0-2.9-0.4-3.7-1.1c-0.9-0.9-1.3-2-1.3-3.4c0-1,0.3-1.9,0.9-2.6c0.6-0.7,1.3-1.3,2.4-1.7
			s2.3-0.6,3.7-0.6h2.9v-1.6c0-1-0.3-1.7-0.9-2.3c-0.6-0.6-1.4-0.9-2.4-0.9c-0.7,0-1.3,0.1-1.7,0.3c-0.4,0.1-1,0.4-1.3,0.7l-0.3,2.1
			h-2.3v-3.6c0.7-0.6,1.6-1,2.4-1.3c1-0.3,2-0.4,3.1-0.4c1.9,0,3.4,0.4,4.6,1.4c1.1,1,1.6,2.3,1.6,4v7.6c0,0.1,0,0.4,0,0.6
			c0,0.1,0,0.4,0,0.6l1.6,0.1v1.9h-4.1c-0.1-0.4-0.1-0.9-0.1-1.1s-0.1-0.7-0.1-1c-0.6,0.7-1.3,1.3-2.1,1.7
			C1010.6,106.1,1009.7,106.4,1008.7,106.4z M1009.1,104c1,0,1.9-0.3,2.6-0.7s1.4-1,1.7-1.7v-2.9h-3c-1.3,0-2.3,0.3-3,1
			s-1,1.3-1,2.1c0,0.7,0.3,1.3,0.7,1.6C1007.7,103.8,1008.3,104,1009.1,104z"/>
		<path d="M1020.1,106.1v-1.9l2.4-0.4V92.5l-2.4-0.4v-1.9h5.3v13.6l2.4,0.4v1.9H1020.1L1020.1,106.1z M1022.3,86.4v-3.1h3v3.1
			H1022.3z"/>
		<path d="M1035.4,106.4c-1.1,0-2.1-0.3-2.9-1s-1-1.9-1-3.3v-9.6h-2.6v-2.1h2.6v-4h2.9v3.9h3.4v2.1h-3.4v9.6c0,0.7,0.1,1.3,0.4,1.7
			s0.7,0.6,1.3,0.6c0.3,0,0.7,0,1.1-0.1c0.4,0,0.7-0.1,1-0.1l0.4,1.9c-0.4,0.1-1,0.3-1.6,0.3
			C1036.4,106.3,1035.9,106.4,1035.4,106.4z"/>
		<path d="M1047.7,106.4c-1.4,0-2.7-0.3-3.9-1c-1.1-0.7-1.9-1.6-2.6-2.9c-0.6-1.1-0.9-2.6-0.9-4.1v-0.6c0-1.6,0.3-2.9,1-4
			c0.6-1.1,1.4-2.1,2.4-2.9c1-0.7,2.1-1,3.4-1c1.4,0,2.6,0.3,3.6,0.9c1,0.6,1.7,1.4,2.1,2.4c0.4,1,0.7,2.3,0.7,3.7v1.9h-10.3V99
			c0,1,0.1,1.9,0.6,2.7c0.3,0.9,0.9,1.4,1.4,1.9s1.4,0.7,2.3,0.7c1,0,1.9-0.1,2.6-0.4c0.7-0.3,1.4-0.7,1.9-1.1l1.1,1.9
			c-0.6,0.6-1.3,1-2.3,1.4C1050.2,106.3,1049,106.4,1047.7,106.4z M1043.6,96.5h7.3v-0.4c0-0.7-0.1-1.4-0.4-2
			c-0.3-0.6-0.7-1.1-1.1-1.4c-0.6-0.3-1.1-0.6-2-0.6c-0.7,0-1.3,0.1-1.7,0.6c-0.4,0.4-1,0.9-1.3,1.6
			C1044,95,1043.6,95.7,1043.6,96.5L1043.6,96.5z M1045.5,87.2l2.7-4h3.4v0.1l-4,3.9H1045.5L1045.5,87.2z"/>
		<path d="M1056,106.1v-1.9l2.4-0.4V92.5l-2.4-0.4v-1.9h5l0.1,2.4c0.6-0.9,1.1-1.4,2-2c0.9-0.4,1.7-0.7,2.7-0.7c1.7,0,3,0.6,4,1.6
			c1,1,1.4,2.6,1.4,4.6v7.7l2.4,0.4v1.9h-7.7v-1.9l2.4-0.4v-7.7c0-1.4-0.3-2.4-0.9-3c-0.6-0.6-1.4-0.9-2.6-0.9
			c-0.9,0-1.6,0.1-2.1,0.6c-0.6,0.4-1.1,1-1.6,1.6v9.3l2.4,0.4v1.9L1056,106.1L1056,106.1z"/>
	</g>
</g>
</svg>
