<?xml version="1.0" encoding="utf-8"?>
<!-- Generator: Adobe Illustrator 26.0.1, SVG Export Plug-In . SVG Version: 6.00 Build 0)  -->
<svg version="1.1" id="Capa_1" xmlns="http://www.w3.org/2000/svg" xmlns:xlink="http://www.w3.org/1999/xlink" x="0px" y="0px"
	 viewBox="0 0 1029.3 264.4" style="enable-background:new 0 0 1029.3 264.4;" xml:space="preserve">
<style type="text/css">
	.st0{fill:#7A7163;}
	.st1{fill:#958D82;}
	.st2{fill:#3C3832;}
	.st3{fill:none;stroke:#4D4D4D;stroke-miterlimit:10;}
	.st4{fill:none;stroke:#4D4D4D;stroke-miterlimit:10;stroke-dasharray:6.013,6.013;}
	.st5{fill:none;stroke:#4D4D4D;stroke-miterlimit:10;stroke-dasharray:5.6875,5.6875;}
	.st6{fill:none;stroke:#4D4D4D;stroke-miterlimit:10;stroke-dasharray:6.0434,6.0434;}
	.st7{fill:#63605B;}
	.st8{fill:#8A8884;}
	.st9{fill:#A74F33;}
	.st10{fill:#494541;}
	.st11{fill:none;stroke:#4D4D4D;stroke-miterlimit:10;stroke-dasharray:6;}
</style>
<path class="st0" d="M343.9,206.5c0,0,0.5-10.1,4.7-12.9c4.1-2.8,6.4-5.8,6.4-5.8v-3.5l2.5-2.1v-5.1l2.8-3.5c0,0,6.9-8.5,7.6-8.5
	c0.7,0,3.9-1.2,3.9-1.2l3-5.1h4.8c0,0-0.5,2.1,0,2.1s3-2.1,3-2.1l1.2,2.1l3.9-2.1l1.6-5.1l2.3-3l3.5-4.8l2.3-1.8l2.3,1.4l2.3-1.4
	h2.8l2.2-1.6l2.6-1.4l2.3-3.7l2.8-1.2l1.6,2.1l0.9-2.1h2.1l3.7-2.5l2.1,1.2l3-9l1.2,6.2l2.8-1.8l2.1,1.2l5.1-0.2l3-1.6l2.3-2.3
	l3-1.4v3.5l2.8-1.8l2.6-1.6l3,2.3l3,2.5l-3.7,2.5l1.2,2.3l2.5,0.9l3-0.7l1.2-3.7l1.6,2.8l2.1,0.9v2.1l6,1.6l2.3-0.7l2.3,1.8l2.1,1.4
	l3.2-0.7l2.8-1.2l2.3,2.1l1.4,2.8l2.3,1.6l3.9,3l2.3,2.8c0,0,6.4-0.5,7.1,0.9s4.8,3.7,4.8,3.7l3.7,1.6l5.1,1.6l3,5.8l5.5,1.2
	l2.1,2.3l1.2,7.8l6.9,6.5l3.2,6.4l1.6,10.6l6.4,3.9l1.4,2.5L343.9,206.5z"/>
<path class="st1" d="M313.5,171c1.2,6.5,1.2,36.4,1.2,36.4h-6V203c-0.3-23.2,1-31.9,1-31.9h0.1l0.2,0.6v0.3l0.2-0.1v-0.8l0.2-0.4
	h2.2l0.1,1.1h0.3v0.7l0.4-0.7v-1.1L313.5,171z"/>
<path class="st2" d="M533.7,172.5l43.8-28l10-1.4L596,132l4.1-3.2h7.9l35-25.5l5.3-3.6l8.1-7.9l9.5-2.2l7.1-1.4l10,3.6h9.4l9.1,5
	l4.7,1.1l6.5,0.7l25.6-12.5l9.7-6.6h11.5L771,74h12.1l20,8.3l35.2,32.7l6.8,0.7l35.3,32.7c0,0,12.6,12.2,14.7,19.8
	c0.7,2.4,23.6,15.1,27.6,15.7c7,1,9.3,23.5,9.3,23.5l-69.9-0.1L781,189.2l-131.2,18.1l-130.9,0.4l0,0l5.7-23L533.7,172.5z"/>
<g>
	<g>
		<line class="st3" x1="188" y1="74" x2="191" y2="74"/>
		<line class="st4" x1="197" y1="74" x2="771.3" y2="74"/>
		<line class="st3" x1="774.3" y1="74" x2="777.3" y2="74"/>
	</g>
</g>
<g>
	<g>
		<line class="st3" x1="188" y1="170.9" x2="191.6" y2="170.9"/>
		<line class="st5" x1="198.6" y1="170.9" x2="305.6" y2="170.9"/>
		<line class="st3" x1="309" y1="170.9" x2="312.6" y2="170.9"/>
	</g>
</g>
<line class="st3" x1="211.3" y1="207.4" x2="931.9" y2="207.4"/>
<g>
	<g>
		<line class="st3" x1="188" y1="126.4" x2="191" y2="126.4"/>
		<line class="st6" x1="197.1" y1="126.4" x2="605" y2="126.4"/>
		<line class="st3" x1="608" y1="126.4" x2="611" y2="126.4"/>
	</g>
</g>
<path class="st7" d="M649.6,207.3l3.1-22.8c0,0,16.4-28.4,27.5-30.2s18.6-2.2,18.6-2.2l10.6-11.2l8.9-4.7l13.7-4l15.5-12.4L758.2,98
	l6.6-16.2h27.1c0,0,14.2,28.1,14.2,32.1s7.5,22.2,7.5,22.2l23.1,13.7l12,26.2l13.3,11.1v20.2l-78.5-5.1L649.6,207.3z"/>
<path class="st8" d="M791.9,81.8c6.7,9.1,8,121.4,8,121.4l-16.4-1.1l-21.2,0.9c-6-67.8,2.5-121.2,2.5-121.2H791.9z"/>
<path class="st9" d="M772,84.7c0,0-7.6,38.8,0,114h19.5c0,0,0.6-81.6-4.4-114H772z"/>
<polygon class="st10" points="524.3,184.7 652.7,184.4 649.6,207.3 518.7,207.7 "/>
<path class="st10" d="M927,188c0,0-36.2,0.7-65-0.9v20.2l69.9,0.1C931.9,207.4,930.2,189.6,927,188z"/>
<g>
	<g>
		<path d="M92.5,173.2v-0.9l3.3-3.6c0.4-0.4,0.7-0.8,0.9-1.1c0.2-0.3,0.4-0.6,0.5-0.8c0.1-0.2,0.1-0.5,0.1-0.8
			c0-0.5-0.2-0.9-0.5-1.3c-0.3-0.3-0.7-0.5-1.3-0.5s-1,0.2-1.4,0.5c-0.4,0.3-0.5,0.8-0.5,1.5h-1.3l0,0c0-0.6,0.1-1.1,0.4-1.5
			c0.3-0.5,0.6-0.8,1.1-1.1s1.1-0.4,1.7-0.4s1.2,0.1,1.6,0.4c0.5,0.2,0.8,0.6,1,1c0.2,0.4,0.4,0.9,0.4,1.4c0,0.4-0.1,0.7-0.2,1.1
			c-0.1,0.4-0.4,0.7-0.6,1.1c-0.2,0.4-0.6,0.8-1,1.2l-2.6,2.9l0,0h3.5l0.1-1.1h1.1v2.2h-6.3V173.2z"/>
		<path d="M103,173.3c-0.3,0-0.7,0-1.1-0.1s-0.7-0.2-1-0.3l0.2-1c0.3,0.1,0.6,0.2,0.9,0.3c0.3,0.1,0.6,0.1,1,0.1
			c0.6,0,1.2-0.2,1.5-0.7c0.4-0.5,0.6-1.3,0.6-2.4l0,0c-0.2,0.3-0.4,0.5-0.8,0.7c-0.4,0.2-0.7,0.2-1.1,0.2c-0.6,0-1.2-0.1-1.7-0.4
			s-0.8-0.7-1.1-1.2s-0.4-1.1-0.4-1.9c0-0.7,0.1-1.3,0.4-1.8c0.3-0.5,0.6-1,1.1-1.3s1-0.5,1.6-0.5c0.7,0,1.3,0.1,1.8,0.4
			c0.5,0.3,0.9,0.7,1.2,1.3c0.3,0.6,0.4,1.3,0.4,2.1v1.8c0,1-0.1,1.9-0.4,2.6s-0.7,1.2-1.2,1.5S103.7,173.3,103,173.3z M103.2,169
			c0.5,0,0.9-0.1,1.2-0.3c0.3-0.2,0.6-0.5,0.7-0.8v-1.1c0-0.9-0.2-1.5-0.5-2c-0.3-0.5-0.8-0.7-1.5-0.7c-0.3,0-0.6,0.1-0.9,0.3
			s-0.5,0.5-0.6,0.9c-0.1,0.4-0.2,0.8-0.2,1.3s0.1,0.9,0.2,1.2c0.1,0.4,0.3,0.6,0.6,0.8C102.6,168.9,102.9,169,103.2,169z"/>
		<path d="M109.9,173.2l0.1-1.1c0.1-1,0.3-2,0.6-2.9c0.3-0.9,0.7-1.7,1.1-2.5c0.4-0.8,1-1.6,1.6-2.4h-4.2l-0.1,1.1h-1.1v-2.2h6.7
			v1.1c-0.6,0.7-1.1,1.4-1.5,2s-0.7,1.2-0.9,1.8c-0.2,0.6-0.4,1.2-0.6,1.9s-0.3,1.4-0.3,2.2l-0.1,1.1h-1.3V173.2z"/>
		<path d="M119.1,173.2v-0.9l1.1-0.2v-5.3l-1.1-0.2v-0.9h2.3l0.1,1c0.2-0.4,0.5-0.6,0.9-0.8s0.8-0.3,1.3-0.3s0.9,0.1,1.3,0.3
			c0.4,0.2,0.6,0.6,0.8,1c0.2-0.4,0.5-0.8,0.9-1s0.8-0.4,1.3-0.4c0.8,0,1.4,0.3,1.8,0.8c0.4,0.5,0.7,1.3,0.7,2.3v3.4l1.1,0.2v0.9
			H128v-0.9l1.1-0.2v-3.4c0-0.7-0.1-1.2-0.4-1.5c-0.3-0.3-0.6-0.5-1.1-0.5s-0.8,0.2-1.1,0.5c-0.3,0.3-0.5,0.7-0.5,1.2v3.6l1.1,0.2
			v0.9h-3.6v-0.9l1.1-0.2v-3.4c0-0.7-0.1-1.2-0.4-1.5s-0.6-0.5-1.1-0.5c-0.4,0-0.7,0.1-1,0.3c-0.3,0.2-0.5,0.4-0.6,0.7v4.4l1.1,0.2
			v0.9h-3.5V173.2z"/>
		<path d="M135.6,173.3c-0.5,0-1,0-1.4-0.2c-0.4-0.1-0.9-0.3-1.4-0.5v-1.8h1l0.3,1.1c0.3,0.1,0.5,0.2,0.7,0.2s0.5,0.1,0.8,0.1
			c0.5,0,0.9-0.1,1.2-0.3c0.3-0.2,0.4-0.5,0.4-0.8s-0.1-0.5-0.4-0.7c-0.2-0.2-0.7-0.4-1.3-0.5c-0.9-0.2-1.6-0.5-2-0.8
			c-0.4-0.3-0.6-0.8-0.6-1.4c0-0.4,0.1-0.8,0.3-1.1c0.2-0.3,0.6-0.6,1-0.8c0.4-0.2,0.9-0.3,1.4-0.3c0.6,0,1,0.1,1.4,0.2
			c0.4,0.1,0.7,0.3,1,0.5l0.1,1.7h-1l-0.2-1c-0.2-0.1-0.3-0.2-0.6-0.3c-0.3-0.1-0.5-0.1-0.8-0.1c-0.4,0-0.8,0.1-1,0.3
			s-0.4,0.4-0.4,0.7c0,0.2,0,0.3,0.1,0.5c0.1,0.1,0.2,0.2,0.4,0.3c0.2,0.1,0.5,0.2,0.9,0.3c1,0.2,1.7,0.5,2.2,0.9s0.6,0.8,0.6,1.4
			c0,0.6-0.2,1.1-0.7,1.6C137.3,173.1,136.6,173.3,135.6,173.3z"/>
		<path d="M140.1,173.2v-1.4h1.3v1.4H140.1z"/>
		<path d="M143,173.2v-0.9l1.1-0.2v-5.3l-1.1-0.2v-0.9h2.3l0.1,1.1c0.2-0.4,0.6-0.7,0.9-0.9c0.4-0.2,0.8-0.3,1.3-0.3
			c0.8,0,1.4,0.2,1.9,0.7c0.4,0.5,0.7,1.2,0.7,2.2v3.6l1.1,0.2v0.9h-3.6v-0.9l1.1-0.2v-3.6c0-0.7-0.1-1.1-0.4-1.4s-0.7-0.4-1.2-0.4
			c-0.4,0-0.7,0.1-1,0.3s-0.5,0.4-0.7,0.8v4.3l1.1,0.2v0.9L143,173.2L143,173.2z"/>
		<path d="M152.6,173.2v-1.4h1.3v1.4H152.6z"/>
		<path d="M155.5,173.2v-0.9l1.1-0.2v-5.3l-1.1-0.2v-0.9h2.3l0.1,1c0.2-0.4,0.5-0.6,0.9-0.8c0.4-0.2,0.8-0.3,1.3-0.3
			s0.9,0.1,1.3,0.3c0.4,0.2,0.6,0.6,0.8,1c0.2-0.4,0.5-0.8,0.9-1c0.4-0.2,0.8-0.4,1.3-0.4c0.8,0,1.4,0.3,1.8,0.8
			c0.4,0.5,0.7,1.3,0.7,2.3v3.4l1.1,0.2v0.9h-3.6v-0.9l1.1-0.2v-3.4c0-0.7-0.1-1.2-0.4-1.5s-0.6-0.5-1.1-0.5s-0.8,0.2-1.1,0.5
			c-0.3,0.3-0.5,0.7-0.5,1.2v3.6l1.1,0.2v0.9h-3.6v-0.9l1.1-0.2v-3.4c0-0.7-0.1-1.2-0.4-1.5s-0.6-0.5-1.1-0.5c-0.4,0-0.7,0.1-1,0.3
			s-0.5,0.4-0.6,0.7v4.4l1.1,0.2v0.9h-3.5V173.2z"/>
	</g>
</g>
<g>
	<g>
		<path d="M96,132.1c-0.6,0-1.2-0.2-1.7-0.5s-0.9-0.8-1.2-1.4s-0.4-1.3-0.4-2.2v-1.3c0-1.1,0.2-1.9,0.5-2.7c0.3-0.7,0.8-1.3,1.3-1.6
			s1.2-0.6,1.9-0.6c0.3,0,0.7,0,1,0.1c0.3,0.1,0.6,0.2,0.8,0.3l-0.3,1c-0.2-0.1-0.4-0.2-0.7-0.3c-0.3-0.1-0.5-0.1-0.9-0.1
			c-0.7,0-1.3,0.3-1.7,0.8s-0.6,1.3-0.7,2.4l0,0c0.3-0.2,0.6-0.4,0.9-0.6c0.4-0.1,0.8-0.2,1.2-0.2c0.6,0,1.1,0.1,1.5,0.4
			c0.4,0.3,0.8,0.7,1,1.2c0.2,0.5,0.4,1.1,0.4,1.7c0,0.7-0.1,1.3-0.4,1.8c-0.3,0.5-0.6,0.9-1.1,1.2S96.6,132.1,96,132.1z M96,131
			c0.4,0,0.7-0.1,0.9-0.3s0.5-0.5,0.6-0.9s0.2-0.8,0.2-1.2c0-0.7-0.2-1.2-0.5-1.6c-0.3-0.4-0.8-0.6-1.4-0.6c-0.3,0-0.6,0-0.8,0.1
			c-0.2,0.1-0.5,0.2-0.6,0.4c-0.2,0.2-0.3,0.3-0.4,0.5v0.8c0,0.9,0.2,1.6,0.6,2.1C95,130.8,95.4,131,96,131z"/>
		<path d="M100.3,132v-1l3.3-3.6c0.4-0.4,0.7-0.8,0.9-1.1c0.2-0.3,0.4-0.6,0.5-0.8s0.1-0.5,0.1-0.8c0-0.5-0.2-0.9-0.5-1.3
			c-0.3-0.3-0.7-0.5-1.3-0.5s-1,0.2-1.4,0.5s-0.5,0.8-0.5,1.5h-1.3l0,0c0-0.6,0.1-1.1,0.4-1.5c0.3-0.5,0.6-0.8,1.1-1.1
			c0.5-0.3,1.1-0.4,1.7-0.4s1.2,0.1,1.6,0.4c0.5,0.2,0.8,0.6,1,1c0.2,0.4,0.4,0.9,0.4,1.4c0,0.4-0.1,0.7-0.2,1.1
			c-0.1,0.4-0.4,0.7-0.6,1.1s-0.6,0.8-1,1.2l-2.6,2.9l0,0h3.5l0.1-1.1h1.1v2.2L100.3,132L100.3,132z"/>
		<path d="M110.8,132.1c-0.3,0-0.7,0-1.1-0.1c-0.4-0.1-0.7-0.2-1-0.3l0.2-1c0.3,0.1,0.6,0.2,0.9,0.3s0.6,0.1,1,0.1
			c0.6,0,1.2-0.2,1.5-0.7c0.4-0.5,0.6-1.3,0.6-2.4l0,0c-0.2,0.3-0.4,0.5-0.8,0.7c-0.4,0.2-0.7,0.2-1.1,0.2c-0.6,0-1.2-0.1-1.7-0.4
			s-0.8-0.7-1.1-1.2c-0.3-0.5-0.4-1.1-0.4-1.9c0-0.7,0.1-1.3,0.4-1.8s0.6-1,1.1-1.3s1-0.5,1.6-0.5c0.7,0,1.3,0.1,1.8,0.4
			s0.9,0.7,1.2,1.3c0.3,0.6,0.4,1.3,0.4,2.1v1.8c0,1-0.1,1.9-0.4,2.6s-0.7,1.2-1.2,1.5S111.6,132.1,110.8,132.1z M111.1,127.8
			c0.5,0,0.9-0.1,1.2-0.3c0.3-0.2,0.6-0.5,0.7-0.8v-1.1c0-0.9-0.2-1.5-0.5-2c-0.3-0.5-0.8-0.7-1.5-0.7c-0.3,0-0.6,0.1-0.9,0.3
			c-0.3,0.2-0.5,0.5-0.6,0.9s-0.2,0.8-0.2,1.3s0.1,0.9,0.2,1.2c0.1,0.4,0.3,0.6,0.6,0.8C110.4,127.6,110.7,127.8,111.1,127.8z"/>
		<path d="M119.2,132v-0.9l1.1-0.2v-5.3l-1.1-0.2v-0.9h2.3l0.1,1c0.2-0.4,0.5-0.6,0.9-0.8s0.8-0.3,1.3-0.3s0.9,0.1,1.3,0.3
			c0.4,0.2,0.6,0.6,0.8,1c0.2-0.4,0.5-0.8,0.9-1s0.8-0.4,1.3-0.4c0.8,0,1.4,0.3,1.8,0.8s0.7,1.3,0.7,2.3v3.4l1.1,0.2v0.9h-3.6V131
			l1.1-0.2v-3.4c0-0.7-0.1-1.2-0.4-1.5s-0.6-0.5-1.1-0.5c-0.5,0-0.8,0.2-1.1,0.5c-0.3,0.3-0.5,0.7-0.5,1.2v3.6l1.1,0.2v0.9h-3.6
			v-0.9l1.1-0.2v-3.4c0-0.7-0.1-1.2-0.4-1.5c-0.3-0.3-0.6-0.5-1.1-0.5c-0.4,0-0.7,0.1-1,0.3c-0.3,0.2-0.5,0.4-0.6,0.7v4.4l1.1,0.2
			v0.9h-3.5V132z"/>
		<path d="M135.7,132.1c-0.5,0-1,0-1.4-0.2c-0.4-0.1-0.9-0.3-1.4-0.5v-1.8h1l0.3,1.1c0.3,0.1,0.5,0.2,0.7,0.2c0.2,0,0.5,0.1,0.8,0.1
			c0.5,0,0.9-0.1,1.2-0.3c0.3-0.2,0.4-0.5,0.4-0.8s-0.1-0.5-0.4-0.7c-0.2-0.2-0.7-0.4-1.3-0.5c-0.9-0.2-1.6-0.5-2-0.8
			c-0.4-0.3-0.6-0.8-0.6-1.4c0-0.4,0.1-0.8,0.3-1.1c0.2-0.3,0.6-0.6,1-0.8c0.4-0.2,0.9-0.3,1.4-0.3c0.6,0,1,0.1,1.4,0.2
			c0.4,0.1,0.7,0.3,1,0.5l0.1,1.7h-1l-0.2-1c-0.2-0.1-0.3-0.2-0.6-0.3c-0.3-0.1-0.5-0.1-0.8-0.1c-0.4,0-0.8,0.1-1,0.3
			s-0.4,0.4-0.4,0.7c0,0.2,0,0.3,0.1,0.5c0.1,0.2,0.2,0.2,0.4,0.3c0.2,0.1,0.5,0.2,0.9,0.3c1,0.2,1.7,0.5,2.2,0.9
			c0.5,0.4,0.6,0.8,0.6,1.4c0,0.6-0.2,1.1-0.7,1.6C137.5,131.9,136.7,132.1,135.7,132.1z"/>
		<path d="M140.2,132v-1.4h1.3v1.4H140.2z"/>
		<path d="M143.1,132v-0.9l1.1-0.2v-5.3l-1.1-0.2v-0.9h2.3l0.1,1.1c0.2-0.4,0.6-0.7,0.9-0.9c0.4-0.2,0.8-0.3,1.3-0.3
			c0.8,0,1.4,0.2,1.9,0.7c0.4,0.5,0.7,1.2,0.7,2.2v3.6l1.1,0.2v0.9h-3.6v-0.9l1.1-0.2v-3.6c0-0.7-0.1-1.1-0.4-1.4s-0.7-0.4-1.2-0.4
			c-0.4,0-0.7,0.1-1,0.3s-0.5,0.4-0.7,0.8v4.3l1.1,0.2v0.9L143.1,132L143.1,132z"/>
		<path d="M152.8,132v-1.4h1.3v1.4H152.8z"/>
		<path d="M155.6,132v-0.9l1.1-0.2v-5.3l-1.1-0.2v-0.9h2.3l0.1,1c0.2-0.4,0.5-0.6,0.9-0.8c0.4-0.2,0.8-0.3,1.3-0.3s0.9,0.1,1.3,0.3
			c0.4,0.2,0.6,0.6,0.8,1c0.2-0.4,0.5-0.8,0.9-1c0.4-0.2,0.8-0.4,1.3-0.4c0.8,0,1.4,0.3,1.8,0.8c0.4,0.5,0.7,1.3,0.7,2.3v3.4
			l1.1,0.2v0.9h-3.6V131l1.1-0.2v-3.4c0-0.7-0.1-1.2-0.4-1.5s-0.6-0.5-1.1-0.5s-0.8,0.2-1.1,0.5c-0.3,0.3-0.5,0.7-0.5,1.2v3.6
			l1.1,0.2v0.9H160v-0.9l1.1-0.2v-3.4c0-0.7-0.1-1.2-0.4-1.5s-0.6-0.5-1.1-0.5c-0.4,0-0.7,0.1-1,0.3s-0.5,0.4-0.6,0.7v4.4l1.1,0.2
			v0.9h-3.5V132z"/>
	</g>
</g>
<g>
	<g>
		<path d="M95.3,79.7c-0.3,0-0.7,0-1.1-0.1c-0.4-0.1-0.7-0.2-1-0.3l0.2-1c0.3,0.1,0.6,0.2,0.9,0.3c0.3,0.1,0.6,0.1,1,0.1
			c0.6,0,1.2-0.2,1.5-0.7c0.4-0.5,0.6-1.3,0.6-2.4l0,0c-0.2,0.3-0.4,0.5-0.8,0.7c-0.4,0.2-0.7,0.2-1.1,0.2c-0.6,0-1.2-0.1-1.7-0.4
			s-0.8-0.7-1.1-1.2c-0.3-0.5-0.4-1.1-0.4-1.9c0-0.7,0.1-1.3,0.4-1.8c0.3-0.5,0.6-1,1.1-1.3s1-0.5,1.6-0.5c0.7,0,1.3,0.1,1.8,0.4
			s0.9,0.7,1.2,1.3c0.3,0.6,0.4,1.3,0.4,2.1V75c0,1-0.1,1.9-0.4,2.6c-0.3,0.7-0.7,1.2-1.2,1.5S96,79.7,95.3,79.7z M95.5,75.4
			c0.5,0,0.9-0.1,1.2-0.3c0.3-0.2,0.6-0.5,0.7-0.8v-1.1c0-0.9-0.2-1.5-0.5-2c-0.3-0.5-0.8-0.7-1.5-0.7c-0.3,0-0.6,0.1-0.9,0.3
			c-0.3,0.2-0.5,0.5-0.6,0.9s-0.2,0.8-0.2,1.3s0.1,0.9,0.2,1.2c0.1,0.4,0.3,0.6,0.6,0.8C94.8,75.2,95.1,75.4,95.5,75.4z"/>
		<path d="M103.9,79.7c-0.6,0-1.2-0.2-1.7-0.5s-0.9-0.8-1.2-1.4c-0.3-0.6-0.4-1.3-0.4-2.2v-1.3c0-1.1,0.2-1.9,0.5-2.7
			c0.3-0.7,0.8-1.3,1.3-1.6c0.6-0.4,1.2-0.6,1.9-0.6c0.3,0,0.7,0,1,0.1c0.3,0.1,0.6,0.2,0.8,0.3l-0.3,1c-0.2-0.1-0.4-0.2-0.7-0.3
			c-0.3-0.1-0.5-0.1-0.9-0.1c-0.7,0-1.3,0.3-1.7,0.8s-0.6,1.3-0.7,2.4l0,0c0.3-0.2,0.6-0.4,0.9-0.6c0.4-0.1,0.8-0.2,1.2-0.2
			c0.6,0,1.1,0.1,1.5,0.4s0.8,0.7,1,1.2c0.2,0.5,0.4,1.1,0.4,1.7c0,0.7-0.1,1.3-0.4,1.8s-0.6,0.9-1.1,1.2S104.5,79.7,103.9,79.7z
			 M103.9,78.7c0.4,0,0.7-0.1,0.9-0.3c0.2-0.2,0.5-0.5,0.6-0.9s0.2-0.8,0.2-1.2c0-0.7-0.2-1.2-0.5-1.6c-0.3-0.4-0.8-0.7-1.3-0.7
			c-0.3,0-0.6,0-0.8,0.1c-0.2,0.1-0.5,0.2-0.6,0.4c-0.2,0.2-0.3,0.3-0.4,0.5v0.8c0,0.9,0.2,1.6,0.6,2.1
			C102.8,78.4,103.3,78.7,103.9,78.7z"/>
		<path d="M111.1,79.7c-0.6,0-1.1-0.1-1.5-0.3s-0.8-0.5-1-0.9c-0.3-0.4-0.4-0.9-0.4-1.5l0,0h1.2c0,0.5,0.2,1,0.5,1.3
			c0.3,0.3,0.7,0.5,1.2,0.5c0.6,0,1-0.2,1.3-0.6c0.3-0.4,0.5-1,0.5-1.6s-0.2-1.2-0.5-1.6c-0.3-0.4-0.8-0.6-1.3-0.6s-0.9,0.1-1.2,0.2
			c-0.3,0.1-0.4,0.4-0.5,0.7l-1.1-0.2l0.6-5.5h5.3v2h-1l-0.1-0.8h-3l-0.3,2.8c0.1-0.1,0.3-0.2,0.4-0.3c0.2-0.1,0.3-0.1,0.5-0.2
			c0.2-0.1,0.4-0.1,0.6-0.1c0.6,0,1.1,0.1,1.6,0.4c0.4,0.3,0.8,0.7,1,1.2c0.2,0.5,0.4,1.1,0.4,1.8c0,0.7-0.1,1.2-0.4,1.7
			s-0.6,0.9-1.1,1.2C112.3,79.6,111.8,79.7,111.1,79.7z"/>
		<path d="M118.9,79.6v-0.9l1.1-0.2v-5.3l-1.1-0.2v-0.9h2.3l0.1,1c0.2-0.4,0.5-0.6,0.9-0.8s0.8-0.3,1.3-0.3s0.9,0.1,1.3,0.3
			c0.4,0.2,0.6,0.6,0.8,1c0.2-0.4,0.5-0.8,0.9-1s0.8-0.3,1.3-0.3c0.8,0,1.4,0.3,1.8,0.8c0.4,0.5,0.7,1.3,0.7,2.3v3.4l1.1,0.2v0.9
			h-3.6v-0.9l1.1-0.2v-3.4c0-0.7-0.1-1.2-0.4-1.5c-0.3-0.3-0.6-0.5-1.1-0.5s-0.8,0.2-1.1,0.5c-0.3,0.3-0.5,0.7-0.5,1.2v3.6l1.1,0.2
			v0.9h-3.6v-0.9l1.1-0.2V75c0-0.7-0.1-1.2-0.4-1.5s-0.6-0.5-1.1-0.5c-0.4,0-0.7,0.1-1,0.3c-0.3,0.2-0.5,0.4-0.6,0.7v4.4l1.1,0.2
			v0.9L118.9,79.6L118.9,79.6z"/>
		<path d="M135.4,79.7c-0.5,0-1,0-1.4-0.2c-0.4-0.1-0.9-0.3-1.4-0.5v-1.8h1l0.3,1.1c0.3,0.1,0.5,0.2,0.7,0.2c0.2,0,0.5,0.1,0.8,0.1
			c0.5,0,0.9-0.1,1.2-0.3c0.3-0.2,0.4-0.5,0.4-0.8s-0.1-0.5-0.4-0.7c-0.2-0.2-0.7-0.4-1.3-0.5c-0.9-0.2-1.6-0.5-2-0.8
			c-0.4-0.3-0.6-0.8-0.6-1.4c0-0.4,0.1-0.8,0.3-1.1c0.2-0.3,0.6-0.6,1-0.8c0.4-0.2,0.9-0.3,1.4-0.3c0.6,0,1,0.1,1.4,0.2
			c0.4,0.1,0.7,0.3,1,0.5l0.1,1.7h-1l-0.2-1c-0.2-0.1-0.3-0.2-0.6-0.3c-0.3-0.1-0.5-0.1-0.8-0.1c-0.4,0-0.8,0.1-1,0.3
			c-0.3,0.2-0.4,0.4-0.4,0.7c0,0.2,0,0.3,0.1,0.5c0.1,0.2,0.2,0.2,0.4,0.3c0.2,0.1,0.5,0.2,0.9,0.3c1,0.2,1.7,0.5,2.2,0.9
			s0.8,1.1,0.8,1.6c0,0.6-0.2,1.1-0.7,1.6C137.1,79.5,136.4,79.7,135.4,79.7z"/>
		<path d="M139.9,79.6v-1.4h1.3v1.4H139.9z"/>
		<path d="M142.8,79.6v-0.9l1.1-0.2v-5.3l-1.1-0.2v-0.9h2.3l0.1,1.1c0.2-0.4,0.6-0.7,0.9-0.9c0.4-0.2,0.8-0.3,1.3-0.3
			c0.8,0,1.4,0.2,1.9,0.7c0.4,0.5,0.7,1.2,0.7,2.2v3.6l1.1,0.2v0.9h-3.6v-0.9l1.1-0.2v-3.6c0-0.7-0.1-1.1-0.4-1.4s-0.7-0.4-1.2-0.4
			c-0.4,0-0.7,0.1-1,0.3s-0.5,0.4-0.7,0.8v4.3l1.1,0.2v0.9C146.4,79.6,142.8,79.6,142.8,79.6z"/>
		<path d="M152.4,79.6v-1.4h1.3v1.4H152.4z"/>
		<path d="M155.3,79.6v-0.9l1.1-0.2v-5.3l-1.1-0.2v-0.9h2.3l0.1,1c0.2-0.4,0.5-0.6,0.9-0.8c0.4-0.2,0.8-0.3,1.3-0.3s0.9,0.1,1.3,0.3
			c0.4,0.2,0.6,0.6,0.8,1c0.2-0.4,0.5-0.8,0.9-1c0.4-0.2,0.8-0.3,1.4-0.3c0.8,0,1.4,0.3,1.8,0.8c0.4,0.5,0.7,1.3,0.7,2.3v3.4
			l1.1,0.2v0.9h-3.6v-0.9l1.1-0.2v-3.4c0-0.7-0.1-1.2-0.4-1.5s-0.6-0.5-1.1-0.5s-0.8,0.2-1.1,0.5s-0.5,0.7-0.5,1.2v3.6l1.1,0.2v0.9
			h-3.6v-0.9l1.1-0.2V75c0-0.7-0.1-1.2-0.4-1.5s-0.6-0.5-1.1-0.5c-0.4,0-0.7,0.1-1,0.3s-0.5,0.4-0.6,0.7v4.4l1.1,0.2v0.9L155.3,79.6
			L155.3,79.6z"/>
	</g>
</g>
<g>
	<g>
		<path d="M254.6,53.7c-1.1,0-2-0.2-2.7-0.7s-1.3-1.1-1.6-1.9c-0.4-0.8-0.5-1.7-0.5-2.8v-0.2c0-1,0.2-2,0.6-2.8
			c0.4-0.8,0.9-1.5,1.6-1.9s1.5-0.7,2.5-0.7c0.7,0,1.3,0.1,1.9,0.3c0.6,0.2,1,0.5,1.4,0.8v2.3h-1.1l-0.2-1.7
			c-0.2-0.1-0.3-0.2-0.5-0.3c-0.2-0.1-0.4-0.1-0.7-0.2c-0.2,0-0.5-0.1-0.8-0.1c-0.7,0-1.3,0.2-1.8,0.5c-0.5,0.4-0.8,0.9-1.1,1.5
			c-0.3,0.6-0.4,1.4-0.4,2.2v0.2c0,0.9,0.1,1.7,0.4,2.3s0.7,1.1,1.2,1.4s1.1,0.5,1.9,0.5c0.3,0,0.7,0,1-0.1c0.3-0.1,0.6-0.2,0.8-0.3
			l0.2-1.5h1.1v2.3c-0.4,0.2-0.9,0.4-1.4,0.6C255.8,53.6,255.2,53.7,254.6,53.7z"/>
		<path d="M262.8,53.7c-0.7,0-1.4-0.2-1.9-0.5s-0.9-0.8-1.2-1.4c-0.3-0.6-0.4-1.3-0.4-2.1v-0.2c0-0.8,0.1-1.5,0.4-2.1
			c0.3-0.6,0.7-1.1,1.2-1.4c0.5-0.3,1.2-0.5,1.9-0.5c0.7,0,1.4,0.2,1.9,0.5s0.9,0.8,1.2,1.4c0.3,0.6,0.4,1.3,0.4,2.1v0.1
			c0,0.8-0.1,1.5-0.4,2.1c-0.3,0.6-0.7,1.1-1.2,1.4C264.1,53.5,263.5,53.7,262.8,53.7z M262.8,52.5c0.5,0,0.8-0.1,1.2-0.4
			c0.3-0.3,0.5-0.6,0.7-1c0.2-0.4,0.2-0.9,0.2-1.5v-0.2c0-0.6-0.1-1.1-0.2-1.5c-0.2-0.4-0.4-0.8-0.7-1c-0.3-0.3-0.7-0.4-1.2-0.4
			s-0.8,0.1-1.2,0.4c-0.3,0.3-0.5,0.6-0.7,1c-0.2,0.4-0.2,0.9-0.2,1.5v0.2c0,0.6,0.1,1.1,0.2,1.5c0.2,0.4,0.4,0.8,0.7,1
			C261.9,52.4,262.3,52.5,262.8,52.5z"/>
		<path d="M270.6,53.7c-0.5,0-1-0.1-1.5-0.2c-0.5-0.1-1-0.3-1.5-0.5v-1.9h1.1l0.3,1.1c0.3,0.1,0.5,0.2,0.8,0.2
			c0.3,0.1,0.5,0.1,0.8,0.1c0.6,0,1-0.1,1.3-0.3c0.3-0.2,0.4-0.5,0.4-0.8s-0.1-0.6-0.4-0.8s-0.7-0.4-1.4-0.6c-1-0.2-1.7-0.5-2.1-0.9
			c-0.5-0.4-0.7-0.9-0.7-1.5c0-0.4,0.1-0.8,0.4-1.2c0.2-0.3,0.6-0.6,1-0.8s1-0.3,1.6-0.3s1.1,0.1,1.5,0.2s0.8,0.3,1.1,0.5l0.1,1.8
			h-1.1l-0.2-1.1c-0.2-0.1-0.4-0.2-0.6-0.3s-0.5-0.1-0.8-0.1c-0.4,0-0.8,0.1-1.1,0.3c-0.3,0.2-0.4,0.5-0.4,0.8c0,0.2,0,0.3,0.1,0.5
			c0.1,0.1,0.2,0.3,0.5,0.4c0.2,0.1,0.6,0.2,1,0.3c1.1,0.3,1.9,0.6,2.3,1c0.4,0.4,0.7,0.9,0.7,1.5c0,0.7-0.2,1.2-0.7,1.7
			C272.5,53.4,271.7,53.7,270.6,53.7z"/>
		<path d="M277.7,53.6c-0.6,0-1.1-0.2-1.4-0.5s-0.5-0.9-0.5-1.7v-4.8h-1.3v-1h1.3v-1.9h1.4v1.9h1.7v1h-1.7v4.8
			c0,0.4,0.1,0.7,0.2,0.8c0.1,0.1,0.4,0.3,0.6,0.3c0.2,0,0.4,0,0.6,0c0.2,0,0.4-0.1,0.5-0.1l0.2,0.9c-0.2,0.1-0.5,0.1-0.8,0.2
			C278.3,53.6,278,53.6,277.7,53.6z"/>
		<path d="M282.8,53.7c-0.8,0-1.5-0.2-1.9-0.6c-0.4-0.4-0.6-1-0.6-1.7c0-0.5,0.1-0.9,0.4-1.3c0.3-0.4,0.7-0.7,1.2-0.9
			s1.1-0.3,1.9-0.3h1.4v-0.8c0-0.5-0.1-0.8-0.4-1.1s-0.7-0.4-1.2-0.4c-0.3,0-0.6,0-0.9,0.1c-0.2,0.1-0.5,0.2-0.7,0.3l-0.2,1.1h-1.1
			v-1.8c0.4-0.3,0.8-0.5,1.2-0.7c0.5-0.1,1-0.2,1.6-0.2c1,0,1.7,0.2,2.3,0.7s0.8,1.1,0.8,2v3.8c0,0.1,0,0.2,0,0.3s0,0.2,0,0.3
			l0.8,0.1v0.9h-2c0-0.2-0.1-0.4-0.1-0.6s0-0.3-0.1-0.5c-0.3,0.4-0.6,0.7-1,0.9C283.7,53.5,283.3,53.7,282.8,53.7z M283,52.4
			c0.5,0,0.9-0.1,1.3-0.3c0.4-0.2,0.7-0.5,0.8-0.8v-1.4h-1.5c-0.7,0-1.2,0.2-1.5,0.5c-0.3,0.3-0.5,0.7-0.5,1.1
			c0,0.3,0.1,0.6,0.3,0.8C282.3,52.4,282.6,52.4,283,52.4z"/>
		<path d="M288.6,53.5v-0.9l1.2-0.2v-5.7l-1.2-0.2v-0.9h2.5l0.1,1.2c0.3-0.4,0.6-0.7,1-1c0.4-0.2,0.9-0.3,1.4-0.3
			c0.9,0,1.5,0.2,2,0.8c0.5,0.5,0.7,1.3,0.7,2.3v3.9l1.1,0.1v0.9h-3.8v-0.9l1.2-0.2v-3.8c0-0.7-0.1-1.2-0.4-1.5s-0.7-0.4-1.3-0.4
			c-0.4,0-0.8,0.1-1.1,0.3c-0.3,0.2-0.6,0.5-0.8,0.8v4.7l1.2,0.1v0.9H288.6z"/>
		<path d="M302,53.7c-0.7,0-1.4-0.2-1.9-0.5s-1-0.8-1.3-1.4c-0.3-0.6-0.4-1.3-0.4-2.1v-0.3c0-0.8,0.2-1.4,0.5-2
			c0.3-0.6,0.7-1.1,1.2-1.4c0.5-0.3,1.1-0.5,1.7-0.5c0.7,0,1.3,0.1,1.8,0.4s0.8,0.7,1.1,1.2c0.2,0.5,0.4,1.2,0.4,1.9v0.9H300l0,0
			c0,0.5,0.1,1,0.3,1.4c0.2,0.4,0.4,0.7,0.7,0.9c0.3,0.2,0.7,0.3,1.1,0.3c0.5,0,0.9-0.1,1.3-0.2c0.4-0.1,0.7-0.3,1-0.6l0.6,0.9
			c-0.3,0.3-0.7,0.5-1.1,0.7C303.2,53.6,302.7,53.7,302,53.7z M299.9,48.7h3.7v-0.1c0-0.4-0.1-0.7-0.2-1c-0.1-0.3-0.3-0.5-0.6-0.7
			c-0.3-0.2-0.6-0.3-1-0.3c-0.3,0-0.6,0.1-0.9,0.3c-0.3,0.2-0.5,0.4-0.7,0.8C300,48.1,300,48.3,299.9,48.7L299.9,48.7z"/>
		<path d="M306.1,53.5v-0.9l1.2-0.2v-5.7l-1.2-0.2v-0.9h2.5l0.1,1v0.1c0.2-0.4,0.5-0.7,0.8-1c0.3-0.2,0.7-0.3,1.1-0.3
			c0.2,0,0.3,0,0.5,0c0.2,0,0.3,0.1,0.3,0.1l-0.2,1.3l-1-0.1c-0.4,0-0.7,0.1-1,0.3c-0.3,0.2-0.5,0.5-0.6,0.8v4.5l1.2,0.2v0.9h-3.7
			V53.5z"/>
		<path d="M315,53.7c-0.8,0-1.5-0.2-1.9-0.6c-0.4-0.4-0.6-1-0.6-1.7c0-0.5,0.1-0.9,0.4-1.3c0.3-0.4,0.7-0.7,1.2-0.9s1.1-0.3,1.9-0.3
			h1.4v-0.8c0-0.5-0.1-0.8-0.4-1.1s-0.7-0.4-1.2-0.4c-0.3,0-0.6,0-0.9,0.1c-0.2,0.1-0.5,0.2-0.7,0.3l-0.2,1.1h-1.1v-1.8
			c0.4-0.3,0.8-0.5,1.2-0.7c0.5-0.1,1-0.2,1.6-0.2c1,0,1.7,0.2,2.3,0.7s0.8,1.1,0.8,2v3.8c0,0.1,0,0.2,0,0.3s0,0.2,0,0.3l0.8,0.1
			v0.9h-2.1c0-0.2-0.1-0.4-0.1-0.6s0-0.3-0.1-0.5c-0.3,0.4-0.6,0.7-1,0.9C315.9,53.5,315.4,53.7,315,53.7z M315.2,52.4
			c0.5,0,0.9-0.1,1.3-0.3c0.4-0.2,0.7-0.5,0.8-0.8v-1.4h-1.5c-0.7,0-1.2,0.2-1.5,0.5c-0.3,0.3-0.5,0.7-0.5,1.1
			c0,0.3,0.1,0.6,0.3,0.8C314.4,52.4,314.7,52.4,315.2,52.4z"/>
		<path d="M328,53.7c-0.7,0-1.3-0.2-1.9-0.5c-0.5-0.3-0.9-0.8-1.2-1.4c-0.3-0.6-0.4-1.3-0.4-2.1v-0.3c0-0.8,0.1-1.4,0.4-2
			s0.7-1.1,1.2-1.4s1.2-0.5,1.9-0.5c0.6,0,1.2,0.1,1.7,0.3s0.9,0.5,1.2,0.9v1.9h-1.1l-0.2-1.4c-0.2-0.2-0.4-0.3-0.6-0.4
			s-0.6-0.2-0.9-0.2c-0.4,0-0.8,0.1-1.1,0.4c-0.3,0.3-0.6,0.6-0.8,1c-0.2,0.4-0.3,0.9-0.3,1.4v0.3c0,0.6,0.1,1.1,0.3,1.5
			c0.2,0.4,0.4,0.8,0.7,1c0.3,0.2,0.7,0.3,1.1,0.3c0.5,0,0.9-0.1,1.2-0.4c0.3-0.3,0.5-0.6,0.6-1.1h1.3l0,0c0,0.5-0.2,0.9-0.4,1.3
			c-0.2,0.4-0.6,0.7-1,1C329.2,53.5,328.7,53.7,328,53.7z"/>
		<path d="M335.8,53.7c-0.7,0-1.4-0.2-1.9-0.5s-1-0.8-1.3-1.4c-0.3-0.6-0.4-1.3-0.4-2.1v-0.3c0-0.8,0.2-1.4,0.5-2
			c0.3-0.6,0.7-1.1,1.2-1.4c0.5-0.3,1.1-0.5,1.7-0.5c0.7,0,1.3,0.1,1.8,0.4s0.8,0.7,1.1,1.2c0.2,0.5,0.4,1.2,0.4,1.9v0.9h-5.1l0,0
			c0,0.5,0.1,1,0.3,1.4c0.2,0.4,0.4,0.7,0.7,0.9c0.3,0.2,0.7,0.3,1.1,0.3c0.5,0,0.9-0.1,1.3-0.2c0.4-0.1,0.7-0.3,1-0.6l0.6,0.9
			c-0.3,0.3-0.7,0.5-1.1,0.7C337.1,53.6,336.5,53.7,335.8,53.7z M333.8,48.7h3.7v-0.1c0-0.4-0.1-0.7-0.2-1c-0.1-0.3-0.3-0.5-0.6-0.7
			c-0.3-0.2-0.6-0.3-1-0.3c-0.3,0-0.6,0.1-0.9,0.3c-0.3,0.2-0.5,0.4-0.7,0.8C333.9,48.1,333.8,48.3,333.8,48.7L333.8,48.7z"/>
		<path d="M340,53.5v-0.9l1.2-0.2v-5.7l-1.2-0.2v-0.9h2.5l0.1,1.2c0.3-0.4,0.6-0.7,1-1c0.4-0.2,0.9-0.3,1.4-0.3c0.9,0,1.5,0.2,2,0.8
			c0.5,0.5,0.7,1.3,0.7,2.3v3.9l1.2,0.2v0.9h-3.8v-1l1.2-0.2v-3.8c0-0.7-0.1-1.2-0.4-1.5s-0.7-0.4-1.3-0.4c-0.4,0-0.8,0.1-1.1,0.3
			c-0.3,0.2-0.6,0.5-0.8,0.8v4.7l1.2,0.2v0.9L340,53.5L340,53.5z"/>
		<path d="M352.6,53.6c-0.6,0-1.1-0.2-1.4-0.5s-0.5-0.9-0.5-1.7v-4.8h-1.3v-1h1.3v-1.9h1.4v1.9h1.7v1h-1.7v4.8
			c0,0.4,0.1,0.7,0.2,0.8c0.1,0.1,0.4,0.3,0.6,0.3c0.2,0,0.4,0,0.6,0c0.2,0,0.4-0.1,0.5-0.1l0.2,0.9c-0.2,0.1-0.5,0.1-0.8,0.2
			C353.2,53.6,352.9,53.6,352.6,53.6z"/>
		<path d="M358.8,53.7c-0.7,0-1.4-0.2-1.9-0.5s-1-0.8-1.3-1.4c-0.3-0.6-0.4-1.3-0.4-2.1v-0.3c0-0.8,0.2-1.4,0.5-2
			c0.3-0.6,0.7-1.1,1.2-1.4c0.5-0.3,1.1-0.5,1.7-0.5c0.7,0,1.3,0.1,1.8,0.4s0.8,0.7,1.1,1.2c0.2,0.5,0.4,1.2,0.4,1.9v0.9h-5.1l0,0
			c0,0.5,0.1,1,0.3,1.4c0.2,0.4,0.4,0.7,0.7,0.9c0.3,0.2,0.7,0.3,1.1,0.3c0.5,0,0.9-0.1,1.3-0.2c0.4-0.1,0.7-0.3,1-0.6l0.6,0.9
			c-0.3,0.3-0.7,0.5-1.1,0.7C360,53.6,359.4,53.7,358.8,53.7z M356.7,48.7h3.7v-0.1c0-0.4-0.1-0.7-0.2-1s-0.3-0.5-0.6-0.7
			c-0.3-0.2-0.6-0.3-1-0.3c-0.3,0-0.6,0.1-0.9,0.3s-0.5,0.4-0.7,0.8C356.8,48.1,356.7,48.3,356.7,48.7L356.7,48.7z"/>
		<path d="M362.9,53.5v-0.9l1.2-0.2v-5.7l-1.2-0.2v-0.9h2.5l0.1,1v0.1c0.2-0.4,0.5-0.7,0.8-1c0.3-0.2,0.7-0.3,1.1-0.3
			c0.2,0,0.3,0,0.5,0c0.2,0,0.3,0.1,0.3,0.1l-0.2,1.3l-1-0.1c-0.4,0-0.7,0.1-1,0.3c-0.3,0.2-0.5,0.5-0.6,0.8v4.5l1.2,0.2v0.9h-3.7
			V53.5z"/>
	</g>
</g>
<g>
	<g>
		<path d="M392.9,52.9c-1.1,0-2-0.2-2.7-0.7s-1.3-1.1-1.6-1.9c-0.4-0.8-0.5-1.7-0.5-2.8v-0.2c0-1,0.2-2,0.6-2.8s0.9-1.5,1.6-1.9
			s1.5-0.7,2.5-0.7c0.7,0,1.3,0.1,1.9,0.3s1,0.5,1.4,0.8v2.3H395l-0.2-1.7c-0.2-0.1-0.3-0.2-0.5-0.3s-0.4-0.1-0.7-0.2
			c-0.2,0-0.5-0.1-0.8-0.1c-0.7,0-1.3,0.2-1.8,0.5c-0.5,0.4-0.8,0.9-1.1,1.5s-0.4,1.4-0.4,2.2v0.2c0,0.9,0.1,1.7,0.4,2.3
			s0.7,1.1,1.2,1.4s1.1,0.5,1.9,0.5c0.3,0,0.7,0,1-0.1s0.6-0.2,0.8-0.3l0.2-1.5h1.1V52c-0.4,0.2-0.9,0.4-1.4,0.6
			C394,52.8,393.5,52.9,392.9,52.9z"/>
		<path d="M401.1,52.9c-0.7,0-1.4-0.2-1.9-0.5s-1-0.8-1.3-1.4c-0.3-0.6-0.4-1.3-0.4-2.1v-0.3c0-0.8,0.2-1.4,0.5-2s0.7-1.1,1.2-1.4
			c0.5-0.3,1.1-0.5,1.7-0.5c0.7,0,1.3,0.1,1.8,0.4s0.8,0.7,1.1,1.2c0.2,0.5,0.4,1.2,0.4,1.9v0.9h-5.1l0,0c0,0.5,0.1,1,0.3,1.4
			c0.2,0.4,0.4,0.7,0.7,0.9s0.7,0.3,1.1,0.3c0.5,0,0.9-0.1,1.3-0.2c0.4-0.1,0.7-0.3,1-0.6l0.6,0.9c-0.3,0.3-0.7,0.5-1.1,0.7
			C402.3,52.8,401.7,52.9,401.1,52.9z M399,47.9h3.7v-0.1c0-0.4-0.1-0.7-0.2-1s-0.3-0.5-0.6-0.7c-0.3-0.2-0.6-0.3-1-0.3
			c-0.3,0-0.6,0.1-0.9,0.3s-0.5,0.4-0.7,0.8S399,47.5,399,47.9L399,47.9z"/>
		<path d="M405.2,52.7v-0.9l1.2-0.2v-5.7l-1.2-0.2v-0.9h2.5l0.1,1v0.1c0.2-0.4,0.5-0.7,0.8-1c0.3-0.2,0.7-0.3,1.1-0.3
			c0.2,0,0.3,0,0.5,0s0.3,0.1,0.3,0.1l-0.2,1.3l-1-0.1c-0.4,0-0.7,0.1-1,0.3s-0.5,0.5-0.6,0.8v4.5l1.2,0.2v0.9h-3.7V52.7z"/>
		<path d="M411.5,52.7v-0.9l1.2-0.2v-5.7l-1.2-0.2v-0.9h2.5l0.1,1v0.1c0.2-0.4,0.5-0.7,0.8-1c0.3-0.2,0.7-0.3,1.1-0.3
			c0.2,0,0.3,0,0.5,0s0.3,0.1,0.3,0.1l-0.2,1.3l-1-0.1c-0.4,0-0.7,0.1-1,0.3s-0.5,0.5-0.6,0.8v4.5l1.2,0.2v0.9h-3.7V52.7z"/>
		<path d="M421.3,52.9c-0.7,0-1.4-0.2-1.9-0.5s-0.9-0.8-1.2-1.4c-0.3-0.6-0.4-1.3-0.4-2.1v-0.2c0-0.8,0.1-1.5,0.4-2.1
			s0.7-1.1,1.2-1.4c0.5-0.3,1.2-0.5,1.9-0.5c0.7,0,1.4,0.2,1.9,0.5s0.9,0.8,1.2,1.4s0.4,1.3,0.4,2.1v0.1c0,0.8-0.1,1.5-0.4,2.1
			s-0.7,1.1-1.2,1.4C422.7,52.7,422,52.9,421.3,52.9z M421.3,51.7c0.5,0,0.8-0.1,1.2-0.4c0.3-0.3,0.5-0.6,0.7-1s0.2-0.9,0.2-1.5
			v-0.2c0-0.6-0.1-1.1-0.2-1.5c-0.2-0.4-0.4-0.8-0.7-1c-0.3-0.3-0.7-0.4-1.2-0.4s-0.8,0.1-1.2,0.4c-0.3,0.3-0.5,0.6-0.7,1
			s-0.2,0.9-0.2,1.5v0.2c0,0.6,0.1,1.1,0.2,1.5c0.2,0.4,0.4,0.8,0.7,1C420.5,51.6,420.8,51.7,421.3,51.7z"/>
		<path d="M433.6,52.9c-0.6,0-1.3-0.1-1.9-0.3s-1.2-0.5-1.7-0.9v-2.3h1.1l0.2,1.7c0.3,0.2,0.7,0.3,1,0.5s0.8,0.2,1.2,0.2
			c0.5,0,0.9-0.1,1.2-0.2c0.3-0.1,0.6-0.4,0.8-0.6s0.3-0.6,0.3-0.9c0-0.3-0.1-0.6-0.2-0.9c-0.2-0.2-0.4-0.5-0.8-0.7
			s-0.8-0.4-1.5-0.5c-0.7-0.2-1.4-0.4-1.9-0.7s-0.9-0.6-1.1-1c-0.3-0.4-0.4-0.9-0.4-1.4c0-0.6,0.1-1.1,0.4-1.5s0.7-0.8,1.2-1
			c0.5-0.3,1.1-0.4,1.8-0.4c0.7,0,1.4,0.1,2,0.3s1,0.5,1.4,0.8v2.1h-1.1l-0.2-1.5c-0.2-0.2-0.5-0.3-0.8-0.4s-0.7-0.2-1.2-0.2
			c-0.4,0-0.8,0.1-1.1,0.2c-0.3,0.1-0.6,0.3-0.7,0.6s-0.3,0.6-0.3,0.9c0,0.3,0.1,0.6,0.2,0.8c0.2,0.2,0.4,0.4,0.8,0.6
			c0.4,0.2,0.8,0.3,1.4,0.5c1.1,0.3,2,0.7,2.6,1.2s0.9,1.2,0.9,2c0,0.6-0.2,1.1-0.5,1.5s-0.7,0.8-1.3,1S434.3,52.9,433.6,52.9z"/>
		<path d="M441.1,52.9c-0.8,0-1.5-0.2-1.9-0.6c-0.4-0.4-0.6-1-0.6-1.7c0-0.5,0.1-0.9,0.4-1.3c0.3-0.4,0.7-0.7,1.2-0.9
			s1.1-0.3,1.9-0.3h1.4v-0.8c0-0.5-0.1-0.8-0.4-1.1s-0.7-0.4-1.2-0.4c-0.3,0-0.6,0-0.9,0.1c-0.2,0.1-0.5,0.2-0.7,0.3l-0.2,1.1H439
			v-1.8c0.4-0.3,0.8-0.5,1.2-0.7c0.5-0.1,1-0.2,1.6-0.2c1,0,1.7,0.2,2.3,0.7s0.8,1.1,0.8,2v3.8c0,0.1,0,0.2,0,0.3s0,0.2,0,0.3
			l0.8,0.1v0.9h-2.1c0-0.2-0.1-0.4-0.1-0.6s0-0.3-0.1-0.5c-0.3,0.4-0.6,0.7-1,0.9C442,52.7,441.6,52.9,441.1,52.9z M441.3,51.6
			c0.5,0,0.9-0.1,1.3-0.3s0.7-0.5,0.8-0.8v-1.4h-1.5c-0.7,0-1.2,0.2-1.5,0.5s-0.5,0.7-0.5,1.1c0,0.3,0.1,0.6,0.3,0.8
			C440.5,51.6,440.9,51.6,441.3,51.6z"/>
		<path d="M446.8,52.7v-0.9l1.2-0.2v-5.7l-1.2-0.2v-0.9h2.5l0.1,1.2c0.3-0.4,0.6-0.7,1-1c0.4-0.2,0.9-0.3,1.4-0.3
			c0.9,0,1.5,0.2,2,0.8c0.5,0.5,0.7,1.3,0.7,2.3v3.9l1.2,0.2v0.9h-3.8v-1l1.2-0.2v-3.8c0-0.7-0.1-1.2-0.4-1.5s-0.7-0.4-1.3-0.4
			c-0.4,0-0.8,0.1-1.1,0.3c-0.3,0.2-0.6,0.5-0.8,0.8v4.7l1.2,0.2v0.9L446.8,52.7L446.8,52.7z"/>
		<path d="M459.4,52.8c-0.6,0-1.1-0.2-1.4-0.5s-0.5-0.9-0.5-1.7v-4.8h-1.3v-1h1.3v-1.9h1.4v1.9h1.7v1h-1.7v4.8
			c0,0.4,0.1,0.7,0.2,0.8s0.4,0.3,0.6,0.3s0.4,0,0.6,0s0.4-0.1,0.5-0.1l0.2,0.9c-0.2,0.1-0.5,0.1-0.8,0.2
			C460,52.8,459.7,52.8,459.4,52.8z"/>
		<path d="M464.6,52.9c-0.8,0-1.5-0.2-1.9-0.6c-0.4-0.4-0.6-1-0.6-1.7c0-0.5,0.1-0.9,0.4-1.3c0.3-0.4,0.7-0.7,1.2-0.9
			s1.1-0.3,1.9-0.3h1.4v-0.8c0-0.5-0.1-0.8-0.4-1.1s-0.7-0.4-1.2-0.4c-0.3,0-0.6,0-0.9,0.1c-0.2,0.1-0.5,0.2-0.7,0.3l-0.2,1.1h-1.1
			v-1.8c0.4-0.3,0.8-0.5,1.2-0.7c0.5-0.1,1-0.2,1.6-0.2c1,0,1.7,0.2,2.3,0.7s0.8,1.1,0.8,2v3.8c0,0.1,0,0.2,0,0.3s0,0.2,0,0.3
			l0.8,0.1v0.9h-2.1c0-0.2-0.1-0.4-0.1-0.6s0-0.3-0.1-0.5c-0.3,0.4-0.6,0.7-1,0.9C465.5,52.7,465,52.9,464.6,52.9z M464.8,51.6
			c0.5,0,0.9-0.1,1.3-0.3s0.7-0.5,0.8-0.8v-1.4h-1.5c-0.7,0-1.2,0.2-1.5,0.5s-0.5,0.7-0.5,1.1c0,0.3,0.1,0.6,0.3,0.8
			C464,51.6,464.3,51.6,464.8,51.6z"/>
		<path d="M474.1,52.7v-0.9l1.2-0.2v-8.4l-1.2-0.2v-0.9h1.2h1.4h1.2V43l-1.2,0.2v8.4h3.8l0.2-1.7h1.1v2.8H474.1z"/>
		<path d="M486.4,52.9c-0.9,0-1.5-0.3-2-0.8s-0.7-1.4-0.7-2.6V46l-0.9-0.2v-1h0.9h1.4v4.7c0,0.8,0.1,1.4,0.4,1.7s0.6,0.5,1.2,0.5
			c0.5,0,0.9-0.1,1.3-0.3c0.3-0.2,0.6-0.5,0.8-0.9v-4.6l-1.1-0.2v-0.9h1.1h1.4v6.8l0.9,0.2v0.9h-2.2l-0.1-1.2c-0.2,0.4-0.6,0.8-1,1
			S486.9,52.9,486.4,52.9z"/>
		<path d="M495.6,52.9c-0.7,0-1.3-0.2-1.9-0.5c-0.5-0.3-0.9-0.8-1.2-1.4s-0.4-1.3-0.4-2.1v-0.3c0-0.8,0.1-1.4,0.4-2s0.7-1.1,1.2-1.4
			s1.2-0.5,1.9-0.5c0.6,0,1.2,0.1,1.7,0.3s0.9,0.5,1.2,0.9v1.9h-1.1l-0.2-1.4c-0.2-0.2-0.4-0.3-0.6-0.4s-0.5-0.2-0.9-0.2
			s-0.8,0.1-1.1,0.4s-0.6,0.6-0.8,1s-0.3,0.9-0.3,1.4v0.3c0,0.6,0.1,1.1,0.3,1.5c0.2,0.4,0.4,0.8,0.7,1c0.3,0.2,0.7,0.3,1.1,0.3
			c0.5,0,0.9-0.1,1.2-0.4s0.5-0.6,0.6-1.1h1.3l0,0c0,0.5-0.2,0.9-0.4,1.3c-0.2,0.4-0.6,0.7-1,1C496.8,52.7,496.2,52.9,495.6,52.9z"
			/>
		<path d="M499.8,52.7v-0.9l1.2-0.2v-5.7l-1.2-0.2v-0.9h2.6v6.8l1.2,0.2v0.9H499.8z M500.8,43.3l1.3-2h1.7l0,0l-2,1.9L500.8,43.3
			L500.8,43.3z"/>
		<path d="M507.1,52.9c-0.8,0-1.5-0.2-1.9-0.6c-0.4-0.4-0.6-1-0.6-1.7c0-0.5,0.1-0.9,0.4-1.3c0.3-0.4,0.7-0.7,1.2-0.9
			s1.1-0.3,1.9-0.3h1.4v-0.8c0-0.5-0.1-0.8-0.4-1.1s-0.7-0.4-1.2-0.4c-0.3,0-0.6,0-0.9,0.1c-0.2,0.1-0.5,0.2-0.7,0.3l-0.2,1.1H505
			v-1.8c0.4-0.3,0.8-0.5,1.2-0.7c0.5-0.1,1-0.2,1.6-0.2c1,0,1.7,0.2,2.3,0.7s0.8,1.1,0.8,2v3.8c0,0.1,0,0.2,0,0.3s0,0.2,0,0.3
			l0.8,0.1v0.9h-2c0-0.2-0.1-0.4-0.1-0.6s0-0.3-0.1-0.5c-0.3,0.4-0.6,0.7-1,0.9C508.1,52.7,507.6,52.9,507.1,52.9z M507.4,51.6
			c0.5,0,0.9-0.1,1.3-0.3s0.7-0.5,0.8-0.8v-1.4H508c-0.7,0-1.2,0.2-1.5,0.5s-0.5,0.7-0.5,1.1c0,0.3,0.1,0.6,0.3,0.8
			C506.6,51.6,506.9,51.6,507.4,51.6z"/>
	</g>
</g>
<g>
	<g>
		<path d="M654.5,52.9l-3.6-9.6l-0.8-0.1v-0.9h3.4v0.9l-1,0.2l2.4,6.8l0.2,0.8l0,0l0.3-0.8l2.5-6.8l-1.1-0.1v-0.9h3.4v0.9l-0.9,0.1
			l-3.6,9.6h-1.2V52.9z"/>
		<path d="M664.8,53.1c-0.7,0-1.4-0.2-1.9-0.5s-0.9-0.8-1.2-1.4s-0.4-1.3-0.4-2.1v-0.2c0-0.8,0.1-1.5,0.4-2.1
			c0.3-0.6,0.7-1.1,1.2-1.4c0.5-0.3,1.2-0.5,1.9-0.5s1.4,0.2,1.9,0.5s0.9,0.8,1.2,1.4s0.4,1.3,0.4,2.1V49c0,0.8-0.1,1.5-0.4,2.1
			c-0.3,0.6-0.7,1.1-1.2,1.4S665.5,53.1,664.8,53.1z M664.8,51.9c0.5,0,0.8-0.1,1.2-0.4c0.3-0.3,0.5-0.6,0.7-1s0.2-0.9,0.2-1.5v-0.2
			c0-0.6-0.1-1.1-0.2-1.5c-0.2-0.4-0.4-0.8-0.7-1c-0.3-0.3-0.7-0.4-1.2-0.4s-0.8,0.1-1.2,0.4c-0.3,0.2-0.5,0.6-0.7,1
			s-0.2,0.9-0.2,1.5V49c0,0.6,0.1,1.1,0.2,1.5s0.4,0.8,0.7,1C663.9,51.8,664.3,51.9,664.8,51.9z"/>
		<path d="M669.3,52.9V52l1.2-0.2v-9.2l-1.2-0.2v-0.9h2.6v10.3l1.2,0.2v0.9C673.1,52.9,669.3,52.9,669.3,52.9z"/>
		<path d="M677.8,53.1c-0.7,0-1.3-0.2-1.9-0.5c-0.5-0.3-0.9-0.8-1.2-1.4s-0.4-1.3-0.4-2.1v-0.3c0-0.8,0.1-1.4,0.4-2s0.7-1.1,1.2-1.4
			c0.5-0.3,1.2-0.5,1.9-0.5c0.6,0,1.2,0.1,1.7,0.3s0.9,0.5,1.2,0.9V48h-1.1l-0.2-1.4c-0.2-0.2-0.4-0.3-0.6-0.4
			c-0.2-0.1-0.5-0.2-0.9-0.2s-0.8,0.1-1.1,0.4c-0.3,0.3-0.6,0.6-0.8,1s-0.3,0.9-0.3,1.4v0.3c0,0.6,0.1,1.1,0.3,1.5s0.4,0.8,0.7,1
			s0.7,0.3,1.1,0.3c0.5,0,0.9-0.1,1.2-0.4c0.3-0.3,0.5-0.6,0.6-1.1h1.3l0,0c0,0.5-0.2,0.9-0.4,1.3c-0.2,0.4-0.6,0.7-1,1
			C679,52.9,678.4,53.1,677.8,53.1z"/>
		<path d="M684.6,53.1c-0.8,0-1.5-0.2-1.9-0.6s-0.6-1-0.6-1.7c0-0.5,0.1-0.9,0.4-1.3c0.3-0.4,0.7-0.7,1.2-0.9s1.1-0.3,1.9-0.3h1.4
			v-0.8c0-0.5-0.1-0.8-0.4-1.1c-0.3-0.3-0.7-0.4-1.2-0.4c-0.3,0-0.6,0-0.9,0.1c-0.2,0.1-0.5,0.2-0.7,0.3l-0.2,1.1h-1.1v-1.8
			c0.4-0.3,0.8-0.5,1.2-0.7c0.5-0.2,1-0.2,1.6-0.2c1,0,1.7,0.2,2.3,0.7s0.8,1.1,0.8,2v3.8c0,0.1,0,0.2,0,0.3s0,0.2,0,0.3l0.8,0.1
			v0.9h-2.1c0-0.2-0.1-0.4-0.1-0.6c0-0.2,0-0.3-0.1-0.5c-0.3,0.4-0.6,0.7-1,0.9C685.5,52.9,685,53.1,684.6,53.1z M684.8,51.8
			c0.5,0,0.9-0.1,1.3-0.3c0.4-0.2,0.7-0.5,0.8-0.8v-1.4h-1.5c-0.7,0-1.2,0.2-1.5,0.5s-0.5,0.7-0.5,1.1c0,0.3,0.1,0.6,0.3,0.8
			S684.3,51.8,684.8,51.8z M684.5,43.5l1.3-2h1.7l0,0l-2,1.9L684.5,43.5L684.5,43.5z"/>
		<path d="M690.3,52.9V52l1.2-0.2v-5.7l-1.2-0.2V45h2.5l0.1,1.2c0.3-0.4,0.6-0.7,1-1c0.4-0.2,0.9-0.3,1.4-0.3c0.9,0,1.5,0.2,2,0.8
			c0.5,0.5,0.7,1.3,0.7,2.3v3.9l1.2,0.2V53h-3.9v-1l1.2-0.2V48c0-0.7-0.1-1.2-0.4-1.5c-0.3-0.3-0.7-0.4-1.3-0.4
			c-0.4,0-0.8,0.1-1.1,0.3s-0.6,0.5-0.8,0.8v4.7l1.2,0.2V53L690.3,52.9L690.3,52.9z"/>
		<path d="M708.7,53.1c-1.1,0-2-0.2-2.7-0.7s-1.3-1.1-1.6-1.9c-0.4-0.8-0.5-1.7-0.5-2.8v-0.2c0-1,0.2-2,0.6-2.8
			c0.4-0.8,0.9-1.5,1.6-1.9s1.5-0.7,2.5-0.7c0.7,0,1.3,0.1,1.9,0.3s1,0.5,1.4,0.8v2.3h-1.2l-0.2-1.7c-0.2-0.1-0.3-0.2-0.5-0.3
			s-0.4-0.1-0.7-0.2c-0.2,0-0.5-0.1-0.8-0.1c-0.7,0-1.3,0.2-1.8,0.5s-0.8,0.9-1.1,1.5c-0.2,0.6-0.4,1.4-0.4,2.2v0.2
			c0,0.9,0.1,1.7,0.4,2.3c0.3,0.6,0.7,1.1,1.2,1.4c0.5,0.3,1.1,0.5,1.9,0.5c0.3,0,0.7,0,1-0.1s0.6-0.2,0.8-0.3l0.2-1.5h1.1v2.3
			c-0.4,0.2-0.9,0.4-1.4,0.6C709.9,53,709.3,53.1,708.7,53.1z"/>
		<path d="M713.1,52.9V52l1.2-0.2v-9.2l-1.2-0.2v-0.9h2.6V46c0.3-0.4,0.6-0.7,1-0.9s0.8-0.3,1.3-0.3c0.8,0,1.5,0.3,2,0.8
			s0.7,1.3,0.7,2.3v3.8l1.2,0.2v0.9h-3.8V52l1.2-0.2v-3.9c0-0.7-0.1-1.1-0.4-1.5c-0.3-0.3-0.7-0.5-1.3-0.5c-0.4,0-0.8,0.1-1.1,0.3
			s-0.6,0.4-0.8,0.8v4.7l1.2,0.2v0.9h-3.8V52.9z"/>
		<path d="M725.5,53.1c-0.8,0-1.5-0.2-1.9-0.6s-0.6-1-0.6-1.7c0-0.5,0.1-0.9,0.4-1.3c0.3-0.4,0.7-0.7,1.2-0.9s1.1-0.3,1.9-0.3h1.4
			v-0.8c0-0.5-0.1-0.8-0.4-1.1c-0.3-0.3-0.7-0.4-1.2-0.4c-0.3,0-0.6,0-0.9,0.1c-0.2,0.1-0.5,0.2-0.7,0.3l-0.2,1.1h-1.1v-1.8
			c0.4-0.3,0.8-0.5,1.2-0.7c0.5-0.2,1-0.2,1.6-0.2c1,0,1.7,0.2,2.3,0.7s0.8,1.1,0.8,2v3.8c0,0.1,0,0.2,0,0.3s0,0.2,0,0.3l0.8,0.1
			v0.9H728c0-0.2-0.1-0.4-0.1-0.6c0-0.2,0-0.3-0.1-0.5c-0.3,0.4-0.6,0.7-1,0.9C726.4,52.9,726,53.1,725.5,53.1z M725.7,51.8
			c0.5,0,0.9-0.1,1.3-0.3c0.4-0.2,0.7-0.5,0.8-0.8v-1.4h-1.5c-0.7,0-1.2,0.2-1.5,0.5s-0.5,0.7-0.5,1.1c0,0.3,0.1,0.6,0.3,0.8
			S725.3,51.8,725.7,51.8z"/>
		<path d="M731.2,52.9V52l1.2-0.2v-5.7l-1.2-0.2V45h2.6v6.8L735,52v0.9H731.2z M732.3,43v-1.5h1.5V43H732.3z"/>
		<path d="M738.8,53c-0.6,0-1.1-0.2-1.4-0.5c-0.3-0.3-0.5-0.9-0.5-1.7V46h-1.3v-1h1.3v-1.9h1.4V45h1.7v1h-1.7v4.8
			c0,0.4,0.1,0.7,0.2,0.8c0.2,0.2,0.4,0.3,0.6,0.3c0.2,0,0.4,0,0.6,0s0.4-0.1,0.5-0.1l0.2,0.9c-0.2,0.1-0.5,0.1-0.8,0.2
			C739.4,53,739.1,53,738.8,53z"/>
		<path d="M745,53.1c-0.7,0-1.4-0.2-1.9-0.5s-1-0.8-1.3-1.4c-0.3-0.6-0.4-1.3-0.4-2.1v-0.3c0-0.8,0.2-1.4,0.5-2s0.7-1.1,1.2-1.4
			c0.5-0.3,1.1-0.5,1.7-0.5c0.7,0,1.3,0.1,1.8,0.4c0.5,0.3,0.8,0.7,1.1,1.2s0.4,1.2,0.4,1.9v0.9H743l0,0c0,0.5,0.1,1,0.3,1.4
			s0.4,0.7,0.7,0.9s0.7,0.3,1.1,0.3c0.5,0,0.9-0.1,1.3-0.2c0.4-0.1,0.7-0.3,1-0.6L748,52c-0.3,0.3-0.7,0.5-1.1,0.7
			C746.2,53,745.6,53.1,745,53.1z M742.9,48.1h3.7V48c0-0.4-0.1-0.7-0.2-1c-0.1-0.3-0.3-0.5-0.6-0.7s-0.6-0.3-1-0.3
			c-0.3,0-0.6,0.1-0.9,0.3s-0.5,0.4-0.7,0.8S742.9,47.7,742.9,48.1L742.9,48.1z M743.9,43.5l1.3-2h1.7l0,0l-2,1.9L743.9,43.5
			L743.9,43.5z"/>
		<path d="M749.1,52.9V52l1.2-0.2v-5.7l-1.2-0.2V45h2.5l0.1,1.2c0.3-0.4,0.6-0.7,1-1c0.4-0.2,0.9-0.3,1.4-0.3c0.9,0,1.5,0.2,2,0.8
			c0.5,0.5,0.7,1.3,0.7,2.3v3.9l1.2,0.2V53h-3.8v-1l1.2-0.2V48c0-0.7-0.1-1.2-0.4-1.5c-0.3-0.3-0.7-0.4-1.3-0.4
			c-0.4,0-0.8,0.1-1.1,0.3s-0.6,0.5-0.8,0.8v4.7l1.2,0.2V53L749.1,52.9L749.1,52.9z"/>
	</g>
</g>
<g>
	<g>
		<path d="M693.8,234.9V234l1.5-0.2v-7.5h-1.6v-0.8l2.9-0.6v8.9l1.5,0.2v0.9L693.8,234.9L693.8,234.9z"/>
		<path d="M702.6,235c-0.7,0-1.2-0.1-1.7-0.3s-0.9-0.5-1.1-1c-0.3-0.4-0.4-0.9-0.4-1.6c0-0.6,0.2-1.1,0.5-1.5s0.8-0.7,1.4-0.9
			c-0.5-0.2-0.9-0.5-1.2-0.9s-0.4-0.8-0.4-1.4c0-0.6,0.1-1.1,0.4-1.5c0.2-0.4,0.6-0.7,1-0.9s1-0.3,1.5-0.3c0.6,0,1.1,0.1,1.5,0.3
			s0.8,0.5,1,0.9c0.3,0.4,0.4,0.9,0.4,1.5c0,0.5-0.1,1-0.4,1.4c-0.3,0.4-0.7,0.7-1.2,0.9c0.6,0.2,1,0.5,1.4,0.9
			c0.3,0.4,0.5,0.9,0.5,1.5s-0.1,1.1-0.4,1.6c-0.3,0.4-0.7,0.7-1.1,1C703.8,234.9,703.3,235,702.6,235z M702.6,234
			c0.4,0,0.7-0.1,1-0.2c0.3-0.1,0.5-0.4,0.7-0.6c0.2-0.3,0.2-0.6,0.2-1s-0.1-0.7-0.2-1s-0.4-0.5-0.7-0.7s-0.6-0.2-1-0.2
			s-0.7,0.1-1,0.2c-0.3,0.2-0.5,0.4-0.7,0.7s-0.2,0.6-0.2,1c0,0.6,0.2,1,0.5,1.3C701.6,233.8,702.1,234,702.6,234z M702.6,229.2
			c0.3,0,0.6-0.1,0.8-0.2c0.2-0.1,0.4-0.3,0.6-0.6s0.2-0.5,0.2-0.9c0-0.3-0.1-0.6-0.2-0.9c-0.1-0.3-0.3-0.5-0.6-0.6
			c-0.2-0.1-0.5-0.2-0.8-0.2c-0.5,0-0.9,0.2-1.2,0.5s-0.4,0.7-0.4,1.2s0.1,0.9,0.4,1.2C701.8,229.1,702.2,229.2,702.6,229.2z"/>
		<path d="M707.4,237l-0.8-0.5c0.2-0.3,0.4-0.7,0.5-1s0.2-0.7,0.2-1.1v-1h1.3v1c0,0.4-0.1,0.9-0.3,1.4
			C708.1,236.3,707.8,236.7,707.4,237z"/>
		<path d="M712.8,235c-0.6,0-1.1-0.1-1.5-0.3s-0.8-0.5-1-0.9s-0.4-0.9-0.4-1.5l0,0h1.2c0,0.5,0.2,1,0.5,1.3s0.7,0.5,1.2,0.5
			c0.6,0,1-0.2,1.3-0.6s0.5-1,0.5-1.6s-0.2-1.2-0.5-1.6c-0.3-0.4-0.8-0.6-1.3-0.6s-0.9,0.1-1.2,0.2s-0.4,0.4-0.5,0.7l-1.1-0.1
			l0.6-5.5h5.3v2h-1l-0.1-0.8h-3l-0.3,2.8c0.1-0.1,0.3-0.2,0.4-0.3c0.2-0.1,0.3-0.1,0.5-0.2c0.2,0,0.4-0.1,0.6-0.1
			c0.6,0,1.1,0.1,1.6,0.4c0.4,0.3,0.8,0.7,1,1.2s0.4,1.1,0.4,1.8s-0.1,1.2-0.4,1.7s-0.6,0.9-1.1,1.2
			C714.1,234.9,713.5,235,712.8,235z"/>
		<path d="M720.6,234.9V234l1.1-0.2v-8.6l-1.1-0.2v-0.9h2.5v9.6l1.1,0.2v0.9L720.6,234.9L720.6,234.9z M722.9,232.7l-0.5-1.1
			l3.2-3.2l0,0l-0.8-0.1v-0.9h3.2v0.9l-1,0.2L722.9,232.7z M725.3,234.9V234l0.8-0.1l0,0l-2.1-2.8l0.7-1.1l3,3.8l1.1,0.2v0.9
			L725.3,234.9L725.3,234.9z"/>
		<path d="M729.4,234.9V234l1.1-0.2v-5.3l-1.1-0.2v-0.9h2.3l0.1,1c0.2-0.4,0.5-0.6,0.9-0.8s0.8-0.3,1.3-0.3s0.9,0.1,1.3,0.3
			c0.4,0.2,0.6,0.6,0.8,1c0.2-0.4,0.5-0.8,0.9-1s0.8-0.4,1.3-0.4c0.8,0,1.4,0.3,1.8,0.8c0.4,0.5,0.7,1.3,0.7,2.3v3.4l1.1,0.2v0.9
			h-3.6V234l1.1-0.2v-3.4c0-0.7-0.1-1.2-0.4-1.5c-0.2-0.3-0.6-0.5-1.1-0.5s-0.8,0.2-1.1,0.5s-0.5,0.7-0.5,1.2v3.6l1.1,0.2v0.9h-3.6
			V234l1.1-0.2v-3.4c0-0.7-0.1-1.2-0.4-1.5c-0.3-0.3-0.6-0.5-1.1-0.5c-0.4,0-0.7,0.1-1,0.3s-0.5,0.4-0.6,0.7v4.4l1.1,0.2v0.9H729.4z
			"/>
	</g>
</g>
<line class="st11" x1="518.7" y1="218.8" x2="931.9" y2="218.8"/>
<line class="st3" x1="518.7" y1="224" x2="518.7" y2="206.8"/>
<line class="st3" x1="931.9" y1="224" x2="931.9" y2="206.8"/>
</svg>
