<?xml version="1.0" encoding="utf-8"?>
<!-- Generator: Adobe Illustrator 26.0.1, SVG Export Plug-In . SVG Version: 6.00 Build 0)  -->
<svg version="1.1" id="Capa_1" xmlns="http://www.w3.org/2000/svg" xmlns:xlink="http://www.w3.org/1999/xlink" x="0px" y="0px"
	 viewBox="0 0 1878.2 449.6" style="enable-background:new 0 0 1878.2 449.6;" xml:space="preserve">
<style type="text/css">
	.st0{fill:#7A7163;}
	.st1{fill:#3C3832;}
	.st2{fill:none;stroke:#4D4D4D;stroke-miterlimit:10;}
	.st3{fill:none;stroke:#4D4D4D;stroke-miterlimit:10;stroke-dasharray:5.9962,5.9962;}
	.st4{fill:none;stroke:#4D4D4D;stroke-miterlimit:10;stroke-dasharray:5.9488,5.9488;}
	.st5{fill:none;stroke:#4D4D4D;stroke-miterlimit:10;stroke-dasharray:6.0374,6.0374;}
	.st6{fill:#63605B;}
	.st7{fill:#8A8884;}
	.st8{fill:#A74F33;}
	.st9{fill:#494541;}
	.st10{fill:none;stroke:#4D4D4D;stroke-miterlimit:10;stroke-dasharray:6;}
</style>
<path class="st0" d="M292.4,295.3c2.7,14.2,2.7,80,2.7,80h-13.4l0.1-9.6c-0.7-51.1,2.2-70.1,2.2-70.1l0.2,0.1l0.5,1.4v0.7l0.4-0.2
	l0.1-1.8l0.3-0.8h4.7l0.2,2.4l0.7,0.1v1.6l1-1.5l-0.1-2.3L292.4,295.3z"/>
<path class="st1" d="M935.4,298.6l96.3-61.6l22-3.2l18.7-24.5l9-7.1h17.4l76.9-56.1l11.6-7.9l17.9-17.4l20.9-4.7l15.5-3.2l22,7.9
	h20.7l20,11.1l10.3,2.4l14.2,1.6l56.2-27.1l21.3-14.5h25.2l25.2-12.1h26.5l43.9,18.2l77.5,71.9l14.9,1.6l77.5,71.9
	c0,0,27.7,26.8,32.3,43.5c1.5,5.3,52,33.3,60.7,34.5c15.3,2.2,20.5,51.7,20.5,51.7l-153.7-0.3l-178.3-40.1L1190,375l-287.7,1l0,0
	l12.4-50.5L935.4,298.6z"/>
<g>
	<g>
		<line class="st2" x1="175.5" y1="82.1" x2="178.5" y2="82.1"/>
		<line class="st3" x1="184.5" y1="82.1" x2="1464.7" y2="82.1"/>
		<line class="st2" x1="1467.7" y1="82.1" x2="1470.7" y2="82.1"/>
	</g>
</g>
<g>
	<g>
		<line class="st2" x1="175.5" y1="295" x2="178.5" y2="295"/>
		<line class="st4" x1="184.5" y1="295" x2="431.4" y2="295"/>
		<line class="st2" x1="434.3" y1="295" x2="437.3" y2="295"/>
	</g>
</g>
<line class="st2" x1="175.5" y1="375.3" x2="1855.2" y2="375.3"/>
<path class="st0" d="M407.7,373.8c0,0,1.2-22.2,10.3-28.3c9.1-6.1,14.2-12.7,14.2-12.7v-7.6l5.6-4.6v-11.1l6.1-7.6
	c0,0,15.2-18.7,16.7-18.7s8.6-2.5,8.6-2.5l6.6-11.1h10.6c0,0-1,4.6,0,4.6s6.6-4.6,6.6-4.6l2.5,4.6l8.6-4.6l3.5-11.1l5.1-6.6
	l7.6-10.6l5.1-4.1l5.1,3l5.1-3h6.1l4.8-3.5l5.8-3l5.1-8.1l6.1-2.5l3.5,4.6l2-4.6h4.6l8.1-5.6l4.6,2.5l6.6-19.7l2.5,13.7l6.1-4.1
	l4.6,2.5l11.1-0.5l6.6-3.5l5.1-5.1l6.6-3v7.6l6.1-4.1l5.6-3.5l6.5,5.1l6.6,5.6l-8.1,5.6l2.5,5.1l5.6,2l6.6-1.5l2.5-8.1l3.4,6.1
	l4.7,2v4.6l13.2,3.5l5.1-1.5l5.1,4.1l4.6,3l7.1-1.5l6.1-2.5l5.1,4.6l3,6.1l5.1,3.5l8.6,6.6l5.1,6.1c0,0,14.2-1,15.7,2
	s10.6,8.1,10.6,8.1l8.1,3.5l11.1,3.5l6.6,12.7l12.2,2.5l4.6,5.1l2.5,17.1l15.2,14.2l7.1,14.2l3.5,23.3l14.2,8.7l3.2,5.6L407.7,373.8
	z"/>
<g>
	<g>
		<line class="st2" x1="175.5" y1="197.2" x2="178.5" y2="197.2"/>
		<line class="st5" x1="184.6" y1="197.2" x2="1099.2" y2="197.2"/>
		<line class="st2" x1="1102.3" y1="197.2" x2="1105.3" y2="197.2"/>
	</g>
</g>
<path class="st6" d="M1190,375l6.8-50.2c0,0,36.1-62.4,60.4-66.3c24.4-3.9,40.9-4.9,40.9-4.9l23.4-24.7l19.5-10.4l30.2-8.8
	l34.1-27.3l23.4-47.8l14.5-35.5h59.6c0,0,31.2,61.9,31.2,70.6c0,8.8,16.6,48.7,16.6,48.7l50.7,30.2l26.3,57.5l29.2,24.4v44.3
	l-172.5-11.2L1190,375z"/>
<path class="st7" d="M1502.9,99.3c14.6,19.9,17.6,266.9,17.6,266.9l-36.1-2.3l-46.7,1.8c-13.2-149.1,5.6-266.3,5.6-266.3
	L1502.9,99.3L1502.9,99.3z"/>
<path class="st8" d="M1459,105.6c0,0-16.8,85.3,0,250.5h42.9c0,0,1.4-179.4-9.7-250.5C1492.2,105.6,1459,105.6,1459,105.6z"/>
<polygon class="st9" points="914.7,325.5 1196.9,324.9 1190,375 902.3,376 "/>
<path class="st9" d="M1799.8,332.6c0,0-79.6,1.5-142.9-1.9V375l153.7,0.3C1810.6,375.3,1806.9,336.3,1799.8,332.6z"/>
<g>
	<g>
		<path d="M18.6,295.5v-1.6l5.7-6.2c0.7-0.7,1.2-1.4,1.6-2c0.3-0.6,0.7-1,0.8-1.5c0.1-0.5,0.2-0.9,0.2-1.4c0-0.8-0.2-1.6-0.8-2.2
			c-0.6-0.6-1.3-0.9-2.2-0.9c-1,0-1.9,0.3-2.3,0.9c-0.5,0.6-0.8,1.5-0.8,2.5h-2.2V283c0-1,0.2-1.9,0.6-2.7c0.5-0.8,1-1.4,2-1.9
			c0.8-0.5,1.9-0.7,3-0.7c1,0,2.1,0.2,2.8,0.6c0.8,0.5,1.4,0.9,1.9,1.7s0.7,1.5,0.7,2.4c0,0.6-0.1,1.3-0.3,1.9s-0.6,1.3-1,2
			c-0.5,0.7-1,1.4-1.7,2.1l-4.5,5v0.1h6.1l0.2-2h2v3.8H18.6V295.5z"/>
		<path d="M37,295.8c-0.6,0-1.3,0-1.9-0.1c-0.6-0.1-1.2-0.3-1.7-0.6l0.3-1.7c0.5,0.2,0.9,0.3,1.5,0.5c0.5,0.1,1,0.1,1.7,0.1
			c1.2,0,2-0.5,2.7-1.3c0.7-0.8,1-2.2,1-4.2v-0.1c-0.3,0.6-0.8,0.9-1.3,1.3c-0.5,0.3-1.2,0.5-2,0.5c-1.2,0-2.1-0.2-2.9-0.7
			s-1.4-1.2-1.9-2.1s-0.7-2-0.7-3.2c0-1.2,0.2-2.3,0.7-3.2s1.2-1.6,2-2.2s1.7-0.8,2.7-0.8c1.2,0,2.2,0.2,3.1,0.8
			c0.9,0.5,1.5,1.3,2,2.2c0.5,1,0.7,2.2,0.7,3.7v3.1c0,1.9-0.2,3.2-0.8,4.5c-0.6,1.3-1.3,2.1-2.1,2.7
			C39.3,295.4,38.1,295.8,37,295.8z M37.3,288.2c0.8,0,1.6-0.2,2.2-0.6c0.6-0.3,1-0.8,1.3-1.4v-1.9c0-1.5-0.3-2.7-0.9-3.5
			c-0.6-0.8-1.4-1.2-2.5-1.2c-0.6,0-1.2,0.2-1.6,0.6c-0.5,0.3-0.8,0.9-1.2,1.5c-0.2,0.7-0.5,1.4-0.5,2.2s0.1,1.5,0.3,2.2
			c0.2,0.6,0.6,1,1,1.4C36.2,288,36.6,288.2,37.3,288.2z"/>
		<path d="M48.8,295.5l0.2-1.9c0.2-1.9,0.6-3.5,1-5.1c0.5-1.6,1.2-3,2-4.4s1.7-2.8,2.9-4.2h-7.2l-0.2,2h-2v-3.8h11.7v1.9
			c-1,1.3-1.9,2.4-2.5,3.5c-0.7,1-1.3,2.1-1.6,3.1c-0.5,1-0.7,2.1-0.9,3.2c-0.2,1.2-0.5,2.3-0.6,3.7l-0.2,1.9L48.8,295.5L48.8,295.5
			z"/>
		<path d="M64.9,295.5V294l2-0.3v-9.1l-2-0.3v-1.5h4.1l0.1,1.6c0.5-0.6,0.9-1,1.6-1.4c0.7-0.3,1.4-0.5,2.2-0.5
			c0.8,0,1.6,0.2,2.2,0.6c0.6,0.3,1,1,1.4,1.7c0.3-0.7,0.9-1.3,1.6-1.7c0.7-0.5,1.4-0.7,2.3-0.7c1.3,0,2.3,0.5,3.1,1.4
			c0.8,0.9,1.2,2.2,1.2,4.1v5.9l2,0.3v1.5h-6.2V294l2-0.3v-5.9c0-1.3-0.2-2.2-0.7-2.7c-0.5-0.6-1-0.8-2-0.8c-0.8,0-1.5,0.2-2,0.8
			c-0.5,0.6-0.8,1.3-0.8,2.2v6.4l2,0.3v1.5h-6.2V294l2-0.3v-5.9c0-1.2-0.2-2.1-0.7-2.7c-0.5-0.6-1-0.8-2-0.8c-0.7,0-1.3,0.1-1.7,0.5
			c-0.5,0.3-0.8,0.7-1,1.3v7.6l2,0.3v1.5H64.9L64.9,295.5z"/>
		<path d="M93.6,295.8c-0.8,0-1.6-0.1-2.4-0.2c-0.7-0.2-1.5-0.5-2.4-0.8v-3h1.7l0.5,1.9c0.5,0.2,0.9,0.3,1.3,0.3
			c0.5,0.1,0.8,0.1,1.4,0.1c0.9,0,1.6-0.2,2.1-0.6c0.5-0.3,0.6-0.8,0.6-1.4c0-0.5-0.2-0.9-0.6-1.3c-0.5-0.3-1.2-0.7-2.3-0.9
			c-1.5-0.3-2.7-0.8-3.5-1.4c-0.7-0.6-1-1.4-1-2.4c0-0.7,0.2-1.3,0.6-1.9c0.3-0.6,0.9-1,1.7-1.3c0.8-0.2,1.5-0.5,2.5-0.5
			c0.9,0,1.9,0.1,2.5,0.3c0.7,0.2,1.3,0.5,1.9,0.9l0.1,2.9h-1.7l-0.3-1.7c-0.2-0.2-0.6-0.3-1-0.5c-0.5-0.1-0.8-0.1-1.3-0.1
			c-0.7,0-1.3,0.1-1.7,0.5c-0.5,0.3-0.7,0.8-0.7,1.3c0,0.3,0.1,0.6,0.2,0.8c0.1,0.2,0.3,0.5,0.8,0.6c0.3,0.2,0.9,0.3,1.6,0.6
			c1.7,0.5,3,0.9,3.7,1.6c0.7,0.7,1,1.5,1,2.4c0,1-0.3,2-1.2,2.8C96.6,295.4,95.3,295.8,93.6,295.8z"/>
		<path d="M101.3,295.5v-2.4h2.3v2.4H101.3z"/>
		<path d="M106.3,295.5V294l2-0.3v-9.1l-2-0.3v-1.5h4.1l0.1,2c0.5-0.7,0.9-1.2,1.6-1.6c0.7-0.3,1.4-0.6,2.2-0.6
			c1.4,0,2.4,0.5,3.2,1.3c0.8,0.8,1.2,2.1,1.2,3.7v6.2l2,0.3v1.5h-6.2V294l2-0.3v-6.2c0-1.2-0.2-2-0.7-2.4c-0.5-0.5-1.2-0.7-2.1-0.7
			c-0.7,0-1.3,0.1-1.7,0.5c-0.5,0.3-0.9,0.8-1.3,1.3v7.5l2,0.3v1.5L106.3,295.5L106.3,295.5z"/>
		<path d="M123.1,295.5v-2.4h2.3v2.4H123.1z"/>
		<path d="M128,295.5V294l2-0.3v-9.1l-2-0.3v-1.5h4.1l0.1,1.6c0.5-0.6,0.9-1,1.6-1.4c0.7-0.3,1.4-0.5,2.2-0.5s1.6,0.2,2.2,0.6
			c0.6,0.3,1,1,1.4,1.7c0.3-0.7,0.9-1.3,1.6-1.7c0.7-0.5,1.4-0.7,2.3-0.7c1.3,0,2.3,0.5,3.1,1.4c0.8,0.9,1.2,2.2,1.2,4.1v5.9l2,0.3
			v1.5h-6.2V294l2-0.3v-5.9c0-1.3-0.2-2.2-0.7-2.7c-0.5-0.6-1-0.8-2-0.8c-0.8,0-1.5,0.2-2,0.8c-0.5,0.6-0.8,1.3-0.8,2.2v6.4l2,0.3
			v1.5h-6.2V294l2-0.3v-5.9c0-1.2-0.2-2.1-0.7-2.7c-0.5-0.6-1-0.8-2-0.8c-0.7,0-1.3,0.1-1.7,0.5c-0.5,0.3-0.8,0.7-1,1.3v7.6l2,0.3
			v1.5H128L128,295.5z"/>
	</g>
</g>
<g>
	<g>
		<path d="M24.5,206.2c-1.2,0-2.1-0.2-3-0.8c-0.9-0.6-1.6-1.4-2.1-2.4s-0.8-2.3-0.8-3.8v-2.3c0-1.9,0.2-3.4,0.8-4.6
			c0.6-1.3,1.3-2.2,2.3-2.8c1-0.6,2.1-0.9,3.4-0.9c0.6,0,1.2,0.1,1.7,0.2c0.6,0.1,1,0.3,1.4,0.5l-0.5,1.7c-0.3-0.2-0.8-0.3-1.3-0.5
			c-0.5-0.1-0.9-0.1-1.5-0.1c-1.2,0-2.2,0.5-2.9,1.4c-0.7,0.9-1,2.3-1.2,4.2l0,0c0.5-0.5,1-0.7,1.6-0.9c0.7-0.2,1.4-0.3,2.1-0.3
			c1,0,2,0.2,2.7,0.7c0.8,0.5,1.4,1.2,1.7,2c0.5,0.8,0.6,1.9,0.6,2.9c0,1.2-0.2,2.2-0.7,3.1c-0.5,0.9-1,1.6-1.9,2.1
			C26.2,205.8,25.6,206.2,24.5,206.2z M24.5,204.3c0.7,0,1.2-0.2,1.6-0.6c0.5-0.3,0.8-0.9,1-1.5c0.2-0.7,0.3-1.4,0.3-2.2
			c0-1.2-0.2-2.1-0.8-2.8c-0.6-0.7-1.4-1.2-2.4-1.2c-0.6,0-1,0.1-1.4,0.2c-0.5,0.1-0.8,0.3-1.2,0.6c-0.3,0.2-0.6,0.6-0.8,0.9v1.4
			c0,1.6,0.3,2.9,1,3.7C22.6,203.9,23.6,204.3,24.5,204.3z"/>
		<path d="M32,205.9v-1.6l5.7-6.2c0.7-0.7,1.2-1.4,1.6-2c0.3-0.6,0.7-1,0.8-1.5c0.1-0.5,0.2-0.9,0.2-1.4c0-0.8-0.2-1.6-0.8-2.2
			c-0.6-0.6-1.3-0.9-2.2-0.9c-1,0-1.9,0.3-2.3,0.9c-0.5,0.6-0.8,1.5-0.8,2.5H32v-0.1c0-1,0.2-1.9,0.6-2.7c0.5-0.8,1-1.4,2-1.9
			c0.8-0.5,1.9-0.7,3-0.7c1,0,2.1,0.2,2.8,0.6c0.8,0.5,1.4,0.9,1.9,1.7c0.5,0.8,0.7,1.5,0.7,2.4c0,0.6-0.1,1.3-0.3,1.9
			c-0.2,0.6-0.6,1.3-1,2s-1,1.4-1.7,2.1l-4.5,5v0.1h6.1l0.2-2h1.5v3.8H32C32,205.8,32,205.9,32,205.9z"/>
		<path d="M50.3,206.2c-0.6,0-1.3,0-1.9-0.1c-0.6-0.1-1.2-0.3-1.7-0.6l0.3-1.7c0.5,0.2,0.9,0.3,1.5,0.5c0.5,0.1,1,0.1,1.7,0.1
			c1.2,0,2-0.5,2.7-1.3c0.7-0.8,1-2.2,1-4.2v-0.1c-0.3,0.6-0.8,0.9-1.3,1.3s-1.2,0.5-2,0.5c-1.2,0-2.1-0.2-2.9-0.7s-1.4-1.2-1.9-2.1
			c-0.5-0.9-0.7-2-0.7-3.2c0-1.2,0.2-2.3,0.7-3.2c0.5-0.9,1.2-1.6,2-2.2c0.8-0.6,1.7-0.8,2.7-0.8c1.2,0,2.2,0.2,3.1,0.8
			c0.9,0.5,1.5,1.3,2,2.2c0.5,1,0.7,2.2,0.7,3.7v3.1c0,1.9-0.2,3.2-0.8,4.5c-0.6,1.3-1.3,2.1-2.1,2.7
			C52.6,205.8,51.6,206.2,50.3,206.2z M50.6,198.6c0.8,0,1.6-0.2,2.2-0.6s1-0.8,1.3-1.4v-1.9c0-1.5-0.3-2.7-0.9-3.5
			c-0.6-0.8-1.4-1.2-2.5-1.2c-0.6,0-1.2,0.2-1.6,0.6c-0.5,0.3-0.8,0.9-1.2,1.5c-0.2,0.7-0.5,1.4-0.5,2.2c0,0.8,0.1,1.5,0.3,2.2
			c0.2,0.6,0.6,1,1,1.4C49.2,198.4,50.1,198.6,50.6,198.6z"/>
		<path d="M64.9,205.9v-1.5l2-0.3v-9.1l-2-0.3v-1.5h4.1l0.1,1.6c0.5-0.6,0.9-1,1.6-1.4s1.4-0.5,2.2-0.5c0.8,0,1.6,0.2,2.2,0.6
			s1,1,1.4,1.7c0.3-0.7,0.9-1.3,1.6-1.7c0.7-0.5,1.4-0.7,2.3-0.7c1.3,0,2.3,0.5,3.1,1.4c0.8,0.9,1.2,2.2,1.2,4.1v5.9l2,0.3v1.5h-6.2
			v-1.5l2-0.3v-5.9c0-1.3-0.2-2.2-0.7-2.7c-0.5-0.6-1-0.8-2-0.8c-0.8,0-1.5,0.2-2,0.8c-0.5,0.6-0.8,1.3-0.8,2.2v6.4l2,0.3v1.5h-6.2
			v-1.5l2-0.3v-5.9c0-1.2-0.2-2.1-0.7-2.7c-0.5-0.6-1-0.8-2-0.8c-0.7,0-1.3,0.1-1.7,0.5c-0.5,0.3-0.8,0.7-1,1.3v7.6l2,0.3v1.5
			L64.9,205.9L64.9,205.9z"/>
		<path d="M93.4,206.2c-0.8,0-1.6-0.1-2.4-0.2c-0.8-0.1-1.5-0.5-2.4-0.8v-3h1.7l0.5,1.9c0.5,0.2,0.9,0.3,1.3,0.3
			c0.5,0.1,0.8,0.1,1.4,0.1c0.9,0,1.6-0.2,2.1-0.6c0.5-0.3,0.6-0.8,0.6-1.4c0-0.5-0.2-0.9-0.6-1.3c-0.5-0.3-1.2-0.7-2.3-0.9
			c-1.5-0.3-2.7-0.8-3.5-1.4c-0.7-0.6-1-1.4-1-2.4c0-0.7,0.2-1.3,0.6-1.9s0.9-1,1.7-1.3c0.8-0.2,1.5-0.5,2.5-0.5
			c0.9,0,1.9,0.1,2.5,0.3c0.7,0.2,1.3,0.5,1.9,0.9l0.1,2.9h-1.7l-0.3-1.7c-0.2-0.2-0.6-0.3-1-0.5c-0.5-0.1-0.8-0.1-1.3-0.1
			c-0.7,0-1.3,0.1-1.7,0.5c-0.5,0.3-0.7,0.8-0.7,1.3c0,0.3,0.1,0.6,0.2,0.8c0.1,0.2,0.3,0.5,0.8,0.6c0.3,0.2,0.9,0.3,1.6,0.6
			c1.7,0.5,3,0.9,3.7,1.6c0.7,0.7,1,1.5,1,2.4c0,1-0.3,2-1.2,2.8C96.5,205.8,95.2,206.2,93.4,206.2z"/>
		<path d="M101.3,205.9v-2.4h2.3v2.4H101.3z"/>
		<path d="M106.3,205.9v-1.5l2-0.3v-9.1l-2-0.3v-1.5h4.1l0.1,2c0.5-0.7,0.9-1.2,1.6-1.6c0.7-0.3,1.4-0.6,2.2-0.6
			c1.4,0,2.4,0.5,3.2,1.3c0.8,0.8,1.2,2.1,1.2,3.7v6.2l2,0.3v1.5h-6.2v-1.5l2-0.3v-6.2c0-1.2-0.2-2-0.7-2.4
			c-0.5-0.5-1.2-0.7-2.1-0.7c-0.7,0-1.3,0.1-1.7,0.5c-0.5,0.3-0.9,0.8-1.3,1.3v7.5l2,0.3v1.5L106.3,205.9L106.3,205.9z"/>
		<path d="M123.1,205.9v-2.4h2.3v2.4H123.1z"/>
		<path d="M128,205.9v-1.5l2-0.3v-9.1l-2-0.3v-1.5h4.1l0.1,1.6c0.5-0.6,0.9-1,1.6-1.4s1.4-0.5,2.2-0.5s1.6,0.2,2.2,0.6s1,1,1.4,1.7
			c0.3-0.7,0.9-1.3,1.6-1.7c0.7-0.5,1.4-0.7,2.3-0.7c1.3,0,2.3,0.5,3.1,1.4c0.8,0.9,1.2,2.2,1.2,4.1v5.9l2,0.3v1.5h-6.2v-1.5l2-0.3
			v-5.9c0-1.3-0.2-2.2-0.7-2.7c-0.5-0.6-1-0.8-2-0.8c-0.8,0-1.5,0.2-2,0.8c-0.5,0.6-0.8,1.3-0.8,2.2v6.4l2,0.3v1.5h-6.2v-1.5l2-0.3
			v-5.9c0-1.2-0.2-2.1-0.7-2.7c-0.5-0.6-1-0.8-2-0.8c-0.7,0-1.3,0.1-1.7,0.5c-0.5,0.3-0.8,0.7-1,1.3v7.6l2,0.3v1.5L128,205.9
			L128,205.9z"/>
	</g>
</g>
<g>
	<g>
		<path d="M23.4,93.2c-0.6,0-1.3,0-1.9-0.1c-0.6-0.1-1.2-0.3-1.7-0.6l0.3-1.7c0.5,0.2,0.9,0.3,1.5,0.5c0.5,0.1,1,0.1,1.7,0.1
			c1.2,0,2-0.5,2.7-1.3c0.7-0.8,1-2.2,1-4.2v-0.1c-0.3,0.6-0.8,0.9-1.3,1.3s-1.2,0.5-2,0.5c-1.2,0-2.1-0.2-2.9-0.7
			c-0.8-0.5-1.4-1.2-1.9-2.1c-0.5-0.9-0.7-2-0.7-3.2c0-1.2,0.2-2.3,0.7-3.2s1.2-1.6,2-2.2s1.7-0.8,2.7-0.8c1.2,0,2.2,0.2,3.1,0.8
			c0.9,0.5,1.5,1.3,2,2.2c0.5,0.9,0.7,2.2,0.7,3.7v3.1c0,1.9-0.2,3.2-0.8,4.5c-0.6,1.3-1.3,2.1-2.1,2.7C25.7,93,24.6,93.2,23.4,93.2
			z M23.8,85.7c0.8,0,1.6-0.2,2.2-0.6s1-0.8,1.3-1.4v-1.9c0-1.5-0.3-2.7-0.9-3.5c-0.6-0.8-1.4-1.2-2.5-1.2c-0.6,0-1.2,0.2-1.6,0.6
			c-0.5,0.3-0.8,0.9-1.2,1.5c-0.2,0.7-0.5,1.4-0.5,2.2s0.1,1.5,0.3,2.2c0.2,0.6,0.6,1,1,1.4C22.4,85.5,23.1,85.7,23.8,85.7z"/>
		<path d="M38.4,93.2c-1.2,0-2.1-0.2-3-0.8c-0.9-0.6-1.6-1.4-2.1-2.4s-0.8-2.3-0.8-3.8v-2.3c0-1.9,0.2-3.4,0.8-4.6
			c0.6-1.3,1.3-2.2,2.3-2.8c1-0.6,2.1-0.9,3.4-0.9c0.6,0,1.2,0.1,1.7,0.2s1,0.3,1.4,0.5L41.6,78c-0.3-0.2-0.8-0.3-1.3-0.5
			c-0.5-0.1-0.9-0.1-1.5-0.1c-1.2,0-2.2,0.5-2.9,1.4c-0.7,0.9-1,2.3-1.2,4.2l0,0c0.5-0.5,1-0.7,1.6-0.9c0.6-0.2,1.4-0.3,2.1-0.3
			c1,0,2,0.2,2.7,0.7c0.8,0.5,1.4,1.2,1.7,2c0.5,0.8,0.6,1.9,0.6,2.9c0,1.2-0.2,2.2-0.7,3.1c-0.5,0.9-1,1.6-1.9,2.1
			C40.1,92.9,39.4,93.2,38.4,93.2z M38.4,91.5c0.7,0,1.2-0.2,1.6-0.6s0.8-0.9,1-1.5c0.2-0.7,0.3-1.4,0.3-2.2c0-1.2-0.2-2.1-0.8-2.8
			c-0.6-0.7-1.4-1.2-2.4-1.2c-0.6,0-1,0.1-1.4,0.2c-0.5,0.1-0.8,0.3-1.2,0.6c-0.3,0.2-0.6,0.6-0.8,0.9v1.4c0,1.6,0.3,2.9,1,3.7
			C36.5,91,37.3,91.5,38.4,91.5z"/>
		<path d="M50.7,93.2c-0.9,0-1.9-0.2-2.7-0.6s-1.4-0.9-1.9-1.6s-0.7-1.6-0.6-2.7v-0.1h2.2c0,0.9,0.2,1.6,0.8,2.2
			c0.6,0.6,1.3,0.8,2.1,0.8c1,0,1.7-0.3,2.3-1c0.6-0.7,0.8-1.6,0.8-2.9c0-1.2-0.2-2.1-0.8-2.8c-0.6-0.7-1.3-1-2.3-1
			c-0.9,0-1.6,0.1-2,0.5c-0.5,0.2-0.7,0.7-0.9,1.3l-2-0.2l1-9.5h9.1V79h-1.7l-0.2-1.4h-5.2l-0.6,4.9c0.2-0.2,0.5-0.3,0.8-0.5
			c0.3-0.1,0.6-0.2,0.9-0.3c0.3-0.1,0.7-0.1,1-0.1c1,0,2,0.2,2.8,0.7s1.4,1.2,1.7,2c0.3,0.8,0.6,1.9,0.6,3.1c0,1.2-0.2,2.2-0.6,3
			c-0.5,0.8-1,1.5-1.9,2C52.9,93,52,93.2,50.7,93.2z"/>
		<path d="M64.4,93v-1.5l2-0.3V82l-2-0.3v-1.5h4.1l0.1,1.6c0.5-0.6,0.9-1,1.6-1.4c0.7-0.3,1.4-0.5,2.2-0.5c0.8,0,1.6,0.2,2.2,0.6
			c0.6,0.3,1,1,1.4,1.7c0.3-0.7,0.9-1.3,1.6-1.7c0.7-0.5,1.4-0.7,2.3-0.7c1.3,0,2.3,0.5,3.1,1.4c0.8,0.9,1.2,2.2,1.2,4.1v5.9l2,0.3
			V93h-6.2v-1.5l2-0.3v-5.9c0-1.3-0.2-2.2-0.7-2.7c-0.5-0.6-1-0.8-2-0.8c-0.8,0-1.5,0.2-2,0.8c-0.5,0.6-0.8,1.3-0.8,2.2v6.4l2,0.3
			V93h-6.2v-1.5l2-0.3v-5.9c0-1.2-0.2-2.1-0.7-2.7c-0.5-0.6-1-0.8-2-0.8c-0.7,0-1.3,0.1-1.7,0.5c-0.5,0.3-0.8,0.7-1,1.3v7.6l2,0.3
			V93L64.4,93L64.4,93z"/>
		<path d="M93,93.2c-0.8,0-1.6-0.1-2.4-0.2c-0.8-0.1-1.5-0.5-2.4-0.8v-3h1.7l0.5,1.9c0.5,0.2,0.9,0.3,1.3,0.3
			c0.5,0.1,0.8,0.1,1.4,0.1c0.9,0,1.6-0.2,2.1-0.6c0.5-0.3,0.6-0.8,0.6-1.4c0-0.5-0.2-0.9-0.6-1.3c-0.5-0.3-1.2-0.7-2.3-0.9
			c-1.5-0.3-2.7-0.8-3.5-1.4c-0.7-0.6-1-1.4-1-2.4c0-0.7,0.2-1.3,0.6-1.9s0.9-1,1.7-1.3c0.8-0.2,1.5-0.5,2.5-0.5
			c0.9,0,1.9,0.1,2.5,0.3c0.7,0.2,1.3,0.5,1.9,0.9l0.1,2.9h-1.7l-0.3-1.7c-0.2-0.2-0.6-0.3-1-0.5c-0.5-0.1-0.8-0.1-1.3-0.1
			c-0.7,0-1.3,0.1-1.7,0.5c-0.5,0.3-0.7,0.8-0.7,1.3c0,0.3,0.1,0.6,0.2,0.8c0.1,0.2,0.3,0.5,0.8,0.6c0.3,0.2,0.9,0.3,1.6,0.6
			c1.7,0.5,3,0.9,3.7,1.6c0.7,0.7,1,1.5,1,2.4c0,1-0.3,2-1.2,2.8C96,92.9,94.7,93.2,93,93.2z"/>
		<path d="M100.7,93v-2.4h2.3V93H100.7z"/>
		<path d="M105.8,93v-1.5l2-0.3V82l-2-0.3v-1.5h4.1l0.1,2c0.5-0.7,0.9-1.2,1.6-1.6s1.4-0.6,2.2-0.6c1.4,0,2.4,0.5,3.2,1.3
			c0.8,0.8,1.2,2.1,1.2,3.7v6.2l2,0.3V93h-6.4v-1.5l2-0.3v-6.2c0-1.2-0.2-2-0.7-2.4c-0.5-0.5-1.2-0.7-2.1-0.7
			c-0.7,0-1.3,0.1-1.7,0.5c-0.5,0.3-0.9,0.8-1.3,1.3V91l2,0.3v1.5L105.8,93L105.8,93z"/>
		<path d="M122.6,93v-2.4h2.3V93H122.6z"/>
		<path d="M127.6,93v-1.5l2-0.3V82l-2-0.3v-1.5h4.1l0.1,1.6c0.5-0.6,0.9-1,1.6-1.4c0.7-0.3,1.4-0.5,2.2-0.5c0.8,0,1.6,0.2,2.2,0.6
			c0.6,0.3,1,1,1.4,1.7c0.3-0.7,0.9-1.3,1.6-1.7c0.7-0.5,1.4-0.7,2.3-0.7c1.3,0,2.3,0.5,3.1,1.4s1.2,2.2,1.2,4.1v5.9l2,0.3V93h-6.2
			v-1.5l2-0.3v-5.9c0-1.3-0.2-2.2-0.7-2.7c-0.5-0.6-1-0.8-2-0.8c-0.8,0-1.5,0.2-2,0.8s-0.8,1.3-0.8,2.2v6.4l2,0.3V93h-6.2v-1.5
			l2-0.3v-5.9c0-1.2-0.2-2.1-0.7-2.7c-0.5-0.6-1-0.8-2-0.8c-0.7,0-1.3,0.1-1.7,0.5s-0.8,0.7-1,1.3v7.6l2,0.3V93L127.6,93L127.6,93z"
			/>
	</g>
</g>
<line class="st10" x1="1810.6" y1="397.4" x2="902.3" y2="397.4"/>
<line class="st2" x1="902.3" y1="378.5" x2="902.3" y2="412.4"/>
<line class="st2" x1="1810.6" y1="381.5" x2="1810.6" y2="415.4"/>
<g>
	<g>
		<path d="M1308.2,430.7v-1.6l2.8-0.4v-13.9h-2.8v-1.6l5.4-1.1v16.7l2.8,0.4v1.6L1308.2,430.7L1308.2,430.7z"/>
		<path d="M1324.6,431.1c-1.2,0-2.2-0.2-3.2-0.6c-0.9-0.4-1.6-1-2.1-1.7c-0.5-0.7-0.7-1.7-0.7-2.8c0-1,0.4-2,1-2.7
			c0.6-0.7,1.5-1.4,2.6-1.7c-0.9-0.4-1.6-0.9-2.2-1.6c-0.5-0.7-0.7-1.6-0.7-2.5c0-1.1,0.2-2,0.7-2.7c0.5-0.7,1.1-1.4,1.9-1.7
			c0.7-0.4,1.7-0.6,2.8-0.6c1.1,0,2,0.2,2.8,0.6c0.9,0.4,1.5,1,2,1.7c0.5,0.7,0.7,1.7,0.7,2.7s-0.2,1.9-0.9,2.5
			c-0.5,0.7-1.2,1.2-2.2,1.6c1.1,0.4,1.9,1,2.6,1.7c0.6,0.7,1,1.7,1,2.7c0,1.1-0.2,2.1-0.7,2.8c-0.5,0.7-1.2,1.4-2.1,1.7
			C1326.8,430.8,1325.7,431.1,1324.6,431.1z M1324.6,429.1c0.7,0,1.4-0.1,1.9-0.4c0.5-0.2,1-0.6,1.2-1.1c0.2-0.5,0.5-1.1,0.5-1.9
			c0-0.6-0.1-1.2-0.5-1.9c-0.4-0.6-0.7-1-1.2-1.2c-0.5-0.2-1.1-0.5-1.9-0.5c-0.7,0-1.2,0.1-1.9,0.5s-1,0.7-1.2,1.2
			c-0.2,0.5-0.5,1.1-0.5,1.9c0,1,0.4,1.9,1,2.5C1322.6,428.7,1323.5,429.1,1324.6,429.1z M1324.6,420.3c0.6,0,1.1-0.1,1.6-0.4
			c0.5-0.2,0.9-0.6,1.1-1.1c0.2-0.5,0.4-1,0.4-1.6s-0.1-1.1-0.4-1.6c-0.2-0.5-0.6-0.9-1.1-1.1c-0.5-0.2-1-0.4-1.6-0.4
			c-0.9,0-1.6,0.2-2.1,0.9c-0.5,0.6-0.9,1.4-0.9,2.4s0.2,1.7,0.9,2.2C1323.1,420,1323.6,420.3,1324.6,420.3z"/>
		<path d="M1333.4,434.6l-1.4-1c0.4-0.6,0.7-1.2,0.9-1.9s0.2-1.4,0.2-2v-2h2.5v1.9c0,0.9-0.2,1.7-0.6,2.6
			C1334.6,433.2,1334.1,434.2,1333.4,434.6z"/>
		<path d="M1343.5,431.1c-1,0-2-0.2-2.8-0.6c-0.9-0.4-1.5-1-2-1.7c-0.5-0.7-0.7-1.7-0.6-2.8v-0.1h2.2c0,1,0.2,1.7,0.9,2.4
			c0.6,0.6,1.4,0.9,2.2,0.9c1.1,0,1.9-0.4,2.5-1.1c0.6-0.7,0.9-1.7,0.9-3.1c0-1.2-0.2-2.2-0.9-3c-0.6-0.7-1.4-1.1-2.5-1.1
			c-1,0-1.7,0.1-2.1,0.5c-0.5,0.2-0.7,0.7-1,1.4l-2.1-0.2l1.1-10.2h9.8v3.7h-1.9l-0.2-1.5h-5.6l-0.6,5.2c0.2-0.2,0.5-0.4,0.9-0.5
			c0.2-0.1,0.6-0.2,1-0.4c0.4-0.1,0.7-0.1,1.1-0.1c1.1,0,2.1,0.2,3,0.7c0.9,0.5,1.5,1.2,1.9,2.1c0.5,1,0.6,2,0.6,3.3
			c0,1.2-0.2,2.4-0.6,3.2c-0.5,0.9-1.1,1.6-2,2.1C1345.9,430.8,1344.8,431.1,1343.5,431.1z"/>
		<path d="M1357.9,430.7v-1.6l2.1-0.4v-15.8l-2.1-0.4v-1.6h4.6v18l2.1,0.4v1.6L1357.9,430.7L1357.9,430.7z M1362.2,426.7l-0.9-2
			l5.9-5.9l0.1-0.1l-1.5-0.1v-1.6h5.9v1.6l-1.7,0.4L1362.2,426.7z M1366.7,430.7v-1.6l1.4-0.1l0,0l-4-5.1l1.2-2l5.6,7.1l2,0.2v1.6
			h-6.2V430.7z"/>
		<path d="M1374.4,430.7v-1.6l2.1-0.4v-9.8l-2.1-0.4v-1.6h4.3l0.1,1.7c0.5-0.6,1-1.1,1.7-1.5s1.5-0.5,2.4-0.5s1.7,0.2,2.4,0.6
			c0.6,0.4,1.1,1.1,1.5,1.9c0.4-0.7,1-1.4,1.7-1.9c0.7-0.5,1.5-0.7,2.5-0.7c1.4,0,2.5,0.5,3.3,1.5s1.2,2.4,1.2,4.3v6.3l2.1,0.4v1.6
			h-6.7v-1.6l2.1-0.4v-6.3c0-1.4-0.2-2.4-0.7-2.8c-0.5-0.6-1.1-0.9-2.1-0.9c-0.9,0-1.6,0.2-2.1,0.9c-0.5,0.6-0.9,1.4-0.9,2.4v6.8
			l2.1,0.4v1.6h-6.7v-1.6l2.1-0.4v-6.3c0-1.2-0.2-2.2-0.7-2.8c-0.5-0.6-1.1-0.9-2.1-0.9c-0.7,0-1.4,0.1-1.9,0.5
			c-0.5,0.4-0.9,0.7-1.1,1.4v8.2l2.1,0.4v1.6L1374.4,430.7L1374.4,430.7z"/>
	</g>
</g>
<g>
	<g>
		<path d="M191.8,46.6c-2.2,0-3.9-0.4-5.3-1.4c-1.4-1-2.6-2.3-3.3-3.9c-0.7-1.6-1.2-3.5-1.2-5.6v-0.3c0-2.2,0.4-4,1.2-5.6
			c0.7-1.6,1.9-2.9,3.3-3.9c1.4-1,3.2-1.4,5-1.4c1.4,0,2.6,0.3,3.7,0.7c1.2,0.4,2.2,1,2.9,1.6v4.6h-2.3l-0.3-3.5
			c-0.3-0.3-0.7-0.4-1.2-0.6c-0.4-0.1-0.9-0.3-1.3-0.4c-0.4-0.1-1-0.1-1.6-0.1c-1.4,0-2.6,0.4-3.6,1.2s-1.7,1.7-2.2,3
			c-0.4,1.3-0.7,2.7-0.7,4.5v0.3c0,1.9,0.3,3.3,0.9,4.6c0.6,1.3,1.3,2.3,2.3,2.9c1,0.7,2.3,1,3.7,1c0.7,0,1.3-0.1,2-0.3
			c0.7-0.1,1.2-0.4,1.6-0.7l0.3-3h2.3v4.6c-0.9,0.4-1.7,0.9-2.9,1.2C194.1,46.4,193,46.6,191.8,46.6z"/>
		<path d="M208.2,46.6c-1.4,0-2.7-0.3-3.9-1c-1-0.7-1.9-1.6-2.4-2.9c-0.6-1.3-0.9-2.6-0.9-4.2v-0.3c0-1.6,0.3-3,0.9-4.2
			c0.6-1.3,1.4-2.2,2.4-2.9c1-0.7,2.3-1,3.7-1c1.4,0,2.7,0.3,3.9,1c1,0.7,1.9,1.7,2.4,2.9c0.6,1.2,0.9,2.6,0.9,4.2v0.3
			c0,1.6-0.3,3-0.9,4.2c-0.6,1.3-1.4,2.2-2.4,2.9S209.8,46.6,208.2,46.6z M208.2,44.3c0.9,0,1.7-0.3,2.3-0.7s1.2-1.2,1.4-2
			c0.3-0.9,0.4-1.9,0.4-3v-0.3c0-1.2-0.1-2.2-0.4-3c-0.3-0.9-0.9-1.6-1.4-2c-0.6-0.6-1.4-0.7-2.3-0.7c-0.9,0-1.7,0.3-2.3,0.7
			c-0.6,0.6-1.2,1.2-1.4,2c-0.3,0.9-0.4,1.9-0.4,3v0.3c0,1.2,0.1,2.2,0.4,3c0.3,0.9,0.7,1.6,1.4,2C206.5,44,207.4,44.3,208.2,44.3z"
			/>
		<path d="M224.1,46.6c-1,0-2-0.1-3-0.3c-1-0.1-1.9-0.6-3-1v-3.7h2.2l0.6,2.3c0.6,0.3,1.2,0.4,1.6,0.4c0.6,0.1,1,0.1,1.7,0.1
			c1.2,0,2-0.3,2.6-0.7s0.7-1,0.7-1.7c0-0.6-0.3-1.2-0.7-1.6c-0.6-0.4-1.4-0.9-2.9-1.2c-1.9-0.4-3.3-1-4.3-1.7
			c-0.9-0.7-1.3-1.7-1.3-3c0-0.9,0.3-1.6,0.7-2.3c0.4-0.7,1.2-1.3,2.2-1.6c1-0.3,1.9-0.6,3.2-0.6c1.2,0,2.3,0.1,3.2,0.4
			c0.9,0.3,1.6,0.6,2.3,1.2l0.1,3.6h-2.2l-0.4-2.2c-0.3-0.3-0.7-0.4-1.3-0.6s-1-0.1-1.6-0.1c-0.9,0-1.6,0.1-2.2,0.6
			c-0.6,0.4-0.9,1-0.9,1.6c0,0.4,0.1,0.7,0.3,1c0.1,0.3,0.4,0.6,1,0.7c0.4,0.3,1.2,0.4,2,0.7c2.2,0.6,3.7,1.2,4.6,2
			c0.9,0.9,1.3,1.9,1.3,3c0,1.3-0.4,2.4-1.4,3.5C227.8,46.1,226.2,46.6,224.1,46.6z"/>
		<path d="M238.3,46.6c-1.2,0-2.2-0.3-2.9-1s-1-1.9-1-3.3v-9.6h-2.6v-2.2h2.6v-4h2.9v3.9h3.5v2.2h-3.5v9.6c0,0.7,0.1,1.3,0.4,1.7
			c0.3,0.4,0.7,0.6,1.3,0.6c0.3,0,0.7,0,1.2-0.1c0.4,0,0.7-0.1,1-0.1l0.4,1.9c-0.4,0.1-1,0.3-1.6,0.3S238.9,46.6,238.3,46.6z"/>
		<path d="M248.7,46.6c-1.7,0-2.9-0.4-3.7-1.2c-0.9-0.9-1.3-2-1.3-3.5c0-1,0.3-1.9,0.9-2.6c0.6-0.7,1.3-1.3,2.4-1.7
			c1.2-0.4,2.3-0.6,3.7-0.6h2.9v-1.6c0-1-0.3-1.7-0.9-2.3s-1.4-0.9-2.4-0.9c-0.7,0-1.3,0.1-1.7,0.3c-0.4,0.1-1,0.4-1.3,0.7l-0.3,2.2
			h-2.3v-3.6c0.7-0.6,1.6-1,2.4-1.3c1-0.3,2-0.4,3.2-0.4c1.9,0,3.5,0.4,4.6,1.4c1.2,1,1.6,2.3,1.6,4v7.6c0,0.1,0,0.4,0,0.6
			s0,0.4,0,0.6l1.6,0.1v1.9h-4.3c-0.1-0.4-0.1-0.9-0.1-1.2c0-0.3-0.1-0.7-0.1-1c-0.6,0.7-1.3,1.3-2.2,1.7
			C250.5,46.3,249.7,46.6,248.7,46.6z M249.1,44.1c1,0,1.9-0.3,2.6-0.7c0.7-0.4,1.4-1,1.7-1.7v-2.9h-3c-1.3,0-2.3,0.3-3,1
			s-1,1.3-1,2.2c0,0.7,0.3,1.3,0.7,1.6C247.5,44,248.2,44.1,249.1,44.1z"/>
		<path d="M260.2,46.3v-1.9l2.4-0.4V32.6l-2.4-0.4v-1.9h5l0.1,2.4c0.6-0.9,1.2-1.4,2-2c0.9-0.6,1.7-0.7,2.7-0.7c1.7,0,3,0.6,4,1.6
			c1,1,1.4,2.6,1.4,4.6V44l2.4,0.4v1.9h-7.8v-1.9l2.4-0.4v-7.8c0-1.4-0.3-2.4-0.9-3c-0.6-0.6-1.4-0.9-2.6-0.9
			c-0.9,0-1.6,0.1-2.2,0.6c-0.6,0.4-1.2,1-1.6,1.6v9.4l2.4,0.4v1.9L260.2,46.3L260.2,46.3z"/>
		<path d="M287.2,46.6c-1.4,0-2.7-0.3-3.9-1c-1.2-0.7-1.9-1.6-2.6-2.9c-0.7-1.3-0.9-2.6-0.9-4.2v-0.6c0-1.6,0.3-2.9,1-4
			c0.6-1.2,1.4-2.2,2.4-2.9c1-0.7,2.2-1,3.5-1c1.4,0,2.6,0.3,3.6,0.9c1,0.6,1.7,1.4,2.2,2.4c0.4,1,0.7,2.3,0.7,3.7V39h-10.4v0.1
			c0,1,0.1,1.9,0.6,2.7c0.3,0.9,0.9,1.4,1.4,1.9c0.6,0.4,1.4,0.7,2.3,0.7c1,0,1.9-0.1,2.6-0.4c0.7-0.3,1.4-0.7,1.9-1.2l1.2,1.9
			c-0.6,0.6-1.3,1-2.3,1.4C289.7,46.4,288.7,46.6,287.2,46.6z M283.1,36.6h7.3v-0.4c0-0.7-0.1-1.4-0.4-2c-0.3-0.6-0.7-1.2-1.2-1.4
			c-0.6-0.3-1.2-0.6-2-0.6c-0.7,0-1.3,0.1-1.7,0.6c-0.4,0.4-1,0.9-1.3,1.6C283.5,35.1,283.2,35.8,283.1,36.6L283.1,36.6z"/>
		<path d="M295.6,46.3v-1.9L298,44V32.6l-2.4-0.4v-1.9h5l0.3,2v0.3c0.4-0.9,1-1.4,1.7-1.9c0.7-0.4,1.4-0.7,2.3-0.7
			c0.3,0,0.6,0,1,0.1c0.3,0,0.6,0.1,0.7,0.1l-0.4,2.7l-2-0.1c-0.7,0-1.4,0.1-1.9,0.6c-0.6,0.4-0.9,0.9-1.2,1.6v9.1l2.4,0.4v1.9h-8.1
			L295.6,46.3L295.6,46.3z"/>
		<path d="M313.4,46.6c-1.7,0-2.9-0.4-3.7-1.2c-0.9-0.9-1.3-2-1.3-3.5c0-1,0.3-1.9,0.9-2.6c0.6-0.7,1.3-1.3,2.4-1.7
			c1.2-0.4,2.3-0.6,3.7-0.6h2.9v-1.6c0-1-0.3-1.7-0.9-2.3s-1.4-0.9-2.4-0.9c-0.7,0-1.3,0.1-1.7,0.3c-0.4,0.1-1,0.4-1.3,0.7l-0.3,2.2
			h-2.3v-3.6c0.7-0.6,1.6-1,2.4-1.3c1-0.3,2-0.4,3.2-0.4c1.9,0,3.5,0.4,4.6,1.4c1.2,1,1.6,2.3,1.6,4v7.6c0,0.1,0,0.4,0,0.6
			s0,0.4,0,0.6l1.6,0.1v1.9h-4.3c-0.1-0.4-0.1-0.9-0.1-1.2c0-0.3-0.1-0.7-0.1-1c-0.6,0.7-1.3,1.3-2.2,1.7
			C315.3,46.3,314.4,46.6,313.4,46.6z M313.9,44.1c1,0,1.9-0.3,2.6-0.7c0.7-0.4,1.4-1,1.7-1.7v-2.9h-3c-1.3,0-2.3,0.3-3,1
			c-0.7,0.7-1,1.3-1,2.2c0,0.7,0.3,1.3,0.7,1.6C312.3,44,313,44.1,313.9,44.1z"/>
		<path d="M339.6,46.6c-1.4,0-2.7-0.3-3.7-1c-1-0.7-1.9-1.6-2.4-2.9c-0.6-1.3-0.9-2.6-0.9-4.2v-0.6c0-1.6,0.3-2.9,0.9-4
			c0.6-1.2,1.4-2.2,2.4-2.9c1-0.7,2.3-1,3.9-1c1.3,0,2.4,0.1,3.5,0.6c1,0.4,1.7,1,2.4,1.7l0.1,3.9h-2.3l-0.4-2.7
			c-0.3-0.3-0.7-0.6-1.3-0.9c-0.6-0.3-1.2-0.3-1.7-0.3c-0.9,0-1.6,0.3-2.3,0.7c-0.7,0.6-1.2,1.2-1.6,2c-0.4,0.9-0.6,1.9-0.6,2.9v0.6
			c0,1.2,0.1,2.2,0.6,3c0.3,0.9,0.9,1.6,1.4,2c0.6,0.4,1.4,0.7,2.3,0.7c1,0,1.9-0.3,2.4-0.9c0.6-0.6,1-1.3,1.2-2.2h2.6v0.1
			c0,0.9-0.3,1.7-0.9,2.6c-0.6,0.9-1.2,1.4-2.2,1.9C342.1,46.3,341,46.6,339.6,46.6z"/>
		<path d="M355.4,46.6c-1.4,0-2.7-0.3-3.9-1c-1.2-0.7-1.9-1.6-2.6-2.9c-0.7-1.3-0.9-2.6-0.9-4.2v-0.6c0-1.6,0.3-2.9,1-4
			c0.6-1.2,1.4-2.2,2.4-2.9s2.2-1,3.5-1c1.4,0,2.6,0.3,3.6,0.9c1,0.6,1.7,1.4,2.2,2.4c0.4,1,0.7,2.3,0.7,3.7V39h-10.4v0.1
			c0,1,0.1,1.9,0.6,2.7c0.3,0.9,0.9,1.4,1.4,1.9c0.6,0.4,1.4,0.7,2.3,0.7c1,0,1.9-0.1,2.6-0.4c0.7-0.3,1.4-0.7,1.9-1.2l1.2,1.9
			c-0.6,0.6-1.3,1-2.3,1.4C357.9,46.4,356.7,46.6,355.4,46.6z M351.3,36.6h7.3v-0.4c0-0.7-0.1-1.4-0.4-2c-0.3-0.6-0.7-1.2-1.2-1.4
			c-0.6-0.3-1.2-0.6-2-0.6c-0.7,0-1.3,0.1-1.7,0.6c-0.4,0.4-1,0.9-1.3,1.6C351.7,35.1,351.4,35.8,351.3,36.6L351.3,36.6z"/>
		<path d="M363.8,46.3v-1.9l2.4-0.4V32.6l-2.4-0.4v-1.9h5l0.1,2.4c0.6-0.9,1.2-1.4,2-2c0.9-0.6,1.7-0.7,2.7-0.7c1.7,0,3,0.6,4,1.6
			c1,1,1.4,2.6,1.4,4.6V44l2.4,0.4v1.9h-7.8v-1.9l2.4-0.4v-7.8c0-1.4-0.3-2.4-0.9-3c-0.6-0.6-1.4-0.9-2.6-0.9
			c-0.9,0-1.6,0.1-2.2,0.6c-0.6,0.4-1.2,1-1.6,1.6v9.4l2.4,0.4v1.9L363.8,46.3L363.8,46.3z"/>
		<path d="M389.3,46.6c-1.2,0-2.2-0.3-2.9-1c-0.7-0.7-1-1.9-1-3.3v-9.6h-2.6v-2.2h2.6v-4h2.9v3.9h3.5v2.2h-3.5v9.6
			c0,0.7,0.1,1.3,0.4,1.7c0.3,0.4,0.7,0.6,1.3,0.6c0.3,0,0.7,0,1.2-0.1c0.4,0,0.7-0.1,1-0.1l0.4,1.9c-0.4,0.1-1,0.3-1.6,0.3
			S389.8,46.6,389.3,46.6z"/>
		<path d="M401.6,46.6c-1.4,0-2.7-0.3-3.9-1c-1.2-0.7-1.9-1.6-2.6-2.9c-0.7-1.3-0.9-2.6-0.9-4.2v-0.6c0-1.6,0.3-2.9,1-4
			c0.6-1.2,1.4-2.2,2.4-2.9s2.2-1,3.5-1c1.4,0,2.6,0.3,3.6,0.9c1,0.6,1.7,1.4,2.2,2.4c0.4,1,0.7,2.3,0.7,3.7V39h-10.4v0.1
			c0,1,0.1,1.9,0.6,2.7c0.3,0.9,0.9,1.4,1.4,1.9c0.6,0.4,1.4,0.7,2.3,0.7c1,0,1.9-0.1,2.6-0.4c0.7-0.3,1.4-0.7,1.9-1.2l1.2,1.9
			c-0.6,0.6-1.3,1-2.3,1.4C404.1,46.4,403.1,46.6,401.6,46.6z M397.5,36.6h7.3v-0.4c0-0.7-0.1-1.4-0.4-2c-0.3-0.6-0.7-1.2-1.2-1.4
			c-0.6-0.3-1.2-0.6-2-0.6c-0.7,0-1.3,0.1-1.7,0.6c-0.4,0.4-1,0.9-1.3,1.6S397.6,35.8,397.5,36.6L397.5,36.6z"/>
		<path d="M410,46.3v-1.9l2.4-0.4V32.6l-2.4-0.4v-1.9h5l0.3,2v0.3c0.4-0.9,1-1.4,1.7-1.9c0.7-0.4,1.4-0.7,2.3-0.7c0.3,0,0.6,0,1,0.1
			c0.3,0,0.6,0.1,0.7,0.1l-0.4,2.7l-2-0.1c-0.7,0-1.4,0.1-1.9,0.6c-0.6,0.4-0.9,0.9-1.2,1.6v9.1l2.4,0.4v1.9H410L410,46.3L410,46.3z
			"/>
	</g>
</g>
<g>
	<g>
		<path d="M512.5,46.9c-2.1,0-3.7-0.4-5.1-1.4c-1.4-1-2.5-2.2-3.2-3.7c-0.7-1.5-1.1-3.3-1.1-5.4v-0.3c0-2.1,0.4-3.9,1.1-5.4
			c0.7-1.5,1.8-2.8,3.2-3.7c1.4-1,3-1.4,4.8-1.4c1.4,0,2.5,0.3,3.6,0.7c1.1,0.4,2.1,1,2.8,1.5v4.4h-2.2l-0.3-3.3
			c-0.3-0.3-0.7-0.4-1.1-0.6s-0.8-0.3-1.2-0.4c-0.4-0.1-1-0.1-1.5-0.1c-1.4,0-2.5,0.4-3.4,1.1s-1.7,1.7-2.1,2.9s-0.7,2.6-0.7,4.3
			v0.3c0,1.8,0.3,3.2,0.8,4.4c0.5,1.2,1.2,2.2,2.2,2.8c1,0.7,2.2,1,3.6,1c0.7,0,1.2-0.1,1.9-0.3s1.1-0.4,1.5-0.7l0.3-2.9h2.2v4.4
			c-0.8,0.4-1.7,0.8-2.8,1.1C514.7,46.7,513.6,46.9,512.5,46.9z"/>
		<path d="M528.2,46.9c-1.4,0-2.6-0.3-3.7-1c-1.1-0.7-1.8-1.5-2.5-2.8c-0.7-1.2-0.8-2.5-0.8-4v-0.6c0-1.5,0.3-2.8,1-3.9
			c0.5-1.1,1.4-2.1,2.3-2.8c1-0.7,2.1-1,3.3-1c1.4,0,2.5,0.3,3.4,0.8c1,0.5,1.7,1.4,2.1,2.3c0.4,1,0.7,2.2,0.7,3.6v1.8h-9.9v0.1
			c0,1,0.1,1.8,0.6,2.6c0.3,0.8,0.8,1.4,1.4,1.8c0.6,0.4,1.4,0.7,2.2,0.7c1,0,1.8-0.1,2.5-0.4s1.4-0.7,1.8-1.1l1.1,1.8
			c-0.6,0.6-1.2,1-2.2,1.4C530.5,46.7,529.4,46.9,528.2,46.9z M524.2,37.4h7V37c0-0.7-0.1-1.4-0.4-1.9s-0.7-1.1-1.1-1.4
			c-0.6-0.3-1.1-0.6-1.9-0.6c-0.7,0-1.2,0.1-1.7,0.6c-0.4,0.4-1,0.8-1.2,1.5C524.6,35.9,524.4,36.6,524.2,37.4L524.2,37.4z"/>
		<path d="M536.2,46.6v-1.8l2.3-0.4V33.5l-2.3-0.4v-1.8h4.8l0.3,1.9v0.3c0.4-0.8,1-1.4,1.7-1.8s1.4-0.7,2.2-0.7c0.3,0,0.6,0,1,0.1
			c0.3,0,0.6,0.1,0.7,0.1l-0.4,2.6l-1.9-0.1c-0.7,0-1.4,0.1-1.8,0.6c-0.6,0.4-0.8,0.8-1.1,1.5v8.7l2.3,0.4v1.8h-7.7L536.2,46.6
			L536.2,46.6z"/>
		<path d="M548.3,46.6v-1.8l2.3-0.4V33.5l-2.3-0.4v-1.8h4.8l0.3,1.9v0.3c0.4-0.8,1-1.4,1.7-1.8s1.4-0.7,2.2-0.7c0.3,0,0.6,0,1,0.1
			c0.3,0,0.6,0.1,0.7,0.1l-0.4,2.6l-1.9-0.1c-0.7,0-1.4,0.1-1.8,0.6c-0.6,0.4-0.8,0.8-1.1,1.5v8.7l2.3,0.4v1.8h-7.7L548.3,46.6
			L548.3,46.6z"/>
		<path d="M567.3,46.9c-1.4,0-2.6-0.3-3.7-1c-1-0.7-1.8-1.5-2.3-2.8c-0.6-1.2-0.8-2.5-0.8-4v-0.3c0-1.5,0.3-2.9,0.8-4
			c0.6-1.2,1.4-2.1,2.3-2.8c1-0.7,2.2-1,3.6-1s2.6,0.3,3.7,1c1,0.7,1.8,1.7,2.3,2.8s0.8,2.5,0.8,4v0.3c0,1.5-0.3,2.9-0.8,4
			c-0.6,1.2-1.4,2.1-2.3,2.8C569.9,46.6,568.6,46.9,567.3,46.9z M567.3,44.7c0.8,0,1.7-0.3,2.2-0.7c0.5-0.4,1.1-1.1,1.4-1.9
			s0.4-1.8,0.4-2.9v-0.3c0-1.1-0.1-2.1-0.4-2.9c-0.3-0.8-0.8-1.5-1.4-1.9c-0.6-0.6-1.4-0.7-2.2-0.7s-1.7,0.3-2.2,0.7
			c-0.5,0.6-1.1,1.1-1.4,1.9c-0.3,0.8-0.4,1.8-0.4,2.9v0.3c0,1.1,0.1,2.1,0.4,2.9c0.3,0.8,0.7,1.5,1.4,1.9
			C565.6,44.4,566.3,44.7,567.3,44.7z"/>
		<path d="M590.8,46.9c-1.2,0-2.5-0.1-3.6-0.6s-2.2-1-3.3-1.7v-4.4h2.2l0.4,3.2c0.6,0.4,1.2,0.7,1.9,0.8c0.7,0.1,1.5,0.3,2.3,0.3
			c1,0,1.8-0.1,2.3-0.4c0.7-0.3,1.1-0.7,1.5-1.2c0.4-0.6,0.6-1.1,0.6-1.8s-0.1-1.2-0.4-1.7c-0.3-0.4-0.8-1-1.5-1.2
			c-0.7-0.4-1.7-0.7-2.9-1c-1.4-0.3-2.6-0.8-3.6-1.4c-1-0.6-1.7-1.2-2.2-2.1c-0.6-0.8-0.7-1.7-0.7-2.8s0.3-2.1,0.8-2.9
			c0.6-0.8,1.4-1.5,2.3-2.1c1-0.6,2.2-0.7,3.6-0.7s2.8,0.3,3.8,0.7c1.1,0.4,2.1,1,2.8,1.7v4.1H595l-0.4-2.9c-0.4-0.3-1-0.7-1.5-0.8
			c-0.5-0.1-1.4-0.3-2.3-0.3c-0.8,0-1.5,0.1-2.1,0.4s-1.1,0.7-1.4,1.1c-0.3,0.4-0.6,1.1-0.6,1.8c0,0.6,0.1,1.1,0.4,1.5
			c0.3,0.4,0.8,0.8,1.5,1.1s1.7,0.7,2.8,1c2.2,0.6,3.8,1.4,4.9,2.3c1.1,1.1,1.7,2.3,1.7,3.9c0,1.1-0.3,2.1-0.8,2.9
			c-0.6,0.8-1.4,1.5-2.5,2.1C593.5,46.6,592.3,46.9,590.8,46.9z"/>
		<path d="M605.2,46.9c-1.7,0-2.8-0.4-3.6-1.1c-0.8-0.8-1.2-1.9-1.2-3.3c0-1,0.3-1.8,0.8-2.5c0.5-0.7,1.2-1.2,2.3-1.7
			c1.1-0.4,2.2-0.6,3.6-0.6h2.8v-1.5c0-1-0.3-1.7-0.8-2.2c-0.5-0.5-1.4-0.8-2.3-0.8c-0.7,0-1.2,0.1-1.7,0.3s-1,0.4-1.2,0.7l-0.3,2.1
			h-2.2v-3.4c0.7-0.6,1.5-1,2.3-1.2c1-0.3,1.9-0.4,3-0.4c1.8,0,3.3,0.4,4.4,1.4c1.1,1,1.5,2.2,1.5,3.9v7.3c0,0.1,0,0.4,0,0.6
			c0,0.1,0,0.4,0,0.6l1.5,0.1v1.8h-4c-0.1-0.4-0.1-0.8-0.1-1.1s-0.1-0.7-0.1-1c-0.6,0.7-1.2,1.2-2.1,1.7
			C607,46.6,606.2,46.9,605.2,46.9z M605.6,44.5c1,0,1.8-0.3,2.5-0.7s1.4-1,1.7-1.7v-2.8h-2.9c-1.2,0-2.2,0.3-2.9,1
			c-0.7,0.7-1,1.2-1,2.1c0,0.7,0.3,1.2,0.7,1.5C604.2,44.4,604.8,44.5,605.6,44.5z"/>
		<path d="M616.3,46.6v-1.8l2.3-0.4V33.5l-2.3-0.4v-1.8h4.8l0.1,2.3c0.5-0.8,1.1-1.4,1.9-1.9c0.8-0.6,1.7-0.7,2.6-0.7
			c1.7,0,2.9,0.6,3.8,1.5c1,1,1.4,2.5,1.4,4.4v7.4l2.3,0.4v1.8H626v-1.8l2.3-0.4V37c0-1.4-0.3-2.3-0.8-2.9c-0.6-0.6-1.4-0.8-2.5-0.8
			c-0.8,0-1.5,0.1-2.1,0.6c-0.6,0.4-1.1,1-1.5,1.5v8.9l2.3,0.4v1.8L616.3,46.6L616.3,46.6z"/>
		<path d="M640.7,46.9c-1.1,0-2.1-0.3-2.8-1c-0.7-0.7-1-1.8-1-3.2v-9.2h-2.5v-2.1h2.5v-3.9h2.8v3.7h3.3v2.1h-3.3v9.2
			c0,0.7,0.1,1.2,0.4,1.7c0.3,0.4,0.7,0.6,1.2,0.6c0.3,0,0.7,0,1.1-0.1c0.4,0,0.7-0.1,1-0.1l0.4,1.8c-0.4,0.1-1,0.3-1.5,0.3
			C641.8,46.6,641.1,46.9,640.7,46.9z"/>
		<path d="M650.4,46.9c-1.7,0-2.8-0.4-3.6-1.1c-0.8-0.8-1.2-1.9-1.2-3.3c0-1,0.3-1.8,0.8-2.5c0.6-0.7,1.2-1.2,2.3-1.7
			c1.1-0.4,2.2-0.6,3.6-0.6h2.8v-1.5c0-1-0.3-1.7-0.8-2.2c-0.5-0.5-1.4-0.8-2.3-0.8c-0.7,0-1.2,0.1-1.7,0.3s-1,0.4-1.2,0.7l-0.3,2.1
			h-2.2v-3.4c0.7-0.6,1.5-1,2.3-1.2c1-0.3,1.9-0.4,3-0.4c1.8,0,3.3,0.4,4.4,1.4c1.1,1,1.5,2.2,1.5,3.9v7.3c0,0.1,0,0.4,0,0.6
			c0,0.1,0,0.4,0,0.6l1.5,0.1v1.8h-4c-0.1-0.4-0.1-0.8-0.1-1.1s-0.1-0.7-0.1-1c-0.6,0.7-1.2,1.2-2.1,1.7
			C652.2,46.6,651.4,46.9,650.4,46.9z M650.9,44.5c1,0,1.8-0.3,2.5-0.7s1.4-1,1.7-1.7v-2.8h-2.9c-1.2,0-2.2,0.3-2.9,1
			c-0.7,0.7-1,1.2-1,2.1c0,0.7,0.3,1.2,0.7,1.5C649.3,44.4,650,44.5,650.9,44.5z"/>
		<path d="M668.7,46.6v-1.8l2.3-0.4V28.2l-2.3-0.4V26h2.3h2.8h2.3v1.8l-2.3,0.4v16.2h7.3l0.3-3.3h2.1v5.4L668.7,46.6L668.7,46.6z"/>
		<path d="M692.4,46.9c-1.7,0-2.9-0.6-3.9-1.7c-1-1.1-1.4-2.8-1.4-5v-6.9l-1.8-0.4v-1.8h1.8h2.8v9.1c0,1.7,0.3,2.8,0.7,3.3
			c0.4,0.6,1.2,1,2.2,1c1,0,1.8-0.1,2.5-0.6c0.7-0.4,1.1-1,1.5-1.7v-8.8l-2.1-0.4v-1.8h2.1h2.8v13.1l1.8,0.4v1.8h-4.3l-0.1-2.2
			c-0.4,0.8-1.1,1.5-1.8,1.9C694.3,46.6,693.5,46.9,692.4,46.9z"/>
		<path d="M710.1,46.9c-1.4,0-2.6-0.3-3.6-1c-1-0.7-1.8-1.5-2.3-2.8c-0.6-1.2-0.8-2.5-0.8-4v-0.6c0-1.5,0.3-2.8,0.8-3.9
			c0.5-1.1,1.4-2.1,2.3-2.8c1-0.7,2.2-1,3.7-1c1.2,0,2.3,0.1,3.3,0.6s1.7,1,2.3,1.7L716,37h-2.2l-0.4-2.6c-0.3-0.3-0.7-0.6-1.2-0.8
			c-0.5-0.3-1.1-0.3-1.7-0.3c-0.8,0-1.5,0.3-2.2,0.7c-0.7,0.6-1.1,1.1-1.5,1.9s-0.6,1.8-0.6,2.8v0.6c0,1.1,0.1,2.1,0.6,2.9
			c0.3,0.8,0.8,1.5,1.4,1.9c0.6,0.4,1.4,0.7,2.2,0.7c1,0,1.8-0.3,2.3-0.8s1-1.2,1.1-2.1h2.5v0.1c0,0.8-0.3,1.7-0.8,2.5
			c-0.5,0.8-1.1,1.4-2.1,1.8C712.5,46.6,711.5,46.9,710.1,46.9z"/>
		<path d="M718.2,46.6v-1.8l2.3-0.4V33.5l-2.3-0.4v-1.8h5.1v13.1l2.3,0.4v1.8H718.2L718.2,46.6z M720.2,28.4l2.6-3.9h3.3v0.1
			l-3.8,3.7H720.2L720.2,28.4z"/>
		<path d="M732.4,46.9c-1.7,0-2.8-0.4-3.6-1.1c-0.8-0.8-1.2-1.9-1.2-3.3c0-1,0.3-1.8,0.8-2.5c0.5-0.7,1.2-1.2,2.3-1.7
			c1.1-0.4,2.2-0.6,3.6-0.6h2.8v-1.5c0-1-0.3-1.7-0.8-2.2c-0.5-0.5-1.4-0.8-2.3-0.8c-0.7,0-1.2,0.1-1.7,0.3s-1,0.4-1.2,0.7l-0.3,2.1
			h-2.2v-3.4c0.7-0.6,1.5-1,2.3-1.2c1-0.3,1.9-0.4,3-0.4c1.8,0,3.3,0.4,4.4,1.4c1.1,1,1.5,2.2,1.5,3.9v7.3c0,0.1,0,0.4,0,0.6
			c0,0.1,0,0.4,0,0.6l1.5,0.1v1.8h-4c-0.1-0.4-0.1-0.8-0.1-1.1s-0.1-0.7-0.1-1c-0.5,0.7-1.2,1.2-2.1,1.7
			C734.2,46.6,733.4,46.9,732.4,46.9z M732.8,44.5c1,0,1.8-0.3,2.5-0.7s1.4-1,1.7-1.7v-2.8H734c-1.2,0-2.2,0.3-2.9,1
			c-0.7,0.7-1,1.2-1,2.1c0,0.7,0.3,1.2,0.7,1.5C731.4,44.4,732,44.5,732.8,44.5z"/>
	</g>
</g>
<g>
	<g>
		<path d="M1279.8,46l-7.2-19.3l-1.7-0.3v-1.9h6.7v1.9l-2,0.3l4.7,13.6l0.4,1.7h0.1l0.6-1.7l5-13.6l-2.1-0.3v-1.9h6.7v1.9l-1.7,0.3
			l-7.2,19.3H1279.8z"/>
		<path d="M1300.4,46.3c-1.4,0-2.7-0.3-3.9-1c-1-0.7-1.9-1.6-2.4-2.9c-0.6-1.3-0.9-2.6-0.9-4.1V38c0-1.6,0.3-3,0.9-4.1
			c0.6-1.3,1.4-2.1,2.4-2.9c1-0.7,2.3-1,3.7-1c1.4,0,2.7,0.3,3.9,1c1,0.7,1.9,1.7,2.4,2.9s0.9,2.6,0.9,4.1v0.3c0,1.6-0.3,3-0.9,4.1
			c-0.6,1.3-1.4,2.1-2.4,2.9C1303.1,46,1301.8,46.3,1300.4,46.3z M1300.4,44c0.9,0,1.7-0.3,2.3-0.7c0.6-0.6,1.1-1.1,1.4-2
			c0.3-0.9,0.4-1.9,0.4-3V38c0-1.1-0.1-2.1-0.4-3c-0.3-0.9-0.9-1.6-1.4-2c-0.6-0.6-1.4-0.7-2.3-0.7c-0.9,0-1.7,0.3-2.3,0.7
			c-0.6,0.6-1.1,1.1-1.4,2c-0.3,0.9-0.4,1.9-0.4,3v0.3c0,1.1,0.1,2.1,0.4,3c0.3,0.9,0.7,1.6,1.4,2C1298.7,43.7,1299.4,44,1300.4,44z
			"/>
		<path d="M1309.6,46v-1.9l2.4-0.4V25.4l-2.4-0.4v-1.9h5.3v20.6l2.4,0.4V46H1309.6L1309.6,46z"/>
		<path d="M1326.4,46.3c-1.4,0-2.7-0.3-3.7-1c-1-0.7-1.9-1.6-2.4-2.9c-0.6-1.3-0.9-2.6-0.9-4.1v-0.6c0-1.6,0.3-2.9,0.9-4
			c0.6-1.1,1.4-2.1,2.4-2.9c1-0.7,2.3-1,3.9-1c1.3,0,2.4,0.1,3.4,0.6c1,0.4,1.7,1,2.4,1.7l0.1,3.9h-2.3l-0.4-2.7
			c-0.3-0.3-0.7-0.6-1.3-0.9c-0.6-0.3-1.1-0.3-1.7-0.3c-0.9,0-1.6,0.3-2.3,0.7c-0.7,0.6-1.1,1.1-1.6,2s-0.6,1.9-0.6,2.9v0.6
			c0,1.1,0.1,2.1,0.6,3c0.3,0.9,0.9,1.6,1.4,2c0.6,0.4,1.4,0.7,2.3,0.7c1,0,1.9-0.3,2.4-0.9c0.6-0.6,1-1.3,1.1-2.1h2.6v0.1
			c0,0.9-0.3,1.7-0.9,2.6c-0.6,0.9-1.1,1.4-2.1,1.9C1328.9,46,1327.7,46.3,1326.4,46.3z"/>
		<path d="M1340,46.3c-1.7,0-2.9-0.4-3.7-1.1c-0.9-0.9-1.3-2-1.3-3.4c0-1,0.3-1.9,0.9-2.6c0.6-0.7,1.3-1.3,2.4-1.7
			c1.1-0.4,2.3-0.6,3.7-0.6h2.9v-1.6c0-1-0.3-1.7-0.9-2.3s-1.4-0.9-2.4-0.9c-0.7,0-1.3,0.1-1.7,0.3c-0.4,0.1-1,0.4-1.3,0.7l-0.3,2.1
			h-2.3v-3.6c0.7-0.6,1.6-1,2.4-1.3c1-0.3,2-0.4,3.1-0.4c1.9,0,3.4,0.4,4.6,1.4s1.6,2.3,1.6,4V43c0,0.1,0,0.4,0,0.6
			c0,0.1,0,0.4,0,0.6l1.6,0.1v1.9h-4.1c-0.1-0.4-0.1-0.9-0.1-1.1c0-0.3-0.1-0.7-0.1-1c-0.6,0.7-1.3,1.3-2.1,1.7
			C1341.9,46,1341,46.3,1340,46.3z M1340.5,43.8c1,0,1.9-0.3,2.6-0.7c0.7-0.4,1.4-1,1.7-1.7v-2.9h-3c-1.3,0-2.3,0.3-3,1
			s-1,1.3-1,2.1c0,0.7,0.3,1.3,0.7,1.6C1339,43.7,1339.6,43.8,1340.5,43.8z M1339.9,27.1l2.7-4h3.4v0.1l-4,3.9H1339.9L1339.9,27.1z"
			/>
		<path d="M1351.5,46v-1.9l2.4-0.4V32.4l-2.4-0.4v-1.9h5l0.1,2.4c0.6-0.9,1.1-1.4,2-2c0.9-0.4,1.7-0.7,2.7-0.7c1.7,0,3,0.6,4,1.6
			c1,1,1.4,2.6,1.4,4.6v7.7l2.4,0.4V46h-7.7v-1.9l2.4-0.4V36c0-1.4-0.3-2.4-0.9-3c-0.6-0.6-1.4-0.9-2.6-0.9c-0.9,0-1.6,0.1-2.1,0.6
			c-0.6,0.4-1.1,1-1.6,1.6v9.3l2.4,0.4v1.9L1351.5,46L1351.5,46z"/>
		<path d="M1388.5,46.3c-2.1,0-3.9-0.4-5.3-1.4s-2.6-2.3-3.3-3.9s-1.1-3.4-1.1-5.6v-0.3c0-2.1,0.4-4,1.1-5.6s1.9-2.9,3.3-3.9
			s3.1-1.4,5-1.4c1.4,0,2.6,0.3,3.7,0.7c1.1,0.4,2.1,1,2.9,1.6v4.6h-2.3l-0.3-3.4c-0.3-0.3-0.7-0.4-1.1-0.6
			c-0.4-0.1-0.9-0.3-1.3-0.4c-0.4-0.1-1-0.1-1.6-0.1c-1.4,0-2.6,0.4-3.6,1.1c-1,0.7-1.7,1.7-2.1,3c-0.4,1.3-0.7,2.7-0.7,4.4v0.3
			c0,1.9,0.3,3.3,0.9,4.6c0.6,1.3,1.3,2.3,2.3,2.9c1,0.7,2.3,1,3.7,1c0.7,0,1.3-0.1,2-0.3c0.7-0.1,1.1-0.4,1.6-0.7l0.3-3h2.3v4.6
			c-0.9,0.4-1.7,0.9-2.9,1.1C1390.8,46.1,1389.7,46.3,1388.5,46.3z"/>
		<path d="M1397.2,46v-1.9l2.4-0.4V25.4l-2.4-0.4v-1.9h5.3v9.2c0.6-0.7,1.3-1.3,2-1.7c0.7-0.4,1.7-0.6,2.6-0.6c1.7,0,3,0.6,4,1.6
			c1,1,1.4,2.6,1.4,4.7V44l2.4,0.4v1.9h-7.7v-1.9l2.4-0.4v-7.7c0-1.3-0.3-2.3-0.9-2.9c-0.6-0.6-1.4-1-2.6-1c-0.9,0-1.6,0.1-2.1,0.6
			c-0.7,0.4-1.1,0.9-1.6,1.6V44l2.4,0.4v1.9h-7.7L1397.2,46L1397.2,46z"/>
		<path d="M1422,46.3c-1.7,0-2.9-0.4-3.7-1.1c-0.9-0.9-1.3-2-1.3-3.4c0-1,0.3-1.9,0.9-2.6c0.6-0.7,1.3-1.3,2.4-1.7s2.3-0.6,3.7-0.6
			h2.9v-1.6c0-1-0.3-1.7-0.9-2.3c-0.6-0.6-1.4-0.9-2.4-0.9c-0.7,0-1.3,0.1-1.7,0.3c-0.4,0.1-1,0.4-1.3,0.7l-0.3,2.1h-2.3v-3.6
			c0.7-0.6,1.6-1,2.4-1.3c1-0.3,2-0.4,3.1-0.4c1.9,0,3.4,0.4,4.6,1.4s1.6,2.3,1.6,4V43c0,0.1,0,0.4,0,0.6c0,0.1,0,0.4,0,0.6l1.6,0.1
			v1.9h-4.1c-0.1-0.4-0.1-0.9-0.1-1.1c0-0.3-0.1-0.7-0.1-1c-0.6,0.7-1.3,1.3-2.1,1.7C1423.8,46,1423,46.3,1422,46.3z M1422.4,43.8
			c1,0,1.9-0.3,2.6-0.7c0.7-0.4,1.4-1,1.7-1.7v-2.9h-3c-1.3,0-2.3,0.3-3,1s-1,1.3-1,2.1c0,0.7,0.3,1.3,0.7,1.6
			C1421,43.7,1421.5,43.8,1422.4,43.8z"/>
		<path d="M1433.4,46v-1.9l2.4-0.4V32.4l-2.4-0.4v-1.9h5.3v13.6l2.4,0.4V46H1433.4L1433.4,46z M1435.6,26.2v-3.1h3v3.1H1435.6z"/>
		<path d="M1448.7,46.3c-1.1,0-2.1-0.3-2.9-1c-0.7-0.7-1-1.9-1-3.3v-9.6h-2.6v-2.1h2.6v-4h2.9v3.9h3.4v2.1h-3.4v9.6
			c0,0.7,0.1,1.3,0.4,1.7c0.3,0.4,0.7,0.6,1.3,0.6c0.3,0,0.7,0,1.1-0.1c0.4,0,0.7-0.1,1-0.1l0.4,1.9c-0.4,0.1-1,0.3-1.6,0.3
			C1449.7,46.1,1449.1,46.3,1448.7,46.3z"/>
		<path d="M1461,46.3c-1.4,0-2.7-0.3-3.9-1c-1.1-0.7-1.9-1.6-2.6-2.9c-0.6-1.1-0.9-2.6-0.9-4.1v-0.6c0-1.6,0.3-2.9,1-4
			c0.6-1.1,1.4-2.1,2.4-2.9c1-0.7,2.1-1,3.4-1c1.4,0,2.6,0.3,3.6,0.9c1,0.6,1.7,1.4,2.1,2.4c0.4,1,0.7,2.3,0.7,3.7v1.9h-10.3v0.1
			c0,1,0.1,1.9,0.6,2.7c0.3,0.9,0.9,1.4,1.4,1.9c0.6,0.4,1.4,0.7,2.3,0.7c1,0,1.9-0.1,2.6-0.4c0.7-0.3,1.4-0.7,1.9-1.1l1.1,1.9
			c-0.6,0.6-1.3,1-2.3,1.4C1463.5,46.1,1462.3,46.3,1461,46.3z M1456.9,36.4h7.3V36c0-0.7-0.1-1.4-0.4-2c-0.3-0.6-0.7-1.1-1.1-1.4
			c-0.6-0.3-1.1-0.6-2-0.6c-0.7,0-1.3,0.1-1.7,0.6c-0.4,0.4-1,0.9-1.3,1.6S1456.9,35.5,1456.9,36.4L1456.9,36.4z M1458.7,27.1l2.7-4
			h3.4v0.1l-4,3.9H1458.7L1458.7,27.1z"/>
		<path d="M1469.3,46v-1.9l2.4-0.4V32.4l-2.4-0.4v-1.9h5l0.1,2.4c0.6-0.9,1.1-1.4,2-2c0.9-0.4,1.7-0.7,2.7-0.7c1.7,0,3,0.6,4,1.6
			c1,1,1.4,2.6,1.4,4.6v7.7l2.4,0.4V46h-7.7v-1.9l2.4-0.4V36c0-1.4-0.3-2.4-0.9-3c-0.6-0.6-1.4-0.9-2.6-0.9c-0.9,0-1.6,0.1-2.1,0.6
			c-0.6,0.4-1.1,1-1.6,1.6v9.3l2.4,0.4v1.9L1469.3,46L1469.3,46z"/>
	</g>
</g>
</svg>
