<?xml version="1.0" encoding="utf-8"?>
<!-- Generator: Adobe Illustrator 26.0.1, SVG Export Plug-In . SVG Version: 6.00 Build 0)  -->
<svg version="1.1" id="Capa_1" xmlns="http://www.w3.org/2000/svg" xmlns:xlink="http://www.w3.org/1999/xlink" x="0px" y="0px"
	 viewBox="0 0 1829.6 397" style="enable-background:new 0 0 1829.6 397;" xml:space="preserve">
<style type="text/css">
	.st0{fill:#3C3832;}
</style>
<path class="st0" d="M1323.7,194.5l43.8-28l10-1.4l8.5-11.1l4.1-3.2h7.9l35-25.5l5.3-3.6l8.1-7.9l9.5-2.2l7.1-1.4l10,3.6h9.4l9.1,5
	l4.7,1.1l6.5,0.7l25.6-12.3l9.7-6.6h11.5l11.5-5.5h12.1l20,8.3l35.3,32.7l6.8,0.7l35.3,32.7c0,0,12.6,12.2,14.7,19.8
	c0.7,2.4,23.6,15.1,27.6,15.7c7,1,9.3,23.5,9.3,23.5l-69.9-0.1l-81.1-18.1l-131.2,18.1l-130.9,0.4l0,0l5.7-23L1323.7,194.5z"/>
<path class="st0" d="M1439.6,229.3l3.1-22.8c0,0,16.4-28.4,27.5-30.2c11.1-1.8,18.6-2.2,18.6-2.2l10.6-11.2l8.9-4.7l13.7-4
	l15.5-12.4l10.6-21.7l6.6-16.2h27.1c0,0,14.2,28.1,14.2,32.1s7.5,22.2,7.5,22.2l23.1,13.7l12,26.2l13.3,11.1v20.2l0,0H1439.6z"/>
<path class="st0" d="M1465,229.4l-359.1-0.1c0,0,2.4-8.7,13.2-25.1c4.5-6.9,19.8-14.6,26.3-18c20.7-10.8,23.2-5.4,23.2-5.4
	l18.2-14.4l21-8.5l29.8-9.5h37l11,10.2l24.8,10.8l13.8,13.3l29.5,0.6l24.8,14.7"/>
<path class="st0" d="M1623.3,224.8c4.7-2,40.6-29.9,40.6-29.9l12.6-10.6l34.6-3.3l20-10.6l18.6-3.7h22.6l18-3.7h18l21.4,7.4v12.6
	v46.4h-216.3L1623.3,224.8z"/>
<path class="st0" d="M888,294.4c0,0-0.5,0.8-1.4,2.1h193.1l111.2-15.9l-2.8-3.6l-10.8-4.6l-4.9-16l-6.4-9.2l-12.1-8.4l-3.5-11.8
	l-3.7-3.1l-8.7-0.5l-5.9-8.2l-8.1-1.3l-6-1.7c0,0-6.9-2.6-8.3-4.6c-1.4-2-11.2,0.2-11.2,0.2l-4.2-3.8l-6.7-3.7l-3.9-2l-2.8-4l-4-2.7
	l-4,2.4l-4.8,1.8l-3.5-1.7l-4-2.3l-3.4,1.6l-9.6-1.1l-0.5-3.2l-3.5-0.9l-3-3.9l-0.9,6l-4.4,1.7l-4.1-0.9l-2.3-3.3l5.1-4.8l-5.2-3.2
	l-5.1-2.9l-3.6,3.1l-3.8,3.5l-0.8-5.3l-4.3,2.8l-3,4.1l-4.2,3.2l-7.7,1.5l-3.4-1.3l-3.8,3.5l-3.2-9.4l-2.5,14.6l-3.4-1.3l-5.1,4.8
	l-3.2,0.5l-0.9,3.4l-2.9-2.8l-4,2.4l-2.7,6.2l-3.7,2.7l-3,3l-4.2,0.6l-3.2,2.7l-3.9-1.6l-3.1,3.4l-4.2,8.3l-2.9,5.2l-1.3,8.2
	l-5.5,4.1l-2.2-2.9c0,0-3.4,3.8-4.1,3.9c-0.7,0.1-0.5-3.2-0.5-3.2l-7.4,1.1l-3.4,8.5c0,0-4.7,2.5-5.7,2.7
	c-1.1,0.2-9.7,14.9-9.7,14.9l-3.5,6l1.2,7.8l-3.4,3.8L888,294.4z"/>
<path class="st0" d="M809.8,297.4c0.7-0.5,1.7-0.8,2.8-0.8h275.2l-1.3-5.5l-7.1-4.3l-5-3.8c0,0-5.4-5-6-7.4c-0.5-2.4-10.4-4-10.4-4
	l-2.5-5l-4.8-6l-2.9-3.3l-1.1-4.7l-2.7-4l-4.6,0.8l-5.1-0.1l-2.6-2.9l-2.8-3.6l-3.7,0.2l-8.4-4.6l0.8-3.2l-2.9-2.2l-1.3-4.8
	l-3.1,5.2l-4.8,0l-3.5-2.3l-0.9-3.9l6.5-2.5l-3.6-4.9l-3.6-4.6l-4.5,1.5l-4.8,1.8l1.3-5.3l-5,1l-4.3,2.7l-5.1,1.4l-7.7-1.5l-2.7-2.5
	l-4.8,1.8l0.5-9.9l-7.8,12.6l-2.7-2.5l-6.5,2.5l-3.1-0.7l-2.1,2.8l-1.7-3.7l-4.6,0.8l-4.8,4.8l-4.5,1.1l-3.9,1.7l-4.2-1l-4,1.3
	l-3-2.9l-4.1,2l-7,6.1l-4.6,3.7l-4.3,7.1l-6.7,1.7l-1-3.6c0,0-4.6,2.2-5.3,2.1s0.8-3.2,0.8-3.2l-7.3-1.7l-6.4,6.6
	c0,0-5.3,0.6-6.3,0.3c-1-0.2-14.6,10.2-14.6,10.2l-5.4,4.3l-1.8,7.7l-4.6,2.2l-1.3,5.3c0,0-4.6,3.7-11.8,6.4
	c-6.4,2.4-10.6,14.3-11.5,17.2C808,297.4,808.9,297.4,809.8,297.4z"/>
<path class="st0" d="M730.4,298.9c12.3-0.4,24.6-0.7,36.9-0.6c38.5-0.8,77-1.9,115.5-1.4l9.7-7l-4.1-1.9l-11.7,0.9L864.9,277
	l-10-5.2l-14.6-1.8l-8.6-8.8l-4.7-1l-8,3.6l-9.1-4.5l-7.8,2.6l-6.1,1.3c0,0-7.3,0.9-9.5-0.2c-2.1-1.1-9.8,5.4-9.8,5.4l-5.4-1.4
	l-7.7-0.2l-4.4,0.1l-4.3-2.2l-4.8-0.5l-2.4,4l-3.4,3.8l-3.9,0.2l-4.6-0.2l-2.2,3l-9,3.5l-1.9-2.6l-3.5,0.8l-4.5-2.1l2,5.7l-3.1,3.6
	l-4,1.2l-3.6-1.9l2.3-6.6l-6.1-0.5l-5.8-0.2l-1.7,4.4l-1.8,4.9l-3.2-4.4l-2.5,4.5l-0.8,5l-2.3,4.8l-4.5,3.6
	C696.6,299,713.5,299.1,730.4,298.9z"/>
<polygon class="st0" points="33.2,281.5 36.5,264.6 34.8,255 34.9,247.9 35.4,242.6 35.2,238.5 34.4,233.9 34.9,224.2 34.2,213.1 
	33.9,208.2 33.2,200.8 34.9,195.3 32.8,192.5 31.6,190.9 34.1,192.6 35,194.2 35.7,190.4 36.5,192.8 35.9,193.3 35.7,194.8 
	35.1,197.4 36.1,196.6 35.2,197.9 34.1,201 34.7,202.5 35.9,200.9 34.9,203.1 35.6,214.4 36.3,213.4 36,215.3 36.7,215.8 
	37.3,213.3 39.3,210.1 38.1,206.5 39.1,208.4 40,207.8 39.3,208.9 39.6,209.7 42.9,203.8 42.9,202.1 43.5,200.8 43.5,199.7 
	44,200.8 43.4,202.1 43.3,203 44.2,201.4 45.4,199.2 45.7,197.3 46.3,196.7 47.7,196 46.6,197.1 46.2,197.8 46.8,197.7 46,198.4 
	45.7,200 42.2,206.7 41.8,207.9 41.2,208.5 40,211 40.8,210.6 40,211.8 39.8,213.4 38.5,213.9 38,215.9 37.3,217.4 36.7,220.8 
	38,220.7 39,220.2 38.3,221.2 37,221.8 37.1,226.3 37.9,233.3 38.2,234.4 38.3,247.6 38.4,252.6 38.9,258.3 39.4,261.9 40.1,264.7 
	39.7,272.8 39,275 38,279.1 37.7,281.7 "/>
<polygon class="st0" points="24.9,199 25.4,202 30.4,206.6 31.6,208.3 34.9,208.3 34.5,207.4 32.2,207.7 30.4,205.8 25.8,201.5 "/>
<g>
	<path class="st0" d="M44,281.4c0.1-0.4,0.6-0.4,1-0.4c0.4,0.1,0.8,0.2,1.1,0.1s0.7-0.6,0.4-0.9c0.4-0.1,0.7-0.2,1.1-0.3
		c-0.9-1-1.3-2.4-1-3.8c-1.4-0.1-2.9-0.1-4.3,0.1c0.4-0.4,1.2,0.1,1.5-0.4c0.3-0.5-0.8-1.1-0.5-1.7c0.3,0.1,0.4,0.6,0.5,0.9
		c0.1,0.3,0.4,0.7,0.7,0.5c0.1-0.1,0.2-0.2,0.2-0.3c0.4-1,0.4-2.2,0-3.2c-0.8,0-1.5,0.1-2.3,0.1c0.6,0,1-0.7,0.9-1.3
		c-0.1-0.6-0.6-1.1-1.1-1.3c-0.5-0.3-1.2-0.3-1.7-0.5c-0.5-0.1-1-0.4-0.9-0.9c1,1.1,2.4,1.8,3.9,1.8c0.1,0,0.3,0,0.3-0.1
		c0-0.1,0-0.2,0-0.3c-0.1-0.4-0.2-0.7-0.4-1.1c0.1-0.2,0.5-0.1,0.7,0.1s0.2,0.5,0.3,0.8c0.2,0.5,0.9,0.7,1.4,0.3
		c0.1-0.1,0.3-0.2,0.4-0.2c0.3,0,0.3,0.5,0.3,0.8c0,0.3,0.2,0.7,0.5,0.6c0.7-1,0.5-2.5-0.5-3.2c-0.1-0.1-0.3-0.2-0.3-0.3
		c-0.3-0.6,1.2-0.8,1.1-1.4c-0.7-0.2-0.8-1.3-0.2-1.6c-0.8-0.4-1.6-0.9-2.4-1.5c0.2-0.1,0.5-0.1,0.7-0.2c-0.6-0.4-1.3-0.7-2-0.9
		c0.6,0.2,1.2,0.3,1.8,0.5c0.2,0,0.3,0.1,0.5,0c0.1-0.1,0.2-0.2,0.3-0.3c0.6-1.2-0.2-2.8-1.5-3.1c0.2,0.3,0.5,0.6,0.8,0.7
		c0-0.8-0.1-1.5-0.2-2.3c-0.1,0.8,0.8,1.4,1.5,1.2c0.6-0.2,1.1-1,1.8-0.8c0.3,0.1,0.6,0.4,0.9,0.4c0.4,0,0.7-0.3,0.8-0.7
		c0.1-0.4,0-0.8-0.1-1.2c-0.3-1.6-0.1-3.3,0.5-4.8c0.1,0.2,0.2,0.3,0.3,0.5c0.2-0.3,0.8-0.2,1.1,0.1c0.3,0.3,0.5,0.6,0.9,0.8
		c0.1,0.1,0.3,0.1,0.4,0.2c0.5,0.4-0.3,1.3,0,1.9c0.1,0.3,0.4,0.4,0.6,0.6c0.6,0.6,0,1.8,0.4,2.5c0.3,0.5,1.2,0.9,1,1.5
		c0.1-0.3,0.4-0.5,0.7-0.5c-0.2,0.3,0,0.7,0.3,1c0.3,0.2,0.7,0.3,1,0.5c0.2,0.1,0.4,0.3,0.6,0.3c0.4,0,0.7-0.4,0.8-0.8
		c0.3-0.8,0.5-1.7,0.2-2.5c-0.1-0.2-0.2-0.3-0.1-0.5c0-0.1,0.2-0.2,0.3-0.4c0.9-1,0.2-2.6,0.3-3.9c0-0.4,0.2-0.9,0.6-0.8
		c0.3,0.1,0.3,0.4,0.3,0.6s-0.2,0.5-0.2,0.8c-0.1,0.9,1.2,1.5,1,2.4c-0.1,0.4-0.5,0.8-0.4,1.2c0,0.2,0.2,0.4,0.3,0.6
		c0.2,0.3,0.1,0.7,0.1,1.1c-0.1,1.2,0.1,2.4,0.5,3.5c-0.1,0.2-0.2,0.3-0.3,0.5c0.7,0.6,0.4,2-0.5,2.3c0.7,0.7,2,0.3,2.2-0.6
		c0.1-0.3,0-0.7,0-1c-0.1-1.4-0.1-2.7,0.2-4.1c0.1,0.7,0,1.5,0.1,2.2c0.1,1.2,0.7,2.3,1.6,3.1c0.1,0.1,0.2,0.2,0.4,0.2
		c0.1,0,0.3,0,0.4-0.1c0.5-0.1,1-0.1,1.5,0c0.2,0,0.3,0.1,0.4,0.3c0,0.2-0.2,0.4-0.3,0.6c-0.1,0.3,0.3,0.6,0.5,0.9
		c0.2,0.3,0.3,0.8,0.5,1.1c0.2,0.3,0.8,0.5,1,0.1c-0.4,0.3-0.9,0.7-1.3,1c-0.5,0.4-1.2,0.8-1.7,0.5c0,0.6,0,1.2,0.3,1.6
		c0.3,0.5,1.1,0.6,1.4,0.2c0.1-0.1,0.2-0.3,0.4-0.4c0.6-0.3,1.3,1,1.8,0.6c-0.6,0.2-1.3,0.3-2,0.3c-0.4,0.3-0.3,1.1,0.2,1.4
		c0.5,0.3,1.1,0.3,1.6,0.2c0.4,0,0.9,0,0.9,0.3c0,0.3-0.4,0.5-0.7,0.6c-0.9,0.2-1.7,0.3-2.6,0.5c-0.1,0-0.3,0.1-0.4,0.2
		c-0.3,0.3,0,0.7,0.2,1c0.3,0.3,0.6,0.6,1,0.6c0.3,0,0.5-0.2,0.7-0.3c0.5-0.2,1.2,0,1.5,0.5c-0.4,0.4-0.9,0.6-1.4,0.5
		c-0.3,0.4-0.1,1,0.3,1.3s0.9,0.4,1.2,0.7c0.6,0.4,0.9,1.2,1.1,1.9c-0.6,1-2,1.1-3.1,1c-8-0.5-16.1-0.6-24.2-0.2"/>
</g>
<g>
	<path class="st0" d="M151.4,295c-0.2-0.4-0.7-0.4-1.2-0.4c-0.4,0.1-0.9,0.2-1.3,0.1s-0.8-0.6-0.5-0.9c-0.4-0.1-0.8-0.2-1.2-0.3
		c1-1,1.5-2.4,1.2-3.8c1.7-0.1,3.3-0.1,5,0.1c-0.5-0.4-1.4,0.1-1.8-0.4c-0.4-0.5,0.9-1.1,0.6-1.7c-0.4,0.1-0.4,0.6-0.6,0.9
		c-0.1,0.3-0.5,0.7-0.9,0.5c-0.1-0.1-0.2-0.2-0.3-0.3c-0.5-1-0.5-2.2,0-3.2c0.9,0,1.8,0.1,2.6,0.1c-0.7,0-1.2-0.7-1.1-1.3
		c0.1-0.6,0.7-1.1,1.3-1.3c0.6-0.3,1.3-0.3,2-0.5c0.5-0.1,1.2-0.4,1-0.9c-1.2,1.1-2.8,1.8-4.6,1.8c-0.1,0-0.3,0-0.4-0.1
		c-0.1-0.1,0-0.2,0-0.3c0.1-0.4,0.3-0.7,0.4-1.1c-0.2-0.2-0.6-0.1-0.8,0.1c-0.2,0.2-0.2,0.5-0.3,0.8c-0.3,0.5-1.1,0.7-1.6,0.3
		c-0.2-0.1-0.3-0.2-0.5-0.2c-0.4,0-0.4,0.5-0.4,0.8c0,0.3-0.3,0.7-0.6,0.6c-0.9-1-0.5-2.5,0.6-3.2c0.1-0.1,0.3-0.2,0.4-0.3
		c0.3-0.6-1.4-0.8-1.2-1.4c0.8-0.2,0.9-1.3,0.2-1.6c1-0.4,1.9-0.9,2.7-1.5c-0.3-0.1-0.6-0.1-0.9-0.2c0.7-0.4,1.5-0.7,2.3-0.9
		c-0.7,0.2-1.4,0.3-2.1,0.5c-0.2,0-0.4,0.1-0.6,0c-0.2-0.1-0.2-0.2-0.3-0.3c-0.7-1.2,0.2-2.8,1.7-3.1c-0.2,0.3-0.5,0.6-0.9,0.7
		c0-0.8,0.1-1.5,0.2-2.3c0.1,0.8-0.9,1.4-1.7,1.2c-0.8-0.2-1.3-1-2.1-0.8c-0.4,0.1-0.7,0.4-1.1,0.4c-0.5,0-0.8-0.3-0.9-0.7
		c-0.1-0.4,0-0.8,0.1-1.2c0.3-1.6,0.1-3.3-0.5-4.8c-0.1,0.2-0.2,0.3-0.3,0.5c-0.3-0.3-0.9-0.2-1.3,0.1c-0.4,0.3-0.6,0.6-1.1,0.8
		c-0.2,0.1-0.3,0.1-0.4,0.2c-0.6,0.4,0.3,1.3,0,1.9c-0.1,0.3-0.5,0.4-0.7,0.6c-0.7,0.6,0,1.8-0.5,2.5c-0.4,0.5-1.4,0.9-1.1,1.5
		c-0.1-0.3-0.4-0.5-0.8-0.5c0.2,0.3,0,0.7-0.4,1c-0.3,0.2-0.8,0.3-1.1,0.5c-0.2,0.1-0.4,0.3-0.7,0.3c-0.5,0-0.8-0.4-0.9-0.8
		c-0.3-0.8-0.6-1.7-0.2-2.5c0.1-0.2,0.2-0.3,0.1-0.5c0-0.1-0.2-0.2-0.3-0.4c-1.1-1-0.3-2.6-0.3-3.9c0-0.4-0.3-0.9-0.7-0.8
		c-0.3,0.1-0.4,0.4-0.3,0.6c0,0.3,0.2,0.5,0.2,0.8c0.1,0.9-1.3,1.5-1.1,2.4c0.1,0.4,0.6,0.8,0.5,1.2c0,0.2-0.2,0.4-0.4,0.6
		c-0.2,0.3-0.1,0.7-0.1,1.1c0.1,1.2-0.1,2.4-0.6,3.5c0.1,0.2,0.2,0.3,0.4,0.5c-0.8,0.6-0.5,2,0.5,2.3c-0.8,0.7-2.3,0.3-2.6-0.6
		c-0.1-0.3-0.1-0.7,0-1c0.2-1.4,0.1-2.7-0.2-4.1c-0.1,0.7,0,1.5-0.1,2.2c-0.1,1.2-0.8,2.3-1.8,3.1c-0.1,0.1-0.3,0.2-0.4,0.2
		c-0.2,0-0.3,0-0.5-0.1c-0.6-0.1-1.2-0.1-1.8,0c-0.2,0-0.4,0.1-0.4,0.3c-0.1,0.2,0.3,0.4,0.4,0.6c0.1,0.3-0.3,0.6-0.6,0.9
		c-0.3,0.3-0.3,0.8-0.5,1.1c-0.2,0.3-0.9,0.5-1.1,0.1c0.5,0.3,1,0.7,1.5,1c0.6,0.4,1.4,0.8,2,0.5c0,0.6,0,1.2-0.4,1.6
		c-0.4,0.5-1.2,0.6-1.7,0.2c-0.1-0.1-0.2-0.3-0.4-0.4c-0.7-0.3-1.5,1-2.1,0.6c0.7,0.2,1.5,0.3,2.3,0.3c0.5,0.3,0.3,1.1-0.2,1.4
		c-0.5,0.3-1.2,0.3-1.9,0.2c-0.4,0-1,0-1,0.3c0,0.3,0.4,0.5,0.8,0.6c1,0.2,2,0.3,3,0.5c0.2,0,0.3,0.1,0.4,0.2c0.3,0.3,0,0.7-0.3,1
		c-0.3,0.3-0.7,0.6-1.2,0.6c-0.3,0-0.5-0.2-0.8-0.3c-0.6-0.2-1.4,0-1.7,0.5c0.4,0.4,1.1,0.6,1.7,0.5c0.4,0.4,0.1,1-0.3,1.3
		c-0.4,0.3-1,0.4-1.5,0.7c-0.7,0.4-1,1.2-1.3,1.9c0.7,1,2.3,1.1,3.7,1c9.3-0.5,18.7-0.6,28.1-0.2"/>
</g>
<g>
	<path class="st0" d="M119.4,288.2c1-0.1,2-0.3,2.8-0.6c-0.7,0.1-1.4,0.1-2,0.3C119.9,288,119.6,288,119.4,288.2z"/>
</g>
<g>
	<path class="st0" d="M127.6,286.4c-0.1-0.1,0-0.1,0-0.2c0.2-0.3,0.4-0.5,0.6-0.8c-0.2-0.2-0.8-0.1-1,0.1c-0.2,0.2-0.2,0.4-0.4,0.6
		c-0.4,0.4-1.4,0.5-2.1,0.3c-0.2-0.1-0.4-0.2-0.7-0.2c-0.5,0-0.5,0.3-0.5,0.6c0,0.2-0.3,0.6-0.7,0.4c-1.1-0.7-0.7-1.9,0.8-2.4
		c0.2-0.1,0.4-0.1,0.5-0.2c0.4-0.5-1.8-0.6-1.6-1.1c1-0.1,1.2-1,0.3-1.2c1.3-0.3,2.4-0.7,3.6-1.1c-0.4,0-0.7-0.1-1.1-0.1
		c1-0.3,2-0.5,3-0.7c-0.9,0.1-1.8,0.2-2.7,0.3c-0.2,0-0.5,0-0.7,0c-0.2,0-0.3-0.1-0.4-0.2c-0.7-0.7-0.1-1.6,1.1-2.1
		c0-0.4,0.1-0.8,0.2-1.2c-0.2,0.5-1.3,0.8-2.2,0.7c-1-0.2-1.7-0.7-2.7-0.6c-0.5,0.1-0.9,0.3-1.4,0.3c-0.6,0-1.1-0.3-1.2-0.6
		c-0.1-0.3,0-0.6,0.1-0.9c0.4-1.2,0.2-2.5-0.7-3.7c-0.1,0.1-0.3,0.3-0.4,0.4c-0.4-0.2-1.2-0.1-1.6,0c-0.5,0.2-0.8,0.5-1.4,0.6
		c-0.2,0-0.4,0.1-0.6,0.1c-0.8,0.3,0.4,1,0,1.5c-0.2,0.2-0.7,0.3-1,0.5c-0.9,0.5,0.1,1.3-0.6,1.9c-0.5,0.4-1.8,0.7-1.4,1.2
		c-0.2-0.2-0.6-0.4-1-0.4c0.3,0.2,0,0.6-0.5,0.7c-0.4,0.2-1,0.3-1.4,0.4c-0.3,0.1-0.5,0.2-0.9,0.2c-0.6,0-1-0.3-1.2-0.6
		c-0.4-0.6-0.8-1.3-0.3-1.9c0.1-0.1,0.2-0.2,0.2-0.4c0-0.1-0.2-0.2-0.4-0.3c-1.4-0.8-0.3-2-0.4-3c0-0.3-0.4-0.7-0.9-0.6
		c-0.4,0.1-0.5,0.3-0.5,0.5c0.1,0.2,0.3,0.4,0.3,0.6c0.1,0.7-1.7,1.2-1.5,1.8c0.1,0.3,0.7,0.6,0.6,0.9c-0.1,0.2-0.3,0.3-0.5,0.5
		c-0.2,0.3-0.2,0.6-0.1,0.8c0.1,0.9-0.1,1.8-0.7,2.7c0.2,0.1,0.3,0.3,0.5,0.4c-1.1,0.5-0.7,1.5,0.7,1.8c-1,0.5-3,0.2-3.4-0.5
		c-0.1-0.3-0.1-0.5,0-0.8c0.2-1,0.1-2.1-0.3-3.1c-0.2,0.6,0,1.1-0.1,1.7c-0.2,0.9-1,1.8-2.4,2.4c-0.2,0.1-0.4,0.1-0.6,0.2
		c-0.2,0-0.4,0-0.7,0c-0.7-0.1-1.5-0.1-2.3,0c-0.2,0-0.5,0.1-0.5,0.2c-0.1,0.2,0.3,0.3,0.5,0.4c0.2,0.3-0.4,0.5-0.7,0.7
		c-0.4,0.3-0.4,0.6-0.7,0.9c-0.2,0.2-0.7,0.3-1.1,0.3c0.5,0.2,1.1,0.4,1.6,0.6c0.8,0.3,1.8,0.6,2.6,0.4c0,0.4,0,0.9-0.5,1.2
		c-0.5,0.3-1.6,0.5-2.2,0.2c-0.2-0.1-0.3-0.3-0.5-0.3c-0.7-0.2-1.5,0.4-2.2,0.5c0.8,0.1,1.6,0.1,2.5,0.1c0.7,0.3,0.4,0.9-0.3,1.1
		c-0.7,0.2-1.6,0.2-2.4,0.2c-0.5,0-1.3,0-1.3,0.3c-0.1,0.3,0.6,0.4,1.1,0.4c1.3,0.1,2.6,0.3,3.9,0.4c0.2,0,0.4,0,0.6,0.1
		c0.4,0.2,0,0.5-0.3,0.7c-0.4,0.2-0.9,0.5-1.5,0.4c-0.4,0-0.7-0.2-1.1-0.3c-0.8-0.2-1.8,0-2.2,0.3c0.6,0.3,1.4,0.4,2.2,0.4
		c0.5,0.3,0.1,0.7-0.4,1c-0.6,0.2-1.3,0.3-1.9,0.6c-0.9,0.3-1.3,0.9-1.6,1.4c0.8,0.8,3,0.8,4.7,0.8c0.6,0,1.2,0,1.8,0
		c0.6-0.5,1.4-0.8,2.2-0.8h5.3c0.7,0,1.4,0.2,1.9,0.6c8.4-0.1,16.8-0.1,25.1,0.1l0.3-0.1c-0.2-0.3-0.9-0.3-1.5-0.3
		c-0.6,0-1.1,0.2-1.7,0.1c-0.6-0.1-1-0.4-0.6-0.7c-0.5-0.1-1.1-0.2-1.6-0.2c1.3-0.8,1.9-1.9,1.5-2.9c2.1-0.1,4.3-0.1,6.4,0.1
		c-0.6-0.3-1.9,0.1-2.3-0.3c-0.5-0.4,1.2-0.9,0.7-1.3c-0.5,0.1-0.6,0.4-0.7,0.7c-0.2,0.3-0.7,0.5-1.1,0.4c-0.2-0.1-0.3-0.1-0.3-0.2
		c-0.6-0.8-0.6-1.7,0-2.4c1.1,0,2.3,0,3.4,0.1c-0.9,0-1.5-0.5-1.4-1c0.1-0.3,0.4-0.5,0.8-0.7c-0.4,0-0.8,0.1-1.1,0.1
		C127.9,286.5,127.7,286.4,127.6,286.4z"/>
</g>
<path class="st0" d="M163.6,233.7l-1.6,5.5l0.6,7.3l0.4,5l0.6,11.1l-0.5,9.7l0.8,4.6l0.3,4.1l-0.6,5.3l-0.1,7.1l0.3,1.8
	c0.4,0.1,0.8,0.1,1.2,0.2c0.8,0.1,1.6,0.1,2.5,0.2l-0.4-4.5l-0.1-4.9l-0.1-13.3l-0.2-1l-0.8-7l-0.1-4.5l1.3-0.5l0.7-1l-1,0.5l-1.3,0
	l0.7-3.4l0.7-1.5l0.5-2l1.3-0.5l0.2-1.6l0.8-1.2l-0.9,0.4l1.2-2.6l0.7-0.5l0.4-1.2l3.5-6.7l0.2-1.6l0.8-0.7l-0.7,0.1l0.5-0.7
	l1.1-1.1l-1.4,0.7l-0.7,0.7l-0.3,1.9l-1.2,2.2l-0.9,1.6l0.1-0.9l0.6-1.3l-0.4-1v1l-0.6,1.3v1.8l-3.3,5.9l-0.3-0.9l0.7-1l-1,0.6
	l-1-1.9l1.2,3.6l-2,3.2l-0.6,2.5l-0.7-0.4l0.2-2l-0.7,1l-0.7-11.3l1-2.2l-1.1,1.6l-0.7-1.5l1.1-3.1l0.9-1.3l-1,0.8l0.6-2.6l0.2-1.5
	l0.6-0.5l-0.7-2.5l-0.7,3.9l-0.9-1.6l-2.4-1.7l1.2,1.6L163.6,233.7z"/>
<g>
	<path class="st0" d="M179.6,250.4c-0.2-0.4-0.7-0.4-1.2-0.4c-0.4,0.1-0.9,0.2-1.3,0.1c-0.4-0.1-0.8-0.6-0.5-0.9
		c-0.4-0.1-0.8-0.2-1.2-0.3c1-1,1.5-2.4,1.2-3.8c1.7-0.1,3.3-0.1,5,0.1c-0.5-0.4-1.4,0.1-1.8-0.4c-0.4-0.5,0.9-1.1,0.6-1.7
		c-0.4,0.1-0.4,0.6-0.6,0.9c-0.1,0.3-0.5,0.7-0.9,0.5c-0.1-0.1-0.2-0.2-0.3-0.3c-0.5-1-0.5-2.2,0-3.2c0.9,0,1.8,0.1,2.6,0.1
		c-0.7,0-1.2-0.7-1.1-1.3s0.7-1.1,1.3-1.3c0.6-0.3,1.3-0.3,2-0.5c0.5-0.1,1.2-0.4,1-0.9c-1.2,1.1-2.8,1.8-4.6,1.8
		c-0.1,0-0.3,0-0.4-0.1c-0.1-0.1,0-0.2,0-0.3c0.1-0.4,0.3-0.7,0.4-1.1c-0.2-0.2-0.6-0.1-0.8,0.1c-0.2,0.2-0.2,0.5-0.3,0.8
		c-0.3,0.5-1.1,0.7-1.6,0.3c-0.2-0.1-0.3-0.2-0.5-0.2c-0.4,0-0.4,0.5-0.4,0.8s-0.3,0.7-0.6,0.6c-0.9-1-0.5-2.5,0.6-3.2
		c0.1-0.1,0.3-0.2,0.4-0.3c0.3-0.6-1.4-0.8-1.2-1.4c0.8-0.2,0.9-1.3,0.2-1.6c1-0.4,1.9-0.9,2.7-1.5c-0.3-0.1-0.6-0.1-0.9-0.2
		c0.7-0.4,1.5-0.7,2.3-0.9c-0.7,0.2-1.4,0.3-2.1,0.5c-0.2,0-0.4,0.1-0.6,0c-0.2-0.1-0.2-0.2-0.3-0.3c-0.7-1.2,0.2-2.8,1.7-3.1
		c-0.2,0.3-0.5,0.6-0.9,0.7c0-0.8,0.1-1.5,0.2-2.3c0.1,0.8-0.9,1.4-1.7,1.2c-0.8-0.2-1.3-1-2.1-0.8c-0.4,0.1-0.7,0.4-1.1,0.4
		c-0.5,0-0.8-0.3-0.9-0.7c-0.1-0.4,0-0.8,0.1-1.2c0.3-1.6,0.1-3.3-0.5-4.8c-0.1,0.2-0.2,0.3-0.3,0.5c-0.3-0.3-0.9-0.2-1.3,0.1
		s-0.6,0.6-1.1,0.8c-0.2,0.1-0.3,0.1-0.4,0.2c-0.6,0.4,0.3,1.3,0,1.9c-0.1,0.3-0.5,0.4-0.7,0.6c-0.7,0.6,0,1.8-0.5,2.5
		c-0.4,0.5-1.4,0.9-1.1,1.5c-0.1-0.3-0.4-0.5-0.8-0.5c0.2,0.3,0,0.7-0.4,1s-0.8,0.3-1.1,0.5c-0.2,0.1-0.4,0.3-0.7,0.3
		c-0.5,0-0.8-0.4-0.9-0.8c-0.3-0.8-0.6-1.7-0.2-2.5c0.1-0.2,0.2-0.3,0.1-0.5c0-0.1-0.2-0.2-0.3-0.4c-1.1-1-0.3-2.6-0.3-3.9
		c0-0.4-0.3-0.9-0.7-0.8c-0.3,0.1-0.4,0.4-0.3,0.6c0,0.3,0.2,0.5,0.2,0.8c0.1,0.9-1.3,1.5-1.1,2.4c0.1,0.4,0.6,0.8,0.5,1.2
		c0,0.2-0.2,0.4-0.4,0.6c-0.2,0.3-0.1,0.7-0.1,1.1c0.1,1.2-0.1,2.4-0.6,3.5c0.1,0.2,0.2,0.3,0.4,0.5c-0.8,0.6-0.5,2,0.5,2.3
		c-0.8,0.7-2.3,0.3-2.6-0.6c-0.1-0.3-0.1-0.7,0-1c0.2-1.4,0.1-2.7-0.2-4.1c-0.1,0.7,0,1.5-0.1,2.2c-0.1,1.2-0.8,2.3-1.8,3.1
		c-0.1,0.1-0.3,0.2-0.4,0.2c-0.2,0-0.3,0-0.5-0.1c-0.6-0.1-1.2-0.1-1.8,0c-0.2,0-0.4,0.1-0.4,0.3c-0.1,0.2,0.3,0.4,0.4,0.6
		c0.1,0.3-0.3,0.6-0.6,0.9c-0.3,0.3-0.3,0.8-0.5,1.1c-0.2,0.3-0.9,0.5-1.1,0.1c0.5,0.3,1,0.7,1.5,1c0.6,0.4,1.4,0.8,2,0.5
		c0,0.6,0,1.2-0.4,1.6c-0.4,0.5-1.2,0.6-1.7,0.2c-0.1-0.1-0.2-0.3-0.4-0.4c-0.7-0.3-1.5,1-2.1,0.6c0.7,0.2,1.5,0.3,2.3,0.3
		c0.5,0.3,0.3,1.1-0.2,1.4s-1.2,0.3-1.9,0.2c-0.4,0-1,0-1,0.3c0,0.3,0.4,0.5,0.8,0.6c1,0.2,2,0.3,3,0.5c0.2,0,0.3,0.1,0.4,0.2
		c0.3,0.3,0,0.7-0.3,1c-0.3,0.3-0.7,0.6-1.2,0.6c-0.3,0-0.5-0.2-0.8-0.3c-0.6-0.2-1.4,0-1.7,0.5c0.4,0.4,1.1,0.6,1.7,0.5
		c0.4,0.4,0.1,1-0.3,1.3s-1,0.4-1.5,0.7c-0.7,0.4-1,1.2-1.3,1.9c0.7,1,2.3,1.1,3.7,1c9.3-0.5,18.7-0.6,28.1-0.2"/>
</g>
<g>
	<path class="st0" d="M142.5,247.8c0.2,0.3,1,0.2,1.5,0.2c0.6-0.1,1.1-0.3,1.7-0.3c0.6,0,1.1,0.3,0.7,0.6c0.5,0,1.1,0.1,1.6,0.1
		c-1.3,0.9-1.7,2-1.2,3c-2.1,0.3-4.3,0.5-6.4,0.5c0.6,0.2,1.8-0.2,2.3,0.1c0.5,0.4-1.1,1-0.6,1.4c0.5-0.2,0.5-0.5,0.7-0.7
		s0.6-0.6,1.1-0.5c0.2,0,0.3,0.1,0.4,0.2c0.7,0.7,0.8,1.6,0.3,2.4c-1.1,0.1-2.3,0.2-3.4,0.3c0.9-0.1,1.6,0.4,1.5,0.9
		s-0.8,0.9-1.6,1.2c-0.8,0.3-1.7,0.4-2.6,0.6c-0.7,0.1-1.5,0.5-1.2,0.8c1.4-1,3.5-1.7,5.7-1.9c0.2,0,0.4,0,0.5,0
		c0.1,0.1,0,0.1,0,0.2c-0.2,0.3-0.3,0.6-0.5,0.9c0.2,0.2,0.8,0,1-0.2s0.2-0.4,0.4-0.6c0.3-0.4,1.4-0.6,2-0.4
		c0.2,0.1,0.4,0.2,0.7,0.1c0.5-0.1,0.5-0.4,0.4-0.6c-0.1-0.2,0.3-0.6,0.7-0.5c1.2,0.6,0.9,1.9-0.6,2.5c-0.2,0.1-0.4,0.2-0.5,0.3
		c-0.4,0.5,1.8,0.4,1.7,1c-1,0.2-1.1,1.1-0.2,1.3c-1.2,0.4-2.4,0.9-3.4,1.5c0.4,0,0.7,0,1.1,0c-0.9,0.4-1.9,0.7-2.9,1
		c0.9-0.2,1.7-0.4,2.6-0.6c0.2,0,0.5-0.1,0.7-0.1c0.2,0,0.3,0.1,0.4,0.2c1,0.8-0.1,2.2-2,2.6c0.2-0.3,0.7-0.5,1.2-0.7
		c0,0.6,0,1.2-0.1,1.8c-0.2-0.6,1-1.2,2.1-1.1c1,0.1,1.8,0.6,2.8,0.4c0.5-0.1,0.9-0.4,1.4-0.4c0.6-0.1,1.1,0.2,1.3,0.4s0,0.6,0,0.9
		c-0.3,1.3,0.1,2.5,1,3.6c0.1-0.1,0.3-0.3,0.4-0.4c0.4,0.2,1.2,0,1.6-0.2c0.4-0.2,0.8-0.5,1.3-0.7c0.2-0.1,0.4-0.1,0.6-0.2
		c0.8-0.4-0.5-0.9-0.1-1.4c0.2-0.2,0.6-0.4,0.9-0.6c0.8-0.6-0.2-1.3,0.4-2c0.5-0.5,1.7-0.9,1.3-1.3c0.2,0.2,0.6,0.3,1,0.3
		c-0.3-0.2,0-0.6,0.4-0.8c0.4-0.2,1-0.3,1.4-0.5c0.3-0.1,0.5-0.3,0.8-0.3c0.6-0.1,1,0.2,1.3,0.5c0.5,0.6,0.9,1.2,0.5,1.9
		c-0.1,0.1-0.2,0.3-0.1,0.4c0.1,0.1,0.2,0.2,0.4,0.2c1.4,0.6,0.5,1.9,0.7,2.9c0,0.3,0.4,0.6,1,0.5c0.4-0.1,0.5-0.3,0.4-0.5
		c-0.1-0.2-0.3-0.4-0.3-0.5c-0.2-0.7,1.6-1.3,1.3-2c-0.2-0.3-0.8-0.5-0.7-0.8c0-0.2,0.3-0.4,0.4-0.5c0.2-0.3,0.1-0.6,0-0.9
		c-0.2-0.9,0-1.8,0.5-2.7c-0.2-0.1-0.3-0.2-0.5-0.3c1-0.6,0.5-1.6-0.8-1.7c1-0.6,3-0.5,3.4,0.2c0.2,0.2,0.1,0.5,0.1,0.8
		c-0.1,1,0.1,2.1,0.5,3.1c0.1-0.6-0.1-1.1-0.1-1.7c0.1-0.9,0.9-1.8,2.1-2.6c0.2-0.1,0.3-0.2,0.6-0.2c0.2,0,0.4,0,0.7,0
		c0.8,0,1.5-0.1,2.3-0.2c0.2-0.1,0.5-0.1,0.5-0.3c0.1-0.2-0.4-0.3-0.5-0.4c-0.2-0.2,0.4-0.5,0.7-0.8c0.3-0.3,0.3-0.6,0.6-0.9
		c0.3-0.3,1.2-0.5,1.5-0.2c-0.7-0.2-1.4-0.4-2.1-0.6c-0.8-0.2-1.9-0.4-2.7-0.1c-0.1-0.4-0.1-0.9,0.3-1.3c0.5-0.4,1.6-0.6,2.1-0.4
		c0.2,0.1,0.3,0.2,0.6,0.3c0.9,0.2,1.8-0.9,2.6-0.7c-1,0-2,0-2.9,0.1c-0.7-0.2-0.5-0.8,0.2-1.1c0.7-0.3,1.6-0.4,2.4-0.4
		c0.5,0,1.3-0.1,1.3-0.4c0-0.3-0.6-0.3-1.1-0.3c-1.3,0-2.6,0-3.9,0c-0.2,0-0.4,0-0.6-0.1c-0.4-0.2-0.1-0.5,0.3-0.8
		c0.4-0.3,0.9-0.6,1.5-0.6c0.4,0,0.7,0.1,1.1,0.2c0.8,0.1,1.8-0.1,2.1-0.6c-0.6-0.2-1.4-0.3-2.2-0.2c-0.5-0.2-0.2-0.7,0.3-1
		c0.5-0.3,1.3-0.5,1.8-0.7c0.8-0.4,1.2-1,1.5-1.6c-0.9-0.7-3-0.5-4.8-0.3c-12,1.5-24.1,2.7-36.2,3.5"/>
</g>
<polygon class="st0" points="108.4,268.1 109.5,266.9 108.1,267.6 107.4,268.3 107.1,270.2 106,272.3 105.1,273.9 105.2,273 
	105.7,271.7 105.3,270.7 105.3,271.7 104.7,273 104.7,274.8 101.4,280.6 101,279.8 101.8,278.7 100.8,279.3 99.9,277.4 101.1,281 
	99.1,284.2 98.5,286.6 97.8,286.2 98.1,284.3 97.4,285.2 96.7,274 97.6,271.8 96.5,273.4 95.8,271.9 97,268.8 97.9,267.5 
	96.9,268.3 97.5,265.7 97.6,264.2 98.3,263.8 97.5,261.3 96.8,265.2 95.8,263.5 93.4,261.9 94.6,263.5 96.6,266.3 95,271.7 
	95.6,279.1 96,284 96.6,294.5 98.8,294.5 98.8,292.7 100.1,292.1 100.8,291.1 99.8,291.6 98.4,291.7 99.1,288.3 99.8,286.8 
	100.3,284.8 101.6,284.3 101.8,282.7 102.6,281.5 101.7,281.9 103,279.4 103.6,278.8 104,277.6 107.5,270.9 107.8,269.3 
	108.6,268.6 107.9,268.8 "/>
<polygon class="st0" points="86.7,269.9 87.2,272.9 92.1,277.5 93.4,279.2 96.7,279.2 96.2,278.3 94,278.6 92.1,276.7 87.6,272.4 
	"/>
<path class="st0" d="M26.1,243.7L28,248l0.2,6.1l0.2,4.1l0.6,9.2l1.4,7.9l-0.2,3.8l0.2,3.4l1,4.3l0.7,5.8l-0.1,1.5
	c-0.3,0.1-0.7,0.2-1,0.3c-0.7,0.2-1.4,0.3-2,0.4l-0.1-3.7l-0.4-4.1l-1.2-10.9l0.1-0.9l0-5.9l-0.3-3.7l-1.2-0.3l-0.7-0.8l0.9,0.3
	l1.1-0.1l-0.9-2.7l-0.7-1.1l-0.7-1.6l-1.2-0.2l-0.3-1.3l-0.8-0.9l0.8,0.3l-1.3-2l-0.6-0.4l-0.4-1l-3.6-5.2l-0.4-1.3l-0.8-0.5l0.6,0
	l-0.4-0.5l-1-0.8l1.2,0.4l0.6,0.5l0.4,1.5l1.2,1.7l0.9,1.2l-0.2-0.7l-0.6-1l0.2-0.9l0.1,0.9l0.6,1l0.2,1.5l3.3,4.5l0.2-0.8l-0.7-0.8
	l0.9,0.4l0.6-1.7l-0.6,3.1l2,2.4l0.7,2l0.5-0.4l-0.4-1.6l0.6,0.7l-0.5-9.3l-1-1.7l1.1,1.2l0.4-1.3l-1.3-2.4l-0.9-1l0.9,0.6l-0.7-2.1
	l-0.3-1.2l-0.6-0.3l0.4-2.1l1,3.1l0.6-1.4l1.9-1.6l-0.8,1.5L26.1,243.7z"/>
<g>
	<path class="st0" d="M14.5,259c0.1-0.3,0.6-0.4,0.9-0.4c0.4,0,0.8,0.1,1.1,0c0.4-0.1,0.6-0.6,0.3-0.8c0.3-0.1,0.7-0.2,1-0.4
		c-1-0.7-1.5-1.9-1.3-3c-1.4,0.1-2.8,0.2-4.1,0.6c0.3-0.4,1.2-0.1,1.4-0.5c0.3-0.5-0.9-0.8-0.6-1.3c0.3,0.1,0.4,0.4,0.6,0.7
		s0.5,0.5,0.8,0.3c0.1-0.1,0.1-0.2,0.2-0.3c0.3-0.9,0.2-1.8-0.3-2.6c-0.7,0.1-1.5,0.2-2.2,0.3c0.6-0.1,0.9-0.7,0.8-1.2
		s-0.7-0.8-1.2-0.9s-1.1-0.2-1.7-0.2c-0.4,0-1-0.2-0.9-0.6c1.1,0.8,2.5,1.2,4,1c0.1,0,0.3,0,0.3-0.1c0-0.1,0-0.2,0-0.2
		c-0.2-0.3-0.3-0.6-0.5-0.8c0.1-0.2,0.5-0.2,0.7,0c0.2,0.2,0.2,0.4,0.3,0.6c0.3,0.4,1,0.4,1.4,0.1c0.1-0.1,0.2-0.2,0.4-0.2
		c0.3,0,0.4,0.3,0.4,0.6c0,0.3,0.3,0.6,0.5,0.4c0.6-0.9,0.2-2.1-0.8-2.6c-0.1-0.1-0.3-0.1-0.3-0.2c-0.3-0.5,1.1-0.8,0.9-1.3
		c-0.7-0.1-0.9-1-0.3-1.3c-0.8-0.2-1.7-0.6-2.4-0.9c0.2-0.1,0.5-0.2,0.7-0.2c-0.7-0.2-1.3-0.4-2-0.5c0.6,0.1,1.2,0.1,1.8,0.2
		c0.2,0,0.3,0,0.5-0.1c0.1-0.1,0.2-0.2,0.2-0.3c0.4-1-0.5-2.3-1.7-2.4c0.2,0.2,0.5,0.4,0.8,0.5c-0.1-0.6-0.2-1.2-0.4-1.9
		c0,0.6,0.9,1.1,1.6,0.8c0.6-0.2,1-0.9,1.7-0.9c0.3,0,0.6,0.2,0.9,0.2c0.4,0,0.7-0.4,0.7-0.7c0-0.3-0.1-0.6-0.2-1
		c-0.4-1.3-0.4-2.7,0-4c0.1,0.1,0.2,0.3,0.3,0.4c0.2-0.3,0.7-0.2,1-0.1c0.3,0.2,0.6,0.4,1,0.5c0.1,0,0.3,0,0.4,0.1
		c0.6,0.3-0.1,1.1,0.2,1.6c0.2,0.2,0.5,0.3,0.7,0.4c0.6,0.5,0.1,1.5,0.6,2c0.4,0.4,1.2,0.6,1.1,1.1c0.1-0.2,0.3-0.4,0.6-0.5
		c-0.1,0.3,0.1,0.6,0.4,0.8c0.3,0.2,0.7,0.2,1,0.3c0.2,0.1,0.4,0.2,0.6,0.2c0.4,0,0.6-0.4,0.7-0.8c0.2-0.7,0.3-1.5-0.1-2.1
		c-0.1-0.1-0.2-0.2-0.2-0.4c0-0.1,0.1-0.2,0.2-0.3c0.8-0.9,0-2.1-0.1-3.2c0-0.3,0.1-0.7,0.5-0.7c0.2,0,0.4,0.3,0.4,0.5
		c0,0.2-0.1,0.4-0.1,0.6c0,0.7,1.3,1.1,1.2,1.9c0,0.4-0.4,0.7-0.3,1c0.1,0.2,0.3,0.3,0.4,0.5c0.2,0.3,0.2,0.6,0.2,0.9
		c0,1,0.3,2,0.8,2.8c-0.1,0.1-0.2,0.3-0.3,0.4c0.7,0.4,0.6,1.6-0.2,1.9c0.7,0.5,2,0,2.1-0.8c0.1-0.3,0-0.6-0.1-0.9
		c-0.3-1.1-0.3-2.2-0.2-3.4c0.2,0.6,0.1,1.2,0.3,1.8c0.2,1,0.9,1.8,1.8,2.4c0.1,0.1,0.2,0.1,0.4,0.1c0.1,0,0.3,0,0.4-0.1
		c0.5-0.2,1-0.2,1.5-0.2c0.2,0,0.3,0.1,0.4,0.2c0.1,0.2-0.2,0.3-0.2,0.5c-0.1,0.3,0.3,0.5,0.6,0.7c0.3,0.2,0.3,0.6,0.6,0.9
		c0.2,0.3,0.8,0.3,1,0c-0.4,0.3-0.8,0.7-1.2,1c-0.5,0.4-1.1,0.8-1.6,0.6c0,0.5,0.1,1,0.5,1.3c0.4,0.3,1.1,0.4,1.4,0
		c0.1-0.1,0.2-0.3,0.3-0.4c0.5-0.3,1.3,0.7,1.8,0.3c-0.6,0.2-1.2,0.4-1.9,0.4c-0.4,0.3-0.1,0.9,0.3,1.1c0.5,0.2,1.1,0.1,1.6,0
		c0.3-0.1,0.8-0.1,0.9,0.2c0.1,0.3-0.3,0.5-0.6,0.6c-0.8,0.2-1.6,0.5-2.5,0.7c-0.1,0-0.3,0.1-0.4,0.2c-0.2,0.2,0,0.6,0.3,0.8
		c0.3,0.2,0.7,0.5,1.1,0.4c0.2-0.1,0.4-0.2,0.7-0.4c0.5-0.3,1.1-0.2,1.5,0.2c-0.3,0.3-0.8,0.6-1.3,0.6c-0.3,0.3,0,0.8,0.4,1
		s0.9,0.3,1.3,0.5c0.6,0.3,0.9,0.9,1.2,1.4c-0.4,0.9-1.8,1.1-2.9,1.2c-7.8,0.5-15.6,1.4-23.4,2.6"/>
</g>
<g>
	<path class="st0" d="M45.1,253.3c-0.2,0.2-0.8,0.3-1.2,0.3s-1-0.1-1.4,0c-0.5,0.1-0.8,0.4-0.5,0.6c-0.4,0.1-0.9,0.2-1.3,0.2
		c1.1,0.6,1.6,1.5,1.3,2.3c1.8,0,3.6,0,5.4-0.2c-0.5,0.3-1.6,0-1.9,0.3c-0.4,0.4,1,0.7,0.6,1.1c-0.4-0.1-0.5-0.3-0.6-0.6
		c-0.1-0.2-0.6-0.4-1-0.3c-0.1,0-0.2,0.1-0.3,0.2c-0.5,0.6-0.5,1.4,0,2c1,0,1.9-0.1,2.9-0.1c-0.8,0-1.3,0.5-1.1,0.8
		c0.1,0.4,0.8,0.6,1.5,0.8s1.5,0.2,2.2,0.2c0.6,0.1,1.3,0.2,1.1,0.5c-1.3-0.7-3.1-1-5-1c-0.2,0-0.3,0-0.4,0.1c-0.1,0.1,0,0.1,0,0.2
		c0.2,0.2,0.3,0.4,0.5,0.7c-0.2,0.2-0.7,0.1-0.8,0c-0.2-0.1-0.2-0.3-0.4-0.5c-0.3-0.3-1.2-0.4-1.7-0.2c-0.2,0.1-0.3,0.2-0.5,0.2
		c-0.4,0-0.4-0.3-0.4-0.5c0-0.2-0.3-0.5-0.6-0.3c-0.9,0.6-0.5,1.6,0.7,2c0.2,0,0.3,0.1,0.4,0.2c0.4,0.4-1.5,0.5-1.3,0.9
		c0.9,0.1,1,0.8,0.3,1c1.1,0.2,2.1,0.5,3,0.9c-0.3,0-0.6,0.1-0.9,0.1c0.8,0.2,1.7,0.4,2.5,0.5c-0.7-0.1-1.5-0.2-2.3-0.2
		c-0.2,0-0.4,0-0.6,0c-0.2,0-0.3,0.1-0.3,0.2c-0.7,0.8,0.3,1.8,1.9,1.9c-0.2-0.2-0.6-0.4-1-0.4c0,0.5,0.1,1,0.2,1.4
		c0.1-0.5-1-0.9-1.9-0.7c-0.8,0.1-1.4,0.6-2.3,0.6c-0.4,0-0.7-0.2-1.2-0.2c-0.5,0-0.9,0.2-1,0.5c-0.1,0.2,0,0.5,0.1,0.7
		c0.4,1,0.2,2.1-0.5,3.1c-0.1-0.1-0.2-0.2-0.4-0.3c-0.3,0.2-1,0.1-1.4,0c-0.4-0.2-0.7-0.4-1.2-0.5c-0.2,0-0.3,0-0.5-0.1
		c-0.7-0.2,0.3-0.8,0-1.2c-0.2-0.2-0.6-0.2-0.8-0.4c-0.7-0.4,0-1.1-0.6-1.6c-0.4-0.3-1.5-0.5-1.2-0.9c-0.1,0.2-0.5,0.3-0.8,0.4
		c0.2-0.2,0-0.5-0.4-0.6c-0.4-0.1-0.8-0.2-1.2-0.3c-0.2-0.1-0.4-0.2-0.7-0.2c-0.5,0-0.8,0.3-1,0.6c-0.3,0.5-0.6,1.1-0.2,1.6
		c0.1,0.1,0.2,0.2,0.2,0.3c0,0.1-0.2,0.2-0.3,0.2c-1.1,0.7-0.2,1.6-0.3,2.5c0,0.2-0.3,0.6-0.8,0.5c-0.3,0-0.4-0.2-0.4-0.4
		c0-0.2,0.2-0.3,0.2-0.5c0.1-0.6-1.5-0.9-1.3-1.5c0.1-0.3,0.6-0.5,0.5-0.8c0-0.1-0.3-0.3-0.4-0.4c-0.2-0.2-0.1-0.5-0.1-0.7
		c0.1-0.8-0.1-1.5-0.7-2.2c0.1-0.1,0.3-0.2,0.4-0.3c-0.9-0.4-0.6-1.2,0.5-1.5c-0.9-0.4-2.5-0.1-2.8,0.5c-0.1,0.2,0,0.4,0,0.7
		c0.2,0.9,0.1,1.7-0.1,2.6c-0.1-0.5,0-0.9-0.1-1.4c-0.2-0.7-0.9-1.4-2-1.9c-0.1-0.1-0.3-0.1-0.5-0.1c-0.2,0-0.4,0-0.5,0
		c-0.6,0.1-1.3,0.1-1.9,0c-0.2,0-0.4-0.1-0.5-0.2c-0.1-0.1,0.3-0.2,0.4-0.4c0.1-0.2-0.3-0.4-0.6-0.6c-0.3-0.2-0.3-0.5-0.6-0.7
		c-0.3-0.2-1-0.3-1.2-0.1c0.6-0.2,1.1-0.5,1.7-0.7c0.6-0.3,1.5-0.5,2.2-0.4c0-0.4,0-0.7-0.4-1c-0.4-0.3-1.4-0.4-1.8-0.1
		c-0.2,0.1-0.2,0.2-0.5,0.3c-0.7,0.2-1.6-0.6-2.2-0.3c0.8-0.1,1.6-0.2,2.5-0.2c0.5-0.2,0.3-0.7-0.3-0.9s-1.4-0.2-2.1-0.1
		c-0.4,0-1.1,0-1.1-0.2c-0.1-0.2,0.5-0.3,0.9-0.4c1.1-0.1,2.2-0.3,3.3-0.4c0.2,0,0.4,0,0.5-0.1c0.3-0.2,0-0.4-0.3-0.6
		c-0.3-0.2-0.8-0.4-1.3-0.3c-0.3,0-0.6,0.2-0.9,0.2c-0.6,0.2-1.5,0.1-1.8-0.2c0.5-0.2,1.1-0.4,1.8-0.4c0.4-0.2,0.1-0.6-0.4-0.8
		c-0.5-0.2-1.1-0.3-1.6-0.4c-0.7-0.3-1.1-0.7-1.4-1.1c0.7-0.7,2.5-0.7,4-0.7c10.1,0.1,20.3-0.2,30.4-0.6"/>
</g>
<path class="st0" d="M24.2,294.3c5.9-0.2,11.7-0.3,17.6-0.3c18.4-0.4,36.7-0.9,55.1-0.7l4.6-3.4l-2-0.9l-5.6,0.4l-5.6-5.7l-4.8-2.5
	l-7-0.9l-4.1-4.2l-2.3-0.5l-3.8,1.7l-4.3-2.2l-3.7,1.2l-2.9,0.6c0,0-3.5,0.4-4.5-0.1c-1-0.5-4.7,2.6-4.7,2.6l-2.6-0.7L40,279l-2.1,0
	l-2-1.1l-2.3-0.2l-1.1,1.9l-1.6,1.8l-1.8,0.1l-2.2-0.1l-1.1,1.4l-4.3,1.6l-0.9-1.2l-1.7,0.4l-2.1-1l0.9,2.7l-1.5,1.7l-1.9,0.6
	l-1.7-0.9l1.1-3.1l-2.9-0.2l-2.8-0.1l-0.8,2.1l-0.8,2.3l-1.5-2.1l-1.2,2.1l-0.4,2.4l-1.1,2.3L0,294.1
	C8.1,294.3,16.1,294.3,24.2,294.3z"/>
<path class="st0" d="M143.1,297.5c4.3-0.1,8.6-0.2,12.8-0.2c13.4-0.3,26.8-0.7,40.2-0.5l3.4-2.5l-1.4-0.7L194,294l-4.1-4.1l-3.5-1.8
	l-5.1-0.6l-3-3.1l-1.6-0.4l-2.8,1.3l-3.2-1.6l-2.7,0.9l-2.1,0.5c0,0-2.5,0.3-3.3-0.1c-0.7-0.4-3.4,1.9-3.4,1.9l-1.9-0.5l-2.7-0.1
	l-1.5,0l-1.5-0.8l-1.7-0.2l-0.8,1.4l-1.2,1.3l-1.3,0.1l-1.6-0.1l-0.8,1l-3.1,1.2l-0.7-0.9l-1.2,0.3l-1.6-0.7l0.7,2l-1.1,1.3
	l-1.4,0.4l-1.2-0.6l0.8-2.3l-2.1-0.2l-2-0.1l-0.6,1.5l-0.6,1.7l-1.1-1.5l-0.9,1.6l-0.3,1.7l-0.8,1.7l-1.6,1.3
	C131.4,297.5,137.3,297.5,143.1,297.5z"/>
<rect y="288.9" class="st0" width="1829.6" height="108"/>
<rect x="1133.3" y="208.2" class="st0" width="696.3" height="134.8"/>
</svg>
