<?xml version="1.0" encoding="utf-8"?>
<!-- Generator: Adobe Illustrator 26.0.1, SVG Export Plug-In . SVG Version: 6.00 Build 0)  -->
<svg version="1.1" xmlns="http://www.w3.org/2000/svg" xmlns:xlink="http://www.w3.org/1999/xlink" x="0px" y="0px"
	 viewBox="0 0 1080 703.6" style="enable-background:new 0 0 1080 703.6;" xml:space="preserve">
<style type="text/css">
	.st0{display:none;}
	.st1{fill:#C4B9A5;}
	.st2{opacity:0.5;fill:#5F96C5;}
	.st3{fill:#5F96C5;}
	.st4{fill:#E0D8D2;}
	.st5{fill:#B44A29;}
	.st6{fill:#3D3831;}
	.st7{fill:#BCD4E8;}
	.st8{opacity:0.5;fill:#B44A29;}
	.st9{fill:#C5BBA4;}
	.st10{clip-path:url(#SVGID_00000134237506207026311990000011696566579012910768_);}
	.st11{clip-path:url(#SVGID_00000010994798461560519500000010681693323499522189_);}
	.st12{clip-path:url(#SVGID_00000111881324358078113810000006896414483838523267_);}
	.st13{clip-path:url(#SVGID_00000064349002605506673850000016397073003992021404_);}
	.st14{fill:none;stroke:#3D3831;stroke-width:3;stroke-miterlimit:10;}
	.st15{font-family:'Roboto-Regular';}
	.st16{font-size:17.7963px;}
	.st17{font-size:22.881px;}
</style>
<g id="Referencia" class="st0">
</g>
<g id="Diagrama">
	<rect x="231.8" y="61.8" class="st6" width="16" height="22.6"/>
	<rect x="85.5" y="588.3" class="st9" width="25.1" height="35.6"/>
	<rect x="116.5" y="588.3" class="st9" width="25.1" height="35.6"/>
	<rect x="147.5" y="588.3" class="st9" width="25.1" height="35.6"/>
	<rect x="179.1" y="588.3" class="st9" width="25.1" height="35.6"/>
	<rect x="210.1" y="588.3" class="st9" width="25.1" height="35.6"/>
	<rect x="241.2" y="588.3" class="st9" width="25.1" height="35.6"/>
	<rect x="272.8" y="588.3" class="st9" width="25.1" height="35.6"/>
	<rect x="303.8" y="588.3" class="st9" width="25.1" height="35.6"/>
	<rect x="334.8" y="588.3" class="st9" width="25.1" height="35.6"/>
	<rect x="365.6" y="588.3" class="st9" width="25.1" height="35.6"/>
	<rect x="396.3" y="588.3" class="st9" width="25.1" height="35.6"/>
	<rect x="427.9" y="588.6" class="st9" width="25.1" height="35.6"/>
	<g>
		<defs>
			<rect id="SVGID_1_" x="73.1" y="142.7" width="963" height="248.9"/>
		</defs>
		<clipPath id="SVGID_00000138531878186682386410000005464115578917073320_">
			<use xlink:href="#SVGID_1_"  style="overflow:visible;"/>
		</clipPath>
		<g style="clip-path:url(#SVGID_00000138531878186682386410000005464115578917073320_);">
			<rect x="86.4" y="142.7" class="st5" width="25" height="35.3"/>
			<rect x="117.5" y="142.7" class="st5" width="25" height="35.3"/>
			<rect x="148.7" y="142.7" class="st5" width="25" height="35.3"/>
			<rect x="179.8" y="142.7" class="st5" width="25" height="35.3"/>
			<rect x="211" y="142.7" class="st5" width="25" height="35.3"/>
			<rect x="242.1" y="142.7" class="st5" width="25" height="35.3"/>
			<rect x="273.2" y="142.7" class="st5" width="25" height="35.3"/>
			<rect x="304.4" y="142.7" class="st5" width="25" height="35.3"/>
			<rect x="335.5" y="142.7" class="st5" width="25" height="35.3"/>
			<rect x="366.7" y="142.7" class="st5" width="25" height="35.3"/>
			<rect x="397.8" y="142.7" class="st5" width="25" height="35.3"/>
			<rect x="429" y="142.7" class="st5" width="25" height="35.3"/>
			<rect x="460.1" y="142.7" class="st5" width="25" height="35.3"/>
			<rect x="491.3" y="142.7" class="st5" width="25" height="35.3"/>
			<rect x="522.4" y="142.7" class="st5" width="25" height="35.3"/>
			<rect x="553.5" y="142.7" class="st5" width="25" height="35.3"/>
			<rect x="584.7" y="142.7" class="st5" width="25" height="35.3"/>
			<rect x="615.8" y="142.7" class="st5" width="25" height="35.3"/>
			<rect x="647" y="142.7" class="st5" width="25" height="35.3"/>
			<rect x="678.1" y="142.7" class="st5" width="25" height="35.3"/>
			<rect x="709.3" y="142.7" class="st5" width="25" height="35.3"/>
			<rect x="740.4" y="142.7" class="st5" width="25" height="35.3"/>
			<rect x="771.5" y="142.7" class="st5" width="25" height="35.3"/>
			<rect x="802.7" y="142.7" class="st5" width="25" height="35.3"/>
			<rect x="833.8" y="142.7" class="st5" width="25" height="35.3"/>
			<rect x="865" y="142.7" class="st5" width="25" height="35.3"/>
			<rect x="896.1" y="142.7" class="st5" width="25" height="35.3"/>
			<rect x="927.3" y="142.7" class="st5" width="25" height="35.3"/>
			<rect x="958.4" y="142.7" class="st5" width="25" height="35.3"/>
			<rect x="989.6" y="142.7" class="st5" width="25" height="35.3"/>
			<rect x="86.4" y="184.2" class="st5" width="25" height="35.3"/>
			<rect x="117.5" y="184.2" class="st5" width="25" height="35.3"/>
			<rect x="148.7" y="184.2" class="st5" width="25" height="35.3"/>
			<rect x="179.8" y="184.2" class="st5" width="25" height="35.3"/>
			<rect x="211" y="184.2" class="st5" width="25" height="35.3"/>
			<rect x="242.1" y="184.2" class="st5" width="25" height="35.3"/>
			<rect x="273.2" y="184.2" class="st5" width="25" height="35.3"/>
			<rect x="304.4" y="184.2" class="st5" width="25" height="35.3"/>
			<rect x="335.5" y="184.2" class="st5" width="25" height="35.3"/>
			<rect x="366.7" y="184.2" class="st5" width="25" height="35.3"/>
			<rect x="397.8" y="184.2" class="st5" width="25" height="35.3"/>
			<rect x="429" y="184.2" class="st5" width="25" height="35.3"/>
			<rect x="460.1" y="184.2" class="st5" width="25" height="35.3"/>
			<rect x="491.3" y="184.2" class="st5" width="25" height="35.3"/>
			<rect x="522.4" y="184.2" class="st5" width="25" height="35.3"/>
			<rect x="553.5" y="184.2" class="st5" width="25" height="35.3"/>
			<rect x="584.7" y="184.2" class="st5" width="25" height="35.3"/>
			<rect x="615.8" y="184.2" class="st5" width="25" height="35.3"/>
			<rect x="647" y="184.2" class="st5" width="25" height="35.3"/>
			<rect x="678.1" y="184.2" class="st5" width="25" height="35.3"/>
			<rect x="709.3" y="184.2" class="st5" width="25" height="35.3"/>
			<rect x="740.4" y="184.2" class="st5" width="25" height="35.3"/>
			<rect x="771.5" y="184.2" class="st5" width="25" height="35.3"/>
			<rect x="802.7" y="184.2" class="st5" width="25" height="35.3"/>
			<rect x="833.8" y="184.2" class="st5" width="25" height="35.3"/>
			<rect x="865" y="184.2" class="st5" width="25" height="35.3"/>
			<rect x="896.1" y="184.2" class="st5" width="25" height="35.3"/>
			<rect x="927.3" y="184.2" class="st5" width="25" height="35.3"/>
			<rect x="958.4" y="184.2" class="st5" width="25" height="35.3"/>
			<rect x="989.6" y="184.2" class="st5" width="25" height="35.3"/>
			<rect x="86.4" y="225.8" class="st5" width="25" height="35.3"/>
			<rect x="117.5" y="225.8" class="st5" width="25" height="35.3"/>
			<rect x="148.7" y="225.8" class="st5" width="25" height="35.3"/>
			<rect x="179.8" y="225.8" class="st5" width="25" height="35.3"/>
			<rect x="211" y="225.8" class="st5" width="25" height="35.3"/>
			<rect x="242.1" y="225.8" class="st5" width="25" height="35.3"/>
			<rect x="273.2" y="225.8" class="st5" width="25" height="35.3"/>
			<rect x="304.4" y="225.8" class="st5" width="25" height="35.3"/>
			<rect x="335.5" y="225.8" class="st5" width="25" height="35.3"/>
			<rect x="366.7" y="225.8" class="st5" width="25" height="35.3"/>
			<rect x="397.8" y="225.8" class="st5" width="25" height="35.3"/>
			<rect x="429" y="225.8" class="st5" width="25" height="35.3"/>
			<rect x="460.1" y="225.8" class="st5" width="25" height="35.3"/>
			<rect x="491.3" y="225.8" class="st5" width="25" height="35.3"/>
			<rect x="522.4" y="225.8" class="st5" width="25" height="35.3"/>
			<rect x="553.5" y="225.8" class="st5" width="25" height="35.3"/>
			<rect x="584.7" y="225.8" class="st5" width="25" height="35.3"/>
			<rect x="615.8" y="225.8" class="st5" width="25" height="35.3"/>
			<rect x="647" y="225.8" class="st5" width="25" height="35.3"/>
			<rect x="678.1" y="225.8" class="st5" width="25" height="35.3"/>
			<rect x="709.3" y="225.8" class="st5" width="25" height="35.3"/>
			<rect x="740.4" y="225.8" class="st5" width="25" height="35.3"/>
			<rect x="771.5" y="225.8" class="st5" width="25" height="35.3"/>
			<rect x="802.7" y="225.8" class="st5" width="25" height="35.3"/>
			<rect x="833.8" y="225.8" class="st5" width="25" height="35.3"/>
			<rect x="865" y="225.8" class="st5" width="25" height="35.3"/>
			<rect x="896.1" y="225.8" class="st5" width="25" height="35.3"/>
			<rect x="927.3" y="225.8" class="st5" width="25" height="35.3"/>
			<rect x="958.4" y="225.8" class="st5" width="25" height="35.3"/>
			<rect x="989.6" y="225.8" class="st5" width="25" height="35.3"/>
			<rect x="86.4" y="267.3" class="st5" width="25" height="35.3"/>
			<rect x="117.5" y="267.3" class="st5" width="25" height="35.3"/>
			<rect x="148.7" y="267.3" class="st5" width="25" height="35.3"/>
			<rect x="179.8" y="267.3" class="st5" width="25" height="35.3"/>
			<rect x="211" y="267.3" class="st5" width="25" height="35.3"/>
			<rect x="242.1" y="267.3" class="st5" width="25" height="35.3"/>
			<rect x="273.2" y="267.3" class="st5" width="25" height="35.3"/>
			<rect x="304.4" y="267.3" class="st5" width="25" height="35.3"/>
			<rect x="335.5" y="267.3" class="st5" width="25" height="35.3"/>
			<rect x="366.7" y="267.3" class="st5" width="25" height="35.3"/>
			<rect x="397.8" y="267.3" class="st5" width="25" height="35.3"/>
			<rect x="429" y="267.3" class="st5" width="25" height="35.3"/>
			<rect x="460.1" y="267.3" class="st5" width="25" height="35.3"/>
			<rect x="491.3" y="267.3" class="st5" width="25" height="35.3"/>
			<rect x="522.4" y="267.3" class="st5" width="25" height="35.3"/>
			<rect x="553.5" y="267.3" class="st5" width="25" height="35.3"/>
			<rect x="584.7" y="267.3" class="st5" width="25" height="35.3"/>
			<rect x="615.8" y="267.3" class="st5" width="25" height="35.3"/>
			<rect x="647" y="267.3" class="st5" width="25" height="35.3"/>
			<rect x="678.1" y="267.3" class="st5" width="25" height="35.3"/>
			<rect x="709.3" y="267.3" class="st5" width="25" height="35.3"/>
			<rect x="740.4" y="267.3" class="st5" width="25" height="35.3"/>
			<rect x="771.5" y="267.3" class="st5" width="25" height="35.3"/>
			<rect x="802.7" y="267.3" class="st5" width="25" height="35.3"/>
			<rect x="833.8" y="267.3" class="st5" width="25" height="35.3"/>
			<rect x="865" y="267.3" class="st5" width="25" height="35.3"/>
			<rect x="896.1" y="267.3" class="st5" width="25" height="35.3"/>
			<rect x="927.3" y="267.3" class="st5" width="25" height="35.3"/>
			<rect x="958.4" y="267.3" class="st5" width="25" height="35.3"/>
			<rect x="989.6" y="267.3" class="st5" width="25" height="35.3"/>
			<rect x="86.4" y="308.8" class="st5" width="25" height="35.3"/>
			<rect x="117.5" y="308.8" class="st5" width="25" height="35.3"/>
			<rect x="148.7" y="308.8" class="st5" width="25" height="35.3"/>
			<rect x="179.8" y="308.8" class="st5" width="25" height="35.3"/>
			<rect x="211" y="308.8" class="st5" width="25" height="35.3"/>
			<rect x="242.1" y="308.8" class="st5" width="25" height="35.3"/>
			<rect x="273.2" y="308.8" class="st5" width="25" height="35.3"/>
			<rect x="304.4" y="308.8" class="st5" width="25" height="35.3"/>
			<rect x="335.5" y="308.8" class="st5" width="25" height="35.3"/>
			<rect x="366.7" y="308.8" class="st5" width="25" height="35.3"/>
			<rect x="397.8" y="308.8" class="st5" width="25" height="35.3"/>
			<rect x="429" y="308.8" class="st5" width="25" height="35.3"/>
			<rect x="460.1" y="308.8" class="st5" width="25" height="35.3"/>
			<rect x="491.3" y="308.8" class="st5" width="25" height="35.3"/>
			<rect x="522.4" y="308.8" class="st5" width="25" height="35.3"/>
			<rect x="553.5" y="308.8" class="st5" width="25" height="35.3"/>
			<rect x="584.7" y="308.8" class="st5" width="25" height="35.3"/>
			<rect x="615.8" y="308.8" class="st5" width="25" height="35.3"/>
			<rect x="647" y="308.8" class="st5" width="25" height="35.3"/>
			<rect x="678.1" y="308.8" class="st5" width="25" height="35.3"/>
			<rect x="709.3" y="308.8" class="st5" width="25" height="35.3"/>
			<rect x="740.4" y="308.8" class="st5" width="25" height="35.3"/>
			<rect x="771.5" y="308.8" class="st5" width="25" height="35.3"/>
			<rect x="802.7" y="308.8" class="st5" width="25" height="35.3"/>
			<rect x="833.8" y="308.8" class="st5" width="25" height="35.3"/>
			<rect x="865" y="308.8" class="st5" width="25" height="35.3"/>
			<rect x="896.1" y="308.8" class="st5" width="25" height="35.3"/>
			<rect x="927.3" y="308.8" class="st5" width="25" height="35.3"/>
			<rect x="958.4" y="308.8" class="st5" width="25" height="35.3"/>
			<rect x="989.6" y="308.8" class="st5" width="25" height="35.3"/>
			<rect x="86.4" y="350.4" class="st5" width="25" height="35.3"/>
			<rect x="117.5" y="350.4" class="st5" width="25" height="35.3"/>
			<rect x="148.7" y="350.4" class="st5" width="25" height="35.3"/>
			<rect x="179.8" y="350.4" class="st5" width="25" height="35.3"/>
			<rect x="211" y="350.4" class="st5" width="25" height="35.3"/>
			<rect x="242.1" y="350.4" class="st5" width="25" height="35.3"/>
			<rect x="273.2" y="350.4" class="st5" width="25" height="35.3"/>
			<rect x="304.4" y="350.4" class="st5" width="25" height="35.3"/>
			<rect x="335.5" y="350.4" class="st5" width="25" height="35.3"/>
			<rect x="366.7" y="350.4" class="st5" width="25" height="35.3"/>
			<rect x="397.8" y="350.4" class="st5" width="25" height="35.3"/>
			<rect x="429" y="350.4" class="st5" width="25" height="35.3"/>
			<rect x="460.1" y="350.4" class="st5" width="25" height="35.3"/>
			<rect x="491.3" y="350.4" class="st5" width="25" height="35.3"/>
			<rect x="522.4" y="350.4" class="st5" width="25" height="35.3"/>
			<rect x="553.5" y="350.4" class="st5" width="25" height="35.3"/>
			<rect x="584.7" y="350.4" class="st5" width="25" height="35.3"/>
			<rect x="615.8" y="350.4" class="st5" width="25" height="35.3"/>
			<rect x="647" y="350.4" class="st5" width="25" height="35.3"/>
			<rect x="678.1" y="350.4" class="st5" width="25" height="35.3"/>
			<rect x="709.3" y="350.4" class="st5" width="25" height="35.3"/>
			<rect x="740.4" y="350.4" class="st5" width="25" height="35.3"/>
			<rect x="771.5" y="350.4" class="st5" width="25" height="35.3"/>
			<rect x="802.7" y="350.4" class="st5" width="25" height="35.3"/>
			<rect x="833.8" y="350.4" class="st5" width="25" height="35.3"/>
			<rect x="865" y="350.4" class="st5" width="25" height="35.3"/>
			<rect x="896.1" y="350.4" class="st5" width="25" height="35.3"/>
			<rect x="927.3" y="350.4" class="st5" width="25" height="35.3"/>
			<rect x="958.4" y="350.4" class="st5" width="25" height="35.3"/>
			<rect x="989.6" y="350.4" class="st5" width="25" height="35.3"/>
			<rect x="86.4" y="391.9" class="st5" width="25" height="35.3"/>
			<rect x="117.5" y="391.9" class="st5" width="25" height="35.3"/>
			<rect x="148.7" y="391.9" class="st5" width="25" height="35.3"/>
			<rect x="179.8" y="391.9" class="st5" width="25" height="35.3"/>
			<rect x="211" y="391.9" class="st5" width="25" height="35.3"/>
			<rect x="242.1" y="391.9" class="st5" width="25" height="35.3"/>
			<rect x="273.2" y="391.9" class="st5" width="25" height="35.3"/>
			<rect x="304.4" y="391.9" class="st5" width="25" height="35.3"/>
			<rect x="335.5" y="391.9" class="st5" width="25" height="35.3"/>
			<rect x="366.7" y="391.9" class="st5" width="25" height="35.3"/>
			<rect x="397.8" y="391.9" class="st5" width="25" height="35.3"/>
			<rect x="429" y="391.9" class="st5" width="25" height="35.3"/>
			<rect x="460.1" y="391.9" class="st5" width="25" height="35.3"/>
			<rect x="491.3" y="391.9" class="st5" width="25" height="35.3"/>
			<rect x="522.4" y="391.9" class="st5" width="25" height="35.3"/>
			<rect x="553.5" y="391.9" class="st5" width="25" height="35.3"/>
			<rect x="584.7" y="391.9" class="st5" width="25" height="35.3"/>
			<rect x="615.8" y="391.9" class="st5" width="25" height="35.3"/>
			<rect x="647" y="391.9" class="st5" width="25" height="35.3"/>
			<rect x="678.1" y="391.9" class="st5" width="25" height="35.3"/>
			<rect x="709.3" y="391.9" class="st5" width="25" height="35.3"/>
			<rect x="740.4" y="391.9" class="st5" width="25" height="35.3"/>
			<rect x="771.5" y="391.9" class="st5" width="25" height="35.3"/>
			<rect x="802.7" y="391.9" class="st5" width="25" height="35.3"/>
			<rect x="833.8" y="391.9" class="st5" width="25" height="35.3"/>
			<rect x="865" y="391.9" class="st5" width="25" height="35.3"/>
			<rect x="896.1" y="391.9" class="st5" width="25" height="35.3"/>
			<rect x="927.3" y="391.9" class="st5" width="25" height="35.3"/>
			<rect x="958.4" y="391.9" class="st5" width="25" height="35.3"/>
			<rect x="989.6" y="391.9" class="st5" width="25" height="35.3"/>
			<rect x="86.4" y="433.4" class="st5" width="25" height="35.3"/>
			<rect x="117.5" y="433.4" class="st5" width="25" height="35.3"/>
			<rect x="148.7" y="433.4" class="st5" width="25" height="35.3"/>
			<rect x="179.8" y="433.4" class="st5" width="25" height="35.3"/>
			<rect x="211" y="433.4" class="st5" width="25" height="35.3"/>
			<rect x="242.1" y="433.4" class="st5" width="25" height="35.3"/>
			<rect x="273.2" y="433.4" class="st5" width="25" height="35.3"/>
			<rect x="304.4" y="433.4" class="st5" width="25" height="35.3"/>
			<rect x="335.5" y="433.4" class="st5" width="25" height="35.3"/>
			<rect x="366.7" y="433.4" class="st5" width="25" height="35.3"/>
			<rect x="397.8" y="433.4" class="st5" width="25" height="35.3"/>
			<rect x="429" y="433.4" class="st5" width="25" height="35.3"/>
			<rect x="460.1" y="433.4" class="st5" width="25" height="35.3"/>
			<rect x="491.3" y="433.4" class="st5" width="25" height="35.3"/>
			<rect x="522.4" y="433.4" class="st5" width="25" height="35.3"/>
			<rect x="553.5" y="433.4" class="st5" width="25" height="35.3"/>
			<rect x="584.7" y="433.4" class="st5" width="25" height="35.3"/>
			<rect x="615.8" y="433.4" class="st5" width="25" height="35.3"/>
			<rect x="647" y="433.4" class="st5" width="25" height="35.3"/>
			<rect x="678.1" y="433.4" class="st5" width="25" height="35.3"/>
			<rect x="709.3" y="433.4" class="st5" width="25" height="35.3"/>
			<rect x="740.4" y="433.4" class="st5" width="25" height="35.3"/>
			<rect x="771.5" y="433.4" class="st5" width="25" height="35.3"/>
			<rect x="802.7" y="433.4" class="st5" width="25" height="35.3"/>
			<rect x="833.8" y="433.4" class="st5" width="25" height="35.3"/>
			<rect x="865" y="433.4" class="st5" width="25" height="35.3"/>
			<rect x="896.1" y="433.4" class="st5" width="25" height="35.3"/>
			<rect x="927.3" y="433.4" class="st5" width="25" height="35.3"/>
			<rect x="958.4" y="433.4" class="st5" width="25" height="35.3"/>
			<rect x="989.6" y="433.4" class="st5" width="25" height="35.3"/>
			<rect x="86.4" y="474.9" class="st5" width="25" height="35.3"/>
			<rect x="117.5" y="474.9" class="st5" width="25" height="35.3"/>
			<rect x="148.7" y="474.9" class="st5" width="25" height="35.3"/>
			<rect x="179.8" y="474.9" class="st5" width="25" height="35.3"/>
			<rect x="211" y="474.9" class="st5" width="25" height="35.3"/>
			<rect x="242.1" y="474.9" class="st5" width="25" height="35.3"/>
			<rect x="273.2" y="474.9" class="st5" width="25" height="35.3"/>
			<rect x="304.4" y="474.9" class="st5" width="25" height="35.3"/>
			<rect x="335.5" y="474.9" class="st5" width="25" height="35.3"/>
			<rect x="366.7" y="474.9" class="st5" width="25" height="35.3"/>
			<rect x="397.8" y="474.9" class="st5" width="25" height="35.3"/>
			<rect x="429" y="474.9" class="st5" width="25" height="35.3"/>
			<rect x="460.1" y="474.9" class="st5" width="25" height="35.3"/>
			<rect x="491.3" y="474.9" class="st5" width="25" height="35.3"/>
			<rect x="522.4" y="474.9" class="st5" width="25" height="35.3"/>
			<rect x="553.5" y="474.9" class="st5" width="25" height="35.3"/>
			<rect x="584.7" y="474.9" class="st5" width="25" height="35.3"/>
			<rect x="615.8" y="474.9" class="st5" width="25" height="35.3"/>
			<rect x="647" y="474.9" class="st5" width="25" height="35.3"/>
			<rect x="678.1" y="474.9" class="st5" width="25" height="35.3"/>
			<rect x="709.3" y="474.9" class="st5" width="25" height="35.3"/>
			<rect x="740.4" y="474.9" class="st5" width="25" height="35.3"/>
			<rect x="771.5" y="474.9" class="st5" width="25" height="35.3"/>
			<rect x="802.7" y="474.9" class="st5" width="25" height="35.3"/>
			<rect x="833.8" y="474.9" class="st5" width="25" height="35.3"/>
			<rect x="865" y="474.9" class="st5" width="25" height="35.3"/>
			<rect x="896.1" y="474.9" class="st5" width="25" height="35.3"/>
			<rect x="927.3" y="474.9" class="st5" width="25" height="35.3"/>
			<rect x="958.4" y="474.9" class="st5" width="25" height="35.3"/>
			<rect x="989.6" y="474.9" class="st5" width="25" height="35.3"/>
			<rect x="86.4" y="516.5" class="st5" width="25" height="35.3"/>
			<rect x="117.5" y="516.5" class="st5" width="25" height="35.3"/>
			<rect x="148.7" y="516.5" class="st5" width="25" height="35.3"/>
			<rect x="179.8" y="516.5" class="st5" width="25" height="35.3"/>
			<rect x="211" y="516.5" class="st5" width="25" height="35.3"/>
			<rect x="242.1" y="516.5" class="st5" width="25" height="35.3"/>
			<rect x="273.2" y="516.5" class="st5" width="25" height="35.3"/>
			<rect x="304.4" y="516.5" class="st5" width="25" height="35.3"/>
			<rect x="335.5" y="516.5" class="st5" width="25" height="35.3"/>
			<rect x="366.7" y="516.5" class="st5" width="25" height="35.3"/>
			<rect x="397.8" y="516.5" class="st5" width="25" height="35.3"/>
			<rect x="429" y="516.5" class="st5" width="25" height="35.3"/>
			<rect x="460.1" y="516.5" class="st5" width="25" height="35.3"/>
			<rect x="491.3" y="516.5" class="st5" width="25" height="35.3"/>
			<rect x="522.4" y="516.5" class="st5" width="25" height="35.3"/>
			<rect x="553.5" y="516.5" class="st5" width="25" height="35.3"/>
			<rect x="584.7" y="516.5" class="st5" width="25" height="35.3"/>
			<rect x="615.8" y="516.5" class="st5" width="25" height="35.3"/>
			<rect x="647" y="516.5" class="st5" width="25" height="35.3"/>
			<rect x="678.1" y="516.5" class="st5" width="25" height="35.3"/>
			<rect x="709.3" y="516.5" class="st5" width="25" height="35.3"/>
			<rect x="740.4" y="516.5" class="st5" width="25" height="35.3"/>
			<rect x="771.5" y="516.5" class="st5" width="25" height="35.3"/>
			<rect x="802.7" y="516.5" class="st5" width="25" height="35.3"/>
			<rect x="833.8" y="516.5" class="st5" width="25" height="35.3"/>
			<rect x="865" y="516.5" class="st5" width="25" height="35.3"/>
			<rect x="896.1" y="516.5" class="st5" width="25" height="35.3"/>
			<rect x="927.3" y="516.5" class="st5" width="25" height="35.3"/>
			<rect x="958.4" y="516.5" class="st5" width="25" height="35.3"/>
			<rect x="989.6" y="516.5" class="st5" width="25" height="35.3"/>
			<rect x="86.4" y="558" class="st5" width="25" height="35.3"/>
			<rect x="117.5" y="558" class="st5" width="25" height="35.3"/>
			<rect x="148.7" y="558" class="st5" width="25" height="35.3"/>
			<rect x="179.8" y="558" class="st5" width="25" height="35.3"/>
			<rect x="211" y="558" class="st5" width="25" height="35.3"/>
			<rect x="242.1" y="558" class="st5" width="25" height="35.3"/>
			<rect x="273.2" y="558" class="st5" width="25" height="35.3"/>
			<rect x="304.4" y="558" class="st5" width="25" height="35.3"/>
			<rect x="335.5" y="558" class="st5" width="25" height="35.3"/>
			<rect x="366.7" y="558" class="st5" width="25" height="35.3"/>
			<rect x="397.8" y="558" class="st5" width="25" height="35.3"/>
			<rect x="429" y="558" class="st5" width="25" height="35.3"/>
			<rect x="460.1" y="558" class="st5" width="25" height="35.3"/>
			<rect x="491.3" y="558" class="st5" width="25" height="35.3"/>
			<rect x="522.4" y="558" class="st5" width="25" height="35.3"/>
			<rect x="553.5" y="558" class="st5" width="25" height="35.3"/>
			<rect x="584.7" y="558" class="st5" width="25" height="35.3"/>
			<rect x="615.8" y="558" class="st5" width="25" height="35.3"/>
			<rect x="647" y="558" class="st5" width="25" height="35.3"/>
			<rect x="678.1" y="558" class="st5" width="25" height="35.3"/>
			<rect x="709.3" y="558" class="st5" width="25" height="35.3"/>
			<rect x="740.4" y="558" class="st5" width="25" height="35.3"/>
			<rect x="771.5" y="558" class="st5" width="25" height="35.3"/>
			<rect x="802.7" y="558" class="st5" width="25" height="35.3"/>
			<rect x="833.8" y="558" class="st5" width="25" height="35.3"/>
			<rect x="865" y="558" class="st5" width="25" height="35.3"/>
			<rect x="896.1" y="558" class="st5" width="25" height="35.3"/>
			<rect x="927.3" y="558" class="st5" width="25" height="35.3"/>
			<rect x="958.4" y="558" class="st5" width="25" height="35.3"/>
			<rect x="989.6" y="558" class="st5" width="25" height="35.3"/>
			<rect x="86.4" y="599.5" class="st5" width="25" height="35.3"/>
			<rect x="117.5" y="599.5" class="st5" width="25" height="35.3"/>
			<rect x="148.7" y="599.5" class="st5" width="25" height="35.3"/>
			<rect x="179.8" y="599.5" class="st5" width="25" height="35.3"/>
			<rect x="211" y="599.5" class="st5" width="25" height="35.3"/>
			<rect x="242.1" y="599.5" class="st5" width="25" height="35.3"/>
			<rect x="273.2" y="599.5" class="st5" width="25" height="35.3"/>
			<rect x="304.4" y="599.5" class="st5" width="25" height="35.3"/>
			<rect x="335.5" y="599.5" class="st5" width="25" height="35.3"/>
			<rect x="366.7" y="599.5" class="st5" width="25" height="35.3"/>
			<rect x="397.8" y="599.5" class="st5" width="25" height="35.3"/>
			<rect x="429" y="599.5" class="st5" width="25" height="35.3"/>
			<rect x="460.1" y="599.5" class="st5" width="25" height="35.3"/>
			<rect x="491.3" y="599.5" class="st5" width="25" height="35.3"/>
			<rect x="522.4" y="599.5" class="st5" width="25" height="35.3"/>
			<rect x="553.5" y="599.5" class="st5" width="25" height="35.3"/>
			<rect x="584.7" y="599.5" class="st5" width="25" height="35.3"/>
			<rect x="615.8" y="599.5" class="st5" width="25" height="35.3"/>
			<rect x="647" y="599.5" class="st5" width="25" height="35.3"/>
			<rect x="678.1" y="599.5" class="st5" width="25" height="35.3"/>
			<rect x="709.3" y="599.5" class="st5" width="25" height="35.3"/>
			<rect x="740.4" y="599.5" class="st5" width="25" height="35.3"/>
			<rect x="771.5" y="599.5" class="st5" width="25" height="35.3"/>
			<rect x="802.7" y="599.5" class="st5" width="25" height="35.3"/>
			<rect x="833.8" y="599.5" class="st5" width="25" height="35.3"/>
			<rect x="865" y="599.5" class="st5" width="25" height="35.3"/>
			<rect x="896.1" y="599.5" class="st5" width="25" height="35.3"/>
			<rect x="927.3" y="599.5" class="st5" width="25" height="35.3"/>
			<rect x="958.4" y="599.5" class="st5" width="25" height="35.3"/>
			<rect x="989.6" y="599.5" class="st5" width="25" height="35.3"/>
			<rect x="86.4" y="641.1" class="st5" width="25" height="35.3"/>
			<rect x="117.5" y="641.1" class="st5" width="25" height="35.3"/>
			<rect x="148.7" y="641.1" class="st5" width="25" height="35.3"/>
			<rect x="179.8" y="641.1" class="st5" width="25" height="35.3"/>
			<rect x="211" y="641.1" class="st5" width="25" height="35.3"/>
			<rect x="242.1" y="641.1" class="st5" width="25" height="35.3"/>
			<rect x="273.2" y="641.1" class="st5" width="25" height="35.3"/>
			<rect x="304.4" y="641.1" class="st5" width="25" height="35.3"/>
			<rect x="335.5" y="641.1" class="st5" width="25" height="35.3"/>
			<rect x="366.7" y="641.1" class="st5" width="25" height="35.3"/>
			<rect x="397.8" y="641.1" class="st5" width="25" height="35.3"/>
			<rect x="429" y="641.1" class="st5" width="25" height="35.3"/>
			<rect x="460.1" y="641.1" class="st5" width="25" height="35.3"/>
			<rect x="491.3" y="641.1" class="st5" width="25" height="35.3"/>
			<rect x="522.4" y="641.1" class="st5" width="25" height="35.3"/>
			<rect x="553.5" y="641.1" class="st5" width="25" height="35.3"/>
			<rect x="584.7" y="641.1" class="st5" width="25" height="35.3"/>
			<rect x="615.8" y="641.1" class="st5" width="25" height="35.3"/>
			<rect x="647" y="641.1" class="st5" width="25" height="35.3"/>
			<rect x="678.1" y="641.1" class="st5" width="25" height="35.3"/>
			<rect x="709.3" y="641.1" class="st5" width="25" height="35.3"/>
			<rect x="740.4" y="641.1" class="st5" width="25" height="35.3"/>
			<rect x="771.5" y="641.1" class="st5" width="25" height="35.3"/>
			<rect x="802.7" y="641.1" class="st5" width="25" height="35.3"/>
			<rect x="833.8" y="641.1" class="st5" width="25" height="35.3"/>
			<rect x="865" y="641.1" class="st5" width="25" height="35.3"/>
			<rect x="896.1" y="641.1" class="st5" width="25" height="35.3"/>
			<rect x="927.3" y="641.1" class="st5" width="25" height="35.3"/>
			<rect x="958.4" y="641.1" class="st5" width="25" height="35.3"/>
			<rect x="989.6" y="641.1" class="st5" width="25" height="35.3"/>
			<rect x="86.4" y="682.6" class="st5" width="25" height="35.3"/>
			<rect x="117.5" y="682.6" class="st5" width="25" height="35.3"/>
			<rect x="148.7" y="682.6" class="st5" width="25" height="35.3"/>
			<rect x="179.8" y="682.6" class="st5" width="25" height="35.3"/>
			<rect x="211" y="682.6" class="st5" width="25" height="35.3"/>
			<rect x="242.1" y="682.6" class="st5" width="25" height="35.3"/>
			<rect x="273.2" y="682.6" class="st5" width="25" height="35.3"/>
			<rect x="304.4" y="682.6" class="st5" width="25" height="35.3"/>
			<rect x="335.5" y="682.6" class="st5" width="25" height="35.3"/>
			<rect x="366.7" y="682.6" class="st5" width="25" height="35.3"/>
			<rect x="397.8" y="682.6" class="st5" width="25" height="35.3"/>
			<rect x="429" y="682.6" class="st5" width="25" height="35.3"/>
			<rect x="460.1" y="682.6" class="st5" width="25" height="35.3"/>
			<rect x="491.3" y="682.6" class="st5" width="25" height="35.3"/>
			<rect x="522.4" y="682.6" class="st5" width="25" height="35.3"/>
			<rect x="553.5" y="682.6" class="st5" width="25" height="35.3"/>
			<rect x="584.7" y="682.6" class="st5" width="25" height="35.3"/>
			<rect x="615.8" y="682.6" class="st5" width="25" height="35.3"/>
			<rect x="647" y="682.6" class="st5" width="25" height="35.3"/>
			<rect x="678.1" y="682.6" class="st5" width="25" height="35.3"/>
			<rect x="709.3" y="682.6" class="st5" width="25" height="35.3"/>
			<rect x="740.4" y="682.6" class="st5" width="25" height="35.3"/>
			<rect x="771.5" y="682.6" class="st5" width="25" height="35.3"/>
			<rect x="802.7" y="682.6" class="st5" width="25" height="35.3"/>
			<rect x="833.8" y="682.6" class="st5" width="25" height="35.3"/>
			<rect x="865" y="682.6" class="st5" width="25" height="35.3"/>
			<rect x="896.1" y="682.6" class="st5" width="25" height="35.3"/>
			<rect x="927.3" y="682.6" class="st5" width="25" height="35.3"/>
			<rect x="958.4" y="682.6" class="st5" width="25" height="35.3"/>
			<rect x="989.6" y="682.6" class="st5" width="25" height="35.3"/>
		</g>
	</g>
	<g>
		<defs>
			<polygon id="SVGID_00000013891631811937488310000012645283439376617647_" points="1027.9,508.1 118.8,508.1 117.4,550 
				56.1,548.5 71.5,397.7 1027.9,397.7 			"/>
		</defs>
		<clipPath id="SVGID_00000165198595287900579120000014793944469822868363_">
			<use xlink:href="#SVGID_00000013891631811937488310000012645283439376617647_"  style="overflow:visible;"/>
		</clipPath>
		<g style="clip-path:url(#SVGID_00000165198595287900579120000014793944469822868363_);">
			<rect x="87.9" y="428.7" class="st3" width="24.9" height="35.4"/>
			<rect x="119" y="428.7" class="st3" width="24.9" height="35.4"/>
			<rect x="150.1" y="428.7" class="st3" width="24.9" height="35.4"/>
			<rect x="181.2" y="428.7" class="st3" width="24.9" height="35.4"/>
			<rect x="212.3" y="428.7" class="st3" width="24.9" height="35.4"/>
			<rect x="243.4" y="428.7" class="st3" width="24.9" height="35.4"/>
			<rect x="274.5" y="428.7" class="st3" width="24.9" height="35.4"/>
			<rect x="305.6" y="428.7" class="st3" width="24.9" height="35.4"/>
			<rect x="336.7" y="428.7" class="st3" width="24.9" height="35.4"/>
			<rect x="367.8" y="428.7" class="st3" width="24.9" height="35.4"/>
			<rect x="398.9" y="428.7" class="st3" width="24.9" height="35.4"/>
			<rect x="430" y="428.7" class="st3" width="24.9" height="35.4"/>
			<rect x="461.1" y="428.7" class="st3" width="24.9" height="35.4"/>
			<rect x="492.2" y="428.7" class="st3" width="24.9" height="35.4"/>
			<rect x="523.3" y="428.7" class="st3" width="24.9" height="35.4"/>
			<rect x="554.4" y="428.7" class="st3" width="24.9" height="35.4"/>
			<rect x="585.5" y="428.7" class="st3" width="24.9" height="35.4"/>
			<rect x="616.6" y="428.7" class="st3" width="24.9" height="35.4"/>
			<rect x="647.7" y="428.7" class="st3" width="24.9" height="35.4"/>
			<rect x="678.8" y="428.7" class="st3" width="24.9" height="35.4"/>
			<rect x="709.9" y="428.7" class="st3" width="24.9" height="35.4"/>
			<rect x="741" y="428.7" class="st3" width="24.9" height="35.4"/>
			<rect x="772.1" y="428.7" class="st3" width="24.9" height="35.4"/>
			<rect x="803.2" y="428.7" class="st3" width="24.9" height="35.4"/>
			<rect x="834.3" y="428.7" class="st3" width="24.9" height="35.4"/>
			<rect x="865.4" y="428.7" class="st3" width="24.9" height="35.4"/>
			<rect x="896.5" y="428.7" class="st3" width="24.9" height="35.4"/>
			<rect x="927.6" y="428.7" class="st3" width="24.9" height="35.4"/>
			<rect x="958.7" y="428.7" class="st3" width="24.9" height="35.4"/>
			<rect x="989.8" y="428.7" class="st3" width="24.9" height="35.4"/>
			<rect x="87.9" y="470.2" class="st3" width="24.9" height="35.4"/>
			<rect x="119" y="470.2" class="st3" width="24.9" height="35.4"/>
			<rect x="150.1" y="470.2" class="st3" width="24.9" height="35.4"/>
			<rect x="181.2" y="470.2" class="st3" width="24.9" height="35.4"/>
			<rect x="212.3" y="470.2" class="st3" width="24.9" height="35.4"/>
			<rect x="243.4" y="470.2" class="st3" width="24.9" height="35.4"/>
			<rect x="274.5" y="470.2" class="st3" width="24.9" height="35.4"/>
			<rect x="305.6" y="470.2" class="st3" width="24.9" height="35.4"/>
			<rect x="336.7" y="470.2" class="st3" width="24.9" height="35.4"/>
			<rect x="367.8" y="470.2" class="st3" width="24.9" height="35.4"/>
			<rect x="398.9" y="470.2" class="st3" width="24.9" height="35.4"/>
			<rect x="430" y="470.2" class="st3" width="24.9" height="35.4"/>
			<rect x="461.1" y="470.2" class="st3" width="24.9" height="35.4"/>
			<rect x="492.2" y="470.2" class="st3" width="24.9" height="35.4"/>
			<rect x="523.3" y="470.2" class="st3" width="24.9" height="35.4"/>
			<rect x="554.4" y="470.2" class="st3" width="24.9" height="35.4"/>
			<rect x="585.5" y="470.2" class="st3" width="24.9" height="35.4"/>
			<rect x="616.6" y="470.2" class="st3" width="24.9" height="35.4"/>
			<rect x="647.7" y="470.2" class="st3" width="24.9" height="35.4"/>
			<rect x="678.8" y="470.2" class="st3" width="24.9" height="35.4"/>
			<rect x="709.9" y="470.2" class="st3" width="24.9" height="35.4"/>
			<rect x="741" y="470.2" class="st3" width="24.9" height="35.4"/>
			<rect x="772.1" y="470.2" class="st3" width="24.9" height="35.4"/>
			<rect x="803.2" y="470.2" class="st3" width="24.9" height="35.4"/>
			<rect x="834.3" y="470.2" class="st3" width="24.9" height="35.4"/>
			<rect x="865.4" y="470.2" class="st3" width="24.9" height="35.4"/>
			<rect x="896.5" y="470.2" class="st3" width="24.9" height="35.4"/>
			<rect x="927.6" y="470.2" class="st3" width="24.9" height="35.4"/>
			<rect x="958.7" y="470.2" class="st3" width="24.9" height="35.4"/>
			<rect x="989.8" y="470.2" class="st3" width="24.9" height="35.4"/>
			<rect x="87.9" y="511.8" class="st3" width="24.9" height="35.4"/>
			<rect x="119" y="511.8" class="st3" width="24.9" height="35.4"/>
			<rect x="150.1" y="511.8" class="st3" width="24.9" height="35.4"/>
			<rect x="181.2" y="511.8" class="st3" width="24.9" height="35.4"/>
			<rect x="212.3" y="511.8" class="st3" width="24.9" height="35.4"/>
			<rect x="243.4" y="511.8" class="st3" width="24.9" height="35.4"/>
			<rect x="274.5" y="511.8" class="st3" width="24.9" height="35.4"/>
			<rect x="305.6" y="511.8" class="st3" width="24.9" height="35.4"/>
			<rect x="336.7" y="511.8" class="st3" width="24.9" height="35.4"/>
			<rect x="367.8" y="511.8" class="st3" width="24.9" height="35.4"/>
			<rect x="398.9" y="511.8" class="st3" width="24.9" height="35.4"/>
			<rect x="430" y="511.8" class="st3" width="24.9" height="35.4"/>
			<rect x="461.1" y="511.8" class="st3" width="24.9" height="35.4"/>
			<rect x="492.2" y="511.8" class="st3" width="24.9" height="35.4"/>
			<rect x="523.3" y="511.8" class="st3" width="24.9" height="35.4"/>
			<rect x="554.4" y="511.8" class="st3" width="24.9" height="35.4"/>
			<rect x="585.5" y="511.8" class="st3" width="24.9" height="35.4"/>
			<rect x="616.6" y="511.8" class="st3" width="24.9" height="35.4"/>
			<rect x="647.7" y="511.8" class="st3" width="24.9" height="35.4"/>
			<rect x="678.8" y="511.8" class="st3" width="24.9" height="35.4"/>
			<rect x="709.9" y="511.8" class="st3" width="24.9" height="35.4"/>
			<rect x="741" y="511.8" class="st3" width="24.9" height="35.4"/>
			<rect x="772.1" y="511.8" class="st3" width="24.9" height="35.4"/>
			<rect x="803.2" y="511.8" class="st3" width="24.9" height="35.4"/>
			<rect x="834.3" y="511.8" class="st3" width="24.9" height="35.4"/>
			<rect x="865.4" y="511.8" class="st3" width="24.9" height="35.4"/>
			<rect x="896.5" y="511.8" class="st3" width="24.9" height="35.4"/>
			<rect x="927.6" y="511.8" class="st3" width="24.9" height="35.4"/>
			<rect x="958.7" y="511.8" class="st3" width="24.9" height="35.4"/>
			<rect x="989.8" y="511.8" class="st3" width="24.9" height="35.4"/>
			<rect x="87.9" y="553.3" class="st3" width="24.9" height="35.4"/>
			<rect x="119" y="553.3" class="st3" width="24.9" height="35.4"/>
			<rect x="150.1" y="553.3" class="st3" width="24.9" height="35.4"/>
			<rect x="181.2" y="553.3" class="st3" width="24.9" height="35.4"/>
			<rect x="212.3" y="553.3" class="st3" width="24.9" height="35.4"/>
			<rect x="243.4" y="553.3" class="st3" width="24.9" height="35.4"/>
			<rect x="274.5" y="553.3" class="st3" width="24.9" height="35.4"/>
			<rect x="305.6" y="553.3" class="st3" width="24.9" height="35.4"/>
			<rect x="336.7" y="553.3" class="st3" width="24.9" height="35.4"/>
			<rect x="367.8" y="553.3" class="st3" width="24.9" height="35.4"/>
			<rect x="398.9" y="553.3" class="st3" width="24.9" height="35.4"/>
			<rect x="430" y="553.3" class="st3" width="24.9" height="35.4"/>
			<rect x="461.1" y="553.3" class="st3" width="24.9" height="35.4"/>
			<rect x="492.2" y="553.3" class="st3" width="24.9" height="35.4"/>
			<rect x="523.3" y="553.3" class="st3" width="24.9" height="35.4"/>
			<rect x="554.4" y="553.3" class="st3" width="24.9" height="35.4"/>
			<rect x="585.5" y="553.3" class="st3" width="24.9" height="35.4"/>
			<rect x="616.6" y="553.3" class="st3" width="24.9" height="35.4"/>
			<rect x="647.7" y="553.3" class="st3" width="24.9" height="35.4"/>
			<rect x="678.8" y="553.3" class="st3" width="24.9" height="35.4"/>
			<rect x="709.9" y="553.3" class="st3" width="24.9" height="35.4"/>
			<rect x="741" y="553.3" class="st3" width="24.9" height="35.4"/>
			<rect x="772.1" y="553.3" class="st3" width="24.9" height="35.4"/>
			<rect x="803.2" y="553.3" class="st3" width="24.9" height="35.4"/>
			<rect x="834.3" y="553.3" class="st3" width="24.9" height="35.4"/>
			<rect x="865.4" y="553.3" class="st3" width="24.9" height="35.4"/>
			<rect x="896.5" y="553.3" class="st3" width="24.9" height="35.4"/>
			<rect x="927.6" y="553.3" class="st3" width="24.9" height="35.4"/>
			<rect x="958.7" y="553.3" class="st3" width="24.9" height="35.4"/>
			<rect x="989.8" y="553.3" class="st3" width="24.9" height="35.4"/>
			<rect x="87.9" y="594.9" class="st3" width="24.9" height="35.4"/>
			<rect x="119" y="594.9" class="st3" width="24.9" height="35.4"/>
			<rect x="150.1" y="594.9" class="st3" width="24.9" height="35.4"/>
			<rect x="181.2" y="594.9" class="st3" width="24.9" height="35.4"/>
			<rect x="212.3" y="594.9" class="st3" width="24.9" height="35.4"/>
			<rect x="243.4" y="594.9" class="st3" width="24.9" height="35.4"/>
			<rect x="274.5" y="594.9" class="st3" width="24.9" height="35.4"/>
			<rect x="305.6" y="594.9" class="st3" width="24.9" height="35.4"/>
			<rect x="336.7" y="594.9" class="st3" width="24.9" height="35.4"/>
			<rect x="367.8" y="594.9" class="st3" width="24.9" height="35.4"/>
			<rect x="398.9" y="594.9" class="st3" width="24.9" height="35.4"/>
			<rect x="430" y="594.9" class="st3" width="24.9" height="35.4"/>
			<rect x="461.1" y="594.9" class="st3" width="24.9" height="35.4"/>
			<rect x="492.2" y="594.9" class="st3" width="24.9" height="35.4"/>
			<rect x="523.3" y="594.9" class="st3" width="24.9" height="35.4"/>
			<rect x="554.4" y="594.9" class="st3" width="24.9" height="35.4"/>
			<rect x="585.5" y="594.9" class="st3" width="24.9" height="35.4"/>
			<rect x="616.6" y="594.9" class="st3" width="24.9" height="35.4"/>
			<rect x="647.7" y="594.9" class="st3" width="24.9" height="35.4"/>
			<rect x="678.8" y="594.9" class="st3" width="24.9" height="35.4"/>
			<rect x="709.9" y="594.9" class="st3" width="24.9" height="35.4"/>
			<rect x="741" y="594.9" class="st3" width="24.9" height="35.4"/>
			<rect x="772.1" y="594.9" class="st3" width="24.9" height="35.4"/>
			<rect x="803.2" y="594.9" class="st3" width="24.9" height="35.4"/>
			<rect x="834.3" y="594.9" class="st3" width="24.9" height="35.4"/>
			<rect x="865.4" y="594.9" class="st3" width="24.9" height="35.4"/>
			<rect x="896.5" y="594.9" class="st3" width="24.9" height="35.4"/>
			<rect x="927.6" y="594.9" class="st3" width="24.9" height="35.4"/>
			<rect x="958.7" y="594.9" class="st3" width="24.9" height="35.4"/>
			<rect x="989.8" y="594.9" class="st3" width="24.9" height="35.4"/>
			<rect x="87.9" y="636.4" class="st3" width="24.9" height="35.4"/>
			<rect x="119" y="636.4" class="st3" width="24.9" height="35.4"/>
			<rect x="150.1" y="636.4" class="st3" width="24.9" height="35.4"/>
			<rect x="181.2" y="636.4" class="st3" width="24.9" height="35.4"/>
			<rect x="212.3" y="636.4" class="st3" width="24.9" height="35.4"/>
			<rect x="243.4" y="636.4" class="st3" width="24.9" height="35.4"/>
			<rect x="274.5" y="636.4" class="st3" width="24.9" height="35.4"/>
			<rect x="305.6" y="636.4" class="st3" width="24.9" height="35.4"/>
			<rect x="336.7" y="636.4" class="st3" width="24.9" height="35.4"/>
			<rect x="367.8" y="636.4" class="st3" width="24.9" height="35.4"/>
			<rect x="398.9" y="636.4" class="st3" width="24.9" height="35.4"/>
			<rect x="430" y="636.4" class="st3" width="24.9" height="35.4"/>
			<rect x="461.1" y="636.4" class="st3" width="24.9" height="35.4"/>
			<rect x="492.2" y="636.4" class="st3" width="24.9" height="35.4"/>
			<rect x="523.3" y="636.4" class="st3" width="24.9" height="35.4"/>
			<rect x="554.4" y="636.4" class="st3" width="24.9" height="35.4"/>
			<rect x="585.5" y="636.4" class="st3" width="24.9" height="35.4"/>
			<rect x="616.6" y="636.4" class="st3" width="24.9" height="35.4"/>
			<rect x="647.7" y="636.4" class="st3" width="24.9" height="35.4"/>
			<rect x="678.8" y="636.4" class="st3" width="24.9" height="35.4"/>
			<rect x="709.9" y="636.4" class="st3" width="24.9" height="35.4"/>
			<rect x="741" y="636.4" class="st3" width="24.9" height="35.4"/>
			<rect x="772.1" y="636.4" class="st3" width="24.9" height="35.4"/>
			<rect x="803.2" y="636.4" class="st3" width="24.9" height="35.4"/>
			<rect x="834.3" y="636.4" class="st3" width="24.9" height="35.4"/>
			<rect x="865.4" y="636.4" class="st3" width="24.9" height="35.4"/>
			<rect x="896.5" y="636.4" class="st3" width="24.9" height="35.4"/>
			<rect x="927.6" y="636.4" class="st3" width="24.9" height="35.4"/>
			<rect x="958.7" y="636.4" class="st3" width="24.9" height="35.4"/>
			<rect x="989.8" y="636.4" class="st3" width="24.9" height="35.4"/>
			<rect x="87.9" y="677.9" class="st3" width="24.9" height="35.4"/>
			<rect x="119" y="677.9" class="st3" width="24.9" height="35.4"/>
			<rect x="150.1" y="677.9" class="st3" width="24.9" height="35.4"/>
			<rect x="181.2" y="677.9" class="st3" width="24.9" height="35.4"/>
			<rect x="212.3" y="677.9" class="st3" width="24.9" height="35.4"/>
			<rect x="243.4" y="677.9" class="st3" width="24.9" height="35.4"/>
			<rect x="274.5" y="677.9" class="st3" width="24.9" height="35.4"/>
			<rect x="305.6" y="677.9" class="st3" width="24.9" height="35.4"/>
			<rect x="336.7" y="677.9" class="st3" width="24.9" height="35.4"/>
			<rect x="367.8" y="677.9" class="st3" width="24.9" height="35.4"/>
			<rect x="398.9" y="677.9" class="st3" width="24.9" height="35.4"/>
			<rect x="430" y="677.9" class="st3" width="24.9" height="35.4"/>
			<rect x="461.1" y="677.9" class="st3" width="24.9" height="35.4"/>
			<rect x="492.2" y="677.9" class="st3" width="24.9" height="35.4"/>
			<rect x="523.3" y="677.9" class="st3" width="24.9" height="35.4"/>
			<rect x="554.4" y="677.9" class="st3" width="24.9" height="35.4"/>
			<rect x="585.5" y="677.9" class="st3" width="24.9" height="35.4"/>
			<rect x="616.6" y="677.9" class="st3" width="24.9" height="35.4"/>
			<rect x="647.7" y="677.9" class="st3" width="24.9" height="35.4"/>
			<rect x="678.8" y="677.9" class="st3" width="24.9" height="35.4"/>
			<rect x="709.9" y="677.9" class="st3" width="24.9" height="35.4"/>
			<rect x="741" y="677.9" class="st3" width="24.9" height="35.4"/>
			<rect x="772.1" y="677.9" class="st3" width="24.9" height="35.4"/>
			<rect x="803.2" y="677.9" class="st3" width="24.9" height="35.4"/>
			<rect x="834.3" y="677.9" class="st3" width="24.9" height="35.4"/>
			<rect x="865.4" y="677.9" class="st3" width="24.9" height="35.4"/>
			<rect x="896.5" y="677.9" class="st3" width="24.9" height="35.4"/>
			<rect x="927.6" y="677.9" class="st3" width="24.9" height="35.4"/>
			<rect x="958.7" y="677.9" class="st3" width="24.9" height="35.4"/>
			<rect x="989.8" y="677.9" class="st3" width="24.9" height="35.4"/>
		</g>
	</g>
</g>
<g id="Textos">
	<g>
		<rect x="714.2" y="61.8" class="st5" width="16" height="22.6"/>
		<text transform="matrix(1 0 0 1 739.1281 78.6611)" class="st6 st15 st16">Chaitén</text>
	</g>
	<g>
		<rect x="825.1" y="61.8" class="st3" width="16" height="22.6"/>
		<text transform="matrix(1 0 0 1 850.0739 78.6612)" class="st6 st15 st16">Futalefú</text>
	</g>
	<g>
		<rect x="945" y="61.8" class="st9" width="16" height="22.6"/>
		<text transform="matrix(1 0 0 1 970.007 78.6613)" class="st6 st15 st16">Palena</text>
	</g>
	<text transform="matrix(1 0 0 1 99.9123 78.6611)" class="st6 st15 st16">10 personas</text>
	<text transform="matrix(1 0 0 1 209.508 80.2575)" class="st6 st15 st17">=</text>
</g>
</svg>
