<?xml version="1.0" encoding="utf-8"?>
<!-- Generator: Adobe Illustrator 26.0.1, SVG Export Plug-In . SVG Version: 6.00 Build 0)  -->
<svg version="1.1" xmlns="http://www.w3.org/2000/svg" xmlns:xlink="http://www.w3.org/1999/xlink" x="0px" y="0px"
	 viewBox="0 0 1920 696.7" style="enable-background:new 0 0 1920 696.7;" xml:space="preserve">
<style type="text/css">
	.st0{display:none;}
	.st1{fill:#C4B9A5;}
	.st2{opacity:0.5;fill:#5F96C5;}
	.st3{fill:#5F96C5;}
	.st4{fill:#E0D8D2;}
	.st5{fill:#B44A29;}
	.st6{fill:#3D3831;}
	.st7{fill:#BCD4E8;}
	.st8{opacity:0.5;fill:#B44A29;}
	.st9{fill:#C5BBA4;}
	.st10{clip-path:url(#SVGID_00000013187438069174223240000000969341838993729714_);}
	.st11{clip-path:url(#SVGID_00000028323358654899526120000007581652451118863000_);}
	.st12{clip-path:url(#SVGID_00000113324992025748577380000004445993778359429821_);}
	.st13{clip-path:url(#SVGID_00000182530378424072094000000005763119424060136600_);}
	.st14{fill:none;stroke:#3D3831;stroke-width:3;stroke-miterlimit:10;}
	.st15{font-family:'Roboto-Regular';}
	.st16{font-size:28px;}
	.st17{font-size:36px;}
</style>
<g id="Referencia" class="st0">
</g>
<g id="Diagrama">
	<rect x="1676.6" y="441.9" class="st5" width="25.1" height="35.6"/>
	<rect x="1676.6" y="489.7" class="st3" width="25.1" height="35.6"/>
	<rect x="1676.6" y="537.5" class="st9" width="25.1" height="35.6"/>
	<rect x="361.1" y="81.4" class="st6" width="25.1" height="35.6"/>
	<rect x="1608.5" y="194.5" class="st9" width="25.1" height="35.6"/>
	<rect x="1577.6" y="194.5" class="st9" width="25.1" height="35.6"/>
	<rect x="1671.1" y="194.5" class="st9" width="25.1" height="35.6"/>
	<rect x="1640.2" y="194.5" class="st9" width="25.1" height="35.6"/>
	<rect x="1608.5" y="236.1" class="st9" width="25.1" height="35.6"/>
	<rect x="1577.6" y="236.1" class="st9" width="25.1" height="35.6"/>
	<rect x="1671.1" y="236.1" class="st9" width="25.1" height="35.6"/>
	<rect x="1640.2" y="236.1" class="st9" width="25.1" height="35.6"/>
	<rect x="1608.9" y="277.7" class="st9" width="25.1" height="35.6"/>
	<rect x="1578" y="277.7" class="st9" width="25.1" height="35.6"/>
	<g>
		<defs>
			<rect id="SVGID_00000023976343496317916650000001077813873881873558_" x="1087.9" y="187.8" width="455.9" height="213.9"/>
		</defs>
		<clipPath id="SVGID_00000032614075149549642810000008767255265442238606_">
			<use xlink:href="#SVGID_00000023976343496317916650000001077813873881873558_"  style="overflow:visible;"/>
		</clipPath>
		<g style="clip-path:url(#SVGID_00000032614075149549642810000008767255265442238606_);">
			<rect x="1100.8" y="194.4" class="st3" width="24.9" height="35.4"/>
			<rect x="1131.9" y="194.4" class="st3" width="24.9" height="35.4"/>
			<rect x="1163" y="194.4" class="st3" width="24.9" height="35.4"/>
			<rect x="1194.1" y="194.4" class="st3" width="24.9" height="35.4"/>
			<rect x="1225.2" y="194.4" class="st3" width="24.9" height="35.4"/>
			<rect x="1256.3" y="194.4" class="st3" width="24.9" height="35.4"/>
			<rect x="1287.4" y="194.4" class="st3" width="24.9" height="35.4"/>
			<rect x="1318.5" y="194.4" class="st3" width="24.9" height="35.4"/>
			<rect x="1349.6" y="194.4" class="st3" width="24.9" height="35.4"/>
			<rect x="1380.7" y="194.4" class="st3" width="24.9" height="35.4"/>
			<rect x="1411.8" y="194.4" class="st3" width="24.9" height="35.4"/>
			<rect x="1442.9" y="194.4" class="st3" width="24.9" height="35.4"/>
			<rect x="1474" y="194.4" class="st3" width="24.9" height="35.4"/>
			<rect x="1505.1" y="194.4" class="st3" width="24.9" height="35.4"/>
			<rect x="1100.8" y="235.9" class="st3" width="24.9" height="35.4"/>
			<rect x="1131.9" y="235.9" class="st3" width="24.9" height="35.4"/>
			<rect x="1163" y="235.9" class="st3" width="24.9" height="35.4"/>
			<rect x="1194.1" y="235.9" class="st3" width="24.9" height="35.4"/>
			<rect x="1225.2" y="235.9" class="st3" width="24.9" height="35.4"/>
			<rect x="1256.3" y="235.9" class="st3" width="24.9" height="35.4"/>
			<rect x="1287.4" y="235.9" class="st3" width="24.9" height="35.4"/>
			<rect x="1318.5" y="235.9" class="st3" width="24.9" height="35.4"/>
			<rect x="1349.6" y="235.9" class="st3" width="24.9" height="35.4"/>
			<rect x="1380.7" y="235.9" class="st3" width="24.9" height="35.4"/>
			<rect x="1411.8" y="235.9" class="st3" width="24.9" height="35.4"/>
			<rect x="1442.9" y="235.9" class="st3" width="24.9" height="35.4"/>
			<rect x="1474" y="235.9" class="st3" width="24.9" height="35.4"/>
			<rect x="1505.1" y="235.9" class="st3" width="24.9" height="35.4"/>
			<rect x="1100.8" y="277.5" class="st3" width="24.9" height="35.4"/>
			<rect x="1131.9" y="277.5" class="st3" width="24.9" height="35.4"/>
			<rect x="1163" y="277.5" class="st3" width="24.9" height="35.4"/>
			<rect x="1194.1" y="277.5" class="st3" width="24.9" height="35.4"/>
			<rect x="1225.2" y="277.5" class="st3" width="24.9" height="35.4"/>
			<rect x="1256.3" y="277.5" class="st3" width="24.9" height="35.4"/>
			<rect x="1287.4" y="277.5" class="st3" width="24.9" height="35.4"/>
			<rect x="1318.5" y="277.5" class="st3" width="24.9" height="35.4"/>
			<rect x="1349.6" y="277.5" class="st3" width="24.9" height="35.4"/>
			<rect x="1380.7" y="277.5" class="st3" width="24.9" height="35.4"/>
			<rect x="1411.8" y="277.5" class="st3" width="24.9" height="35.4"/>
			<rect x="1442.9" y="277.5" class="st3" width="24.9" height="35.4"/>
			<rect x="1474" y="277.5" class="st3" width="24.9" height="35.4"/>
			<rect x="1505.1" y="277.5" class="st3" width="24.9" height="35.4"/>
			<rect x="1100.8" y="319" class="st3" width="24.9" height="35.4"/>
			<rect x="1131.9" y="319" class="st3" width="24.9" height="35.4"/>
			<rect x="1163" y="319" class="st3" width="24.9" height="35.4"/>
			<rect x="1194.1" y="319" class="st3" width="24.9" height="35.4"/>
			<rect x="1225.2" y="319" class="st3" width="24.9" height="35.4"/>
			<rect x="1256.3" y="319" class="st3" width="24.9" height="35.4"/>
			<rect x="1287.4" y="319" class="st3" width="24.9" height="35.4"/>
			<rect x="1318.5" y="319" class="st3" width="24.9" height="35.4"/>
			<rect x="1349.6" y="319" class="st3" width="24.9" height="35.4"/>
			<rect x="1380.7" y="319" class="st3" width="24.9" height="35.4"/>
			<rect x="1411.8" y="319" class="st3" width="24.9" height="35.4"/>
			<rect x="1442.9" y="319" class="st3" width="24.9" height="35.4"/>
			<rect x="1474" y="319" class="st3" width="24.9" height="35.4"/>
			<rect x="1505.1" y="319" class="st3" width="24.9" height="35.4"/>
			<rect x="1100.8" y="360.5" class="st3" width="24.9" height="35.4"/>
			<rect x="1131.9" y="360.5" class="st3" width="24.9" height="35.4"/>
			<rect x="1163" y="360.5" class="st3" width="24.9" height="35.4"/>
			<rect x="1194.1" y="360.5" class="st3" width="24.9" height="35.4"/>
			<rect x="1225.2" y="360.5" class="st3" width="24.9" height="35.4"/>
			<rect x="1256.3" y="360.5" class="st3" width="24.9" height="35.4"/>
			<rect x="1287.4" y="360.5" class="st3" width="24.9" height="35.4"/>
			<rect x="1318.5" y="360.5" class="st3" width="24.9" height="35.4"/>
			<rect x="1349.6" y="360.5" class="st3" width="24.9" height="35.4"/>
			<rect x="1380.7" y="360.5" class="st3" width="24.9" height="35.4"/>
			<rect x="1411.8" y="360.5" class="st3" width="24.9" height="35.4"/>
			<rect x="1442.9" y="360.5" class="st3" width="24.9" height="35.4"/>
			<rect x="1474" y="360.5" class="st3" width="24.9" height="35.4"/>
			<rect x="1505.1" y="360.5" class="st3" width="24.9" height="35.4"/>
			<rect x="1100.8" y="402.1" class="st3" width="24.9" height="35.4"/>
			<rect x="1131.9" y="402.1" class="st3" width="24.9" height="35.4"/>
			<rect x="1163" y="402.1" class="st3" width="24.9" height="35.4"/>
			<rect x="1194.1" y="402.1" class="st3" width="24.9" height="35.4"/>
			<rect x="1225.2" y="402.1" class="st3" width="24.9" height="35.4"/>
			<rect x="1256.3" y="402.1" class="st3" width="24.9" height="35.4"/>
			<rect x="1287.4" y="402.1" class="st3" width="24.9" height="35.4"/>
			<rect x="1318.5" y="402.1" class="st3" width="24.9" height="35.4"/>
			<rect x="1349.6" y="402.1" class="st3" width="24.9" height="35.4"/>
			<rect x="1380.7" y="402.1" class="st3" width="24.9" height="35.4"/>
			<rect x="1411.8" y="402.1" class="st3" width="24.9" height="35.4"/>
			<rect x="1442.9" y="402.1" class="st3" width="24.9" height="35.4"/>
			<rect x="1474" y="402.1" class="st3" width="24.9" height="35.4"/>
			<rect x="1505.1" y="402.1" class="st3" width="24.9" height="35.4"/>
			<rect x="1100.8" y="443.6" class="st3" width="24.9" height="35.4"/>
			<rect x="1131.9" y="443.6" class="st3" width="24.9" height="35.4"/>
			<rect x="1163" y="443.6" class="st3" width="24.9" height="35.4"/>
			<rect x="1194.1" y="443.6" class="st3" width="24.9" height="35.4"/>
			<rect x="1225.2" y="443.6" class="st3" width="24.9" height="35.4"/>
			<rect x="1256.3" y="443.6" class="st3" width="24.9" height="35.4"/>
			<rect x="1287.4" y="443.6" class="st3" width="24.9" height="35.4"/>
			<rect x="1318.5" y="443.6" class="st3" width="24.9" height="35.4"/>
			<rect x="1349.6" y="443.6" class="st3" width="24.9" height="35.4"/>
			<rect x="1380.7" y="443.6" class="st3" width="24.9" height="35.4"/>
			<rect x="1411.8" y="443.6" class="st3" width="24.9" height="35.4"/>
			<rect x="1442.9" y="443.6" class="st3" width="24.9" height="35.4"/>
			<rect x="1474" y="443.6" class="st3" width="24.9" height="35.4"/>
			<rect x="1505.1" y="443.6" class="st3" width="24.9" height="35.4"/>
			<rect x="1100.8" y="485.2" class="st3" width="24.9" height="35.4"/>
			<rect x="1131.9" y="485.2" class="st3" width="24.9" height="35.4"/>
			<rect x="1163" y="485.2" class="st3" width="24.9" height="35.4"/>
			<rect x="1194.1" y="485.2" class="st3" width="24.9" height="35.4"/>
			<rect x="1225.2" y="485.2" class="st3" width="24.9" height="35.4"/>
			<rect x="1256.3" y="485.2" class="st3" width="24.9" height="35.4"/>
			<rect x="1287.4" y="485.2" class="st3" width="24.9" height="35.4"/>
			<rect x="1318.5" y="485.2" class="st3" width="24.9" height="35.4"/>
			<rect x="1349.6" y="485.2" class="st3" width="24.9" height="35.4"/>
			<rect x="1380.7" y="485.2" class="st3" width="24.9" height="35.4"/>
			<rect x="1411.8" y="485.2" class="st3" width="24.9" height="35.4"/>
			<rect x="1442.9" y="485.2" class="st3" width="24.9" height="35.4"/>
			<rect x="1474" y="485.2" class="st3" width="24.9" height="35.4"/>
			<rect x="1505.1" y="485.2" class="st3" width="24.9" height="35.4"/>
			<rect x="1100.8" y="526.7" class="st3" width="24.9" height="35.4"/>
			<rect x="1131.9" y="526.7" class="st3" width="24.9" height="35.4"/>
			<rect x="1163" y="526.7" class="st3" width="24.9" height="35.4"/>
			<rect x="1194.1" y="526.7" class="st3" width="24.9" height="35.4"/>
			<rect x="1225.2" y="526.7" class="st3" width="24.9" height="35.4"/>
			<rect x="1256.3" y="526.7" class="st3" width="24.9" height="35.4"/>
			<rect x="1287.4" y="526.7" class="st3" width="24.9" height="35.4"/>
			<rect x="1318.5" y="526.7" class="st3" width="24.9" height="35.4"/>
			<rect x="1349.6" y="526.7" class="st3" width="24.9" height="35.4"/>
			<rect x="1380.7" y="526.7" class="st3" width="24.9" height="35.4"/>
			<rect x="1411.8" y="526.7" class="st3" width="24.9" height="35.4"/>
			<rect x="1442.9" y="526.7" class="st3" width="24.9" height="35.4"/>
			<rect x="1474" y="526.7" class="st3" width="24.9" height="35.4"/>
			<rect x="1505.1" y="526.7" class="st3" width="24.9" height="35.4"/>
			<rect x="1100.8" y="568.3" class="st3" width="24.9" height="35.4"/>
			<rect x="1131.9" y="568.3" class="st3" width="24.9" height="35.4"/>
			<rect x="1163" y="568.3" class="st3" width="24.9" height="35.4"/>
			<rect x="1194.1" y="568.3" class="st3" width="24.9" height="35.4"/>
			<rect x="1225.2" y="568.3" class="st3" width="24.9" height="35.4"/>
			<rect x="1256.3" y="568.3" class="st3" width="24.9" height="35.4"/>
			<rect x="1287.4" y="568.3" class="st3" width="24.9" height="35.4"/>
			<rect x="1318.5" y="568.3" class="st3" width="24.9" height="35.4"/>
			<rect x="1349.6" y="568.3" class="st3" width="24.9" height="35.4"/>
			<rect x="1380.7" y="568.3" class="st3" width="24.9" height="35.4"/>
			<rect x="1411.8" y="568.3" class="st3" width="24.9" height="35.4"/>
			<rect x="1442.9" y="568.3" class="st3" width="24.9" height="35.4"/>
			<rect x="1474" y="568.3" class="st3" width="24.9" height="35.4"/>
			<rect x="1505.1" y="568.3" class="st3" width="24.9" height="35.4"/>
			<rect x="1100.8" y="609.8" class="st3" width="24.9" height="35.4"/>
			<rect x="1131.9" y="609.8" class="st3" width="24.9" height="35.4"/>
			<rect x="1163" y="609.8" class="st3" width="24.9" height="35.4"/>
			<rect x="1194.1" y="609.8" class="st3" width="24.9" height="35.4"/>
			<rect x="1225.2" y="609.8" class="st3" width="24.9" height="35.4"/>
			<rect x="1256.3" y="609.8" class="st3" width="24.9" height="35.4"/>
			<rect x="1287.4" y="609.8" class="st3" width="24.9" height="35.4"/>
			<rect x="1318.5" y="609.8" class="st3" width="24.9" height="35.4"/>
			<rect x="1349.6" y="609.8" class="st3" width="24.9" height="35.4"/>
			<rect x="1380.7" y="609.8" class="st3" width="24.9" height="35.4"/>
			<rect x="1411.8" y="609.8" class="st3" width="24.9" height="35.4"/>
			<rect x="1442.9" y="609.8" class="st3" width="24.9" height="35.4"/>
			<rect x="1474" y="609.8" class="st3" width="24.9" height="35.4"/>
			<rect x="1505.1" y="609.8" class="st3" width="24.9" height="35.4"/>
			<rect x="1100.8" y="651.3" class="st3" width="24.9" height="35.4"/>
			<rect x="1131.9" y="651.3" class="st3" width="24.9" height="35.4"/>
			<rect x="1163" y="651.3" class="st3" width="24.9" height="35.4"/>
			<rect x="1194.1" y="651.3" class="st3" width="24.9" height="35.4"/>
			<rect x="1225.2" y="651.3" class="st3" width="24.9" height="35.4"/>
			<rect x="1256.3" y="651.3" class="st3" width="24.9" height="35.4"/>
			<rect x="1287.4" y="651.3" class="st3" width="24.9" height="35.4"/>
			<rect x="1318.5" y="651.3" class="st3" width="24.9" height="35.4"/>
			<rect x="1349.6" y="651.3" class="st3" width="24.9" height="35.4"/>
			<rect x="1380.7" y="651.3" class="st3" width="24.9" height="35.4"/>
			<rect x="1411.8" y="651.3" class="st3" width="24.9" height="35.4"/>
			<rect x="1442.9" y="651.3" class="st3" width="24.9" height="35.4"/>
			<rect x="1474" y="651.3" class="st3" width="24.9" height="35.4"/>
			<rect x="1505.1" y="651.3" class="st3" width="24.9" height="35.4"/>
			<rect x="1100.8" y="692.9" class="st3" width="24.9" height="35.4"/>
			<rect x="1131.9" y="692.9" class="st3" width="24.9" height="35.4"/>
			<rect x="1163" y="692.9" class="st3" width="24.9" height="35.4"/>
			<rect x="1194.1" y="692.9" class="st3" width="24.9" height="35.4"/>
			<rect x="1225.2" y="692.9" class="st3" width="24.9" height="35.4"/>
			<rect x="1256.3" y="692.9" class="st3" width="24.9" height="35.4"/>
			<rect x="1287.4" y="692.9" class="st3" width="24.9" height="35.4"/>
			<rect x="1318.5" y="692.9" class="st3" width="24.9" height="35.4"/>
			<rect x="1349.6" y="692.9" class="st3" width="24.9" height="35.4"/>
			<rect x="1380.7" y="692.9" class="st3" width="24.9" height="35.4"/>
			<rect x="1411.8" y="692.9" class="st3" width="24.9" height="35.4"/>
			<rect x="1442.9" y="692.9" class="st3" width="24.9" height="35.4"/>
			<rect x="1474" y="692.9" class="st3" width="24.9" height="35.4"/>
			<rect x="1505.1" y="692.9" class="st3" width="24.9" height="35.4"/>
		</g>
	</g>
	<g>
		<defs>
			<rect id="SVGID_00000079449663740700936980000003144628325170192793_" x="99.6" y="194.5" width="963" height="248.9"/>
		</defs>
		<clipPath id="SVGID_00000068639968634751501300000002465787715284544930_">
			<use xlink:href="#SVGID_00000079449663740700936980000003144628325170192793_"  style="overflow:visible;"/>
		</clipPath>
		<g style="clip-path:url(#SVGID_00000068639968634751501300000002465787715284544930_);">
			<rect x="112.9" y="194.5" class="st5" width="25" height="35.3"/>
			<rect x="144" y="194.5" class="st5" width="25" height="35.3"/>
			<rect x="175.2" y="194.5" class="st5" width="25" height="35.3"/>
			<rect x="206.3" y="194.5" class="st5" width="25" height="35.3"/>
			<rect x="237.5" y="194.5" class="st5" width="25" height="35.3"/>
			<rect x="268.6" y="194.5" class="st5" width="25" height="35.3"/>
			<rect x="299.8" y="194.5" class="st5" width="25" height="35.3"/>
			<rect x="330.9" y="194.5" class="st5" width="25" height="35.3"/>
			<rect x="362.1" y="194.5" class="st5" width="25" height="35.3"/>
			<rect x="393.2" y="194.5" class="st5" width="25" height="35.3"/>
			<rect x="424.3" y="194.5" class="st5" width="25" height="35.3"/>
			<rect x="455.5" y="194.5" class="st5" width="25" height="35.3"/>
			<rect x="486.6" y="194.5" class="st5" width="25" height="35.3"/>
			<rect x="517.8" y="194.5" class="st5" width="25" height="35.3"/>
			<rect x="548.9" y="194.5" class="st5" width="25" height="35.3"/>
			<rect x="580.1" y="194.5" class="st5" width="25" height="35.3"/>
			<rect x="611.2" y="194.5" class="st5" width="25" height="35.3"/>
			<rect x="642.4" y="194.5" class="st5" width="25" height="35.3"/>
			<rect x="673.5" y="194.5" class="st5" width="25" height="35.3"/>
			<rect x="704.6" y="194.5" class="st5" width="25" height="35.3"/>
			<rect x="735.8" y="194.5" class="st5" width="25" height="35.3"/>
			<rect x="766.9" y="194.5" class="st5" width="25" height="35.3"/>
			<rect x="798.1" y="194.5" class="st5" width="25" height="35.3"/>
			<rect x="829.2" y="194.5" class="st5" width="25" height="35.3"/>
			<rect x="860.4" y="194.5" class="st5" width="25" height="35.3"/>
			<rect x="891.5" y="194.5" class="st5" width="25" height="35.3"/>
			<rect x="922.6" y="194.5" class="st5" width="25" height="35.3"/>
			<rect x="953.8" y="194.5" class="st5" width="25" height="35.3"/>
			<rect x="984.9" y="194.5" class="st5" width="25" height="35.3"/>
			<rect x="1016.1" y="194.5" class="st5" width="25" height="35.3"/>
			<rect x="112.9" y="236" class="st5" width="25" height="35.3"/>
			<rect x="144" y="236" class="st5" width="25" height="35.3"/>
			<rect x="175.2" y="236" class="st5" width="25" height="35.3"/>
			<rect x="206.3" y="236" class="st5" width="25" height="35.3"/>
			<rect x="237.5" y="236" class="st5" width="25" height="35.3"/>
			<rect x="268.6" y="236" class="st5" width="25" height="35.3"/>
			<rect x="299.8" y="236" class="st5" width="25" height="35.3"/>
			<rect x="330.9" y="236" class="st5" width="25" height="35.3"/>
			<rect x="362.1" y="236" class="st5" width="25" height="35.3"/>
			<rect x="393.2" y="236" class="st5" width="25" height="35.3"/>
			<rect x="424.3" y="236" class="st5" width="25" height="35.3"/>
			<rect x="455.5" y="236" class="st5" width="25" height="35.3"/>
			<rect x="486.6" y="236" class="st5" width="25" height="35.3"/>
			<rect x="517.8" y="236" class="st5" width="25" height="35.3"/>
			<rect x="548.9" y="236" class="st5" width="25" height="35.3"/>
			<rect x="580.1" y="236" class="st5" width="25" height="35.3"/>
			<rect x="611.2" y="236" class="st5" width="25" height="35.3"/>
			<rect x="642.4" y="236" class="st5" width="25" height="35.3"/>
			<rect x="673.5" y="236" class="st5" width="25" height="35.3"/>
			<rect x="704.6" y="236" class="st5" width="25" height="35.3"/>
			<rect x="735.8" y="236" class="st5" width="25" height="35.3"/>
			<rect x="766.9" y="236" class="st5" width="25" height="35.3"/>
			<rect x="798.1" y="236" class="st5" width="25" height="35.3"/>
			<rect x="829.2" y="236" class="st5" width="25" height="35.3"/>
			<rect x="860.4" y="236" class="st5" width="25" height="35.3"/>
			<rect x="891.5" y="236" class="st5" width="25" height="35.3"/>
			<rect x="922.6" y="236" class="st5" width="25" height="35.3"/>
			<rect x="953.8" y="236" class="st5" width="25" height="35.3"/>
			<rect x="984.9" y="236" class="st5" width="25" height="35.3"/>
			<rect x="1016.1" y="236" class="st5" width="25" height="35.3"/>
			<rect x="112.9" y="277.5" class="st5" width="25" height="35.3"/>
			<rect x="144" y="277.5" class="st5" width="25" height="35.3"/>
			<rect x="175.2" y="277.5" class="st5" width="25" height="35.3"/>
			<rect x="206.3" y="277.5" class="st5" width="25" height="35.3"/>
			<rect x="237.5" y="277.5" class="st5" width="25" height="35.3"/>
			<rect x="268.6" y="277.5" class="st5" width="25" height="35.3"/>
			<rect x="299.8" y="277.5" class="st5" width="25" height="35.3"/>
			<rect x="330.9" y="277.5" class="st5" width="25" height="35.3"/>
			<rect x="362.1" y="277.5" class="st5" width="25" height="35.3"/>
			<rect x="393.2" y="277.5" class="st5" width="25" height="35.3"/>
			<rect x="424.3" y="277.5" class="st5" width="25" height="35.3"/>
			<rect x="455.5" y="277.5" class="st5" width="25" height="35.3"/>
			<rect x="486.6" y="277.5" class="st5" width="25" height="35.3"/>
			<rect x="517.8" y="277.5" class="st5" width="25" height="35.3"/>
			<rect x="548.9" y="277.5" class="st5" width="25" height="35.3"/>
			<rect x="580.1" y="277.5" class="st5" width="25" height="35.3"/>
			<rect x="611.2" y="277.5" class="st5" width="25" height="35.3"/>
			<rect x="642.4" y="277.5" class="st5" width="25" height="35.3"/>
			<rect x="673.5" y="277.5" class="st5" width="25" height="35.3"/>
			<rect x="704.6" y="277.5" class="st5" width="25" height="35.3"/>
			<rect x="735.8" y="277.5" class="st5" width="25" height="35.3"/>
			<rect x="766.9" y="277.5" class="st5" width="25" height="35.3"/>
			<rect x="798.1" y="277.5" class="st5" width="25" height="35.3"/>
			<rect x="829.2" y="277.5" class="st5" width="25" height="35.3"/>
			<rect x="860.4" y="277.5" class="st5" width="25" height="35.3"/>
			<rect x="891.5" y="277.5" class="st5" width="25" height="35.3"/>
			<rect x="922.6" y="277.5" class="st5" width="25" height="35.3"/>
			<rect x="953.8" y="277.5" class="st5" width="25" height="35.3"/>
			<rect x="984.9" y="277.5" class="st5" width="25" height="35.3"/>
			<rect x="1016.1" y="277.5" class="st5" width="25" height="35.3"/>
			<rect x="112.9" y="319" class="st5" width="25" height="35.3"/>
			<rect x="144" y="319" class="st5" width="25" height="35.3"/>
			<rect x="175.2" y="319" class="st5" width="25" height="35.3"/>
			<rect x="206.3" y="319" class="st5" width="25" height="35.3"/>
			<rect x="237.5" y="319" class="st5" width="25" height="35.3"/>
			<rect x="268.6" y="319" class="st5" width="25" height="35.3"/>
			<rect x="299.8" y="319" class="st5" width="25" height="35.3"/>
			<rect x="330.9" y="319" class="st5" width="25" height="35.3"/>
			<rect x="362.1" y="319" class="st5" width="25" height="35.3"/>
			<rect x="393.2" y="319" class="st5" width="25" height="35.3"/>
			<rect x="424.3" y="319" class="st5" width="25" height="35.3"/>
			<rect x="455.5" y="319" class="st5" width="25" height="35.3"/>
			<rect x="486.6" y="319" class="st5" width="25" height="35.3"/>
			<rect x="517.8" y="319" class="st5" width="25" height="35.3"/>
			<rect x="548.9" y="319" class="st5" width="25" height="35.3"/>
			<rect x="580.1" y="319" class="st5" width="25" height="35.3"/>
			<rect x="611.2" y="319" class="st5" width="25" height="35.3"/>
			<rect x="642.4" y="319" class="st5" width="25" height="35.3"/>
			<rect x="673.5" y="319" class="st5" width="25" height="35.3"/>
			<rect x="704.6" y="319" class="st5" width="25" height="35.3"/>
			<rect x="735.8" y="319" class="st5" width="25" height="35.3"/>
			<rect x="766.9" y="319" class="st5" width="25" height="35.3"/>
			<rect x="798.1" y="319" class="st5" width="25" height="35.3"/>
			<rect x="829.2" y="319" class="st5" width="25" height="35.3"/>
			<rect x="860.4" y="319" class="st5" width="25" height="35.3"/>
			<rect x="891.5" y="319" class="st5" width="25" height="35.3"/>
			<rect x="922.6" y="319" class="st5" width="25" height="35.3"/>
			<rect x="953.8" y="319" class="st5" width="25" height="35.3"/>
			<rect x="984.9" y="319" class="st5" width="25" height="35.3"/>
			<rect x="1016.1" y="319" class="st5" width="25" height="35.3"/>
			<rect x="112.9" y="360.6" class="st5" width="25" height="35.3"/>
			<rect x="144" y="360.6" class="st5" width="25" height="35.3"/>
			<rect x="175.2" y="360.6" class="st5" width="25" height="35.3"/>
			<rect x="206.3" y="360.6" class="st5" width="25" height="35.3"/>
			<rect x="237.5" y="360.6" class="st5" width="25" height="35.3"/>
			<rect x="268.6" y="360.6" class="st5" width="25" height="35.3"/>
			<rect x="299.8" y="360.6" class="st5" width="25" height="35.3"/>
			<rect x="330.9" y="360.6" class="st5" width="25" height="35.3"/>
			<rect x="362.1" y="360.6" class="st5" width="25" height="35.3"/>
			<rect x="393.2" y="360.6" class="st5" width="25" height="35.3"/>
			<rect x="424.3" y="360.6" class="st5" width="25" height="35.3"/>
			<rect x="455.5" y="360.6" class="st5" width="25" height="35.3"/>
			<rect x="486.6" y="360.6" class="st5" width="25" height="35.3"/>
			<rect x="517.8" y="360.6" class="st5" width="25" height="35.3"/>
			<rect x="548.9" y="360.6" class="st5" width="25" height="35.3"/>
			<rect x="580.1" y="360.6" class="st5" width="25" height="35.3"/>
			<rect x="611.2" y="360.6" class="st5" width="25" height="35.3"/>
			<rect x="642.4" y="360.6" class="st5" width="25" height="35.3"/>
			<rect x="673.5" y="360.6" class="st5" width="25" height="35.3"/>
			<rect x="704.6" y="360.6" class="st5" width="25" height="35.3"/>
			<rect x="735.8" y="360.6" class="st5" width="25" height="35.3"/>
			<rect x="766.9" y="360.6" class="st5" width="25" height="35.3"/>
			<rect x="798.1" y="360.6" class="st5" width="25" height="35.3"/>
			<rect x="829.2" y="360.6" class="st5" width="25" height="35.3"/>
			<rect x="860.4" y="360.6" class="st5" width="25" height="35.3"/>
			<rect x="891.5" y="360.6" class="st5" width="25" height="35.3"/>
			<rect x="922.6" y="360.6" class="st5" width="25" height="35.3"/>
			<rect x="953.8" y="360.6" class="st5" width="25" height="35.3"/>
			<rect x="984.9" y="360.6" class="st5" width="25" height="35.3"/>
			<rect x="1016.1" y="360.6" class="st5" width="25" height="35.3"/>
			<rect x="112.9" y="402.1" class="st5" width="25" height="35.3"/>
			<rect x="144" y="402.1" class="st5" width="25" height="35.3"/>
			<rect x="175.2" y="402.1" class="st5" width="25" height="35.3"/>
			<rect x="206.3" y="402.1" class="st5" width="25" height="35.3"/>
			<rect x="237.5" y="402.1" class="st5" width="25" height="35.3"/>
			<rect x="268.6" y="402.1" class="st5" width="25" height="35.3"/>
			<rect x="299.8" y="402.1" class="st5" width="25" height="35.3"/>
			<rect x="330.9" y="402.1" class="st5" width="25" height="35.3"/>
			<rect x="362.1" y="402.1" class="st5" width="25" height="35.3"/>
			<rect x="393.2" y="402.1" class="st5" width="25" height="35.3"/>
			<rect x="424.3" y="402.1" class="st5" width="25" height="35.3"/>
			<rect x="455.5" y="402.1" class="st5" width="25" height="35.3"/>
			<rect x="486.6" y="402.1" class="st5" width="25" height="35.3"/>
			<rect x="517.8" y="402.1" class="st5" width="25" height="35.3"/>
			<rect x="548.9" y="402.1" class="st5" width="25" height="35.3"/>
			<rect x="580.1" y="402.1" class="st5" width="25" height="35.3"/>
			<rect x="611.2" y="402.1" class="st5" width="25" height="35.3"/>
			<rect x="642.4" y="402.1" class="st5" width="25" height="35.3"/>
			<rect x="673.5" y="402.1" class="st5" width="25" height="35.3"/>
			<rect x="704.6" y="402.1" class="st5" width="25" height="35.3"/>
			<rect x="735.8" y="402.1" class="st5" width="25" height="35.3"/>
			<rect x="766.9" y="402.1" class="st5" width="25" height="35.3"/>
			<rect x="798.1" y="402.1" class="st5" width="25" height="35.3"/>
			<rect x="829.2" y="402.1" class="st5" width="25" height="35.3"/>
			<rect x="860.4" y="402.1" class="st5" width="25" height="35.3"/>
			<rect x="891.5" y="402.1" class="st5" width="25" height="35.3"/>
			<rect x="922.6" y="402.1" class="st5" width="25" height="35.3"/>
			<rect x="953.8" y="402.1" class="st5" width="25" height="35.3"/>
			<rect x="984.9" y="402.1" class="st5" width="25" height="35.3"/>
			<rect x="1016.1" y="402.1" class="st5" width="25" height="35.3"/>
			<rect x="112.9" y="443.6" class="st5" width="25" height="35.3"/>
			<rect x="144" y="443.6" class="st5" width="25" height="35.3"/>
			<rect x="175.2" y="443.6" class="st5" width="25" height="35.3"/>
			<rect x="206.3" y="443.6" class="st5" width="25" height="35.3"/>
			<rect x="237.5" y="443.6" class="st5" width="25" height="35.3"/>
			<rect x="268.6" y="443.6" class="st5" width="25" height="35.3"/>
			<rect x="299.8" y="443.6" class="st5" width="25" height="35.3"/>
			<rect x="330.9" y="443.6" class="st5" width="25" height="35.3"/>
			<rect x="362.1" y="443.6" class="st5" width="25" height="35.3"/>
			<rect x="393.2" y="443.6" class="st5" width="25" height="35.3"/>
			<rect x="424.3" y="443.6" class="st5" width="25" height="35.3"/>
			<rect x="455.5" y="443.6" class="st5" width="25" height="35.3"/>
			<rect x="486.6" y="443.6" class="st5" width="25" height="35.3"/>
			<rect x="517.8" y="443.6" class="st5" width="25" height="35.3"/>
			<rect x="548.9" y="443.6" class="st5" width="25" height="35.3"/>
			<rect x="580.1" y="443.6" class="st5" width="25" height="35.3"/>
			<rect x="611.2" y="443.6" class="st5" width="25" height="35.3"/>
			<rect x="642.4" y="443.6" class="st5" width="25" height="35.3"/>
			<rect x="673.5" y="443.6" class="st5" width="25" height="35.3"/>
			<rect x="704.6" y="443.6" class="st5" width="25" height="35.3"/>
			<rect x="735.8" y="443.6" class="st5" width="25" height="35.3"/>
			<rect x="766.9" y="443.6" class="st5" width="25" height="35.3"/>
			<rect x="798.1" y="443.6" class="st5" width="25" height="35.3"/>
			<rect x="829.2" y="443.6" class="st5" width="25" height="35.3"/>
			<rect x="860.4" y="443.6" class="st5" width="25" height="35.3"/>
			<rect x="891.5" y="443.6" class="st5" width="25" height="35.3"/>
			<rect x="922.6" y="443.6" class="st5" width="25" height="35.3"/>
			<rect x="953.8" y="443.6" class="st5" width="25" height="35.3"/>
			<rect x="984.9" y="443.6" class="st5" width="25" height="35.3"/>
			<rect x="1016.1" y="443.6" class="st5" width="25" height="35.3"/>
			<rect x="112.9" y="485.2" class="st5" width="25" height="35.3"/>
			<rect x="144" y="485.2" class="st5" width="25" height="35.3"/>
			<rect x="175.2" y="485.2" class="st5" width="25" height="35.3"/>
			<rect x="206.3" y="485.2" class="st5" width="25" height="35.3"/>
			<rect x="237.5" y="485.2" class="st5" width="25" height="35.3"/>
			<rect x="268.6" y="485.2" class="st5" width="25" height="35.3"/>
			<rect x="299.8" y="485.2" class="st5" width="25" height="35.3"/>
			<rect x="330.9" y="485.2" class="st5" width="25" height="35.3"/>
			<rect x="362.1" y="485.2" class="st5" width="25" height="35.3"/>
			<rect x="393.2" y="485.2" class="st5" width="25" height="35.3"/>
			<rect x="424.3" y="485.2" class="st5" width="25" height="35.3"/>
			<rect x="455.5" y="485.2" class="st5" width="25" height="35.3"/>
			<rect x="486.6" y="485.2" class="st5" width="25" height="35.3"/>
			<rect x="517.8" y="485.2" class="st5" width="25" height="35.3"/>
			<rect x="548.9" y="485.2" class="st5" width="25" height="35.3"/>
			<rect x="580.1" y="485.2" class="st5" width="25" height="35.3"/>
			<rect x="611.2" y="485.2" class="st5" width="25" height="35.3"/>
			<rect x="642.4" y="485.2" class="st5" width="25" height="35.3"/>
			<rect x="673.5" y="485.2" class="st5" width="25" height="35.3"/>
			<rect x="704.6" y="485.2" class="st5" width="25" height="35.3"/>
			<rect x="735.8" y="485.2" class="st5" width="25" height="35.3"/>
			<rect x="766.9" y="485.2" class="st5" width="25" height="35.3"/>
			<rect x="798.1" y="485.2" class="st5" width="25" height="35.3"/>
			<rect x="829.2" y="485.2" class="st5" width="25" height="35.3"/>
			<rect x="860.4" y="485.2" class="st5" width="25" height="35.3"/>
			<rect x="891.5" y="485.2" class="st5" width="25" height="35.3"/>
			<rect x="922.6" y="485.2" class="st5" width="25" height="35.3"/>
			<rect x="953.8" y="485.2" class="st5" width="25" height="35.3"/>
			<rect x="984.9" y="485.2" class="st5" width="25" height="35.3"/>
			<rect x="1016.1" y="485.2" class="st5" width="25" height="35.3"/>
			<rect x="112.9" y="526.7" class="st5" width="25" height="35.3"/>
			<rect x="144" y="526.7" class="st5" width="25" height="35.3"/>
			<rect x="175.2" y="526.7" class="st5" width="25" height="35.3"/>
			<rect x="206.3" y="526.7" class="st5" width="25" height="35.3"/>
			<rect x="237.5" y="526.7" class="st5" width="25" height="35.3"/>
			<rect x="268.6" y="526.7" class="st5" width="25" height="35.3"/>
			<rect x="299.8" y="526.7" class="st5" width="25" height="35.3"/>
			<rect x="330.9" y="526.7" class="st5" width="25" height="35.3"/>
			<rect x="362.1" y="526.7" class="st5" width="25" height="35.3"/>
			<rect x="393.2" y="526.7" class="st5" width="25" height="35.3"/>
			<rect x="424.3" y="526.7" class="st5" width="25" height="35.3"/>
			<rect x="455.5" y="526.7" class="st5" width="25" height="35.3"/>
			<rect x="486.6" y="526.7" class="st5" width="25" height="35.3"/>
			<rect x="517.8" y="526.7" class="st5" width="25" height="35.3"/>
			<rect x="548.9" y="526.7" class="st5" width="25" height="35.3"/>
			<rect x="580.1" y="526.7" class="st5" width="25" height="35.3"/>
			<rect x="611.2" y="526.7" class="st5" width="25" height="35.3"/>
			<rect x="642.4" y="526.7" class="st5" width="25" height="35.3"/>
			<rect x="673.5" y="526.7" class="st5" width="25" height="35.3"/>
			<rect x="704.6" y="526.7" class="st5" width="25" height="35.3"/>
			<rect x="735.8" y="526.7" class="st5" width="25" height="35.3"/>
			<rect x="766.9" y="526.7" class="st5" width="25" height="35.3"/>
			<rect x="798.1" y="526.7" class="st5" width="25" height="35.3"/>
			<rect x="829.2" y="526.7" class="st5" width="25" height="35.3"/>
			<rect x="860.4" y="526.7" class="st5" width="25" height="35.3"/>
			<rect x="891.5" y="526.7" class="st5" width="25" height="35.3"/>
			<rect x="922.6" y="526.7" class="st5" width="25" height="35.3"/>
			<rect x="953.8" y="526.7" class="st5" width="25" height="35.3"/>
			<rect x="984.9" y="526.7" class="st5" width="25" height="35.3"/>
			<rect x="1016.1" y="526.7" class="st5" width="25" height="35.3"/>
			<rect x="112.9" y="568.2" class="st5" width="25" height="35.3"/>
			<rect x="144" y="568.2" class="st5" width="25" height="35.3"/>
			<rect x="175.2" y="568.2" class="st5" width="25" height="35.3"/>
			<rect x="206.3" y="568.2" class="st5" width="25" height="35.3"/>
			<rect x="237.5" y="568.2" class="st5" width="25" height="35.3"/>
			<rect x="268.6" y="568.2" class="st5" width="25" height="35.3"/>
			<rect x="299.8" y="568.2" class="st5" width="25" height="35.3"/>
			<rect x="330.9" y="568.2" class="st5" width="25" height="35.3"/>
			<rect x="362.1" y="568.2" class="st5" width="25" height="35.3"/>
			<rect x="393.2" y="568.2" class="st5" width="25" height="35.3"/>
			<rect x="424.3" y="568.2" class="st5" width="25" height="35.3"/>
			<rect x="455.5" y="568.2" class="st5" width="25" height="35.3"/>
			<rect x="486.6" y="568.2" class="st5" width="25" height="35.3"/>
			<rect x="517.8" y="568.2" class="st5" width="25" height="35.3"/>
			<rect x="548.9" y="568.2" class="st5" width="25" height="35.3"/>
			<rect x="580.1" y="568.2" class="st5" width="25" height="35.3"/>
			<rect x="611.2" y="568.2" class="st5" width="25" height="35.3"/>
			<rect x="642.4" y="568.2" class="st5" width="25" height="35.3"/>
			<rect x="673.5" y="568.2" class="st5" width="25" height="35.3"/>
			<rect x="704.6" y="568.2" class="st5" width="25" height="35.3"/>
			<rect x="735.8" y="568.2" class="st5" width="25" height="35.3"/>
			<rect x="766.9" y="568.2" class="st5" width="25" height="35.3"/>
			<rect x="798.1" y="568.2" class="st5" width="25" height="35.3"/>
			<rect x="829.2" y="568.2" class="st5" width="25" height="35.3"/>
			<rect x="860.4" y="568.2" class="st5" width="25" height="35.3"/>
			<rect x="891.5" y="568.2" class="st5" width="25" height="35.3"/>
			<rect x="922.6" y="568.2" class="st5" width="25" height="35.3"/>
			<rect x="953.8" y="568.2" class="st5" width="25" height="35.3"/>
			<rect x="984.9" y="568.2" class="st5" width="25" height="35.3"/>
			<rect x="1016.1" y="568.2" class="st5" width="25" height="35.3"/>
			<rect x="112.9" y="609.8" class="st5" width="25" height="35.3"/>
			<rect x="144" y="609.8" class="st5" width="25" height="35.3"/>
			<rect x="175.2" y="609.8" class="st5" width="25" height="35.3"/>
			<rect x="206.3" y="609.8" class="st5" width="25" height="35.3"/>
			<rect x="237.5" y="609.8" class="st5" width="25" height="35.3"/>
			<rect x="268.6" y="609.8" class="st5" width="25" height="35.3"/>
			<rect x="299.8" y="609.8" class="st5" width="25" height="35.3"/>
			<rect x="330.9" y="609.8" class="st5" width="25" height="35.3"/>
			<rect x="362.1" y="609.8" class="st5" width="25" height="35.3"/>
			<rect x="393.2" y="609.8" class="st5" width="25" height="35.3"/>
			<rect x="424.3" y="609.8" class="st5" width="25" height="35.3"/>
			<rect x="455.5" y="609.8" class="st5" width="25" height="35.3"/>
			<rect x="486.6" y="609.8" class="st5" width="25" height="35.3"/>
			<rect x="517.8" y="609.8" class="st5" width="25" height="35.3"/>
			<rect x="548.9" y="609.8" class="st5" width="25" height="35.3"/>
			<rect x="580.1" y="609.8" class="st5" width="25" height="35.3"/>
			<rect x="611.2" y="609.8" class="st5" width="25" height="35.3"/>
			<rect x="642.4" y="609.8" class="st5" width="25" height="35.3"/>
			<rect x="673.5" y="609.8" class="st5" width="25" height="35.3"/>
			<rect x="704.6" y="609.8" class="st5" width="25" height="35.3"/>
			<rect x="735.8" y="609.8" class="st5" width="25" height="35.3"/>
			<rect x="766.9" y="609.8" class="st5" width="25" height="35.3"/>
			<rect x="798.1" y="609.8" class="st5" width="25" height="35.3"/>
			<rect x="829.2" y="609.8" class="st5" width="25" height="35.3"/>
			<rect x="860.4" y="609.8" class="st5" width="25" height="35.3"/>
			<rect x="891.5" y="609.8" class="st5" width="25" height="35.3"/>
			<rect x="922.6" y="609.8" class="st5" width="25" height="35.3"/>
			<rect x="953.8" y="609.8" class="st5" width="25" height="35.3"/>
			<rect x="984.9" y="609.8" class="st5" width="25" height="35.3"/>
			<rect x="1016.1" y="609.8" class="st5" width="25" height="35.3"/>
			<rect x="112.9" y="651.3" class="st5" width="25" height="35.3"/>
			<rect x="144" y="651.3" class="st5" width="25" height="35.3"/>
			<rect x="175.2" y="651.3" class="st5" width="25" height="35.3"/>
			<rect x="206.3" y="651.3" class="st5" width="25" height="35.3"/>
			<rect x="237.5" y="651.3" class="st5" width="25" height="35.3"/>
			<rect x="268.6" y="651.3" class="st5" width="25" height="35.3"/>
			<rect x="299.8" y="651.3" class="st5" width="25" height="35.3"/>
			<rect x="330.9" y="651.3" class="st5" width="25" height="35.3"/>
			<rect x="362.1" y="651.3" class="st5" width="25" height="35.3"/>
			<rect x="393.2" y="651.3" class="st5" width="25" height="35.3"/>
			<rect x="424.3" y="651.3" class="st5" width="25" height="35.3"/>
			<rect x="455.5" y="651.3" class="st5" width="25" height="35.3"/>
			<rect x="486.6" y="651.3" class="st5" width="25" height="35.3"/>
			<rect x="517.8" y="651.3" class="st5" width="25" height="35.3"/>
			<rect x="548.9" y="651.3" class="st5" width="25" height="35.3"/>
			<rect x="580.1" y="651.3" class="st5" width="25" height="35.3"/>
			<rect x="611.2" y="651.3" class="st5" width="25" height="35.3"/>
			<rect x="642.4" y="651.3" class="st5" width="25" height="35.3"/>
			<rect x="673.5" y="651.3" class="st5" width="25" height="35.3"/>
			<rect x="704.6" y="651.3" class="st5" width="25" height="35.3"/>
			<rect x="735.8" y="651.3" class="st5" width="25" height="35.3"/>
			<rect x="766.9" y="651.3" class="st5" width="25" height="35.3"/>
			<rect x="798.1" y="651.3" class="st5" width="25" height="35.3"/>
			<rect x="829.2" y="651.3" class="st5" width="25" height="35.3"/>
			<rect x="860.4" y="651.3" class="st5" width="25" height="35.3"/>
			<rect x="891.5" y="651.3" class="st5" width="25" height="35.3"/>
			<rect x="922.6" y="651.3" class="st5" width="25" height="35.3"/>
			<rect x="953.8" y="651.3" class="st5" width="25" height="35.3"/>
			<rect x="984.9" y="651.3" class="st5" width="25" height="35.3"/>
			<rect x="1016.1" y="651.3" class="st5" width="25" height="35.3"/>
			<rect x="112.9" y="692.8" class="st5" width="25" height="35.3"/>
			<rect x="144" y="692.8" class="st5" width="25" height="35.3"/>
			<rect x="175.2" y="692.8" class="st5" width="25" height="35.3"/>
			<rect x="206.3" y="692.8" class="st5" width="25" height="35.3"/>
			<rect x="237.5" y="692.8" class="st5" width="25" height="35.3"/>
			<rect x="268.6" y="692.8" class="st5" width="25" height="35.3"/>
			<rect x="299.8" y="692.8" class="st5" width="25" height="35.3"/>
			<rect x="330.9" y="692.8" class="st5" width="25" height="35.3"/>
			<rect x="362.1" y="692.8" class="st5" width="25" height="35.3"/>
			<rect x="393.2" y="692.8" class="st5" width="25" height="35.3"/>
			<rect x="424.3" y="692.8" class="st5" width="25" height="35.3"/>
			<rect x="455.5" y="692.8" class="st5" width="25" height="35.3"/>
			<rect x="486.6" y="692.8" class="st5" width="25" height="35.3"/>
			<rect x="517.8" y="692.8" class="st5" width="25" height="35.3"/>
			<rect x="548.9" y="692.8" class="st5" width="25" height="35.3"/>
			<rect x="580.1" y="692.8" class="st5" width="25" height="35.3"/>
			<rect x="611.2" y="692.8" class="st5" width="25" height="35.3"/>
			<rect x="642.4" y="692.8" class="st5" width="25" height="35.3"/>
			<rect x="673.5" y="692.8" class="st5" width="25" height="35.3"/>
			<rect x="704.6" y="692.8" class="st5" width="25" height="35.3"/>
			<rect x="735.8" y="692.8" class="st5" width="25" height="35.3"/>
			<rect x="766.9" y="692.8" class="st5" width="25" height="35.3"/>
			<rect x="798.1" y="692.8" class="st5" width="25" height="35.3"/>
			<rect x="829.2" y="692.8" class="st5" width="25" height="35.3"/>
			<rect x="860.4" y="692.8" class="st5" width="25" height="35.3"/>
			<rect x="891.5" y="692.8" class="st5" width="25" height="35.3"/>
			<rect x="922.6" y="692.8" class="st5" width="25" height="35.3"/>
			<rect x="953.8" y="692.8" class="st5" width="25" height="35.3"/>
			<rect x="984.9" y="692.8" class="st5" width="25" height="35.3"/>
			<rect x="1016.1" y="692.8" class="st5" width="25" height="35.3"/>
		</g>
	</g>
</g>
<g id="Textos">
	<text transform="matrix(1 0 0 1 153.5946 108.4747)" class="st6 st15 st16">10 personas</text>
	<text transform="matrix(1 0 0 1 1715.8735 468.4972)" class="st6 st15 st16">Chaitén</text>
	<text transform="matrix(1 0 0 1 1715.8735 516.2794)" class="st6 st15 st16">Futalefú</text>
	<text transform="matrix(1 0 0 1 1715.8735 564.0611)" class="st6 st15 st16">Palena</text>
	<text transform="matrix(1 0 0 1 326.0273 110.3091)" class="st6 st15 st17">=</text>
</g>
</svg>
